<svg fill="none" height="16" viewBox="0 0 16 16" width="16" xmlns="http://www.w3.org/2000/svg" xmlns:xlink="http://www.w3.org/1999/xlink"><linearGradient id="a"><stop offset="0" stop-color="#01275d"/><stop offset=".1899" stop-color="#015082"/><stop offset=".4602" stop-color="#0085b2"/><stop offset=".6951" stop-color="#00abd5"/><stop offset=".8829" stop-color="#00c2ea"/><stop offset="1" stop-color="#00cbf2"/></linearGradient><linearGradient id="b" gradientUnits="userSpaceOnUse" x1="12.2539" x2="7.57369" xlink:href="#a" y1="16.9331" y2="-1.88251"/><linearGradient id="c" gradientUnits="userSpaceOnUse" x1="9.357" x2="6.73223" xlink:href="#a" y1="10.9923" y2="3.22276"/><linearGradient id="d" gradientUnits="userSpaceOnUse" x1="8.35104" x2="7.96492" xlink:href="#a" y1="12.345" y2="10.7927"/><path d="m8 0c-4.412 0-8 3.588-8 8s3.588 8 8 8 8-3.588 8-8-3.588-8-8-8zm0 14.952c-3.832 0-6.952-3.12-6.952-6.952s3.12-6.952 6.952-6.952 6.952 3.12 6.952 6.952-3.12 6.952-6.952 6.952z" fill="url(#b)"/><path d="m8 3.65601c-1.408 0-2.552 1.144-2.552 2.552 0 .288.236.524.524.524s.524-.236.524-.524c0-.828.672-1.504 1.504-1.504.828 0 1.504.676 1.504 1.504s-.672 1.504-1.504 1.504c-.288 0-.524.236-.524.524v1.82799c0 .288.236.524.524.524s.524-.236.524-.524v-1.35599c1.156-.244 2.028-1.268 2.028-2.496 0-1.412-1.144-2.556-2.552-2.556z" fill="url(#c)"/><path d="m8.00009 10.948c-.364 0-.66.296-.66.66s.296.66.66.66.66-.296.66-.66-.296-.66-.66-.66z" fill="url(#d)"/></svg>