<?xml version="1.0" encoding="UTF-8"?> <svg xmlns="http://www.w3.org/2000/svg" xmlns:xlink="http://www.w3.org/1999/xlink" viewBox="0 0 126.06 169.71"> <defs> <style>.cls-1{fill:none;}.cls-2{clip-path:url(#clip-path);}.cls-3{fill:#e8e8ea;}.cls-4{opacity:0.36;}.cls-5{fill:#251a51;}.cls-6{fill:#353584;}.cls-7{opacity:0.59;}.cls-8{fill:url(#Degradado_sin_nombre_6);}.cls-9{fill:url(#Degradado_sin_nombre_6-2);}.cls-10{fill:url(#Degradado_sin_nombre_6-3);}.cls-11{fill:url(#Degradado_sin_nombre_6-4);}.cls-12{fill:url(#Degradado_sin_nombre_6-5);}.cls-13{fill:url(#Degradado_sin_nombre_6-6);}.cls-14{fill:#f0bfac;}.cls-15{fill:url(#Degradado_sin_nombre_11);}.cls-16{fill:url(#Degradado_sin_nombre_11-2);}.cls-17{fill:url(#Degradado_sin_nombre_11-3);}.cls-18,.cls-21{fill:#edc483;}.cls-19{fill:#fff;}.cls-20,.cls-21{opacity:0.48;}.cls-22{fill:#db5e77;}.cls-23{fill:url(#Degradado_sin_nombre_11-4);}.cls-24{fill:#a1e0dc;}.cls-25,.cls-26,.cls-27{opacity:0.54;}.cls-25{fill:url(#Degradado_sin_nombre_22);}.cls-26{fill:url(#Degradado_sin_nombre_22-2);}.cls-27{fill:url(#Degradado_sin_nombre_22-3);}.cls-28{fill:url(#Degradado_sin_nombre_22-4);}.cls-29{fill:#4a4182;}.cls-30{fill:#b2eaf9;}</style> <clipPath id="clip-path" transform="translate(-10.46 -19.9)"> <path class="cls-1" d="M0,139.5H164V15.5c-11.05,8-31.6,8.42-43.41,1-6.71-4.21-11.36-10.71-20.24-12.09C92,3.11,84,7,76.45,9.79c-10.42,3.8-23.87,5.48-33.67,1C36.41,7.83,32.61,2.75,26.06,0"></path> </clipPath> <linearGradient id="Degradado_sin_nombre_6" x1="75.7" y1="7.31" x2="43.53" y2="55.77" gradientUnits="userSpaceOnUse"> <stop offset="0.05" stop-color="#6bc1cd"></stop> <stop offset="1" stop-color="#a8eba4"></stop> </linearGradient> <linearGradient id="Degradado_sin_nombre_6-2" x1="91.88" y1="18.04" x2="59.7" y2="66.51" xlink:href="#Degradado_sin_nombre_6"></linearGradient> <linearGradient id="Degradado_sin_nombre_6-3" x1="95.26" y1="20.29" x2="63.09" y2="68.75" xlink:href="#Degradado_sin_nombre_6"></linearGradient> <linearGradient id="Degradado_sin_nombre_6-4" x1="73.19" y1="5.64" x2="41.02" y2="54.1" xlink:href="#Degradado_sin_nombre_6"></linearGradient> <linearGradient id="Degradado_sin_nombre_6-5" x1="82.64" y1="11.91" x2="50.47" y2="60.38" xlink:href="#Degradado_sin_nombre_6"></linearGradient> <linearGradient id="Degradado_sin_nombre_6-6" x1="87.6" y1="15.2" x2="55.43" y2="63.67" xlink:href="#Degradado_sin_nombre_6"></linearGradient> <linearGradient id="Degradado_sin_nombre_11" x1="30.11" y1="32.93" x2="36.12" y2="106.04" gradientUnits="userSpaceOnUse"> <stop offset="0.01" stop-color="#dd85c5"></stop> <stop offset="1" stop-color="#6f75d5"></stop> </linearGradient> <linearGradient id="Degradado_sin_nombre_11-2" x1="56.93" y1="30.72" x2="62.94" y2="103.84" xlink:href="#Degradado_sin_nombre_11"></linearGradient> <linearGradient id="Degradado_sin_nombre_11-3" x1="14.88" y1="35.54" x2="20.77" y2="107.22" xlink:href="#Degradado_sin_nombre_11"></linearGradient> <linearGradient id="Degradado_sin_nombre_11-4" x1="63.66" y1="91.29" x2="94.34" y2="91.29" xlink:href="#Degradado_sin_nombre_11"></linearGradient> <linearGradient id="Degradado_sin_nombre_22" x1="89.2" y1="62.02" x2="96.04" y2="80.53" gradientUnits="userSpaceOnUse"> <stop offset="0" stop-color="#e58f7e"></stop> <stop offset="0.14" stop-color="#e4857e"></stop> <stop offset="0.7" stop-color="#e0637f"></stop> <stop offset="1" stop-color="#de567f"></stop> </linearGradient> <linearGradient id="Degradado_sin_nombre_22-2" x1="92.28" y1="60.88" x2="99.12" y2="79.39" xlink:href="#Degradado_sin_nombre_22"></linearGradient> <linearGradient id="Degradado_sin_nombre_22-3" x1="95.56" y1="59.67" x2="102.4" y2="78.18" xlink:href="#Degradado_sin_nombre_22"></linearGradient> <linearGradient id="Degradado_sin_nombre_22-4" x1="123.48" y1="52.33" x2="130.9" y2="52.33" xlink:href="#Degradado_sin_nombre_22"></linearGradient> </defs> <title>Asset 4</title> <g id="Layer_2" data-name="Layer 2"> <g id="Objects"> <g class="cls-2"> <path class="cls-3" d="M50.75,31.71V73.87a1.7,1.7,0,0,0,1.7,1.69H108.6a1.69,1.69,0,0,0,1.69-1.69V30.25a1.7,1.7,0,0,0-1.74-1.7L52.41,30A1.7,1.7,0,0,0,50.75,31.71Z" transform="translate(-10.46 -19.9)"></path> <g class="cls-4"> <path class="cls-5" d="M69.73,65.6a10.28,10.28,0,0,1-3,.22,10.28,10.28,0,0,1-3-.22,10.28,10.28,0,0,1,3-.22A10.28,10.28,0,0,1,69.73,65.6Z" transform="translate(-10.46 -19.9)"></path> </g> <g class="cls-4"> <path class="cls-5" d="M62.89,65.6a10.18,10.18,0,0,1-3,.22,10.28,10.28,0,0,1-3-.22,10.28,10.28,0,0,1,3-.22A10.18,10.18,0,0,1,62.89,65.6Z" transform="translate(-10.46 -19.9)"></path> </g> <path class="cls-6" d="M105.28,39.09s-.71-.36-2.08-.79a13.33,13.33,0,0,0-6-.44,13.09,13.09,0,0,0-3.93,1.26,19,19,0,0,0-3.87,2.78c-1.26,1.12-2.52,2.39-4,3.56a13.7,13.7,0,0,1-5.07,2.75,7.85,7.85,0,0,1-3,.18,10.05,10.05,0,0,1-2.74-.85,47.36,47.36,0,0,1-4.6-2.74,14.45,14.45,0,0,0-4.32-1.93,12.59,12.59,0,0,0-4.12-.32A13.13,13.13,0,0,0,56,44.4c-1.22.74-1.8,1.3-1.83,1.26a2.71,2.71,0,0,1,.41-.4,10.82,10.82,0,0,1,1.32-1,13,13,0,0,1,10-1.74,14.16,14.16,0,0,1,4.45,2,49.06,49.06,0,0,0,4.57,2.69,7.9,7.9,0,0,0,5.42.63,13.39,13.39,0,0,0,4.91-2.66c1.43-1.14,2.69-2.4,4-3.52a18.16,18.16,0,0,1,4-2.8,13.33,13.33,0,0,1,4-1.25,13,13,0,0,1,6.06.59,9.57,9.57,0,0,1,1.52.66A2.92,2.92,0,0,1,105.28,39.09Z" transform="translate(-10.46 -19.9)"></path> <g class="cls-7"> <rect class="cls-8" x="53.56" y="29.1" width="5.49" height="14.85"></rect> <rect class="cls-9" x="76.87" y="29.1" width="5.49" height="14.85"></rect> <rect class="cls-10" x="84.63" y="20.37" width="5.49" height="23.58"></rect> <rect class="cls-11" x="46.45" y="39.27" width="5.49" height="5"></rect> <rect class="cls-12" x="61.33" y="35.8" width="5.49" height="8.15"></rect> <rect class="cls-13" x="69.1" y="33.93" width="5.49" height="10.02"></rect> </g> <path class="cls-14" d="M32.1,55.8V70.63h7.27V67.76s3.63.45,3.93-.61,0-13.32,0-13.32Z" transform="translate(-10.46 -19.9)"></path> <path class="cls-15" d="M24.38,71.54l-1.82,36,26.8-1.67S47.84,72,45.87,70.63,25.74,69.42,24.38,71.54Z" transform="translate(-10.46 -19.9)"></path> <path class="cls-16" d="M44.51,70.63s14.38-1.81,15.14-2.57,9.69-14.23,9.69-14.23,5.75,1.36,5.45,3.48c0,0-9.84,17.26-10.9,17.41S48,84.15,48,84.15Z" transform="translate(-10.46 -19.9)"></path> <path class="cls-17" d="M25.06,71.05s-7.13.21-9.55,12.12-4.84,16.31,0,18a31,31,0,0,0,9.08,1.67Z" transform="translate(-10.46 -19.9)"></path> <path class="cls-5" d="M24.09,107.47,10.46,189.6h9.08s16.65-76.43,17.25-72.8.31,73,.91,72.8,9.39,0,9.39,0S48.56,106,48.59,106Z" transform="translate(-10.46 -19.9)"></path> <path class="cls-5" d="M32.1,67s5.91.68,7-1.5l.67-1.88s-1.12,0-.9-1.8,1.65-1.95,2.55-1.28l.68-2.4s2.63-1.65,2.78-2.7.15-4.73-2-4.06a16.7,16.7,0,0,1-3.68,1c-1,.07-8.18.07-8.26,4.13,0,0-1.43-.6-1.05,1.88S31.89,62.92,32.1,67Z" transform="translate(-10.46 -19.9)"></path> <path class="cls-14" d="M70.14,54.05s-.09-2.76.28-3.3,5.73-4.61,6.11-4.08-2,1.9-1.73,2.48a.61.61,0,0,1,.49.86l-.17.62s.46-.21.58,0a5.13,5.13,0,0,1-.08,1.44s.45-.78.53-.28a4.61,4.61,0,0,1-.78,3.34l-.93,1.09Z" transform="translate(-10.46 -19.9)"></path> <g class="cls-4"> <path class="cls-5" d="M101.66,65.6a13,13,0,0,1-3.35.22A13.14,13.14,0,0,1,95,65.6a13.14,13.14,0,0,1,3.36-.22A13,13,0,0,1,101.66,65.6Z" transform="translate(-10.46 -19.9)"></path> </g> <g class="cls-4"> <path class="cls-5" d="M93.5,65.6a13,13,0,0,1-3.35.22,13,13,0,0,1-3.35-.22,13,13,0,0,1,3.35-.22A13,13,0,0,1,93.5,65.6Z" transform="translate(-10.46 -19.9)"></path> </g> <g class="cls-4"> <path class="cls-5" d="M85,65.6a10.18,10.18,0,0,1-3,.22,10.28,10.28,0,0,1-3-.22,10.28,10.28,0,0,1,3-.22A10.18,10.18,0,0,1,85,65.6Z" transform="translate(-10.46 -19.9)"></path> </g> <g class="cls-4"> <path class="cls-5" d="M77,65.6a10.28,10.28,0,0,1-3,.22,10.28,10.28,0,0,1-3-.22,10.28,10.28,0,0,1,3-.22A10.28,10.28,0,0,1,77,65.6Z" transform="translate(-10.46 -19.9)"></path> </g> <polygon class="cls-3" points="8.43 15.03 9.41 25.34 24.08 23.71 25.5 28.34 26.88 23.01 34.06 22.37 32.23 8.63 8.43 15.03"></polygon> <polygon class="cls-18" points="49.2 0 48.38 15.03 66.11 15.03 66.82 18.68 67.79 15.03 81.42 15.03 82.36 1.04 49.2 0"></polygon> <path class="cls-19" d="M69.18,26.93A3.15,3.15,0,1,1,66,23.79,3.14,3.14,0,0,1,69.18,26.93Z" transform="translate(-10.46 -19.9)"></path> <path class="cls-19" d="M71.78,24.72c5.44.35,10.89.23,16.31.72.4,0,.4-.6,0-.62-5.42-.22-10.88-.71-16.31-.39a.15.15,0,0,0,0,.29Z" transform="translate(-10.46 -19.9)"></path> <path class="cls-19" d="M71.78,27c5.44.36,10.89.23,16.31.72.4,0,.4-.6,0-.62-5.42-.22-10.88-.71-16.31-.39a.15.15,0,0,0,0,.29Z" transform="translate(-10.46 -19.9)"></path> <path class="cls-19" d="M71.78,29.56c5.44.36,10.89.23,16.31.72.4,0,.4-.6,0-.62-5.42-.21-10.88-.71-16.31-.39a.15.15,0,0,0,0,.29Z" transform="translate(-10.46 -19.9)"></path> <g class="cls-20"> <path class="cls-18" d="M67.94,29.92c.64-.29-.27-1.42-.82-1.87a2.24,2.24,0,0,0-3.52.9S64.93,31.29,67.94,29.92Z" transform="translate(-10.46 -19.9)"></path> </g> <path class="cls-21" d="M67.17,26a1.14,1.14,0,0,1-2.27,0,1.14,1.14,0,1,1,2.27,0Z" transform="translate(-10.46 -19.9)"></path> <path class="cls-6" d="M23.42,38.21c5.75-.82,11.46-1.83,17.12-3.14.28-.06.16-.49-.12-.43C34.76,35.86,29.08,37,23.36,38c-.17,0-.1.27.06.25Z" transform="translate(-10.46 -19.9)"></path> <path class="cls-6" d="M23.42,40.19c5.75-.82,11.46-1.83,17.12-3.14.28-.06.16-.49-.12-.43C34.76,37.85,29.08,39,23.36,39.94c-.17,0-.1.27.06.25Z" transform="translate(-10.46 -19.9)"></path> <path class="cls-22" d="M44.14,31.21A1.24,1.24,0,1,1,42.91,30,1.23,1.23,0,0,1,44.14,31.21Z" transform="translate(-10.46 -19.9)"></path> <rect class="cls-3" x="48.38" y="59.85" width="59.58" height="23.06" rx="2"></rect> <path class="cls-23" d="M63.8,92.33c3.7-3.1,8.25-4.07,12.64-1.72,2.21,1.18,4,2.92,6.56,3.3,4.42.68,8.29-2.31,11.54-4.84.31-.24-.12-.66-.42-.43-4,3.08-8.32,6.11-13.46,3.85-2.39-1-4.27-2.91-6.87-3.51a11,11,0,0,0-10.25,3.08.19.19,0,0,0,.26.27Z" transform="translate(-10.46 -19.9)"></path> <path class="cls-24" d="M95.73,87.79a1,1,0,0,1,.39,1,.8.8,0,0,1-1,.49.83.83,0,0,1-.5-.95c.13-.47.58-.51,1-.57s.19-.37,0-.45c-.62-.23-1.32.36-1.48.94A1.31,1.31,0,0,0,95,89.85a1.35,1.35,0,0,0,1.59-.75,1.22,1.22,0,0,0-.68-1.57.15.15,0,0,0-.15.26Z" transform="translate(-10.46 -19.9)"></path> <path class="cls-24" d="M84.54,93.3c.2,0,.5.18.48.43a.36.36,0,0,1-.42.29c-.42-.09-.11-.54,0-.73s-.1-.44-.31-.4c-1,.21-.51,1.94.55,1.68a.87.87,0,0,0,.69-1,.83.83,0,0,0-1.07-.67.2.2,0,0,0,.05.39Z" transform="translate(-10.46 -19.9)"></path> <path class="cls-6" d="M64,96.87c2.14,0,4.28.06,6.42,0a.21.21,0,0,0,0-.42c-2.14,0-4.28,0-6.42,0a.17.17,0,0,0,0,.34Z" transform="translate(-10.46 -19.9)"></path> <path class="cls-6" d="M62.94,98.84c11.24.25,22.52.27,33.76.17a.33.33,0,0,0,0-.65c-11.24-.1-22.52-.08-33.76.17a.16.16,0,0,0,0,.31Z" transform="translate(-10.46 -19.9)"></path> <rect class="cls-25" x="91.46" y="67.65" width="3.29" height="9.88"></rect> <rect class="cls-26" x="95.62" y="71.2" width="3.29" height="6.33"></rect> <rect class="cls-27" x="99.78" y="73.56" width="3.29" height="3.97"></rect> <rect class="cls-3" x="103.07" y="20.37" width="22.99" height="32.32" rx="2"></rect> <path class="cls-6" d="M126.52,46.65a6.19,6.19,0,0,0-7.37,4.19,6.12,6.12,0,1,0,7.54-4.36c-.36-.12-.51.45-.15.58a5.57,5.57,0,1,1-7,4.47c.42-3.28,3.89-5.24,7-4.7.12,0,.17-.15,0-.18Z" transform="translate(-10.46 -19.9)"></path> <path class="cls-28" d="M123.44,58.24a6.27,6.27,0,0,0,7.76-4.12,6.59,6.59,0,0,0-4.43-7.92c-.75-.23-1,.87-.31,1.15a5.56,5.56,0,0,1,3.48,7,6,6,0,0,1-6.45,3.56c-.21,0-.24.3,0,.36Z" transform="translate(-10.46 -19.9)"></path> <path class="cls-6" d="M120.6,61.86c3.25.07,6.51.21,9.76.1a.26.26,0,0,0,0-.52c-3.25-.1-6.51,0-9.76.1a.16.16,0,0,0,0,.32Z" transform="translate(-10.46 -19.9)"></path> <path class="cls-6" d="M117.11,64.38c5.49.26,11,.34,16.54.18a.27.27,0,0,0,0-.53c-5.49-.17-11.05-.08-16.54.17a.09.09,0,0,0,0,.18Z" transform="translate(-10.46 -19.9)"></path> <path class="cls-6" d="M118,66.65a144.31,144.31,0,0,0,15.84.07.24.24,0,0,0,0-.47,144.31,144.31,0,0,0-15.84.07.17.17,0,0,0,0,.33Z" transform="translate(-10.46 -19.9)"></path> <path class="cls-29" d="M41.42,114.21c0,.13-2.42.82-5.33,2s-5.18,2.29-5.24,2.18a5.48,5.48,0,0,1,1.41-.9,33.19,33.19,0,0,1,3.67-1.7,36.07,36.07,0,0,1,3.84-1.25A6.3,6.3,0,0,1,41.42,114.21Z" transform="translate(-10.46 -19.9)"></path> <path class="cls-29" d="M44,116.29a3.83,3.83,0,0,1,0,.71c0,.5,0,1.18,0,2,0,1.81-.09,4.35-.16,7.46-.13,6.34-.3,15-.5,24.61s-.26,18.28-.35,24.61c0,3.12-.08,5.66-.1,7.46,0,.85,0,1.52,0,2a4,4,0,0,1-.05.71,5,5,0,0,1,0-.71c0-.51,0-1.18,0-2,0-1.81,0-4.34,0-7.46,0-6.3.05-15,.22-24.62s.41-18.31.63-24.61c.13-3.11.23-5.65.3-7.45,0-.85.08-1.52.1-2A4.85,4.85,0,0,1,44,116.29Z" transform="translate(-10.46 -19.9)"></path> <path class="cls-29" d="M14.86,185.53a5.74,5.74,0,0,1,.11-.67q.15-.71.39-1.89c.37-1.68.88-4,1.51-6.94,1.27-5.86,3-13.95,4.8-22.92s3.26-17.12,4.31-23c.51-2.92.93-5.29,1.23-7,.14-.79.26-1.42.35-1.9a3.21,3.21,0,0,1,.15-.66,3.77,3.77,0,0,1-.06.68c-.07.47-.16,1.11-.27,1.91-.24,1.66-.62,4-1.1,7-1,5.92-2.39,14.08-4.18,23.06s-3.58,17.07-4.93,22.91c-.68,2.88-1.24,5.23-1.64,6.91-.2.78-.35,1.4-.47,1.87A2.94,2.94,0,0,1,14.86,185.53Z" transform="translate(-10.46 -19.9)"></path> <g class="cls-4"> <path class="cls-5" d="M22.68,106.87c-.13,0-.12-5.4,0-12.07s.33-12.06.45-12.06.12,5.4,0,12.07S22.8,106.88,22.68,106.87Z" transform="translate(-10.46 -19.9)"></path> </g> <g class="cls-4"> <path class="cls-5" d="M22.9,86.79a4.2,4.2,0,0,1-1.26-1.87,4.22,4.22,0,0,1-.55-2.18,9.45,9.45,0,0,1,1,2A8.87,8.87,0,0,1,22.9,86.79Z" transform="translate(-10.46 -19.9)"></path> </g> <g class="cls-4"> <path class="cls-5" d="M73.85,58.29a8.79,8.79,0,0,1-5.26-3.48c.1-.09,1.1.91,2.55,1.86S73.9,58.17,73.85,58.29Z" transform="translate(-10.46 -19.9)"></path> </g> <path class="cls-30" d="M29.18,82.92c-.08.09-.71-.37-1.4-1s-1.18-1.24-1.1-1.33.71.36,1.4,1S29.26,82.83,29.18,82.92Z" transform="translate(-10.46 -19.9)"></path> <path class="cls-30" d="M33.76,86.73c.1.07-.28.82-.85,1.67s-1.12,1.5-1.22,1.43.28-.82.85-1.67S33.65,86.67,33.76,86.73Z" transform="translate(-10.46 -19.9)"></path> <path class="cls-30" d="M28,92.19c-.11,0-.46-.52-.79-1.27s-.5-1.4-.39-1.45.47.52.8,1.28S28.11,92.14,28,92.19Z" transform="translate(-10.46 -19.9)"></path> <path class="cls-30" d="M31.81,97.37c-.13,0-.25-.44-.41-1s-.27-1-.16-1,.42.33.59.91S31.93,97.36,31.81,97.37Z" transform="translate(-10.46 -19.9)"></path> <path class="cls-30" d="M27.19,99.9c-.12,0-.34-.3-.66-.67s-.6-.66-.54-.77.52,0,.88.49S27.3,99.87,27.19,99.9Z" transform="translate(-10.46 -19.9)"></path> <path class="cls-30" d="M29.44,103.26c.08.09-.35.61-1.05,1s-1.35.61-1.4.5.5-.45,1.16-.87S29.36,103.17,29.44,103.26Z" transform="translate(-10.46 -19.9)"></path> <path class="cls-30" d="M31.35,101.81c-.1.08-.54-.28-1-.81s-.74-1-.65-1.1.54.29,1,.81S31.44,101.73,31.35,101.81Z" transform="translate(-10.46 -19.9)"></path> <path class="cls-30" d="M36,103.89c.07.09-.25.49-.81.73s-1.08.22-1.09.1.41-.28.91-.5S35.89,103.79,36,103.89Z" transform="translate(-10.46 -19.9)"></path> <path class="cls-30" d="M25.36,103.16c0,.12-.31.15-.64.08s-.56-.24-.53-.36.31-.15.64-.07S25.39,103,25.36,103.16Z" transform="translate(-10.46 -19.9)"></path> <path class="cls-30" d="M38.35,99c.06.11-.3.42-.81.71s-1,.43-1,.32.3-.42.81-.71S38.29,98.84,38.35,99Z" transform="translate(-10.46 -19.9)"></path> <path class="cls-30" d="M38.78,94c-.12,0-.36-.47-.75-1s-.78-1-.7-1.06.63.18,1.06.8S38.9,94,38.78,94Z" transform="translate(-10.46 -19.9)"></path> <path class="cls-30" d="M43.68,102.63c.06.1-.37.49-1,.87s-1.14.59-1.21.49.37-.49,1-.87S43.61,102.53,43.68,102.63Z" transform="translate(-10.46 -19.9)"></path> <path class="cls-30" d="M42.9,98.29c-.11,0,0-.65.29-1.35s.58-1.24.7-1.19,0,.64-.29,1.35S43,98.33,42.9,98.29Z" transform="translate(-10.46 -19.9)"></path> <path class="cls-30" d="M47.94,103.8c-.08.08-.68-.45-1.2-1.27s-.73-1.58-.62-1.62.5.6,1,1.39S48,103.72,47.94,103.8Z" transform="translate(-10.46 -19.9)"></path> <path class="cls-30" d="M47.61,95.2c.12,0,.11.72,0,1.57s-.33,1.52-.45,1.51-.12-.73,0-1.58S47.49,95.18,47.61,95.2Z" transform="translate(-10.46 -19.9)"></path> <path class="cls-30" d="M46.31,91.64c0,.12-.73.15-1.57,0s-1.47-.54-1.43-.65.71,0,1.53.22S46.32,91.52,46.31,91.64Z" transform="translate(-10.46 -19.9)"></path> <path class="cls-30" d="M35,92.65c.12,0,.24.5.27,1.13s-.06,1.13-.18,1.14-.24-.5-.27-1.13S34.92,92.65,35,92.65Z" transform="translate(-10.46 -19.9)"></path> <path class="cls-30" d="M40.32,85.94c.09.09-.2.49-.63.88s-.84.65-.92.56.19-.49.63-.88S40.24,85.85,40.32,85.94Z" transform="translate(-10.46 -19.9)"></path> <path class="cls-30" d="M46,86.13a3.71,3.71,0,0,1-.49-1.69,3.71,3.71,0,0,1-.06-1.76c.12,0,.34.74.49,1.69A3.71,3.71,0,0,1,46,86.13Z" transform="translate(-10.46 -19.9)"></path> <path class="cls-30" d="M26.36,95.19c-.05.11-.58,0-1.18-.3s-1.05-.59-1-.7.58,0,1.18.3S26.41,95.08,26.36,95.19Z" transform="translate(-10.46 -19.9)"></path> <path class="cls-30" d="M28.53,86c0,.13-.58.14-1.25,0s-1.21-.29-1.19-.41.58-.13,1.26,0S28.55,85.83,28.53,86Z" transform="translate(-10.46 -19.9)"></path> <path class="cls-30" d="M33.35,82.69c.08.09-.28.57-.82,1.09s-1,.86-1.13.77.29-.58.82-1.09S33.27,82.6,33.35,82.69Z" transform="translate(-10.46 -19.9)"></path> <path class="cls-30" d="M38.07,82.76c-.11,0-.45-.57-.75-1.37s-.45-1.49-.33-1.53.45.57.75,1.37S38.19,82.72,38.07,82.76Z" transform="translate(-10.46 -19.9)"></path> <path class="cls-30" d="M43.29,82.24c-.1.08-.57-.39-1-1s-.79-1.24-.69-1.31.56.4,1,1S43.39,82.17,43.29,82.24Z" transform="translate(-10.46 -19.9)"></path> <path class="cls-30" d="M47.23,78.62c.09.08-.19.54-.62,1s-.87.82-1,.74.19-.54.63-1S47.14,78.54,47.23,78.62Z" transform="translate(-10.46 -19.9)"></path> <path class="cls-30" d="M51.28,79.31c.1.08-.11.5-.46,1S50.11,81,50,81s.11-.51.46-1S51.18,79.24,51.28,79.31Z" transform="translate(-10.46 -19.9)"></path> <path class="cls-30" d="M49.73,75.52c-.12,0-.3-.54-.4-1.24s-.08-1.28,0-1.3.3.54.4,1.24S49.85,75.5,49.73,75.52Z" transform="translate(-10.46 -19.9)"></path> <path class="cls-30" d="M53.86,75.21c-.08.09-.57-.19-1.11-.63s-.9-.87-.82-1,.57.19,1.1.63S53.94,75.11,53.86,75.21Z" transform="translate(-10.46 -19.9)"></path> <path class="cls-30" d="M55.65,76.88c.08.09-.2.48-.63.88s-.85.64-.93.55.2-.48.63-.88S55.56,76.79,55.65,76.88Z" transform="translate(-10.46 -19.9)"></path> <path class="cls-30" d="M55.53,72.08c-.1.07-.5-.35-1-.78s-1-.74-1-.86.66,0,1.26.52S55.63,72,55.53,72.08Z" transform="translate(-10.46 -19.9)"></path> <path class="cls-30" d="M59.54,71c.07.1-.5.61-1.14,1.3s-1.1,1.31-1.21,1.24.21-.81.89-1.54S59.48,70.88,59.54,71Z" transform="translate(-10.46 -19.9)"></path> <path class="cls-30" d="M61.6,74.3c.07.1-.42.55-1.1,1s-1.27.74-1.34.64.42-.56,1.1-1S61.53,74.19,61.6,74.3Z" transform="translate(-10.46 -19.9)"></path> <path class="cls-30" d="M62.81,69.17c.1.06-.12.59-.5,1.16s-.76,1-.86.92.12-.58.49-1.16S62.71,69.1,62.81,69.17Z" transform="translate(-10.46 -19.9)"></path> <path class="cls-30" d="M63.81,67.63c-.09.08-.51-.2-.81-.74s-.31-1-.19-1.08.32.39.58.86S63.89,67.54,63.81,67.63Z" transform="translate(-10.46 -19.9)"></path> <path class="cls-30" d="M65.69,69.33c.09.08-.21.58-.67,1.12s-.91.92-1,.84.2-.58.66-1.12S65.6,69.25,65.69,69.33Z" transform="translate(-10.46 -19.9)"></path> <path class="cls-30" d="M66,65.65c-.11.06-.47-.36-.69-1s-.2-1.19-.08-1.21.29.48.5,1.06S66.14,65.59,66,65.65Z" transform="translate(-10.46 -19.9)"></path> <path class="cls-30" d="M66.07,61c-.06-.1.23-.41.65-.68s.83-.42.89-.32-.22.41-.65.69S66.14,61.11,66.07,61Z" transform="translate(-10.46 -19.9)"></path> <path class="cls-30" d="M68.59,64.44c-.11-.06.17-.72.62-1.48s.91-1.3,1-1.24-.18.72-.63,1.47S68.69,64.5,68.59,64.44Z" transform="translate(-10.46 -19.9)"></path> <path class="cls-30" d="M69.43,60.38c.09.08-.22.56-.7,1.06s-.93.83-1,.75.22-.56.7-1.06S69.34,60.29,69.43,60.38Z" transform="translate(-10.46 -19.9)"></path> <path class="cls-30" d="M70.79,58.37c-.05.11-.6-.07-1.11-.55s-.73-1-.63-1.06.47.31.93.74S70.85,58.26,70.79,58.37Z" transform="translate(-10.46 -19.9)"></path> <path class="cls-30" d="M71.51,60.37c-.12,0-.14-.55.16-1.13s.77-.86.84-.77-.19.48-.45,1S71.63,60.39,71.51,60.37Z" transform="translate(-10.46 -19.9)"></path> <path class="cls-30" d="M46.53,73.8c-.11,0-.07-.58.1-1.23s.41-1.16.53-1.13.07.59-.1,1.24S46.65,73.84,46.53,73.8Z" transform="translate(-10.46 -19.9)"></path> <path class="cls-30" d="M45.49,76.51c-.09.08-.61-.34-1.16-.94s-.92-1.15-.83-1.23.6.33,1.16.93S45.58,76.43,45.49,76.51Z" transform="translate(-10.46 -19.9)"></path> <path class="cls-30" d="M41,75.71c.1.07,0,.48-.32.93s-.59.76-.69.7,0-.48.32-.93S40.88,75.65,41,75.71Z" transform="translate(-10.46 -19.9)"></path> <path class="cls-30" d="M36.7,77.6c0,.12-.64.05-1.31-.26s-1.12-.73-1-.83.59.14,1.23.43S36.73,77.48,36.7,77.6Z" transform="translate(-10.46 -19.9)"></path> <path class="cls-30" d="M38.87,73.88c0,.12-.6.18-1.33.13s-1.31-.19-1.3-.31.61-.18,1.33-.13S38.88,73.76,38.87,73.88Z" transform="translate(-10.46 -19.9)"></path> <path class="cls-30" d="M42.86,72c-.06.11-.78-.17-1.68-.38s-1.67-.31-1.67-.44a2.6,2.6,0,0,1,1.77,0C42.25,71.4,42.92,71.88,42.86,72Z" transform="translate(-10.46 -19.9)"></path> <path class="cls-30" d="M33.34,72.25a7.89,7.89,0,0,1,1.9-.56,8.59,8.59,0,0,1,1.91-.52,3.26,3.26,0,0,1-1.79.94A3.39,3.39,0,0,1,33.34,72.25Z" transform="translate(-10.46 -19.9)"></path> <path class="cls-30" d="M31.35,76.6c-.11,0,.09-.64.44-1.32s.72-1.18.83-1.12-.09.65-.44,1.32S31.46,76.66,31.35,76.6Z" transform="translate(-10.46 -19.9)"></path> <path class="cls-30" d="M33.15,78.77c.06.11-.43.46-1.08.78s-1.22.5-1.28.39.43-.46,1.08-.78S33.1,78.66,33.15,78.77Z" transform="translate(-10.46 -19.9)"></path> <path class="cls-30" d="M26.46,78.06c.07.1-.42.6-1,1.19s-1.15,1-1.25,1,.3-.68.95-1.29S26.39,78,26.46,78.06Z" transform="translate(-10.46 -19.9)"></path> <path class="cls-30" d="M28.63,72.7c.12,0,.2.54.17,1.19s-.14,1.18-.27,1.17-.2-.53-.17-1.19S28.5,72.7,28.63,72.7Z" transform="translate(-10.46 -19.9)"></path> <path class="cls-30" d="M26.45,75.05c-.06.11-.74-.2-1.52-.68a7.45,7.45,0,0,1-1.14-.84l.14-.17c.08.14.1.22.07.25s-.11,0-.24-.11l-.52-.39.67.23a7.26,7.26,0,0,1,1.26.65C25.94,74.48,26.52,75,26.45,75.05Z" transform="translate(-10.46 -19.9)"></path> <path class="cls-30" d="M19.56,76.87c-.09-.08.27-.56.8-1.06s1-.84,1.1-.75-.27.57-.8,1.07S19.64,77,19.56,76.87Z" transform="translate(-10.46 -19.9)"></path> <path class="cls-30" d="M23.48,78.2c.06.11-.47.47-1.18.81s-1.32.52-1.38.41.48-.47,1.19-.81S23.43,78.09,23.48,78.2Z" transform="translate(-10.46 -19.9)"></path> <path class="cls-30" d="M19.09,83c-.11,0-.4-.58-.65-1.37s-.34-1.45-.22-1.49.41.57.65,1.36S19.21,83,19.09,83Z" transform="translate(-10.46 -19.9)"></path> <path class="cls-30" d="M18.08,87.14c-.09.08-.51-.25-.94-.75s-.71-1-.62-1,.52.26.95.76S18.17,87.06,18.08,87.14Z" transform="translate(-10.46 -19.9)"></path> <path class="cls-30" d="M22.06,88.46c.11.06-.07.61-.4,1.23s-.68,1.09-.79,1,.07-.61.4-1.23S22,88.4,22.06,88.46Z" transform="translate(-10.46 -19.9)"></path> <path class="cls-30" d="M18.48,93.37c-.12,0-.36-.49-.54-1.16s-.23-1.25-.11-1.28.36.49.54,1.17S18.6,93.34,18.48,93.37Z" transform="translate(-10.46 -19.9)"></path> <path class="cls-30" d="M17.05,93.05c.08.09-.28.55-.81,1s-1,.78-1.1.69.28-.55.81-1S17,93,17.05,93.05Z" transform="translate(-10.46 -19.9)"></path> <path class="cls-30" d="M15.16,91c-.12-.05,0-.63.2-1.32s.34-1.26.47-1.24.15.63-.05,1.35S15.27,91.08,15.16,91Z" transform="translate(-10.46 -19.9)"></path> <path class="cls-30" d="M16.47,99.73c0,.1-.64-.1-1.22-.61s-.86-1.05-.77-1.12.53.33,1.06.79S16.53,99.62,16.47,99.73Z" transform="translate(-10.46 -19.9)"></path> <path class="cls-30" d="M22,98c.09.08-.28.63-.84,1.23s-1.08,1-1.16.93.28-.63.84-1.23S21.89,97.9,22,98Z" transform="translate(-10.46 -19.9)"></path> <path class="cls-30" d="M19.09,97.47c-.07.1-.48-.09-1-.33s-.87-.48-.84-.6.52-.06,1,.21S19.17,97.38,19.09,97.47Z" transform="translate(-10.46 -19.9)"></path> <path class="cls-30" d="M22.45,92.56c.11.06-.07.56-.4,1.1s-.68,1-.79.88.08-.55.41-1.1S22.35,92.5,22.45,92.56Z" transform="translate(-10.46 -19.9)"></path> <path class="cls-30" d="M43.69,87.49c.07.09-.3.53-.84,1s-1,.73-1.11.63.29-.53.83-1S43.61,87.39,43.69,87.49Z" transform="translate(-10.46 -19.9)"></path> </g> </g> </g> </svg> 