<?xml version="1.0" encoding="UTF-8"?> <svg xmlns="http://www.w3.org/2000/svg" width="938" height="938" viewBox="0 0 938 938" fill="none"> <g clip-path="url(#clip0)"> <path d="M156.25 62.5C156.25 45.2383 170.238 31.25 187.5 31.25H875C892.262 31.25 906.25 45.2383 906.25 62.5V437.5H531.25V468.75H906.25V500C906.25 517.262 892.262 531.25 875 531.25H531.25V562.5H598.547L633.703 656.25H531.25V687.5H703.125V656.25H667.078L631.922 562.5H875C909.516 562.5 937.5 534.516 937.5 500V62.5C937.5 27.9844 909.516 0 875 0H187.5C152.984 0 125 27.9844 125 62.5V250H156.25V62.5Z" fill="white"></path> <path d="M15.625 937.5H375C379.145 937.496 383.109 935.844 386.047 932.922L495.422 823.547C496.727 822.219 497.793 820.672 498.547 818.969C498.77 818.48 498.898 818.016 499.062 817.508C499.512 816.203 499.785 814.836 499.879 813.453C499.879 813.125 500.059 812.832 500.059 812.5V296.875C500.059 288.242 493.066 281.25 484.434 281.25H15.625C6.99219 281.25 0 288.242 0 296.875V921.875C0 930.508 6.99219 937.5 15.625 937.5ZM390.625 884.156V828.125H446.656L390.625 884.156ZM31.25 312.5H468.75V796.875H375C366.367 796.875 359.375 803.867 359.375 812.5V906.25H31.25V312.5Z" fill="white"></path> <path d="M62.5 343.75H125V375H62.5V343.75Z" fill="white"></path> <path d="M62.5 406.25H125V437.5H62.5V406.25Z" fill="white"></path> <path d="M468.75 203.125H718.75V234.375H468.75V203.125Z" fill="white"></path> <path d="M531.25 281.25H656.25V312.5H531.25V281.25Z" fill="white"></path> <path d="M593.75 125H843.75V156.25H593.75V125Z" fill="white"></path> <path d="M687.5 281.25H843.75V312.5H687.5V281.25Z" fill="white"></path> <path d="M531.25 359.375H718.75V390.625H531.25V359.375Z" fill="white"></path> <path d="M750 359.375H843.75V390.625H750V359.375Z" fill="white"></path> <path d="M750 203.125H843.75V234.375H750V203.125Z" fill="white"></path> <path d="M468.75 125H562.5V156.25H468.75V125Z" fill="white"></path> <path d="M336.176 560.266C340.875 557.441 343.746 552.363 343.746 546.875C343.746 541.387 340.875 536.309 336.176 533.484L265.625 491.156V468.75H273.438C303.641 468.75 328.125 444.266 328.125 414.062C328.125 383.859 303.641 359.375 273.438 359.375H226.562C196.359 359.375 171.875 383.859 171.875 414.062C171.875 444.266 196.359 468.75 226.562 468.75H234.375V491.156L163.824 533.484C159.125 536.309 156.254 541.387 156.254 546.875C156.254 552.363 159.125 557.441 163.824 560.266L234.375 602.594V625H171.875C163.242 625 156.25 631.992 156.25 640.625V718.75C156.25 727.383 163.242 734.375 171.875 734.375H234.375V765.625H226.562C196.359 765.625 171.875 790.109 171.875 820.312C171.875 850.516 196.359 875 226.562 875H273.438C303.641 875 328.125 850.516 328.125 820.312C328.125 790.109 303.641 765.625 273.438 765.625H265.625V734.375H328.125C336.758 734.375 343.75 727.383 343.75 718.75V640.625C343.75 631.992 336.758 625 328.125 625H265.625V602.594L336.176 560.266ZM226.562 437.5C213.617 437.5 203.125 427.008 203.125 414.062C203.125 401.117 213.617 390.625 226.562 390.625H273.438C286.383 390.625 296.875 401.117 296.875 414.062C296.875 427.008 286.383 437.5 273.438 437.5H226.562ZM273.438 796.875C286.383 796.875 296.875 807.367 296.875 820.312C296.875 833.258 286.383 843.75 273.438 843.75H226.562C213.617 843.75 203.125 833.258 203.125 820.312C203.125 807.367 213.617 796.875 226.562 796.875H273.438ZM312.5 656.25V703.125H187.5V656.25H312.5ZM250 575.531L202.234 546.875L250 518.219L297.766 546.875L250 575.531Z" fill="white"></path> <path d="M187.5 62.5H218.75V93.75H187.5V62.5Z" fill="white"></path> <path d="M250 62.5H281.25V93.75H250V62.5Z" fill="white"></path> <path d="M312.5 62.5H343.75V93.75H312.5V62.5Z" fill="white"></path> <path d="M546.875 937.5H921.875C930.508 937.5 937.5 930.508 937.5 921.875V734.375C937.5 725.742 930.508 718.75 921.875 718.75H546.875C538.242 718.75 531.25 725.742 531.25 734.375V921.875C531.25 930.508 538.242 937.5 546.875 937.5ZM562.5 750H906.25V906.25H562.5V750Z" fill="white"></path> <path d="M593.75 843.75H625V875H593.75V843.75Z" fill="white"></path> <path d="M843.75 843.75H875V875H843.75V843.75Z" fill="white"></path> <path d="M593.75 781.25H625V812.5H593.75V781.25Z" fill="white"></path> <path d="M656.25 781.25H687.5V812.5H656.25V781.25Z" fill="white"></path> <path d="M718.75 781.25H750V812.5H718.75V781.25Z" fill="white"></path> <path d="M781.25 781.25H812.5V812.5H781.25V781.25Z" fill="white"></path> <path d="M843.75 781.25H875V812.5H843.75V781.25Z" fill="white"></path> <path d="M656.25 843.75H812.5V875H656.25V843.75Z" fill="white"></path> <path d="M238.953 129.578L192.078 176.453C185.98 182.559 185.98 192.441 192.078 198.547L238.953 245.422L261.047 223.328L225.219 187.5L261.047 151.672L238.953 129.578Z" fill="white"></path> <path d="M386.047 245.422L432.922 198.547C439.02 192.441 439.02 182.559 432.922 176.453L386.047 129.578L363.953 151.672L399.781 187.5L363.953 223.328L386.047 245.422Z" fill="white"></path> <path d="M281.715 246.215L312.961 121.215L343.262 128.789L312.012 253.789L281.715 246.215Z" fill="white"></path> </g> <defs> <clipPath id="clip0"> <rect width="937.5" height="937.5" fill="white"></rect> </clipPath> </defs> </svg> 