<?xml version="1.0" encoding="UTF-8"?> <svg xmlns="http://www.w3.org/2000/svg" width="100" height="100" viewBox="0 0 100 100" fill="none"> <path d="M63.7936 25.9886C66.486 25.9886 68.6764 23.7982 68.6764 21.1058C68.6764 18.4134 66.486 16.2228 63.7936 16.2228C61.1012 16.2228 58.9108 18.4134 58.9108 21.1058C58.9108 22.2054 59.2764 23.221 59.8922 24.0382L51.8696 35.2493C51.3908 35.0921 50.8801 35.0058 50.3492 35.0058C49.0662 35.0058 47.8979 35.504 47.0256 36.3161L41.6782 33.2818C41.7494 32.9505 41.7877 32.6072 41.7877 32.255C41.7877 29.5626 39.5973 27.3722 36.9049 27.3722C34.2125 27.3722 32.0221 29.5626 32.0221 32.255C32.0221 32.6072 32.0604 32.9505 32.1317 33.2818L26.7842 36.3161C25.9119 35.504 24.7436 35.006 23.4606 35.006C20.7682 35.006 18.5778 37.1966 18.5778 39.889C18.5778 42.5814 20.7682 44.772 23.4606 44.772C26.153 44.772 28.3434 42.5814 28.3434 39.889C28.3434 39.5368 28.3051 39.1935 28.2338 38.8622L33.5813 35.8279C34.4535 36.64 35.6219 37.1382 36.9049 37.1382C38.1879 37.1382 39.3561 36.64 40.2285 35.8281L45.576 38.8624C45.5047 39.1937 45.4664 39.537 45.4664 39.8892C45.4664 42.5816 47.6569 44.7722 50.3492 44.7722C53.0418 44.7722 55.2323 42.5816 55.2323 39.8892C55.2323 38.7894 54.8664 37.7736 54.2506 36.9564L62.2733 25.7452C62.7518 25.9023 63.2627 25.9886 63.7936 25.9886ZM63.7936 19.1525C64.8705 19.1525 65.7467 20.0286 65.7467 21.1058C65.7467 22.1827 64.8705 23.0589 63.7936 23.0589C62.7166 23.0589 61.8405 22.1827 61.8405 21.1058C61.8403 20.0286 62.7164 19.1525 63.7936 19.1525ZM23.46 41.8419C22.383 41.8419 21.5069 40.9657 21.5069 39.8886C21.5069 38.8114 22.383 37.9353 23.46 37.9353C24.5369 37.9353 25.4131 38.8114 25.4131 39.8886C25.4131 40.9657 24.5369 41.8419 23.46 41.8419ZM36.9045 34.2081C35.8276 34.2081 34.9514 33.332 34.9514 32.2548C34.9514 31.1779 35.8276 30.3017 36.9045 30.3017C37.9815 30.3017 38.8576 31.1779 38.8576 32.2548C38.8578 33.332 37.9815 34.2081 36.9045 34.2081ZM50.349 41.8419C49.2721 41.8419 48.3959 40.9657 48.3959 39.8886C48.3959 38.8114 49.2721 37.9353 50.349 37.9353C51.4262 37.9353 52.3024 38.8114 52.3024 39.8886C52.3024 40.9657 51.426 41.8419 50.349 41.8419Z" fill="#009FE2"></path> <path d="M81.7961 73.626H71.5449H15.7086H4.14355C3.47422 73.626 2.92969 73.0815 2.92969 72.4122V11.9788C2.92969 11.3094 3.47422 10.7649 4.14355 10.7649H11.049C11.858 10.7649 12.5139 10.1092 12.5139 9.30005C12.5139 8.49087 11.858 7.83521 11.049 7.83521H4.14355C1.85879 7.83521 0 9.69399 0 11.9788V72.4122C0 74.6969 1.85879 76.5557 4.14355 76.5557H14.2438V79.7795C14.2438 81.6161 15.7379 83.1102 17.5744 83.1102H32.2373L25.335 96.5864C24.9662 97.3065 25.2508 98.1891 25.9709 98.5581C26.1846 98.6676 26.4127 98.7194 26.6375 98.7194C27.1697 98.7194 27.6832 98.4284 27.9424 97.9219L35.5289 83.1102H51.7246L59.3111 97.9219C59.5705 98.4284 60.0838 98.7194 60.616 98.7194C60.8408 98.7194 61.0689 98.6672 61.2826 98.5581C62.0027 98.1891 62.2875 97.3065 61.9186 96.5864L55.0162 83.1102H69.6791C71.5156 83.1102 73.0098 81.6163 73.0098 79.7795V76.5557H81.7961C82.6051 76.5557 83.2609 75.9001 83.2609 75.0909C83.2609 74.2817 82.6051 73.626 81.7961 73.626ZM70.0801 79.7795C70.0801 80.0006 69.9002 80.1805 69.6791 80.1805H17.5744C17.3533 80.1805 17.1734 80.0006 17.1734 79.7795V76.5557H70.0801V79.7795Z" fill="#009FE2"></path> <path d="M16.9084 10.7649H36.9615H50.2918H83.1098C83.7791 10.7649 84.3237 11.3094 84.3237 11.9787V25.9067C84.3237 26.7158 84.9795 27.3715 85.7885 27.3715C86.5975 27.3715 87.2533 26.7158 87.2533 25.9067V11.9787C87.2533 9.69397 85.3945 7.83518 83.1098 7.83518H51.7569V4.95588C51.7569 2.92952 50.1082 1.28088 48.0817 1.28088H39.1719C37.1455 1.28088 35.4967 2.92952 35.4967 4.95588V7.83518H16.9084C16.0994 7.83518 15.4436 8.49085 15.4436 9.30002C15.4436 10.1092 16.0994 10.7649 16.9084 10.7649ZM38.4264 4.95588C38.4264 4.54495 38.7608 4.21057 39.1719 4.21057H48.0817C48.4926 4.21057 48.8272 4.54495 48.8272 4.95588V7.83518H38.4266V4.95588H38.4264Z" fill="#009FE2"></path> <path d="M20.4887 52.261C19.6797 52.261 19.0238 52.9167 19.0238 53.7258V66.6696C19.0238 67.4788 19.6797 68.1344 20.4887 68.1344H26.4314C27.2404 68.1344 27.8963 67.4788 27.8963 66.6696V53.7258C27.8963 52.9167 27.2404 52.261 26.4314 52.261H20.4887ZM24.9666 65.2049H21.9535V55.1909H24.9666V65.2049Z" fill="#009FE2"></path> <path d="M33.933 44.775C33.124 44.775 32.4682 45.4307 32.4682 46.2399V66.6697C32.4682 67.4789 33.124 68.1346 33.933 68.1346H39.8758C40.6848 68.1346 41.3406 67.4789 41.3406 66.6697V46.2399C41.3406 45.4307 40.6848 44.775 39.8758 44.775H33.933ZM38.4111 65.2049H35.3981V47.7047H38.4111V65.2049Z" fill="#009FE2"></path> <path d="M47.3775 52.261C46.5685 52.261 45.9127 52.9167 45.9127 53.7258V66.6696C45.9127 67.4788 46.5685 68.1344 47.3775 68.1344H53.3203C54.1293 68.1344 54.7851 67.4788 54.7851 66.6696V53.7258C54.7851 52.9167 54.1293 52.261 53.3203 52.261H47.3775ZM51.8555 65.2049H48.8424V55.1909H51.8555V65.2049Z" fill="#009FE2"></path> <path d="M60.8221 60.9047C60.0131 60.9047 59.3573 61.5603 59.3573 62.3695V66.6697C59.3573 67.4789 60.0131 68.1345 60.8221 68.1345H66.7649C67.5739 68.1345 68.2297 67.4789 68.2297 66.6697C68.2297 65.8605 67.5739 65.2049 66.7649 65.2049H62.287V62.3695C62.287 61.5603 61.6311 60.9047 60.8221 60.9047Z" fill="#009FE2"></path> <path d="M99.2529 75.0037L90.8492 60.4479C92.9783 58.1785 94.5287 55.4057 95.3568 52.3151C96.6805 47.3754 96.0012 42.2158 93.4441 37.7869C88.1656 28.6438 76.433 25.5006 67.2904 30.7789C58.1477 36.0573 55.0041 47.7899 60.2826 56.9326C62.8396 61.3616 66.9684 64.5295 71.908 65.8534C73.5576 66.2953 75.2313 66.5139 76.8943 66.5139C78.3479 66.5139 79.793 66.3467 81.2062 66.0159L89.6082 80.5721C90.6381 82.3567 92.5135 83.3553 94.4396 83.3551C95.3836 83.3551 96.3398 83.1151 97.2146 82.6104C98.9326 81.6188 100 79.7698 100 77.785C100 76.8125 99.7418 75.851 99.2529 75.0037ZM72.6662 63.0235C68.4824 61.9024 64.9853 59.219 62.8195 55.4678C58.3488 47.7241 61.0115 37.7869 68.7551 33.316C71.3025 31.8453 74.0863 31.1469 76.8359 31.1469C82.4443 31.1469 87.9068 34.0557 90.9068 39.2518C93.0725 43.003 93.6479 47.3729 92.5268 51.5569C91.4057 55.7409 88.7223 59.2375 84.9711 61.4034C81.2201 63.5692 76.8502 64.1442 72.6662 63.0235ZM95.7504 80.0729C94.49 80.8006 92.8729 80.3674 92.1457 79.1076L84.0621 65.103C84.8723 64.7723 85.6656 64.3856 86.4363 63.9407C87.2076 63.4953 87.9381 62.9996 88.6297 62.4629L96.7156 76.4682C96.9477 76.8707 97.0703 77.3262 97.0703 77.7852C97.0703 78.7262 96.5645 79.603 95.7504 80.0729Z" fill="#009FE2"></path> <path d="M90.1449 51.4866C91.1791 48.1553 90.9328 44.5889 89.4513 41.4444C89.1064 40.7124 88.2337 40.3987 87.5019 40.7434C86.7699 41.0883 86.4562 41.961 86.8011 42.6928C87.9697 45.1733 88.1636 47.9875 87.347 50.6176C86.5259 53.2622 84.7521 55.4815 82.3523 56.867C79.8128 58.3335 76.8541 58.7225 74.0218 57.9637C71.1894 57.2047 68.8218 55.3881 67.3558 52.8487C64.3291 47.6063 66.1318 40.879 71.3742 37.8522C75.2072 35.6395 79.964 35.9352 83.4935 38.6055C84.1388 39.0938 85.0574 38.9667 85.5455 38.3213C86.0336 37.6762 85.9064 36.7575 85.2611 36.2694C80.7902 32.8864 74.764 32.512 69.9091 35.3149C66.692 37.1723 64.3906 40.1715 63.4291 43.7598C62.4675 47.3481 62.9611 51.0961 64.8185 54.3133C66.6759 57.5307 69.6752 59.8319 73.2634 60.7936C74.4617 61.1147 75.6777 61.2735 76.8857 61.2735C79.2955 61.2735 81.6742 60.6415 83.8169 59.4042C86.8574 57.6491 89.1046 54.8374 90.1449 51.4866Z" fill="#009FE2"></path> </svg> 