<?xml version="1.0" encoding="UTF-8"?> <svg xmlns="http://www.w3.org/2000/svg" width="263" height="33" viewBox="0 0 263 33" fill="none"> <path d="M34.6973 10.9255L31.7441 14.3654C30.7977 13.6114 29.7331 13.2798 28.5631 13.427C28.0407 13.4905 27.537 13.6574 27.0827 13.9177C26.6284 14.1779 26.233 14.5259 25.9207 14.9406C25.3307 15.7074 25.0295 16.6501 25.0682 17.6091C25.1069 18.5682 25.4831 19.4847 26.133 20.2036C27.4226 21.5988 29.7711 21.8864 31.4446 20.7196C32.8804 19.7234 33.7875 17.3678 32.4726 15.18C32.7862 14.8209 35.5228 12.9069 36.3722 12.457C37.1327 13.3498 37.6607 14.4098 37.9107 15.546C38.3452 17.4641 38.1793 19.3505 37.2385 21.1145C36.2752 22.9225 34.7831 24.1843 32.8607 24.9534C31.4385 25.531 29.8945 25.7633 28.3606 25.6304C25.0404 25.3359 22.4233 23.9077 20.8637 20.9287C20.3012 19.8693 20.0846 18.7176 20.0705 17.5109C20.031 15.8638 20.529 14.2472 21.4923 12.8959C22.6286 11.2833 24.1881 10.2623 26.0909 9.66103C27.4564 9.23448 28.8444 9.18082 30.2352 9.29365C31.8468 9.42931 33.3899 9.99363 34.6973 10.9255Z" fill="#009FE2"></path> <path d="M62.2448 10.7067V12.684C61.2604 12.0963 60.1866 11.6657 59.0638 11.4085C57.455 11.048 55.8392 10.8897 54.2149 11.3314C53.7895 11.4521 53.3851 11.6348 53.0154 11.8735C51.9143 12.5615 51.4544 14.6461 53.201 15.579C53.9492 15.978 54.7676 16.15 55.5917 16.2945C56.6239 16.4734 57.6589 16.6426 58.6855 16.8449C59.4878 16.9942 60.2612 17.2653 60.9778 17.6484C62.3194 18.3805 63.0014 19.4812 63.0183 20.9948C63.0464 22.9583 62.1183 24.2971 60.3253 25.0993C59.7304 25.3642 59.1003 25.5453 58.4535 25.6373C56.2025 25.9626 53.9041 25.7313 51.768 24.9644C51.55 24.8887 51.3349 24.8007 51.1225 24.7057C50.9102 24.6108 50.7077 24.5048 50.4869 24.3975V22.3886C52.751 23.7398 55.1895 24.1952 57.7672 23.9861C58.6333 23.9324 59.467 23.6437 60.1748 23.1523C61.3504 22.3267 61.4967 20.0344 59.8527 19.2129C59.0948 18.8331 58.2833 18.646 57.4621 18.4947C56.2259 18.2676 54.9701 18.141 53.7579 17.7984C52.9877 17.6055 52.259 17.2793 51.6063 16.8352C50.4208 15.9835 49.9834 14.8057 50.1283 13.416C50.3434 11.3383 51.7019 10.2417 53.6243 9.70091C55.1712 9.26335 56.7603 9.30463 58.3508 9.5124C59.7076 9.69621 61.0236 10.0998 62.2448 10.7067Z" fill="black"></path> <path d="M100.807 11.5918H97.6384C97.5133 11.0208 97.5963 10.48 97.5878 9.91449C98.1321 9.77689 98.6608 9.96678 99.1896 9.92825C99.7183 9.88972 100.213 9.91999 100.796 9.91999C100.825 9.1756 100.812 8.45047 100.814 7.72534C100.815 7.00021 100.814 6.26683 100.814 5.50042L102.759 5.19083V9.90899H107.925C108.066 10.491 107.942 11.0249 108 11.5959H102.867C102.698 11.7707 102.763 11.9385 102.763 12.0899C102.752 13.9928 102.75 15.8958 102.738 17.7974C102.738 18.5294 102.67 19.2614 102.695 19.9906C102.722 20.7419 102.731 21.5042 102.918 22.2362C103.254 23.564 104.12 24.2396 105.518 24.2754C106.355 24.296 107.132 24.0827 107.925 23.7511V25.4257C107.823 25.5811 107.615 25.6142 107.415 25.6788C106.281 26.0586 105.058 26.1026 103.899 25.8054C102.184 25.383 101.286 24.2451 100.946 22.6036C100.806 21.8138 100.748 21.0121 100.773 20.2108C100.773 17.6423 100.782 15.0739 100.798 12.5054C100.807 12.2165 100.807 11.9248 100.807 11.5918Z" fill="black"></path> <path d="M69.3649 11.458H66.302C66.1248 11.1691 66.2218 10.8898 66.205 10.6325C66.1881 10.3752 66.205 10.0821 66.205 9.78212C67.2709 9.61976 68.3144 9.85505 69.4183 9.76148C69.483 8.27682 69.4183 6.82106 69.4689 5.34878L71.4012 5.0502V9.78212H76.5876V11.4525H71.4012C71.3928 11.6232 71.3829 11.7277 71.3829 11.8419C71.3562 14.6131 71.3238 17.3843 71.3126 20.1555C71.3038 20.8417 71.388 21.526 71.5629 22.1905C71.8737 23.3257 72.56 24.0439 74.0267 24.1251C74.4472 24.1475 74.8688 24.1132 75.2797 24.0233C75.6919 23.9139 76.0976 23.782 76.4948 23.6284V25.3167C76.1966 25.6043 75.7593 25.6304 75.3599 25.7116C74.3192 25.9207 73.2631 25.9317 72.2492 25.6056C70.7684 25.1296 69.9077 24.0783 69.6011 22.5964C69.41 21.607 69.3266 20.6007 69.3522 19.5941C69.3794 17.1174 69.4047 14.6448 69.4282 12.1763C69.4296 11.952 69.4704 11.7222 69.3649 11.458Z" fill="black"></path> <path d="M42.9072 9.68451H44.8171V25.3099C44.1856 25.4475 43.564 25.3305 42.865 25.3773C42.8706 20.1473 42.8917 14.9572 42.9072 9.68451Z" fill="black"></path> <path d="M44.5671 2.10168C45.2577 2.45531 45.7064 3.03871 46.2366 3.55882L42.2985 6.25983C42.1227 5.9695 41.8611 5.75485 41.6333 5.50443L44.5671 2.10168Z" fill="#01A0E2"></path> <path d="M9.44181 14.6529C10.1098 14.6529 10.6245 14.5002 11.1293 14.3475C13.6508 13.5907 15.3215 12.0675 15.7701 9.41604C16.2187 6.76457 14.9263 4.28922 12.4259 3.08663C11.1097 2.44406 9.69212 2.17162 8.24084 2.12897C5.64483 2.05191 3.04602 2.04366 0.448605 2.00651C0.385141 1.99366 0.319186 1.99993 0.259437 2.02449C0.199688 2.04906 0.148949 2.09076 0.113909 2.1441C0.15891 9.7449 0.0140629 17.4296 0 25.1006C0.676842 25.2253 1.37178 25.2225 2.04755 25.0923C2.06162 21.6841 2.07568 18.2607 2.09115 14.8414H7.22128L14.9559 25.2134H17.3873L9.44181 14.6529ZM2.12209 13.1518V3.9411C2.17478 3.88513 2.24112 3.84315 2.3149 3.81909C2.38868 3.79503 2.4675 3.78967 2.54397 3.80351C4.45933 3.83791 6.3761 3.83791 8.29006 3.91496C9.69634 3.97138 11.0647 4.25345 12.2277 5.13406C13.5018 6.09723 14.0165 7.41402 13.8379 8.93446C13.5707 11.1979 12.0898 12.578 9.68087 12.9867C9.03529 13.0961 8.38133 13.1513 7.72614 13.1518C5.87828 13.1518 4.03042 13.1518 2.12209 13.1518Z" fill="black"></path> <path d="M94.7723 24.1872C93.8737 24.384 93.2114 24.0028 92.9189 23.158C92.8326 22.8971 92.7894 22.6245 92.7909 22.3503C92.7834 21.7082 92.7811 21.0661 92.7839 20.424C92.7839 18.4976 92.8078 16.5713 92.7839 14.645C92.7951 13.6104 92.5023 12.5945 91.9401 11.7183C91.2862 10.7317 90.3116 10.1607 89.1908 9.82635C87.5033 9.32 85.7876 9.33101 84.0761 9.74517C83.1287 9.95598 82.2251 10.3236 81.4042 10.8322V12.5576C81.625 12.6209 81.7389 12.4723 81.8697 12.398C83.6725 11.3771 85.5935 10.9808 87.6565 11.3372C89.0797 11.5834 90.4297 12.3719 90.7349 14.1785C90.9079 15.2022 90.7926 16.2246 90.8305 17.2249C90.6807 17.281 90.5149 17.281 90.3651 17.2249C88.6297 16.8038 86.8803 16.5919 85.0929 16.8341C84.1394 16.9634 83.2169 17.1891 82.3774 17.6597C80.7081 18.6063 79.7659 20.2657 80.2468 22.4453C80.597 24.0331 81.6658 24.9784 83.1649 25.4971C85.0282 26.1425 86.8803 26.0062 88.7056 25.3155C89.5435 24.98 90.3296 24.5322 91.0415 23.985C91.9415 25.8356 93.847 26.1727 95.4361 25.5384V23.8873C95.1956 24.1501 94.9749 24.1432 94.7723 24.1872ZM90.8066 22.3806C89.4863 23.5048 87.8135 24.1547 86.0646 24.223C85.2202 24.2741 84.3774 24.1001 83.6261 23.7194C82.6544 23.2172 82.1425 22.4301 82.1087 21.3486C82.075 20.2671 82.5728 19.4649 83.515 18.9173C84.0055 18.651 84.5393 18.4694 85.0929 18.3807C86.3487 18.1385 87.6073 18.2142 88.8603 18.4137C89.5186 18.512 90.1689 18.6554 90.8066 18.843V22.3806Z" fill="black"></path> <path d="M112.93 25.3437C112.568 25.0024 112.461 24.6077 112.61 24.1597C112.781 23.7117 113.069 23.4344 113.474 23.3277C113.88 23.1997 114.274 23.2957 114.658 23.6157C115.021 23.957 115.117 24.3517 114.946 24.7997C114.797 25.2477 114.52 25.525 114.114 25.6317C113.709 25.7597 113.314 25.6637 112.93 25.3437ZM119.96 25.5997H118.392L128.568 3.0717H129.944L140.056 25.5997H138.52L135.544 19.0077H122.936L119.96 25.5997ZM129.24 4.9917L123.448 17.7277H135L129.24 4.9917ZM150.597 25.9837C148.25 25.9837 146.33 25.205 144.837 23.6477C143.322 22.069 142.565 20.1704 142.565 17.9517C142.565 15.7544 143.322 13.8664 144.837 12.2877C146.33 10.7304 148.261 9.9517 150.629 9.9517C152.335 9.9517 153.871 10.3464 155.237 11.1357V12.5437C153.807 11.7117 152.325 11.2957 150.789 11.2957C148.869 11.2957 147.258 11.9357 145.957 13.2157C144.677 14.4957 144.037 16.085 144.037 17.9837C144.037 19.8824 144.677 21.4717 145.957 22.7517C147.279 24.0104 148.89 24.6397 150.789 24.6397C152.581 24.6397 154.159 24.1597 155.525 23.1997V24.6397C154.181 25.5357 152.538 25.9837 150.597 25.9837ZM165.458 24.6397C166.674 24.6397 167.815 24.3517 168.882 23.7757C169.949 23.1997 170.813 22.4744 171.474 21.5997V19.0717C169.639 17.877 167.773 17.2797 165.874 17.2797C164.274 17.2797 163.005 17.621 162.066 18.3037C161.127 18.965 160.658 19.8504 160.658 20.9597C160.658 22.1544 161.106 23.0717 162.002 23.7117C162.898 24.3304 164.05 24.6397 165.458 24.6397ZM165.042 25.9837C163.463 25.9837 162.077 25.5464 160.882 24.6717C159.73 23.7757 159.154 22.549 159.154 20.9917C159.154 19.477 159.751 18.2717 160.946 17.3757C162.141 16.4584 163.655 15.9997 165.49 15.9997C167.666 15.9997 169.661 16.5544 171.474 17.6637V15.6477C171.474 12.7464 169.661 11.2957 166.034 11.2957C164.199 11.2957 162.471 11.8397 160.85 12.9277V11.4557C162.407 10.453 164.221 9.9517 166.29 9.9517C168.338 9.9517 169.949 10.4317 171.122 11.3917C172.317 12.3304 172.914 13.7064 172.914 15.5197V22.3037C172.914 22.965 173.063 23.4984 173.362 23.9037C173.661 24.2877 174.066 24.4797 174.578 24.4797C174.919 24.4797 175.218 24.4157 175.474 24.2877V25.4717C175.175 25.6424 174.759 25.7277 174.226 25.7277C173.501 25.7277 172.893 25.5037 172.402 25.0557C171.933 24.5864 171.666 23.925 171.602 23.0717C169.938 25.013 167.751 25.9837 165.042 25.9837ZM185.966 25.9837C183.64 25.9837 181.763 25.205 180.334 23.6477C178.904 22.0904 178.19 20.2024 178.19 17.9837C178.19 15.765 178.904 13.877 180.334 12.3197C181.784 10.741 183.662 9.9517 185.966 9.9517C188.675 9.9517 190.776 10.9864 192.27 13.0557V3.1997H193.71V25.5997H192.27V22.9117C190.755 24.9597 188.654 25.9837 185.966 25.9837ZM186.222 24.6397C187.544 24.6397 188.76 24.2877 189.87 23.5837C190.979 22.8797 191.779 21.973 192.27 20.8637V15.1037C191.758 13.9944 190.936 13.0877 189.806 12.3837C188.696 11.6584 187.502 11.2957 186.222 11.2957C184.344 11.2957 182.776 11.9357 181.518 13.2157C180.28 14.4744 179.662 16.0637 179.662 17.9837C179.662 19.9037 180.28 21.493 181.518 22.7517C182.776 24.0104 184.344 24.6397 186.222 24.6397ZM206.697 25.9837C204.287 25.9837 202.303 25.237 200.745 23.7437C199.167 22.229 198.377 20.309 198.377 17.9837C198.377 15.6797 199.081 13.7704 200.489 12.2557C201.897 10.7197 203.721 9.9517 205.961 9.9517C207.22 9.9517 208.329 10.2077 209.289 10.7197C210.249 11.2104 210.985 11.8824 211.497 12.7357C212.5 14.3357 213.001 15.989 213.001 17.6957V18.1757H199.817C199.86 20.117 200.532 21.6744 201.833 22.8477C203.156 24.0424 204.841 24.6397 206.889 24.6397C208.724 24.6397 210.367 24.1597 211.817 23.1997V24.6077C210.623 25.525 208.916 25.9837 206.697 25.9837ZM199.849 16.9277H211.561C211.561 16.3304 211.455 15.7224 211.241 15.1037C211.028 14.485 210.708 13.8877 210.281 13.3117C209.876 12.7144 209.289 12.2344 208.521 11.8717C207.753 11.4877 206.889 11.2957 205.929 11.2957C204.137 11.2957 202.697 11.8717 201.609 13.0237C200.521 14.1757 199.935 15.477 199.849 16.9277ZM219.093 25.5997H217.653V10.3357H219.093V12.8637C219.669 11.989 220.469 11.285 221.493 10.7517C222.517 10.2184 223.648 9.9517 224.885 9.9517C227.488 9.9517 229.141 11.0397 229.845 13.2157C230.464 12.2344 231.307 11.445 232.373 10.8477C233.461 10.2504 234.667 9.9517 235.989 9.9517C237.717 9.9517 239.051 10.485 239.989 11.5517C240.928 12.597 241.397 14.101 241.397 16.0637V25.5997H239.957V16.3517C239.957 14.197 239.424 12.789 238.357 12.1277C237.504 11.573 236.597 11.2957 235.637 11.2957C234.528 11.2957 233.461 11.6477 232.437 12.3517C231.413 13.077 230.667 13.9304 230.197 14.9117C230.24 15.9357 230.261 16.469 230.261 16.5117V25.5997H228.821V16.3197C228.821 12.9704 227.392 11.2957 224.533 11.2957C223.445 11.2957 222.4 11.6264 221.397 12.2877C220.395 12.9704 219.627 13.7917 219.093 14.7517V25.5997ZM247.224 32.1277C246.286 32.1277 245.56 31.9677 245.048 31.6477V30.2717C245.667 30.613 246.339 30.7837 247.064 30.7837C248.11 30.7837 248.952 30.3677 249.592 29.5357C250.254 28.7677 251.022 27.381 251.896 25.3757L244.824 10.3357H246.456L252.632 23.6157L258.616 10.3357H260.184L252.472 27.3277C251.747 28.9704 250.968 30.1757 250.136 30.9437C249.326 31.733 248.355 32.1277 247.224 32.1277Z" fill="black"></path> <path d="M112.93 25.3437L112.759 25.5258L112.764 25.5309L112.77 25.5358L112.93 25.3437ZM112.61 24.1597L112.376 24.0706L112.373 24.0806L112.61 24.1597ZM113.474 23.3277L113.538 23.5698L113.549 23.5661L113.474 23.3277ZM114.658 23.6157L114.83 23.4337L114.824 23.4285L114.818 23.4236L114.658 23.6157ZM114.946 24.7997L114.712 24.7106L114.709 24.7206L114.946 24.7997ZM114.114 25.6317L114.05 25.3896L114.039 25.3933L114.114 25.6317ZM113.102 25.1617C112.947 25.0158 112.858 24.8703 112.82 24.7265C112.781 24.5836 112.786 24.4235 112.847 24.2388L112.373 24.0806C112.285 24.3439 112.269 24.6051 112.337 24.8569C112.405 25.1078 112.551 25.3303 112.759 25.5258L113.102 25.1617ZM112.844 24.2487C112.991 23.8636 113.223 23.6524 113.538 23.5695L113.411 23.0859C112.915 23.2163 112.571 23.5598 112.377 24.0707L112.844 24.2487ZM113.549 23.5661C113.858 23.4686 114.166 23.5311 114.498 23.8078L114.818 23.4236C114.382 23.0603 113.901 22.9308 113.399 23.0893L113.549 23.5661ZM114.487 23.7978C114.641 23.9428 114.725 24.0862 114.759 24.2268C114.793 24.3666 114.783 24.5253 114.713 24.7107L115.18 24.8887C115.28 24.6261 115.307 24.3635 115.245 24.1086C115.183 23.8546 115.038 23.63 114.83 23.4337L114.487 23.7978ZM114.709 24.7206C114.582 25.1005 114.363 25.3078 114.051 25.3899L114.178 25.8735C114.676 25.7423 115.011 25.3949 115.183 24.8788L114.709 24.7206ZM114.039 25.3933C113.73 25.4908 113.422 25.4283 113.09 25.1516L112.77 25.5358C113.206 25.8991 113.688 26.0286 114.189 25.8701L114.039 25.3933ZM119.96 25.5997V25.8497H120.121L120.188 25.7026L119.96 25.5997ZM118.392 25.5997L118.164 25.4968L118.005 25.8497H118.392V25.5997ZM128.568 3.0717V2.8217H128.407L128.34 2.96879L128.568 3.0717ZM129.944 3.0717L130.172 2.96932L130.106 2.8217H129.944V3.0717ZM140.056 25.5997V25.8497H140.442L140.284 25.4973L140.056 25.5997ZM138.52 25.5997L138.292 25.7026L138.359 25.8497H138.52V25.5997ZM135.544 19.0077L135.772 18.9048L135.705 18.7577H135.544V19.0077ZM122.936 19.0077V18.7577H122.775L122.708 18.9048L122.936 19.0077ZM129.24 4.9917L129.468 4.88868L129.241 4.38641L129.012 4.88821L129.24 4.9917ZM123.448 17.7277L123.22 17.6242L123.06 17.9777H123.448V17.7277ZM135 17.7277V17.9777H135.387L135.228 17.6247L135 17.7277ZM119.96 25.3497H118.392V25.8497H119.96V25.3497ZM118.62 25.7026L128.796 3.17461L128.34 2.96879L118.164 25.4968L118.62 25.7026ZM128.568 3.3217H129.944V2.8217H128.568V3.3217ZM129.716 3.17407L139.828 25.7021L140.284 25.4973L130.172 2.96932L129.716 3.17407ZM140.056 25.3497H138.52V25.8497H140.056V25.3497ZM138.748 25.4968L135.772 18.9048L135.316 19.1106L138.292 25.7026L138.748 25.4968ZM135.544 18.7577H122.936V19.2577H135.544V18.7577ZM122.708 18.9048L119.732 25.4968L120.188 25.7026L123.164 19.1106L122.708 18.9048ZM129.012 4.88821L123.22 17.6242L123.676 17.8312L129.468 5.09519L129.012 4.88821ZM123.448 17.9777H135V17.4777H123.448V17.9777ZM135.228 17.6247L129.468 4.88868L129.012 5.09472L134.772 17.8307L135.228 17.6247ZM144.837 23.6477L145.017 23.4747L145.017 23.4746L144.837 23.6477ZM144.837 12.2877L145.017 12.4608L145.017 12.4607L144.837 12.2877ZM155.237 11.1357H155.487V10.9915L155.362 10.9193L155.237 11.1357ZM155.237 12.5437L155.111 12.7598L155.487 12.9785V12.5437H155.237ZM145.957 13.2157L145.781 13.0375L145.78 13.0389L145.957 13.2157ZM145.957 22.7517L145.78 22.9285L145.784 22.9328L145.957 22.7517ZM155.525 23.1997H155.775V22.7183L155.381 22.9952L155.525 23.1997ZM155.525 24.6397L155.663 24.8477L155.775 24.7735V24.6397H155.525ZM150.597 25.7337C148.312 25.7337 146.459 24.9783 145.017 23.4747L144.656 23.8207C146.201 25.4318 148.189 26.2337 150.597 26.2337V25.7337ZM145.017 23.4746C143.548 21.9432 142.815 20.1069 142.815 17.9517H142.315C142.315 20.2339 143.096 22.1948 144.656 23.8208L145.017 23.4746ZM142.815 17.9517C142.815 15.8186 143.547 13.9927 145.017 12.4608L144.656 12.1146C143.097 13.7401 142.315 15.6902 142.315 17.9517H142.815ZM145.017 12.4607C146.458 10.9576 148.321 10.2017 150.629 10.2017V9.7017C148.2 9.7017 146.202 10.5031 144.656 12.1147L145.017 12.4607ZM150.629 10.2017C152.295 10.2017 153.787 10.5866 155.112 11.3521L155.362 10.9193C153.955 10.1062 152.376 9.7017 150.629 9.7017V10.2017ZM154.987 11.1357V12.5437H155.487V11.1357H154.987ZM155.362 12.3276C153.898 11.4752 152.372 11.0457 150.789 11.0457V11.5457C152.277 11.5457 153.717 11.9482 155.111 12.7598L155.362 12.3276ZM150.789 11.0457C148.807 11.0457 147.132 11.7089 145.781 13.0375L146.132 13.3939C147.384 12.1625 148.931 11.5457 150.789 11.5457V11.0457ZM145.78 13.0389C144.451 14.3683 143.787 16.0223 143.787 17.9837H144.287C144.287 16.1477 144.903 14.6231 146.133 13.3925L145.78 13.0389ZM143.787 17.9837C143.787 19.9451 144.451 21.5991 145.78 22.9285L146.133 22.5749C144.903 21.3443 144.287 19.8197 144.287 17.9837H143.787ZM145.784 22.9328C147.156 24.2376 148.829 24.8897 150.789 24.8897V24.3897C148.951 24.3897 147.403 23.7831 146.129 22.5706L145.784 22.9328ZM150.789 24.8897C152.628 24.8897 154.258 24.396 155.668 23.4042L155.381 22.9952C154.061 23.9234 152.533 24.3897 150.789 24.3897V24.8897ZM155.275 23.1997V24.6397H155.775V23.1997H155.275ZM155.386 24.4317C154.091 25.2952 152.499 25.7337 150.597 25.7337V26.2337C152.577 26.2337 154.271 25.7762 155.663 24.8477L155.386 24.4317ZM171.474 21.5997L171.673 21.7505L171.724 21.6836V21.5997H171.474ZM171.474 19.0717H171.724V18.9362L171.61 18.8622L171.474 19.0717ZM162.066 18.3037L162.21 18.5081L162.213 18.5059L162.066 18.3037ZM162.002 23.7117L161.857 23.9152L161.86 23.9174L162.002 23.7117ZM160.882 24.6717L160.728 24.8691L160.734 24.8734L160.882 24.6717ZM160.946 17.3757L161.096 17.5757L161.098 17.574L160.946 17.3757ZM171.474 17.6637L171.343 17.877L171.724 18.1097V17.6637H171.474ZM160.85 12.9277H160.6V13.3965L160.989 13.1353L160.85 12.9277ZM160.85 11.4557L160.715 11.2455L160.6 11.3193V11.4557H160.85ZM171.122 11.3917L170.964 11.5852L170.967 11.5883L171.122 11.3917ZM173.362 23.9037L173.161 24.0521L173.165 24.0572L173.362 23.9037ZM175.474 24.2877H175.724V23.8832L175.362 24.0641L175.474 24.2877ZM175.474 25.4717L175.598 25.6888L175.724 25.6168V25.4717H175.474ZM172.402 25.0557L172.225 25.2327L172.233 25.2403L172.402 25.0557ZM171.602 23.0717L171.851 23.053L171.806 22.4495L171.412 22.909L171.602 23.0717ZM165.458 24.8897C166.715 24.8897 167.897 24.5914 169.001 23.9957L168.763 23.5557C167.733 24.112 166.633 24.3897 165.458 24.3897V24.8897ZM169.001 23.9957C170.096 23.4045 170.988 22.6566 171.673 21.7505L171.275 21.4489C170.637 22.2921 169.802 22.9949 168.763 23.5557L169.001 23.9957ZM171.724 21.5997V19.0717H171.224V21.5997H171.724ZM171.61 18.8622C169.741 17.6453 167.828 17.0297 165.874 17.0297V17.5297C167.717 17.5297 169.537 18.1088 171.338 19.2812L171.61 18.8622ZM165.874 17.0297C164.241 17.0297 162.914 17.378 161.919 18.1015L162.213 18.5059C163.095 17.8641 164.307 17.5297 165.874 17.5297V17.0297ZM161.922 18.0993C160.92 18.8055 160.408 19.7657 160.408 20.9597H160.908C160.908 19.935 161.335 19.1245 162.21 18.5081L161.922 18.0993ZM160.408 20.9597C160.408 22.2271 160.889 23.2237 161.857 23.9151L162.147 23.5083C161.323 22.9197 160.908 22.0817 160.908 20.9597H160.408ZM161.86 23.9174C162.808 24.5723 164.014 24.8897 165.458 24.8897V24.3897C164.086 24.3897 162.988 24.0884 162.144 23.506L161.86 23.9174ZM165.042 25.7337C163.513 25.7337 162.179 25.3111 161.03 24.47L160.734 24.8734C161.975 25.7816 163.414 26.2337 165.042 26.2337V25.7337ZM161.035 24.4744C159.949 23.6293 159.404 22.4779 159.404 20.9917H158.904C158.904 22.6202 159.511 23.9221 160.728 24.869L161.035 24.4744ZM159.404 20.9917C159.404 19.5544 159.965 18.4237 161.096 17.5757L160.796 17.1757C159.537 18.1197 158.904 19.3997 158.904 20.9917H159.404ZM161.098 17.574C162.24 16.697 163.698 16.2497 165.49 16.2497V15.7497C163.613 15.7497 162.041 16.2197 160.794 17.1774L161.098 17.574ZM165.49 16.2497C167.621 16.2497 169.57 16.7922 171.343 17.877L171.604 17.4504C169.751 16.3165 167.711 15.7497 165.49 15.7497V16.2497ZM171.724 17.6637V15.6477H171.224V17.6637H171.724ZM171.724 15.6477C171.724 14.1419 171.251 12.9729 170.27 12.1885C169.3 11.4126 167.874 11.0457 166.034 11.0457V11.5457C167.821 11.5457 169.114 11.9041 169.958 12.5789C170.791 13.2452 171.224 14.2522 171.224 15.6477H171.724ZM166.034 11.0457C164.146 11.0457 162.37 11.6063 160.711 12.7201L160.989 13.1353C162.572 12.0731 164.252 11.5457 166.034 11.5457V11.0457ZM161.1 12.9277V11.4557H160.6V12.9277H161.1ZM160.985 11.6659C162.498 10.6922 164.263 10.2017 166.29 10.2017V9.7017C164.178 9.7017 162.317 10.2139 160.715 11.2455L160.985 11.6659ZM166.29 10.2017C168.3 10.2017 169.848 10.6728 170.964 11.5852L171.28 11.1982C170.049 10.1906 168.375 9.7017 166.29 9.7017V10.2017ZM170.967 11.5883C172.09 12.4702 172.664 13.7665 172.664 15.5197H173.164C173.164 13.6462 172.543 12.1906 171.276 11.1951L170.967 11.5883ZM172.664 15.5197V22.3037H173.164V15.5197H172.664ZM172.664 22.3037C172.664 23.0017 172.822 23.592 173.161 24.052L173.563 23.7554C173.305 23.4047 173.164 22.9283 173.164 22.3037H172.664ZM173.165 24.0572C173.513 24.5057 173.993 24.7297 174.578 24.7297V24.2297C174.138 24.2297 173.808 24.0697 173.559 23.7502L173.165 24.0572ZM174.578 24.7297C174.951 24.7297 175.289 24.6597 175.586 24.5113L175.362 24.0641C175.147 24.1717 174.888 24.2297 174.578 24.2297V24.7297ZM175.224 24.2877V25.4717H175.724V24.2877H175.224ZM175.35 25.2546C175.104 25.395 174.738 25.4777 174.226 25.4777V25.9777C174.781 25.9777 175.246 25.8897 175.598 25.6888L175.35 25.2546ZM174.226 25.4777C173.557 25.4777 173.011 25.273 172.571 24.8711L172.233 25.2403C172.774 25.7344 173.444 25.9777 174.226 25.9777V25.4777ZM172.579 24.8789C172.163 24.4629 171.912 23.8643 171.851 23.053L171.353 23.0904C171.42 23.9858 171.702 24.7098 172.225 25.2325L172.579 24.8789ZM171.412 22.909C169.799 24.7913 167.683 25.7337 165.042 25.7337V26.2337C167.819 26.2337 170.077 25.2348 171.792 23.2344L171.412 22.909ZM180.334 23.6477L180.518 23.4787L180.518 23.4787L180.334 23.6477ZM180.334 12.3197L180.15 12.1505L180.15 12.1507L180.334 12.3197ZM192.27 13.0557L192.067 13.202L192.52 13.8293V13.0557H192.27ZM192.27 3.1997V2.9497H192.02V3.1997H192.27ZM193.71 3.1997H193.96V2.9497H193.71V3.1997ZM193.71 25.5997V25.8497H193.96V25.5997H193.71ZM192.27 25.5997H192.02V25.8497H192.27V25.5997ZM192.27 22.9117H192.52V22.1532L192.069 22.763L192.27 22.9117ZM189.87 23.5837L189.736 23.3726L189.736 23.3726L189.87 23.5837ZM192.27 20.8637L192.498 20.9648L192.52 20.9165V20.8637H192.27ZM192.27 15.1037H192.52V15.0488L192.497 14.9989L192.27 15.1037ZM189.806 12.3837L189.669 12.593L189.674 12.5959L189.806 12.3837ZM181.518 13.2157L181.339 13.0404L181.339 13.0404L181.518 13.2157ZM181.518 22.7517L181.339 22.927L181.341 22.9285L181.518 22.7517ZM185.966 25.7337C183.703 25.7337 181.895 24.9789 180.518 23.4787L180.15 23.8167C181.631 25.4312 183.578 26.2337 185.966 26.2337V25.7337ZM180.518 23.4787C179.133 21.9699 178.44 20.1432 178.44 17.9837H177.94C177.94 20.2616 178.676 22.2108 180.15 23.8167L180.518 23.4787ZM178.44 17.9837C178.44 15.8242 179.133 13.9975 180.518 12.4887L180.15 12.1507C178.676 13.7566 177.94 15.7058 177.94 17.9837H178.44ZM180.518 12.4889C181.917 10.9659 183.726 10.2017 185.966 10.2017V9.7017C183.598 9.7017 181.651 10.5162 180.15 12.1505L180.518 12.4889ZM185.966 10.2017C188.601 10.2017 190.624 11.2024 192.067 13.202L192.472 12.9094C190.929 10.7704 188.75 9.7017 185.966 9.7017V10.2017ZM192.52 13.0557V3.1997H192.02V13.0557H192.52ZM192.27 3.4497H193.71V2.9497H192.27V3.4497ZM193.46 3.1997V25.5997H193.96V3.1997H193.46ZM193.71 25.3497H192.27V25.8497H193.71V25.3497ZM192.52 25.5997V22.9117H192.02V25.5997H192.52ZM192.069 22.763C190.604 24.7433 188.58 25.7337 185.966 25.7337V26.2337C188.728 26.2337 190.906 25.1761 192.471 23.0604L192.069 22.763ZM186.222 24.8897C187.591 24.8897 188.854 24.5244 190.004 23.7948L189.736 23.3726C188.667 24.051 187.497 24.3897 186.222 24.3897V24.8897ZM190.004 23.7948C191.151 23.0666 191.986 22.1231 192.498 20.9648L192.041 20.7626C191.572 21.8229 190.807 22.6928 189.736 23.3726L190.004 23.7948ZM192.52 20.8637V15.1037H192.02V20.8637H192.52ZM192.497 14.9989C191.962 13.8413 191.106 12.8988 189.938 12.1715L189.674 12.5959C190.767 13.2766 191.553 14.1474 192.043 15.2085L192.497 14.9989ZM189.943 12.1745C188.794 11.4235 187.552 11.0457 186.222 11.0457V11.5457C187.451 11.5457 188.599 11.8932 189.669 12.5929L189.943 12.1745ZM186.222 11.0457C184.281 11.0457 182.647 11.7102 181.339 13.0404L181.696 13.391C182.905 12.1612 184.408 11.5457 186.222 11.5457V11.0457ZM181.339 13.0404C180.052 14.3502 179.412 16.0045 179.412 17.9837H179.912C179.912 16.1229 180.509 14.5985 181.696 13.391L181.339 13.0404ZM179.412 17.9837C179.412 19.9629 180.052 21.6172 181.339 22.927L181.696 22.5764C180.509 21.3689 179.912 19.8445 179.912 17.9837H179.412ZM181.341 22.9285C182.649 24.2368 184.282 24.8897 186.222 24.8897V24.3897C184.407 24.3897 182.903 23.7839 181.694 22.5749L181.341 22.9285ZM200.745 23.7437L200.572 23.9241L200.572 23.9241L200.745 23.7437ZM200.489 12.2557L200.672 12.4259L200.673 12.4246L200.489 12.2557ZM209.289 10.7197L209.172 10.9403L209.175 10.9423L209.289 10.7197ZM211.497 12.7357L211.283 12.8643L211.285 12.8685L211.497 12.7357ZM213.001 18.1757V18.4257H213.251V18.1757H213.001ZM199.817 18.1757V17.9257H199.562L199.567 18.1812L199.817 18.1757ZM201.833 22.8477L202.001 22.6622L202.001 22.662L201.833 22.8477ZM211.817 23.1997H212.067V22.7345L211.679 22.9912L211.817 23.1997ZM211.817 24.6077L211.969 24.806L212.067 24.7309V24.6077H211.817ZM199.849 16.9277L199.6 16.913L199.584 17.1777H199.849V16.9277ZM211.561 16.9277V17.1777H211.811V16.9277H211.561ZM211.241 15.1037L211.005 15.1852L211.005 15.1852L211.241 15.1037ZM210.281 13.3117L210.074 13.4522L210.08 13.4605L210.281 13.3117ZM208.521 11.8717L208.409 12.0954L208.414 12.0978L208.521 11.8717ZM201.609 13.0237L201.791 13.1954L201.791 13.1954L201.609 13.0237ZM206.697 25.7337C204.343 25.7337 202.423 25.0066 200.918 23.5633L200.572 23.9241C202.182 25.4675 204.23 26.2337 206.697 26.2337V25.7337ZM200.918 23.5633C199.392 22.099 198.627 20.2457 198.627 17.9837H198.127C198.127 20.3724 198.941 22.3591 200.572 23.9241L200.918 23.5633ZM198.627 17.9837C198.627 15.735 199.312 13.8889 200.672 12.4259L200.306 12.0855C198.85 13.6518 198.127 15.6244 198.127 17.9837H198.627ZM200.673 12.4246C202.03 10.9445 203.785 10.2017 205.961 10.2017V9.7017C203.657 9.7017 201.764 10.4949 200.305 12.0868L200.673 12.4246ZM205.961 10.2017C207.185 10.2017 208.253 10.4504 209.172 10.9403L209.407 10.4991C208.405 9.96497 207.254 9.7017 205.961 9.7017V10.2017ZM209.175 10.9423C210.097 11.4135 210.797 12.0545 211.283 12.8643L211.712 12.6071C211.173 11.7103 210.401 11.0072 209.403 10.4971L209.175 10.9423ZM211.285 12.8685C212.266 14.433 212.751 16.0409 212.751 17.6957H213.251C213.251 15.9372 212.734 14.2384 211.709 12.6029L211.285 12.8685ZM212.751 17.6957V18.1757H213.251V17.6957H212.751ZM213.001 17.9257H199.817V18.4257H213.001V17.9257ZM199.567 18.1812C199.611 20.1831 200.307 21.8087 201.666 23.0334L202.001 22.662C200.756 21.5401 200.108 20.0509 200.067 18.1702L199.567 18.1812ZM201.666 23.0332C203.041 24.2756 204.789 24.8897 206.889 24.8897V24.3897C204.893 24.3897 203.271 23.8092 202.001 22.6622L201.666 23.0332ZM206.889 24.8897C208.77 24.8897 210.461 24.3968 211.955 23.4082L211.679 22.9912C210.272 23.9226 208.678 24.3897 206.889 24.3897V24.8897ZM211.567 23.1997V24.6077H212.067V23.1997H211.567ZM211.665 24.4094C210.53 25.2806 208.886 25.7337 206.697 25.7337V26.2337C208.946 26.2337 210.715 25.7694 211.969 24.806L211.665 24.4094ZM199.849 17.1777H211.561V16.6777H199.849V17.1777ZM211.811 16.9277C211.811 16.3001 211.699 15.6646 211.478 15.0222L211.005 15.1852C211.21 15.7801 211.311 16.3606 211.311 16.9277H211.811ZM211.478 15.0222C211.255 14.3772 210.922 13.7574 210.482 13.1629L210.08 13.4605C210.493 14.018 210.801 14.5928 211.005 15.1852L211.478 15.0222ZM210.488 13.1713C210.053 12.5309 209.429 12.024 208.628 11.6456L208.414 12.0978C209.149 12.4447 209.698 12.8978 210.074 13.4521L210.488 13.1713ZM208.633 11.6481C207.826 11.2448 206.923 11.0457 205.929 11.0457V11.5457C206.855 11.5457 207.68 11.7306 208.409 12.0953L208.633 11.6481ZM205.929 11.0457C204.078 11.0457 202.569 11.6433 201.427 12.852L201.791 13.1954C202.825 12.1001 204.196 11.5457 205.929 11.5457V11.0457ZM201.427 12.852C200.303 14.0426 199.689 15.3982 199.6 16.913L200.099 16.9424C200.18 15.5558 200.739 14.3088 201.791 13.1954L201.427 12.852ZM219.093 25.5997V25.8497H219.343V25.5997H219.093ZM217.653 25.5997H217.403V25.8497H217.653V25.5997ZM217.653 10.3357V10.0857H217.403V10.3357H217.653ZM219.093 10.3357H219.343V10.0857H219.093V10.3357ZM219.093 12.8637H218.843V13.6979L219.302 13.0012L219.093 12.8637ZM229.845 13.2157L229.608 13.2927L229.772 13.8009L230.057 13.349L229.845 13.2157ZM232.373 10.8477L232.253 10.6285L232.251 10.6296L232.373 10.8477ZM239.989 11.5517L239.802 11.7169L239.803 11.7187L239.989 11.5517ZM241.397 25.5997V25.8497H241.647V25.5997H241.397ZM239.957 25.5997H239.707V25.8497H239.957V25.5997ZM238.357 12.1277L238.221 12.3374L238.226 12.3402L238.357 12.1277ZM232.437 12.3517L232.296 12.1457L232.293 12.1477L232.437 12.3517ZM230.197 14.9117L229.972 14.8038L229.945 14.86L229.948 14.9221L230.197 14.9117ZM230.261 25.5997V25.8497H230.511V25.5997H230.261ZM228.821 25.5997H228.571V25.8497H228.821V25.5997ZM221.397 12.2877L221.26 12.079L221.257 12.0811L221.397 12.2877ZM219.093 14.7517L218.875 14.6303L218.843 14.6869V14.7517H219.093ZM219.093 25.3497H217.653V25.8497H219.093V25.3497ZM217.903 25.5997V10.3357H217.403V25.5997H217.903ZM217.653 10.5857H219.093V10.0857H217.653V10.5857ZM218.843 10.3357V12.8637H219.343V10.3357H218.843ZM219.302 13.0012C219.852 12.1656 220.619 11.4892 221.609 10.9734L221.378 10.53C220.32 11.0809 219.486 11.8124 218.885 12.7262L219.302 13.0012ZM221.609 10.9734C222.595 10.46 223.685 10.2017 224.885 10.2017V9.7017C223.611 9.7017 222.44 9.97675 221.378 10.53L221.609 10.9734ZM224.885 10.2017C226.153 10.2017 227.165 10.4666 227.94 10.9765C228.712 11.4845 229.27 12.2499 229.608 13.2927L230.083 13.1387C229.717 12.0055 229.096 11.1389 228.215 10.5589C227.336 9.98075 226.22 9.7017 224.885 9.7017V10.2017ZM230.057 13.349C230.652 12.4049 231.463 11.6439 232.496 11.0658L232.251 10.6296C231.15 11.2461 230.276 12.0639 229.634 13.0824L230.057 13.349ZM232.494 11.0668C233.542 10.4911 234.706 10.2017 235.989 10.2017V9.7017C234.628 9.7017 233.38 10.0097 232.253 10.6286L232.494 11.0668ZM235.989 10.2017C237.662 10.2017 238.921 10.7156 239.802 11.7169L240.177 11.3865C239.181 10.2544 237.772 9.7017 235.989 9.7017V10.2017ZM239.803 11.7187C240.687 12.7028 241.147 14.1382 241.147 16.0637H241.647C241.647 14.0638 241.169 12.4913 240.175 11.3847L239.803 11.7187ZM241.147 16.0637V25.5997H241.647V16.0637H241.147ZM241.397 25.3497H239.957V25.8497H241.397V25.3497ZM240.207 25.5997V16.3517H239.707V25.5997H240.207ZM240.207 16.3517C240.207 14.1732 239.67 12.6475 238.489 11.9152L238.226 12.3402C239.178 12.9305 239.707 14.2208 239.707 16.3517H240.207ZM238.494 11.9181C237.602 11.3387 236.649 11.0457 235.637 11.0457V11.5457C236.546 11.5457 237.406 11.8073 238.221 12.3373L238.494 11.9181ZM235.637 11.0457C234.472 11.0457 233.356 11.4166 232.296 12.1457L232.579 12.5577C233.567 11.8788 234.585 11.5457 235.637 11.5457V11.0457ZM232.293 12.1477C231.24 12.8938 230.462 13.7785 229.972 14.8038L230.423 15.0196C230.871 14.0822 231.587 13.2602 232.582 12.5557L232.293 12.1477ZM229.948 14.9221C229.969 15.4341 229.985 15.8232 229.996 16.0897C230.001 16.2229 230.005 16.3253 230.008 16.397C230.009 16.4328 230.01 16.4607 230.011 16.4808C230.011 16.4908 230.011 16.4986 230.011 16.5044C230.011 16.5109 230.011 16.5126 230.011 16.5117H230.511C230.511 16.4621 230.49 15.9194 230.447 14.9013L229.948 14.9221ZM230.011 16.5117V25.5997H230.511V16.5117H230.011ZM230.261 25.3497H228.821V25.8497H230.261V25.3497ZM229.071 25.5997V16.3197H228.571V25.5997H229.071ZM229.071 16.3197C229.071 14.6153 228.709 13.2904 227.94 12.3894C227.164 11.4808 226.013 11.0457 224.533 11.0457V11.5457C225.913 11.5457 226.905 11.9479 227.559 12.714C228.22 13.4877 228.571 14.6747 228.571 16.3197H229.071ZM224.533 11.0457C223.391 11.0457 222.299 11.3936 221.26 12.079L221.535 12.4964C222.501 11.8591 223.499 11.5457 224.533 11.5457V11.0457ZM221.257 12.0811C220.225 12.7833 219.429 13.6328 218.875 14.6303L219.312 14.8731C219.824 13.9506 220.564 13.1574 221.538 12.4944L221.257 12.0811ZM218.843 14.7517V25.5997H219.343V14.7517H218.843ZM245.048 31.6477H244.798V31.7863L244.916 31.8597L245.048 31.6477ZM245.048 30.2717L245.169 30.0528L244.798 29.8482V30.2717H245.048ZM249.592 29.5357L249.402 29.3723L249.394 29.3833L249.592 29.5357ZM251.896 25.3757L252.125 25.4756L252.171 25.3718L252.122 25.2693L251.896 25.3757ZM244.824 10.3357V10.0857H244.43L244.598 10.4421L244.824 10.3357ZM246.456 10.3357L246.683 10.2303L246.616 10.0857H246.456V10.3357ZM252.632 23.6157L252.406 23.7211L252.636 24.2163L252.86 23.7184L252.632 23.6157ZM258.616 10.3357V10.0857H258.455L258.388 10.233L258.616 10.3357ZM260.184 10.3357L260.412 10.439L260.572 10.0857H260.184V10.3357ZM252.472 27.3277L252.245 27.2244L252.243 27.2267L252.472 27.3277ZM250.136 30.9437L249.967 30.7599L249.962 30.7646L250.136 30.9437ZM247.224 31.8777C246.308 31.8777 245.637 31.7207 245.181 31.4357L244.916 31.8597C245.484 32.2147 246.263 32.3777 247.224 32.3777V31.8777ZM245.298 31.6477V30.2717H244.798V31.6477H245.298ZM244.927 30.4906C245.584 30.8529 246.298 31.0337 247.064 31.0337V30.5337C246.38 30.5337 245.75 30.3732 245.169 30.0528L244.927 30.4906ZM247.064 31.0337C248.188 31.0337 249.103 30.5813 249.79 29.6881L249.394 29.3833C248.801 30.1541 248.032 30.5337 247.064 30.5337V31.0337ZM249.782 29.6988C250.469 28.9003 251.249 27.4837 252.125 25.4756L251.667 25.2758C250.794 27.2784 250.038 28.6351 249.403 29.3726L249.782 29.6988ZM252.122 25.2693L245.05 10.2293L244.598 10.4421L251.67 25.4821L252.122 25.2693ZM244.824 10.5857H246.456V10.0857H244.824V10.5857ZM246.23 10.4411L252.406 23.7211L252.859 23.5103L246.683 10.2303L246.23 10.4411ZM252.86 23.7184L258.844 10.4384L258.388 10.233L252.404 23.513L252.86 23.7184ZM258.616 10.5857H260.184V10.0857H258.616V10.5857ZM259.957 10.2324L252.245 27.2244L252.7 27.431L260.412 10.439L259.957 10.2324ZM252.243 27.2267C251.525 28.8544 250.763 30.0249 249.967 30.76L250.306 31.1274C251.173 30.3265 251.969 29.0864 252.701 27.4287L252.243 27.2267ZM249.962 30.7646C249.198 31.5085 248.29 31.8777 247.224 31.8777V32.3777C248.42 32.3777 249.453 31.9576 250.311 31.1228L249.962 30.7646Z" fill="black"></path> </svg> 