<?xml version="1.0" encoding="UTF-8"?> <svg xmlns="http://www.w3.org/2000/svg" width="937" height="937" viewBox="0 0 937 937" fill="none"> <g clip-path="url(#clip0)"> <path d="M31.2333 124.933C31.2333 107.681 45.2142 93.7001 62.4667 93.7001H812.067C829.319 93.7001 843.3 107.681 843.3 124.933V343.567H874.533V124.933C874.533 90.4362 846.564 62.4668 812.067 62.4668H62.4667C27.9694 62.4668 0 90.4362 0 124.933V655.9C0 690.397 27.9694 718.367 62.4667 718.367H338.195L300.715 843.3H265.483V874.533H609.05V843.3H573.819L536.339 718.367H609.05V687.133H62.4667C45.2142 687.133 31.2333 673.153 31.2333 655.9V624.667H609.05V593.433H31.2333V124.933ZM370.802 718.367H503.731L541.211 843.3H333.322L370.802 718.367Z" fill="white"></path> <path d="M812.067 343.566V140.55C812.067 131.922 805.078 124.933 796.45 124.933H78.0835C69.4553 124.933 62.4668 131.922 62.4668 140.55V562.2H93.7001V281.1H780.833V343.566H812.067ZM93.7001 249.866V156.166H780.833V249.866H93.7001Z" fill="white"></path> <path d="M140.55 187.4H234.25V218.633H140.55V187.4Z" fill="white"></path> <path d="M265.483 187.4H359.183V218.633H265.483V187.4Z" fill="white"></path> <path d="M390.417 187.4H484.117V218.633H390.417V187.4Z" fill="white"></path> <path d="M515.35 187.4H609.05V218.633H515.35V187.4Z" fill="white"></path> <path d="M312.333 327.95C312.333 319.322 305.345 312.333 296.716 312.333H140.55C131.922 312.333 124.933 319.322 124.933 327.95V452.883C124.933 461.512 131.922 468.5 140.55 468.5H296.716C305.345 468.5 312.333 461.512 312.333 452.883V327.95ZM281.1 437.267H156.166V343.567H281.1V437.267Z" fill="white"></path> <path d="M530.966 327.95C530.966 319.322 523.978 312.333 515.35 312.333H359.183C350.555 312.333 343.566 319.322 343.566 327.95V452.883C343.566 461.512 350.555 468.5 359.183 468.5H515.35C523.978 468.5 530.966 461.512 530.966 452.883V327.95ZM499.733 437.267H374.8V343.567H499.733V437.267Z" fill="white"></path> <path d="M593.434 343.567H749.6V327.95C749.6 319.322 742.612 312.333 733.984 312.333H577.817C569.189 312.333 562.2 319.322 562.2 327.95V452.883C562.2 461.512 569.189 468.5 577.817 468.5H609.05V437.267H593.434V343.567Z" fill="white"></path> <path d="M312.333 562.2V515.35C312.333 506.722 305.345 499.733 296.716 499.733H140.55C131.922 499.733 124.933 506.722 124.933 515.35V562.2H156.166V530.967H281.1V562.2H312.333Z" fill="white"></path> <path d="M530.966 562.2V515.35C530.966 506.722 523.978 499.733 515.35 499.733H359.183C350.555 499.733 343.566 506.722 343.566 515.35V562.2H374.8V530.967H499.733V562.2H530.966Z" fill="white"></path> <path d="M562.2 515.35V562.2H593.434V530.967H609.05V499.733H577.817C569.189 499.733 562.2 506.722 562.2 515.35Z" fill="white"></path> <path d="M874.533 374.8H702.75C668.253 374.8 640.283 402.769 640.283 437.266V812.066C640.283 846.564 668.253 874.533 702.75 874.533H874.533C909.03 874.533 937 846.564 937 812.066V437.266C937 402.769 909.03 374.8 874.533 374.8ZM905.767 812.066C905.767 829.319 891.786 843.3 874.533 843.3H702.75C685.497 843.3 671.517 829.319 671.517 812.066V796.45H905.767V812.066ZM905.767 765.216H671.517V437.266C671.517 420.014 685.497 406.033 702.75 406.033H874.533C891.786 406.033 905.767 420.014 905.767 437.266V765.216Z" fill="white"></path> <path d="M858.917 499.733H718.367C709.738 499.733 702.75 506.722 702.75 515.35V640.283C702.75 648.912 709.738 655.9 718.367 655.9H858.917C867.545 655.9 874.533 648.912 874.533 640.283V515.35C874.533 506.722 867.545 499.733 858.917 499.733ZM843.3 624.667H733.983V530.967H843.3V624.667Z" fill="white"></path> <path d="M858.917 687.133H718.367C709.738 687.133 702.75 694.122 702.75 702.75V733.983H733.983V718.367H843.3V733.983H874.533V702.75C874.533 694.122 867.545 687.133 858.917 687.133Z" fill="white"></path> <path d="M702.75 437.267H874.533V468.5H702.75V437.267Z" fill="white"></path> </g> <defs> <clipPath id="clip0"> <rect width="937" height="937" fill="white"></rect> </clipPath> </defs> </svg> 