<?xml version="1.0" encoding="UTF-8"?> <svg xmlns="http://www.w3.org/2000/svg" width="938" height="938" viewBox="0 0 938 938" fill="none"> <g clip-path="url(#clip0)"> <path d="M875 125V156.25C892.262 156.25 906.25 170.238 906.25 187.5V656.25H31.25V187.5C31.25 170.238 45.2383 156.25 62.5 156.25V125C27.9844 125 0 152.984 0 187.5V718.75C0 753.266 27.9844 781.25 62.5 781.25H369.625L332.125 906.25H296.875V937.5H640.625V906.25H605.375L567.875 781.25H875C909.516 781.25 937.5 753.266 937.5 718.75V187.5C937.5 152.984 909.516 125 875 125ZM572.75 906.25H364.75L402.25 781.25H535.25L572.75 906.25ZM906.25 718.75C906.25 736.012 892.262 750 875 750H62.5C45.2383 750 31.25 736.012 31.25 718.75V687.5H906.25V718.75Z" fill="white"></path> <path d="M93.75 62.5V625H125V62.5C125 45.2383 138.988 31.25 156.25 31.25H781.25C798.512 31.25 812.5 45.2383 812.5 62.5V625H843.75V62.5C843.75 27.9844 815.766 0 781.25 0H156.25C121.734 0 93.75 27.9844 93.75 62.5Z" fill="white"></path> <path d="M156.25 62.5H187.5V93.75H156.25V62.5Z" fill="white"></path> <path d="M218.75 62.5H250V93.75H218.75V62.5Z" fill="white"></path> <path d="M281.25 62.5H312.5V93.75H281.25V62.5Z" fill="white"></path> <path d="M156.25 125H781.25V156.25H156.25V125Z" fill="white"></path> <path d="M343.75 218.75C343.75 201.488 329.762 187.5 312.5 187.5H187.5C170.238 187.5 156.25 201.488 156.25 218.75V312.5C156.25 329.762 170.238 343.75 187.5 343.75H312.5C329.762 343.75 343.75 329.762 343.75 312.5V218.75ZM187.5 312.5V218.75H312.5V312.5H187.5Z" fill="white"></path> <path d="M562.5 218.75C562.5 201.488 548.512 187.5 531.25 187.5H406.25C388.988 187.5 375 201.488 375 218.75V312.5C375 329.762 388.988 343.75 406.25 343.75H531.25C548.512 343.75 562.5 329.762 562.5 312.5V218.75ZM406.25 312.5V218.75H531.25V312.5H406.25Z" fill="white"></path> <path d="M781.25 218.75C781.25 201.488 767.262 187.5 750 187.5H625C607.738 187.5 593.75 201.488 593.75 218.75V312.5C593.75 329.762 607.738 343.75 625 343.75H750C767.262 343.75 781.25 329.762 781.25 312.5V218.75ZM625 312.5V218.75H750V312.5H625Z" fill="white"></path> <path d="M343.75 406.25C343.75 388.988 329.762 375 312.5 375H187.5C170.238 375 156.25 388.988 156.25 406.25V500C156.25 517.262 170.238 531.25 187.5 531.25H312.5C329.762 531.25 343.75 517.262 343.75 500V406.25ZM187.5 500V406.25H312.5V500H187.5Z" fill="white"></path> <path d="M562.5 406.25C562.5 388.988 548.512 375 531.25 375H406.25C388.988 375 375 388.988 375 406.25V500C375 517.262 388.988 531.25 406.25 531.25H531.25C548.512 531.25 562.5 517.262 562.5 500V406.25ZM406.25 500V406.25H531.25V500H406.25Z" fill="white"></path> <path d="M781.25 406.25C781.25 388.988 767.262 375 750 375H625C607.738 375 593.75 388.988 593.75 406.25V500C593.75 517.262 607.738 531.25 625 531.25H750C767.262 531.25 781.25 517.262 781.25 500V406.25ZM625 500V406.25H750V500H625Z" fill="white"></path> <path d="M343.75 625V593.75C343.75 576.488 329.762 562.5 312.5 562.5H187.5C170.238 562.5 156.25 576.488 156.25 593.75V625H187.5V593.75H312.5V625H343.75Z" fill="white"></path> <path d="M562.5 625V593.75C562.5 576.488 548.512 562.5 531.25 562.5H406.25C388.988 562.5 375 576.488 375 593.75V625H406.25V593.75H531.25V625H562.5Z" fill="white"></path> <path d="M781.25 625V593.75C781.25 576.488 767.262 562.5 750 562.5H625C607.738 562.5 593.75 576.488 593.75 593.75V625H625V593.75H750V625H781.25Z" fill="white"></path> </g> <defs> <clipPath id="clip0"> <rect width="937.5" height="937.5" fill="white"></rect> </clipPath> </defs> </svg> 