<?xml version="1.0" encoding="UTF-8"?> <svg xmlns="http://www.w3.org/2000/svg" width="192" height="23" viewBox="0 0 192 23" fill="none"> <path d="M25.5358 6.5687L23.3624 9.10032C22.6659 8.54539 21.8824 8.30134 21.0213 8.40969C20.6368 8.45641 20.2661 8.57927 19.9318 8.77078C19.5974 8.96229 19.3064 9.21844 19.0766 9.5236C18.6424 10.0879 18.4207 10.7817 18.4492 11.4875C18.4777 12.1934 18.7545 12.8679 19.2329 13.397C20.1819 14.4238 21.9103 14.6354 23.1419 13.7767C24.1986 13.0436 24.8662 11.3099 23.8985 9.6998C24.1293 9.4355 26.1434 8.02691 26.7685 7.69578C27.3282 8.35286 27.7167 9.13295 27.9007 9.96917C28.2205 11.3808 28.0984 12.7691 27.406 14.0673C26.6971 15.398 25.599 16.3266 24.1842 16.8926C23.1374 17.3177 22.0011 17.4887 20.8723 17.3908C18.4287 17.1741 16.5026 16.123 15.3549 13.9306C14.9409 13.1509 14.7815 12.3033 14.7711 11.4152C14.7421 10.203 15.1086 9.01334 15.8175 8.01881C16.6537 6.83199 17.8015 6.08061 19.2018 5.63808C20.2068 5.32416 21.2283 5.28467 22.2519 5.3677C23.438 5.46754 24.5736 5.88286 25.5358 6.5687V6.5687Z" fill="white"></path> <path d="M45.8095 6.40755V7.86272C45.085 7.43021 44.2947 7.11333 43.4684 6.924C42.2844 6.65869 41.0952 6.54223 39.8998 6.86729C39.5867 6.9561 39.2891 7.0906 39.017 7.26628C38.2066 7.7726 37.8682 9.30676 39.1536 9.99333C39.7042 10.287 40.3066 10.4136 40.9131 10.5199C41.6727 10.6515 42.4345 10.7761 43.19 10.925C43.7804 11.0348 44.3496 11.2344 44.877 11.5163C45.8643 12.0551 46.3663 12.8652 46.3787 13.9791C46.3994 15.4241 45.7163 16.4095 44.3968 16.9998C43.959 17.1948 43.4952 17.3281 43.0192 17.3958C41.3626 17.6352 39.6711 17.465 38.099 16.9006C37.9386 16.8449 37.7802 16.7801 37.6239 16.7102C37.4677 16.6403 37.3186 16.5624 37.1561 16.4834V15.0049C38.8224 15.9993 40.6171 16.3345 42.5142 16.1806C43.1516 16.1411 43.7651 15.9286 44.286 15.5669C45.1512 14.9593 45.2589 13.2723 44.049 12.6677C43.4912 12.3882 42.894 12.2505 42.2896 12.1391C41.3798 11.972 40.4556 11.8789 39.5635 11.6267C38.9966 11.4847 38.4604 11.2447 37.98 10.9179C37.1075 10.291 36.7856 9.42422 36.8922 8.40145C37.0506 6.87236 38.0503 6.06528 39.4651 5.66731C40.6036 5.34529 41.7731 5.37567 42.9437 5.52858C43.9422 5.66385 44.9107 5.9609 45.8095 6.40755V6.40755Z" fill="white"></path> <path d="M74.1893 7.05897H71.8576C71.7654 6.63873 71.8265 6.24076 71.8203 5.82456C72.2208 5.72329 72.61 5.86304 72.9991 5.83468C73.3883 5.80633 73.7526 5.82861 74.1811 5.82861C74.2028 5.28077 74.1935 4.7471 74.1945 4.21344C74.1955 3.67977 74.1945 3.14003 74.1945 2.57599L75.6259 2.34814V5.82051H79.4283C79.5318 6.24886 79.4408 6.64176 79.4832 7.06201H75.7056C75.5814 7.19062 75.629 7.31416 75.629 7.42555C75.6207 8.82604 75.6197 10.2265 75.6103 11.626C75.6103 12.1647 75.5607 12.7035 75.5793 13.2402C75.599 13.7931 75.6052 14.3541 75.7428 14.8928C75.9902 15.87 76.6277 16.3672 77.6565 16.3935C78.2723 16.4087 78.8446 16.2518 79.4283 16.0077V17.2401C79.3528 17.3545 79.1996 17.3788 79.0526 17.4264C78.2183 17.7059 77.3183 17.7383 76.4652 17.5196C75.2026 17.2087 74.5423 16.3713 74.2918 15.1632C74.1885 14.5819 74.1459 13.9919 74.1645 13.4022C74.1645 11.5119 74.1707 9.62164 74.1831 7.73137C74.1893 7.51872 74.1893 7.30403 74.1893 7.05897Z" fill="white"></path> <path d="M51.0494 6.96052H48.7953C48.6649 6.74787 48.7363 6.5423 48.7239 6.35293C48.7115 6.16357 48.7239 5.94788 48.7239 5.72712C49.5084 5.60763 50.2763 5.78079 51.0888 5.71193C51.1364 4.61928 51.0888 3.5479 51.126 2.46437L52.5481 2.24463V5.72712H56.365V6.95647H52.5481C52.5419 7.08204 52.5346 7.159 52.5346 7.24305C52.515 9.28252 52.4911 11.322 52.4829 13.3615C52.4764 13.8665 52.5383 14.3701 52.6671 14.8592C52.8958 15.6946 53.4009 16.2232 54.4804 16.2829C54.7898 16.2994 55.1001 16.2742 55.4025 16.208C55.7059 16.1275 56.0044 16.0305 56.2967 15.9174V17.1599C56.0773 17.3715 55.7554 17.3908 55.4615 17.4505C54.6956 17.6044 53.9184 17.6125 53.1722 17.3725C52.0823 17.0222 51.4489 16.2485 51.2233 15.1579C51.0827 14.4298 51.0213 13.6891 51.0401 12.9483C51.0601 11.1255 51.0788 9.30581 51.096 7.48912C51.097 7.32406 51.1271 7.15495 51.0494 6.96052Z" fill="white"></path> <path d="M31.5779 5.65527H32.9836V17.1549C32.5188 17.2561 32.0613 17.1701 31.5469 17.2045C31.551 13.3554 31.5665 9.53573 31.5779 5.65527Z" fill="white"></path> <path d="M32.7993 0.074707C33.3075 0.334957 33.6377 0.764319 34.028 1.1471L31.1297 3.13492C31.0003 2.92125 30.8078 2.76328 30.6401 2.57898L32.7993 0.074707Z" fill="white"></path> <path d="M6.94876 9.31202C7.44037 9.31202 7.81917 9.19962 8.19072 9.08721C10.0464 8.53026 11.276 7.40926 11.6061 5.45789C11.9363 3.50652 10.9851 1.68477 9.14496 0.799716C8.17623 0.326811 7.13299 0.126307 6.0649 0.0949147C4.15435 0.0382065 2.24174 0.0321306 0.330154 0.00478918C0.283447 -0.00466666 0.234907 -5.16144e-05 0.190935 0.0180259C0.146962 0.0361035 0.10962 0.0667948 0.0838323 0.106054C0.116951 5.69991 0.0103497 11.3555 0 17.001C0.498126 17.0928 1.00957 17.0908 1.50691 16.995C1.51726 14.4866 1.52761 11.9672 1.53899 9.45075H5.31455L11.0069 17.0841H12.7963L6.94876 9.31202ZM1.56176 8.20722V1.42857C1.60054 1.38738 1.64937 1.35648 1.70367 1.33877C1.75797 1.32106 1.81597 1.31712 1.87225 1.32731C3.28188 1.35262 4.69254 1.35262 6.10113 1.40933C7.13609 1.45085 8.14311 1.65844 8.99903 2.30653C9.93671 3.01539 10.3155 3.98449 10.1841 5.10346C9.98742 6.76927 8.8976 7.78495 7.12471 8.08571C6.64959 8.16625 6.1683 8.20691 5.6861 8.20722C4.32616 8.20722 2.96621 8.20722 1.56176 8.20722Z" fill="white"></path> <path d="M69.7483 16.3289C69.087 16.4737 68.5995 16.1932 68.3842 15.5714C68.3208 15.3794 68.289 15.1788 68.2901 14.977C68.2845 14.5044 68.2828 14.0318 68.2849 13.5593C68.2849 12.1416 68.3025 10.7239 68.2849 9.30616C68.2932 8.5448 68.0776 7.79715 67.6639 7.15226C67.1827 6.4262 66.4654 6.00595 65.6406 5.75988C64.3986 5.38722 63.1359 5.39532 61.8764 5.70013C61.1791 5.85528 60.5141 6.12583 59.9099 6.50012V7.76998C60.0724 7.81656 60.1563 7.70719 60.2525 7.65251C61.5793 6.90113 62.9931 6.60949 64.5114 6.87176C65.5588 7.05302 66.5524 7.63327 66.777 8.96288C66.9043 9.71628 66.8194 10.4687 66.8473 11.2049C66.737 11.2462 66.615 11.2462 66.5048 11.2049C65.2276 10.895 63.9401 10.7391 62.6247 10.9173C61.923 11.0125 61.244 11.1785 60.6261 11.5249C59.3976 12.2216 58.7042 13.4428 59.0582 15.0469C59.3159 16.2154 60.1025 16.9111 61.2057 17.2929C62.5771 17.7678 63.9401 17.6676 65.2835 17.1592C65.9001 16.9123 66.4787 16.5828 67.0026 16.18C67.665 17.542 69.0673 17.7901 70.2368 17.3233V16.1081C70.0599 16.3015 69.8974 16.2965 69.7483 16.3289ZM66.8297 14.9993C65.858 15.8266 64.6269 16.3049 63.3398 16.3552C62.7184 16.3928 62.0981 16.2647 61.5452 15.9846C60.83 15.6149 60.4533 15.0357 60.4285 14.2398C60.4036 13.4438 60.77 12.8535 61.4634 12.4504C61.8244 12.2544 62.2173 12.1208 62.6247 12.0555C63.5489 11.8773 64.4752 11.933 65.3973 12.0798C65.8818 12.1521 66.3604 12.2577 66.8297 12.3957V14.9993Z" fill="white"></path> <path d="M83.1117 17.1798C82.8448 16.9286 82.7663 16.6381 82.8762 16.3084C83.0018 15.9787 83.2138 15.7746 83.5121 15.6961C83.8104 15.6019 84.1008 15.6726 84.3834 15.9081C84.6504 16.1593 84.721 16.4497 84.5954 16.7795C84.4855 17.1092 84.2814 17.3133 83.9831 17.3918C83.6848 17.486 83.3943 17.4153 83.1117 17.1798Z" fill="white"></path> <path d="M88.2853 17.3682H87.1313L94.6204 0.788574H95.6331L103.075 17.3682H101.945L99.7545 12.5168H90.4755L88.2853 17.3682ZM95.115 2.20161L90.8523 11.5748H99.3541L95.115 2.20161Z" fill="white"></path> <path d="M110.833 17.6508C109.106 17.6508 107.693 17.0778 106.594 15.9316C105.479 14.7698 104.921 13.3725 104.921 11.7396C104.921 10.1225 105.479 8.73299 106.594 7.57116C107.693 6.42503 109.113 5.85196 110.856 5.85196C112.112 5.85196 113.243 6.14242 114.247 6.72333V7.75956C113.196 7.14724 112.104 6.84109 110.974 6.84109C109.561 6.84109 108.376 7.3121 107.418 8.25412C106.476 9.19615 106.005 10.3658 106.005 11.7632C106.005 13.1605 106.476 14.3302 107.418 15.2722C108.391 16.1985 109.577 16.6617 110.974 16.6617C112.293 16.6617 113.455 16.3084 114.459 15.6019V16.6617C113.47 17.3211 112.261 17.6508 110.833 17.6508Z" fill="white"></path> <path d="M121.77 16.6617C122.665 16.6617 123.505 16.4497 124.29 16.0258C125.075 15.6019 125.711 15.0681 126.197 14.4244V12.5639C124.847 11.6847 123.473 11.2451 122.076 11.2451C120.899 11.2451 119.964 11.4963 119.274 11.9987C118.583 12.4854 118.237 13.137 118.237 13.9534C118.237 14.8326 118.567 15.5077 119.226 15.9787C119.886 16.434 120.734 16.6617 121.77 16.6617ZM121.464 17.6508C120.302 17.6508 119.281 17.329 118.402 16.6852C117.554 16.0258 117.13 15.1231 117.13 13.9769C117.13 12.8622 117.57 11.9751 118.449 11.3157C119.328 10.6406 120.443 10.303 121.793 10.303C123.395 10.303 124.863 10.7112 126.197 11.5277V10.044C126.197 7.90871 124.863 6.84109 122.194 6.84109C120.844 6.84109 119.572 7.24145 118.379 8.04217V6.95884C119.525 6.22092 120.859 5.85196 122.382 5.85196C123.889 5.85196 125.075 6.20522 125.938 6.91174C126.818 7.60256 127.257 8.61523 127.257 9.94977V14.9425C127.257 15.4292 127.367 15.8217 127.587 16.12C127.807 16.4026 128.105 16.5439 128.482 16.5439C128.733 16.5439 128.953 16.4968 129.141 16.4026V17.274C128.921 17.3996 128.615 17.4624 128.223 17.4624C127.689 17.4624 127.241 17.2976 126.88 16.9679C126.535 16.6224 126.339 16.1357 126.292 15.5077C125.067 16.9365 123.458 17.6508 121.464 17.6508Z" fill="white"></path> <path d="M136.863 17.6508C135.151 17.6508 133.77 17.0778 132.718 15.9316C131.666 14.7855 131.14 13.396 131.14 11.7632C131.14 10.1303 131.666 8.74084 132.718 7.59471C133.785 6.43288 135.167 5.85196 136.863 5.85196C138.857 5.85196 140.403 6.61343 141.502 8.13637V0.882777H142.562V17.3682H141.502V15.39C140.387 16.8972 138.841 17.6508 136.863 17.6508ZM137.051 16.6617C138.025 16.6617 138.919 16.4026 139.736 15.8845C140.552 15.3664 141.141 14.6991 141.502 13.8827V9.64361C141.125 8.82719 140.521 8.15992 139.689 7.64181C138.872 7.10799 137.993 6.84109 137.051 6.84109C135.669 6.84109 134.515 7.3121 133.589 8.25412C132.679 9.18045 132.223 10.3501 132.223 11.7632C132.223 13.1762 132.679 14.3459 133.589 15.2722C134.515 16.1985 135.669 16.6617 137.051 16.6617Z" fill="white"></path> <path d="M152.12 17.6508C150.346 17.6508 148.886 17.1013 147.74 16.0023C146.578 14.8875 145.997 13.4745 145.997 11.7632C145.997 10.0675 146.515 8.66233 147.551 7.5476C148.588 6.41717 149.93 5.85196 151.579 5.85196C152.505 5.85196 153.321 6.04036 154.028 6.41717C154.734 6.77828 155.276 7.27285 155.653 7.90086C156.391 9.0784 156.76 10.2952 156.76 11.5512V11.9045H147.057C147.088 13.3332 147.583 14.4793 148.541 15.3429C149.514 16.2221 150.754 16.6617 152.262 16.6617C153.612 16.6617 154.821 16.3084 155.888 15.6019V16.6381C155.009 17.3133 153.753 17.6508 152.12 17.6508ZM147.08 10.986H155.7C155.7 10.5464 155.621 10.0989 155.464 9.64361C155.307 9.1883 155.072 8.74869 154.758 8.32478C154.46 7.88516 154.028 7.5319 153.463 7.265C152.897 6.98239 152.261 6.84109 151.555 6.84109C150.236 6.84109 149.176 7.265 148.376 8.11282C147.575 8.96064 147.143 9.91837 147.08 10.986Z" fill="white"></path> <path d="M161.243 17.3682H160.184V6.13457H161.243V7.99507C161.667 7.35135 162.256 6.83324 163.01 6.44073C163.763 6.04822 164.595 5.85196 165.506 5.85196C167.421 5.85196 168.638 6.65268 169.156 8.25412C169.612 7.5319 170.232 6.95099 171.017 6.51138C171.818 6.07177 172.705 5.85196 173.678 5.85196C174.95 5.85196 175.931 6.24447 176.622 7.02949C177.313 7.79881 177.658 8.90569 177.658 10.3501V17.3682H176.598V10.5621C176.598 8.97634 176.206 7.94012 175.421 7.4534C174.793 7.04519 174.125 6.84109 173.419 6.84109C172.603 6.84109 171.818 7.10014 171.064 7.61826C170.31 8.15207 169.761 8.78009 169.415 9.50231C169.447 10.2559 169.462 10.6484 169.462 10.6798V17.3682H168.403V10.5385C168.403 8.07357 167.351 6.84109 165.247 6.84109C164.446 6.84109 163.677 7.08444 162.939 7.57116C162.201 8.07357 161.636 8.67804 161.243 9.38455V17.3682Z" fill="white"></path> <path d="M181.946 22.1725C181.255 22.1725 180.722 22.0548 180.345 21.8193V20.8066C180.8 21.0578 181.295 21.1834 181.829 21.1834C182.598 21.1834 183.218 20.8773 183.689 20.2649C184.176 19.6997 184.741 18.6792 185.385 17.2034L180.18 6.13457H181.381L185.926 15.9081L190.33 6.13457H191.484L185.809 18.64C185.275 19.8489 184.702 20.736 184.089 21.3012C183.493 21.8821 182.778 22.1725 181.946 22.1725Z" fill="white"></path> <path fill-rule="evenodd" clip-rule="evenodd" d="M94.5016 0.604492H95.7521L103.359 17.5521H101.826L99.6356 12.7007H90.5942L88.404 17.5521H86.8462L94.5016 0.604492ZM94.7391 0.972471L87.4162 17.1841H88.1664L90.3566 12.3327H99.8732L102.063 17.1841H102.791L95.5139 0.972471H94.7391ZM141.318 0.698695H142.746V17.5521H141.318V15.9123C140.198 17.194 138.707 17.8347 136.863 17.8347C135.105 17.8347 133.673 17.2441 132.582 16.0559C131.497 14.8741 130.956 13.4395 130.956 11.7631C130.956 10.0867 131.497 8.65208 132.582 7.4702C133.687 6.26739 135.12 5.66788 136.863 5.66788C138.719 5.66788 140.209 6.31329 141.318 7.60505V0.698695ZM141.686 1.06667V8.70565L141.353 8.24395C140.291 6.7723 138.802 6.03586 136.863 6.03586C135.214 6.03586 133.883 6.59825 132.853 7.7191C131.834 8.82947 131.324 10.1738 131.324 11.7631C131.324 13.3524 131.834 14.6967 132.853 15.8071C133.867 16.9113 135.197 17.4667 136.863 17.4667C138.786 17.4667 140.276 16.7378 141.354 15.2805L141.686 14.8317V17.1841H142.378V1.06667H141.686ZM95.1154 1.75605L99.6392 11.7587H90.5664L95.1154 1.75605ZM91.138 11.3907H99.0689L95.1144 2.64699L91.138 11.3907ZM110.856 6.03586C109.158 6.03586 107.787 6.59219 106.726 7.69841C105.645 8.82581 105.105 10.1696 105.105 11.7395C105.105 13.3256 105.645 14.6771 106.726 15.8042C107.787 16.9107 109.151 17.4667 110.833 17.4667C112.193 17.4667 113.337 17.1621 114.275 16.562V15.944C113.306 16.5459 112.203 16.8456 110.974 16.8456C109.531 16.8456 108.3 16.3657 107.291 15.4054L107.288 15.4023C106.309 14.4239 105.821 13.2066 105.821 11.7631C105.821 10.3196 106.309 9.10229 107.288 8.12393L107.289 8.12286C108.283 7.14509 109.515 6.657 110.974 6.657C112.04 6.657 113.07 6.9215 114.063 7.44683V6.83043C113.112 6.30165 112.044 6.03586 110.856 6.03586ZM106.461 7.44368C107.598 6.25766 109.069 5.66788 110.856 5.66788C112.142 5.66788 113.304 5.96554 114.339 6.56395L114.431 6.61708V8.07946L114.155 7.91848C113.129 7.32122 112.069 7.02498 110.974 7.02498C109.607 7.02498 108.469 7.47871 107.547 8.38458C106.642 9.29019 106.189 10.4121 106.189 11.7631C106.189 13.1135 106.642 14.235 107.546 15.1404C108.484 16.0317 109.622 16.4776 110.974 16.4776C112.258 16.4776 113.382 16.1344 114.354 15.4513L114.643 15.2475V16.7601L114.561 16.8147C113.536 17.498 112.29 17.8347 110.833 17.8347C109.06 17.8347 107.598 17.2446 106.461 16.0589C105.313 14.8623 104.737 13.4191 104.737 11.7395C104.737 10.0751 105.313 8.63994 106.461 7.44368ZM118.562 7.06002V7.70546C119.701 7.00793 120.913 6.657 122.194 6.657C123.548 6.657 124.598 6.92704 125.311 7.49804C126.033 8.07532 126.381 8.93564 126.381 10.0439V11.8558L126.101 11.6845C124.796 10.8862 123.362 10.4869 121.793 10.4869C120.475 10.4869 119.402 10.8161 118.561 11.4615L118.56 11.4628C117.727 12.0869 117.314 12.919 117.314 13.9768C117.314 15.0696 117.715 15.9165 118.513 16.5383C119.358 17.1563 120.339 17.4667 121.464 17.4667C123.408 17.4667 124.964 16.7732 126.152 15.3879L126.442 15.0497L126.475 15.4939C126.52 16.089 126.703 16.5287 127.007 16.8347C127.331 17.1287 127.732 17.2783 128.223 17.2783C128.54 17.2783 128.781 17.2352 128.957 17.16V16.6681C128.809 16.7084 128.65 16.7278 128.482 16.7278C128.052 16.7278 127.698 16.563 127.442 16.2329L127.439 16.2291C127.189 15.8906 127.073 15.4561 127.073 14.9424V9.94968C127.073 8.6594 126.651 7.70535 125.825 7.05632L125.822 7.05407C125.001 6.38257 123.862 6.03586 122.382 6.03586C120.928 6.03586 119.657 6.3789 118.562 7.06002ZM118.279 6.80405C119.458 6.04481 120.828 5.66788 122.382 5.66788C123.916 5.66788 125.147 6.02733 126.053 6.76806C126.985 7.50064 127.441 8.57157 127.441 9.94968V14.9424C127.441 15.401 127.544 15.751 127.733 16.0088C127.916 16.2427 128.159 16.3599 128.482 16.3599C128.71 16.3599 128.9 16.3172 129.059 16.238L129.325 16.1048V17.3807L129.232 17.4337C128.974 17.5816 128.631 17.6463 128.223 17.6463C127.648 17.6463 127.154 17.4672 126.756 17.1036L126.75 17.098C126.447 16.7952 126.254 16.4004 126.161 15.9247C124.936 17.1986 123.365 17.8347 121.464 17.8347C120.265 17.8347 119.206 17.502 118.293 16.8336L118.289 16.8304C117.393 16.1336 116.946 15.1753 116.946 13.9768C116.946 12.8055 117.412 11.8637 118.338 11.169C119.256 10.4646 120.412 10.1189 121.793 10.1189C123.317 10.1189 124.725 10.4813 126.013 11.2063V10.0439C126.013 9.01686 125.694 8.27574 125.081 7.78539C124.461 7.28876 123.509 7.02498 122.194 7.02498C120.882 7.02498 119.646 7.4131 118.481 8.19485L118.195 8.38712V6.85838L118.279 6.80405ZM151.578 6.03586C149.977 6.03586 148.685 6.58251 147.687 7.67184L147.686 7.67278C146.685 8.74949 146.181 10.1082 146.181 11.7631C146.181 13.4278 146.744 14.7917 147.867 15.8694C148.975 16.9316 150.387 17.4667 152.12 17.4667C153.685 17.4667 154.872 17.1519 155.704 16.5459V15.9341C154.676 16.5423 153.527 16.8456 152.261 16.8456C150.716 16.8456 149.429 16.3936 148.417 15.4794C147.418 14.5781 146.905 13.3818 146.873 11.9084L146.869 11.7204H156.576V11.5511C156.576 10.3333 156.218 9.14994 155.497 7.99847L155.495 7.99543C155.137 7.3994 154.622 6.92771 153.944 6.58091L153.941 6.57943C153.265 6.21891 152.479 6.03586 151.578 6.03586ZM147.416 7.42271C148.49 6.2515 149.883 5.66788 151.578 5.66788C152.53 5.66788 153.376 5.86138 154.113 6.25398C154.846 6.62906 155.414 7.14574 155.81 7.80459C156.563 9.00772 156.944 10.2575 156.944 11.5511V12.0884H147.248C147.316 13.3841 147.79 14.4182 148.664 15.2061C149.598 16.0503 150.792 16.4776 152.261 16.4776C153.578 16.4776 154.751 16.1339 155.787 15.4484L156.072 15.2594V16.7287L156 16.784C155.077 17.493 153.775 17.8347 152.12 17.8347C150.305 17.8347 148.797 17.2708 147.612 16.135C146.412 14.9832 145.813 13.521 145.813 11.7631C145.813 10.0269 146.345 8.57539 147.416 7.42271ZM165.506 6.03586C164.623 6.03586 163.82 6.22594 163.095 6.60381C162.366 6.98337 161.802 7.48124 161.397 8.09617L161.059 8.6089V6.31846H160.367V17.1841H161.059V9.33678L161.082 9.29511C161.49 8.56096 162.076 7.93583 162.835 7.41898L162.838 7.41747C163.602 6.91307 164.406 6.657 165.247 6.657C166.335 6.657 167.183 6.97723 167.754 7.64591C168.32 8.30901 168.587 9.2841 168.587 10.5384V17.1841H169.278V10.6799C169.278 10.6799 169.278 10.6784 169.278 10.6743L169.278 10.657L169.276 10.5953C169.274 10.5426 169.271 10.4672 169.267 10.3692C169.259 10.1731 169.247 9.88666 169.231 9.50987L169.23 9.46413L169.249 9.42283C169.61 8.66825 170.182 8.01715 170.957 7.46802L170.96 7.46655C171.74 6.92998 172.561 6.657 173.419 6.657C174.163 6.657 174.864 6.87226 175.519 7.29787C176.387 7.83717 176.782 8.95965 176.782 10.562V17.1841H177.474V10.35C177.474 8.93297 177.135 7.87653 176.485 7.15233L176.484 7.15095C175.835 6.41409 174.909 6.03586 173.678 6.03586C172.734 6.03586 171.878 6.24869 171.106 6.67216C170.347 7.09757 169.75 7.65749 169.312 8.35215L169.102 8.68474L168.981 8.31067C168.733 7.54327 168.322 6.97997 167.754 6.6061C167.184 6.23085 166.439 6.03586 165.506 6.03586ZM162.925 6.27745C163.706 5.8703 164.568 5.66788 165.506 5.66788C166.488 5.66788 167.31 5.87325 167.956 6.29871C168.513 6.66511 168.928 7.18692 169.205 7.85485C169.653 7.2435 170.228 6.74208 170.927 6.35075L170.928 6.35C171.758 5.89452 172.676 5.66788 173.678 5.66788C174.99 5.66788 176.027 6.07462 176.76 6.9077M162.925 6.27745C162.328 6.58835 161.828 6.97739 161.427 7.44512ZM179.89 5.95048H181.498L185.924 15.466L190.211 5.95048H191.77L185.977 18.7142C185.977 18.7147 185.976 18.7151 185.976 18.7156C185.438 19.9337 184.854 20.8453 184.216 21.4345C183.585 22.0478 182.826 22.3564 181.946 22.3564C181.239 22.3564 180.665 22.2365 180.247 21.9752L180.161 21.9212V20.4949L180.434 20.6454C180.861 20.8812 181.325 20.9993 181.828 20.9993C182.54 20.9993 183.107 20.7199 183.543 20.1527L183.549 20.1446C184.009 19.6113 184.554 18.6381 185.183 17.206L179.89 5.95048ZM180.47 6.31846L185.587 17.2004L185.553 17.2768C184.91 18.7515 184.337 19.7927 183.832 20.3811C183.326 21.0358 182.654 21.3673 181.828 21.3673C181.369 21.3673 180.935 21.279 180.529 21.102V21.7132C180.861 21.8912 181.328 21.9885 181.946 21.9885C182.73 21.9885 183.399 21.7167 183.961 21.1693L183.965 21.1659C184.551 20.6248 185.111 19.7634 185.64 18.5655L185.641 18.5638L191.199 6.31846H190.449L185.929 16.35L181.264 6.31846H180.47ZM133.458 8.12503C134.421 7.14607 135.623 6.657 137.051 6.657C138.029 6.657 138.943 6.93469 139.788 7.48658C140.647 8.02175 141.276 8.71501 141.669 9.56641L141.686 9.60311V13.9215L141.67 13.9571C141.293 14.8095 140.679 15.5039 139.834 16.0398C138.988 16.5767 138.059 16.8456 137.051 16.8456C135.624 16.8456 134.422 16.3651 133.459 15.4022L133.458 15.4011C132.51 14.4372 132.039 13.2197 132.039 11.7631C132.039 10.3064 132.51 9.08895 133.458 8.12503ZM137.051 7.02498C135.716 7.02498 134.61 7.47794 133.72 8.38303C132.847 9.27174 132.407 10.3936 132.407 11.7631C132.407 13.1322 132.846 14.2539 133.72 15.1426C134.609 16.032 135.715 16.4776 137.051 16.4776C137.99 16.4776 138.85 16.2284 139.637 15.7291C140.414 15.2363 140.972 14.6078 141.318 13.8433V9.68437C140.957 8.91989 140.383 8.29104 139.591 7.7979L139.588 7.79575C138.8 7.28077 137.956 7.02498 137.051 7.02498ZM148.242 7.9864C149.082 7.09679 150.193 6.657 151.555 6.657C152.286 6.657 152.95 6.80321 153.543 7.09941C154.13 7.37715 154.589 7.74889 154.908 8.21822C155.231 8.65486 155.475 9.10998 155.638 9.58354C155.801 10.0563 155.884 10.524 155.884 10.9859V11.1699H146.885L146.897 10.9751C146.962 9.86028 147.414 8.86261 148.242 7.9864ZM151.555 7.02498C150.279 7.02498 149.271 7.43302 148.509 8.23906C147.785 9.00601 147.378 9.85912 147.28 10.8019H155.511C155.492 10.4432 155.419 10.0772 155.29 9.7035C155.14 9.26754 154.914 8.84445 154.61 8.4342L154.605 8.42808C154.329 8.02018 153.925 7.68663 153.384 7.43128L153.38 7.42951C152.843 7.16112 152.236 7.02498 151.555 7.02498ZM119.166 11.8489C119.898 11.317 120.875 11.061 122.076 11.061C123.514 11.061 124.922 11.514 126.298 12.4096L126.381 12.464V14.486L126.344 14.5353C125.84 15.2021 125.183 15.7525 124.377 16.1876C123.565 16.6261 122.695 16.8456 121.77 16.8456C120.707 16.8456 119.82 16.612 119.122 16.13L119.119 16.1284C118.407 15.6195 118.053 14.886 118.053 13.9533C118.053 13.075 118.429 12.3686 119.166 11.8489ZM122.076 11.4289C120.923 11.4289 120.031 11.6751 119.382 12.1474L119.379 12.149C118.735 12.6027 118.421 13.1992 118.421 13.9533C118.421 14.7784 118.726 15.3949 119.332 15.828C119.953 16.2562 120.761 16.4776 121.77 16.4776C122.634 16.4776 123.444 16.2732 124.202 15.8638C124.947 15.462 125.549 14.961 126.013 14.362V12.6641C124.716 11.8374 123.404 11.4289 122.076 11.4289ZM84.2613 16.0458C84.0186 15.8452 83.7933 15.8001 83.5674 15.8715L83.5589 15.8742C83.3278 15.935 83.1575 16.0891 83.0495 16.3702C83.0053 16.5046 83.002 16.6213 83.0302 16.7255C83.0585 16.8301 83.1221 16.9358 83.2337 17.0419C83.4764 17.2425 83.7017 17.2876 83.9276 17.2162L83.9361 17.2135C84.1659 17.1531 84.3276 17.0007 84.4208 16.7212L84.4232 16.7138C84.4752 16.5773 84.4828 16.4606 84.4578 16.3577C84.4329 16.2555 84.3721 16.1512 84.2613 16.0458ZM83.4609 15.5192C83.8287 15.4047 84.1815 15.5003 84.5011 15.7666L84.5054 15.7702L84.5095 15.774C84.663 15.9185 84.7698 16.0838 84.8153 16.2707C84.8606 16.4571 84.8411 16.6492 84.7686 16.8412C84.6422 17.2176 84.3974 17.4714 84.0341 17.5685C83.6663 17.683 83.3135 17.5874 82.9938 17.3211L82.9896 17.3175L82.9855 17.3137C82.8327 17.1699 82.7248 17.0061 82.675 16.8215C82.6249 16.6361 82.637 16.4439 82.7016 16.2502L82.704 16.2428C82.8467 15.8683 83.0986 15.616 83.4609 15.5192Z" fill="white"></path> </svg> 