<?xml version="1.0" encoding="UTF-8"?> <svg xmlns="http://www.w3.org/2000/svg" width="192" height="20" viewBox="0 0 192 20" fill="none"> <path d="M28.487 7.32804L26.0623 10.1523C25.2853 9.53319 24.4113 9.26093 23.4507 9.38181C23.0217 9.43392 22.6082 9.57099 22.2352 9.78463C21.8622 9.99828 21.5376 10.284 21.2812 10.6245C20.7968 11.254 20.5495 12.028 20.5813 12.8154C20.6131 13.6028 20.9219 14.3553 21.4555 14.9455C22.5143 16.091 24.4425 16.3271 25.8164 15.3691C26.9952 14.5513 27.74 12.6172 26.6604 10.821C26.9179 10.5262 29.1647 8.95479 29.8621 8.58538C30.4865 9.31841 30.9199 10.1887 31.1252 11.1215C31.482 12.6963 31.3457 14.2451 30.5733 15.6934C29.7824 17.1778 28.5574 18.2137 26.9791 18.8452C25.8114 19.3194 24.5438 19.5101 23.2844 19.401C20.5584 19.1592 18.4097 17.9866 17.1293 15.5409C16.6675 14.671 16.4897 13.7255 16.4781 12.7347C16.4457 11.3824 16.8545 10.0552 17.6454 8.94575C18.5783 7.62176 19.8587 6.78353 21.4209 6.28986C22.542 5.93966 23.6816 5.8956 24.8235 5.98823C26.1467 6.09961 27.4135 6.56293 28.487 7.32804Z" fill="#009FE2"></path> <path d="M51.1042 7.14842V8.77178C50.296 8.28927 49.4144 7.93577 48.4925 7.72456C47.1717 7.42858 45.845 7.29867 44.5115 7.66129C44.1622 7.76036 43.8302 7.91041 43.5266 8.10639C42.6226 8.67123 42.245 10.3827 43.679 11.1486C44.2933 11.4762 44.9653 11.6175 45.6418 11.7361C46.4893 11.8829 47.3391 12.0219 48.1819 12.1879C48.8406 12.3105 49.4756 12.5331 50.0639 12.8477C51.1654 13.4487 51.7254 14.3524 51.7392 15.5951C51.7623 17.2071 51.0003 18.3063 49.5282 18.9649C49.0398 19.1824 48.5224 19.3312 47.9914 19.4066C46.1433 19.6738 44.2563 19.4839 42.5025 18.8542C42.3236 18.7921 42.1469 18.7198 41.9726 18.6418C41.7982 18.5639 41.632 18.4769 41.4507 18.3888V16.7395C43.3096 17.8488 45.3116 18.2227 47.428 18.051C48.1391 18.0069 48.8236 17.7699 49.4046 17.3664C50.3699 16.6886 50.4899 14.8066 49.1402 14.1321C48.5179 13.8203 47.8517 13.6667 47.1774 13.5424C46.1626 13.356 45.1315 13.2521 44.1363 12.9708C43.5039 12.8124 42.9057 12.5446 42.3697 12.18C41.3964 11.4808 41.0374 10.5138 41.1563 9.37277C41.3329 7.66694 42.4483 6.76658 44.0266 6.32262C45.2966 5.96338 46.6013 5.99727 47.9071 6.16785C49.0211 6.31876 50.1015 6.65015 51.1042 7.14842Z" fill="black"></path> <path d="M82.7642 7.87502H80.1629C80.0602 7.4062 80.1283 6.96223 80.1214 6.49793C80.5682 6.38497 81.0023 6.54086 81.4364 6.50923C81.8706 6.4776 82.277 6.50245 82.755 6.50245C82.7792 5.89129 82.7688 5.29595 82.77 4.7006C82.7711 4.10526 82.77 3.50314 82.77 2.8739L84.3668 2.61972V6.49342H88.6087C88.7242 6.97127 88.6226 7.40959 88.6699 7.87841H84.4557C84.3171 8.02188 84.3702 8.1597 84.3702 8.28397C84.361 9.84632 84.3599 11.4087 84.3495 12.9699C84.3495 13.5709 84.294 14.1719 84.3148 14.7706C84.3368 15.3874 84.3437 16.0133 84.4973 16.6143C84.7732 17.7044 85.4844 18.2591 86.6321 18.2885C87.3191 18.3054 87.9576 18.1303 88.6087 17.8581V19.2329C88.5245 19.3605 88.3536 19.3877 88.1896 19.4408C87.2589 19.7525 86.2548 19.7887 85.3032 19.5447C83.8946 19.1979 83.1579 18.2636 82.8785 16.9159C82.7633 16.2675 82.7157 15.6092 82.7365 14.9514C82.7365 12.8426 82.7434 10.7339 82.7573 8.62513C82.7642 8.3879 82.7642 8.14841 82.7642 7.87502Z" fill="black"></path> <path d="M56.9499 7.76522H54.4352C54.2897 7.52799 54.3694 7.29866 54.3555 7.08741C54.3417 6.87616 54.3555 6.63554 54.3555 6.38926C55.2307 6.25596 56.0874 6.44914 56.9938 6.37232C57.0469 5.15339 56.9938 3.95818 57.0353 2.74941L58.6217 2.50427V6.38926H62.8798V7.7607H58.6217C58.6148 7.90078 58.6067 7.98664 58.6067 8.0804C58.5848 10.3556 58.5582 12.6308 58.549 14.906C58.5418 15.4693 58.6109 16.0312 58.7545 16.5768C59.0097 17.5088 59.5731 18.0985 60.7773 18.1651C61.1226 18.1835 61.4687 18.1554 61.8061 18.0815C62.1445 17.9917 62.4775 17.8835 62.8036 17.7573V19.1434C62.5589 19.3795 62.1998 19.401 61.8719 19.4676C61.0175 19.6394 60.1504 19.6484 59.3179 19.3807C58.1022 18.9898 57.3956 18.1267 57.1439 16.91C56.987 16.0977 56.9185 15.2715 56.9395 14.4451C56.9618 12.4116 56.9826 10.3816 57.0018 8.35492C57.003 8.17078 57.0365 7.98212 56.9499 7.76522Z" fill="black"></path> <path d="M35.2276 6.30911H36.7957V19.1378C36.2773 19.2508 35.7669 19.1548 35.193 19.1932C35.1976 14.8993 35.2149 10.6381 35.2276 6.30911Z" fill="#404040"></path> <path d="M36.5904 0.0835266C37.1573 0.373856 37.5257 0.852843 37.961 1.27986L34.7278 3.49744C34.5835 3.25907 34.3687 3.08284 34.1816 2.87724L36.5904 0.0835266Z" fill="#009FE2"></path> <path d="M7.75189 10.3883C8.30032 10.3883 8.7229 10.2629 9.1374 10.1375C11.2076 9.51617 12.5792 8.26561 12.9475 6.08871C13.3158 3.9118 12.2548 1.87949 10.2019 0.892147C9.12123 0.364583 7.95741 0.140905 6.76588 0.105885C4.63451 0.0426224 2.50083 0.0358443 0.368313 0.00534271C0.316207 -0.00520603 0.262058 -5.75799e-05 0.213002 0.0201093C0.163947 0.0402762 0.12229 0.0745148 0.0935215 0.118311C0.130468 6.3587 0.0115459 12.668 0 18.966C0.555699 19.0684 1.12626 19.0661 1.68108 18.9592C1.69262 16.161 1.70417 13.3503 1.71687 10.5431H5.9288L12.279 19.0586H14.2753L7.75189 10.3883ZM1.74227 9.1558V1.59368C1.78553 1.54773 1.84 1.51326 1.90057 1.49351C1.96115 1.47375 2.02586 1.46935 2.08865 1.48071C3.66119 1.50896 5.23489 1.50896 6.80629 1.57222C7.96087 1.61854 9.08428 1.85012 10.0391 2.57312C11.0852 3.3639 11.5078 4.44501 11.3611 5.69331C11.1418 7.55165 9.92598 8.68472 7.94817 9.02024C7.41814 9.1101 6.88123 9.15545 6.3433 9.1558C4.82617 9.1558 3.30904 9.1558 1.74227 9.1558Z" fill="black"></path> <path d="M77.8098 18.2161C77.072 18.3776 76.5282 18.0647 76.2881 17.3711C76.2172 17.1569 76.1818 16.9331 76.183 16.708C76.1768 16.1808 76.1749 15.6536 76.1772 15.1264C76.1772 13.5448 76.1969 11.9633 76.1772 10.3817C76.1865 9.53235 75.946 8.69828 75.4845 7.97887C74.9476 7.16888 74.1475 6.70006 73.2273 6.42555C71.8418 6.00982 70.4332 6.01886 69.028 6.3589C68.2502 6.53197 67.5083 6.8338 66.8343 7.25135V8.66797C67.0156 8.71994 67.1091 8.59793 67.2165 8.53693C68.6967 7.6987 70.2738 7.37335 71.9676 7.66594C73.136 7.86816 74.2445 8.51547 74.495 9.99874C74.637 10.8392 74.5423 11.6786 74.5735 12.4999C74.4505 12.5459 74.3144 12.5459 74.1913 12.4999C72.7666 12.1542 71.3303 11.9802 69.8628 12.179C69.08 12.2852 68.3226 12.4705 67.6333 12.8569C66.2628 13.6341 65.4892 14.9965 65.8841 16.7859C66.1716 18.0896 67.0491 18.8657 68.2799 19.2915C69.8097 19.8214 71.3303 19.7095 72.8289 19.1424C73.5168 18.867 74.1622 18.4993 74.7467 18.05C75.4856 19.5694 77.0501 19.8462 78.3548 19.3254V17.9698C78.1573 18.1856 77.9761 18.1799 77.8098 18.2161ZM74.5539 16.7328C73.4698 17.6558 72.0965 18.1894 70.6606 18.2455C69.9673 18.2874 69.2754 18.1445 68.6586 17.832C67.8607 17.4197 67.4405 16.7735 67.4128 15.8855C67.3851 14.9976 67.7938 14.339 68.5673 13.8894C68.9701 13.6707 69.4083 13.5217 69.8628 13.4488C70.8938 13.25 71.9272 13.3121 72.9559 13.4759C73.4964 13.5566 74.0303 13.6744 74.5539 13.8284V16.7328Z" fill="black"></path> <path d="M93.4501 19.8522C93.0889 19.8522 92.7851 19.7291 92.5388 19.4828C92.2925 19.2365 92.1693 18.9327 92.1693 18.5714C92.1693 18.2102 92.2925 17.9064 92.5388 17.6601C92.7851 17.4138 93.0889 17.2907 93.4501 17.2907C93.8113 17.2907 94.1151 17.4138 94.3614 17.6601C94.6077 17.9064 94.7309 18.2102 94.7309 18.5714C94.7309 18.9327 94.6077 19.2365 94.3614 19.4828C94.1151 19.7291 93.8113 19.8522 93.4501 19.8522Z" fill="black"></path> <path d="M100.626 19.7045H98.803V2.46307H106.044C107.752 2.46307 109.099 2.89821 110.084 3.76849C111.069 4.63877 111.562 5.79641 111.562 7.2414C111.562 8.71923 111.069 9.9015 110.084 10.7882C109.099 11.6585 107.752 12.0936 106.044 12.0936H100.626V19.7045ZM100.626 4.11332V10.4434H105.921C107.136 10.4434 108.081 10.1724 108.754 9.63056C109.427 9.07227 109.764 8.2923 109.764 7.29066C109.764 6.2726 109.427 5.49263 108.754 4.95076C108.097 4.39247 107.153 4.11332 105.921 4.11332H100.626Z" fill="black"></path> <path d="M116.371 19.7045H114.598V7.8079H116.371V10.0739C116.815 9.30215 117.471 8.68639 118.342 8.22662C119.212 7.75043 120.132 7.51233 121.1 7.51233V9.31036C120.559 9.31036 120.066 9.38426 119.623 9.53204C118.867 9.72908 118.202 10.0739 117.627 10.5665C117.053 11.0427 116.634 11.5846 116.371 12.1921V19.7045Z" fill="black"></path> <path d="M127.705 18.399C128.526 18.399 129.306 18.2102 130.045 17.8325C130.784 17.4549 131.383 16.9787 131.843 16.404V14.7537C130.628 13.9655 129.339 13.5714 127.976 13.5714C126.892 13.5714 126.03 13.7849 125.39 14.2118C124.766 14.6388 124.454 15.2217 124.454 15.9606C124.454 16.7324 124.757 17.3317 125.365 17.7586C125.972 18.1856 126.752 18.399 127.705 18.399ZM127.212 20C125.948 20 124.872 19.6552 123.986 18.9655C123.115 18.243 122.68 17.2742 122.68 16.0591C122.68 14.8604 123.14 13.8999 124.06 13.1774C124.979 12.4713 126.145 12.1182 127.557 12.1182C129.101 12.1182 130.529 12.5041 131.843 13.2759V12.0936C131.843 10.1068 130.537 9.11332 127.927 9.11332C126.531 9.11332 125.234 9.51562 124.035 10.3202V8.59608C125.201 7.87358 126.621 7.51233 128.296 7.51233C129.922 7.51233 131.211 7.89821 132.163 8.66997C133.132 9.42531 133.616 10.5091 133.616 11.9212V16.8227C133.616 17.2825 133.715 17.6437 133.912 17.9064C134.125 18.1692 134.404 18.3005 134.749 18.3005C135.012 18.3005 135.242 18.2513 135.439 18.1527V19.532C135.176 19.7127 134.782 19.803 134.257 19.803C133.665 19.803 133.165 19.647 132.754 19.335C132.36 19.0066 132.114 18.5304 132.015 17.9064C130.816 19.3022 129.216 20 127.212 20Z" fill="black"></path> <path d="M143.782 20C141.96 20 140.449 19.4089 139.25 18.2266C138.052 17.0279 137.452 15.5337 137.452 13.7439C137.452 11.9705 138.06 10.4926 139.275 9.31036C140.474 8.11168 141.984 7.51233 143.807 7.51233C145.186 7.51233 146.385 7.79969 147.403 8.3744V10.0247C146.336 9.4171 145.219 9.11332 144.053 9.11332C142.674 9.11332 141.533 9.55667 140.63 10.4434C139.727 11.2972 139.275 12.4056 139.275 13.7685C139.275 15.0985 139.727 16.2069 140.63 17.0936C141.549 17.9639 142.69 18.399 144.053 18.399C145.367 18.399 146.557 18.0542 147.625 17.3646V18.9902C146.508 19.6634 145.227 20 143.782 20Z" fill="black"></path> <path d="M155.96 20C154.86 20 154.023 19.6798 153.448 19.0394C152.889 18.3826 152.61 17.4795 152.61 16.3301V9.35963H149.802V7.8079H152.61V4.13795H154.384V7.8079H158.546V9.35963H154.384V15.7882C154.384 16.7406 154.54 17.3974 154.852 17.7586C155.18 18.1363 155.714 18.3251 156.453 18.3251C157.175 18.3251 157.824 18.1609 158.399 17.8325V19.4581C157.889 19.8194 157.077 20 155.96 20Z" fill="black"></path> <path d="M163.859 19.7045H162.085V7.8079H163.859V19.7045ZM162.085 4.60593C161.856 4.35963 161.741 4.06406 161.741 3.71923C161.741 3.3744 161.856 3.07884 162.085 2.83253C162.332 2.58623 162.627 2.46307 162.972 2.46307C163.317 2.46307 163.613 2.58623 163.859 2.83253C164.105 3.07884 164.228 3.3744 164.228 3.71923C164.228 4.06406 164.105 4.35963 163.859 4.60593C163.613 4.83582 163.317 4.95076 162.972 4.95076C162.627 4.95076 162.332 4.83582 162.085 4.60593Z" fill="black"></path> <path d="M173.825 20C172.002 20 170.492 19.4089 169.293 18.2266C168.094 17.0279 167.495 15.5337 167.495 13.7439C167.495 11.9705 168.102 10.4926 169.318 9.31036C170.516 8.11168 172.027 7.51233 173.85 7.51233C175.229 7.51233 176.428 7.79969 177.446 8.3744V10.0247C176.378 9.4171 175.262 9.11332 174.096 9.11332C172.717 9.11332 171.575 9.55667 170.672 10.4434C169.769 11.2972 169.318 12.4056 169.318 13.7685C169.318 15.0985 169.769 16.2069 170.672 17.0936C171.592 17.9639 172.733 18.399 174.096 18.399C175.41 18.399 176.6 18.0542 177.667 17.3646V18.9902C176.551 19.6634 175.27 20 173.825 20Z" fill="black"></path> <path d="M186.723 20C184.867 20 183.307 19.4171 182.043 18.2513C180.795 17.1018 180.171 15.6076 180.171 13.7685C180.171 11.9951 180.729 10.5091 181.846 9.31036C182.979 8.11168 184.432 7.51233 186.205 7.51233C187.158 7.51233 188.003 7.70938 188.742 8.10347C189.481 8.48114 190.064 8.98196 190.491 9.60593C190.918 10.2299 191.238 10.8949 191.452 11.601C191.665 12.2907 191.772 12.9885 191.772 13.6946V14.1872H181.994C182.092 15.468 182.601 16.4943 183.521 17.266C184.457 18.0214 185.639 18.399 187.068 18.399C188.447 18.399 189.719 18.0296 190.885 17.2907V18.867C189.916 19.6224 188.529 20 186.723 20ZM182.018 12.734H189.974C189.925 11.8145 189.58 10.9852 188.939 10.2463C188.332 9.49099 187.396 9.11332 186.132 9.11332C184.949 9.11332 183.98 9.47457 183.225 10.1971C182.486 10.936 182.084 11.7816 182.018 12.734Z" fill="black"></path> </svg> 