<?xml version="1.0" encoding="UTF-8"?> <svg xmlns="http://www.w3.org/2000/svg" width="1204" height="1110" viewBox="0 0 1204 1110" fill="none"> <path d="M271.579 347.454C271.579 347.454 389.655 211.791 479.4 336.336C555.865 442.093 788.268 73.9356 820.414 317.757C851.176 550.936 1163.62 441.633 1149.49 539.011C1127.68 690.43 659.711 547.62 589.529 888.269C519.348 1228.92 139.951 906.317 161.264 667.789C182.578 429.262 271.249 347.648 271.249 347.648L271.579 347.454Z" fill="url(#paint0_linear)"></path> <path d="M271.579 347.454C271.579 347.454 389.655 211.791 479.4 336.336C555.865 442.093 788.268 73.9356 820.414 317.757C851.176 550.936 1163.62 441.633 1149.49 539.011C1127.68 690.43 659.711 547.62 589.529 888.269C519.348 1228.92 139.951 906.317 161.264 667.789C182.578 429.262 271.249 347.648 271.249 347.648L271.579 347.454Z" fill="url(#paint1_linear)"></path> <path d="M271.579 347.454C271.579 347.454 389.655 211.791 479.4 336.336C555.865 442.093 788.268 73.9356 820.414 317.757C851.176 550.936 1163.62 441.633 1149.49 539.011C1127.68 690.43 659.711 547.62 589.529 888.269C519.348 1228.92 139.951 906.317 161.264 667.789C182.578 429.262 271.249 347.648 271.249 347.648L271.579 347.454Z" fill="url(#paint2_linear)"></path> <defs> <linearGradient id="paint0_linear" x1="1061.26" y1="760.157" x2="465.651" y2="15.2282" gradientUnits="userSpaceOnUse"> <stop offset="0.192708" stop-color="#F9D100" stop-opacity="0.42"></stop> <stop offset="1" stop-color="#FF0000" stop-opacity="0.83"></stop> </linearGradient> <linearGradient id="paint1_linear" x1="1061.26" y1="760.157" x2="465.651" y2="15.2282" gradientUnits="userSpaceOnUse"> <stop offset="0.192708" stop-color="#81F5F5"></stop> <stop offset="1" stop-color="#3A9169"></stop> </linearGradient> <linearGradient id="paint2_linear" x1="1061.26" y1="760.157" x2="465.651" y2="15.2282" gradientUnits="userSpaceOnUse"> <stop offset="0.255208" stop-color="#009FE2"></stop> <stop offset="1" stop-color="#183274"></stop> </linearGradient> </defs> </svg> 