<?xml version="1.0" encoding="UTF-8"?> <svg xmlns="http://www.w3.org/2000/svg" width="938" height="938" viewBox="0 0 938 938" fill="none"> <g clip-path="url(#clip0)"> <path d="M859.375 0H203.125C160 0.0546875 125.055 35 125 78.125V328.125H156.25V78.125C156.25 52.2422 177.242 31.25 203.125 31.25H859.375C885.258 31.25 906.25 52.2422 906.25 78.125V562.5C906.25 588.383 885.258 609.375 859.375 609.375H656.25V640.625H859.375C902.5 640.57 937.445 605.625 937.5 562.5V78.125C937.445 35 902.5 0.0546875 859.375 0Z" fill="white"></path> <path d="M187.5 62.5H218.75V93.75H187.5V62.5Z" fill="white"></path> <path d="M250 62.5H281.25V93.75H250V62.5Z" fill="white"></path> <path d="M312.5 62.5H343.75V93.75H312.5V62.5Z" fill="white"></path> <path d="M187.5 125H875V156.25H187.5V125Z" fill="white"></path> <path d="M187.5 187.5H343.75V218.75H187.5V187.5Z" fill="white"></path> <path d="M187.5 250H281.25V281.25H187.5V250Z" fill="white"></path> <path d="M453.125 296.875V265.625C453.125 256.992 446.133 250 437.5 250H375C366.367 250 359.375 256.992 359.375 265.625V281.25H421.875V296.875H453.125Z" fill="white"></path> <path d="M578.125 375V218.75C578.125 210.117 571.133 203.125 562.5 203.125H500C491.367 203.125 484.375 210.117 484.375 218.75V328.125H515.625V234.375H546.875V375H578.125Z" fill="white"></path> <path d="M671.875 531.25H656.25V562.5H875V531.25H828.125V218.75C828.125 210.117 821.133 203.125 812.5 203.125H750C741.367 203.125 734.375 210.117 734.375 218.75V531.25H703.125V328.125C703.125 319.492 696.133 312.5 687.5 312.5H625C616.367 312.5 609.375 319.492 609.375 328.125V468.75H640.625V343.75H671.875V531.25ZM765.625 234.375H796.875V531.25H765.625V234.375Z" fill="white"></path> <path d="M312.5 312.5C139.902 312.5 0 452.402 0 625C0 797.598 139.902 937.5 312.5 937.5C485.098 937.5 625 797.598 625 625C624.805 452.492 485.008 312.695 312.5 312.5ZM312.5 906.25C160.125 906.371 35.3594 785.133 31.1289 632.812C26.8945 480.5 144.727 352.516 296.875 344.172V625C296.875 625.332 297.051 625.625 297.066 625.973C297.148 627.348 297.422 628.711 297.875 630.008C297.977 630.32 297.875 630.707 298.094 631.012C298.195 631.203 298.301 631.387 298.43 631.562C299.16 633.18 300.148 634.668 301.375 635.957L301.465 636.059L500 834.609C448.547 880.914 381.719 906.445 312.5 906.25ZM522.109 812.5L350.234 640.625H593.328C589.965 704.383 564.824 765.047 522.109 812.5ZM328.125 609.375V344.172C471.086 352.32 585.18 466.414 593.328 609.375H328.125Z" fill="white"></path> </g> <defs> <clipPath id="clip0"> <rect width="937.5" height="937.5" fill="white"></rect> </clipPath> </defs> </svg> 