<?xml version="1.0" encoding="UTF-8"?> <svg xmlns="http://www.w3.org/2000/svg" width="100" height="100" viewBox="0 0 100 100" fill="none"> <path d="M75 6.66667H60V1.66667C60 0.74625 59.2537 0 58.3333 0H18.3333C17.4129 0 16.6667 0.74625 16.6667 1.66667V6.66667H1.66667C0.74625 6.66667 0 7.41292 0 8.33333V98.3333C0 99.2537 0.74625 100 1.66667 100H75C75.9204 100 76.6667 99.2537 76.6667 98.3333V8.33333C76.6667 7.41292 75.9204 6.66667 75 6.66667ZM20 3.33333H56.6667V6.66667H20V3.33333ZM20 10H56.6667V16.6667H43.0483C42.1294 14.0627 39.2733 12.6967 36.6694 13.6156C35.2433 14.119 34.1217 15.2406 33.6183 16.6667H20V10ZM73.3333 96.6667H3.33333V10H16.6667V18.3333C16.6667 19.2537 17.4129 20 18.3333 20H35C35.9204 20 36.6667 19.2537 36.6667 18.3333C36.6667 17.4129 37.4129 16.6667 38.3333 16.6667C39.2537 16.6667 40 17.4129 40 18.3333C40 19.2537 40.7463 20 41.6667 20H58.3333C59.2537 20 60 19.2537 60 18.3333V10H73.3333V96.6667Z" fill="#009FE2"></path> <path d="M16.6667 23.3334C12.9848 23.3334 10 26.3182 10 30C10 33.6819 12.9848 36.6667 16.6667 36.6667C20.3485 36.6667 23.3333 33.6819 23.3333 30C23.3333 26.3182 20.3485 23.3334 16.6667 23.3334ZM16.6667 33.3334C14.8256 33.3334 13.3333 31.8411 13.3333 30C13.3333 28.159 14.8256 26.6667 16.6667 26.6667C18.5077 26.6667 20 28.159 20 30C20 31.8411 18.5077 33.3334 16.6667 33.3334Z" fill="#009FE2"></path> <path d="M16.6667 40C12.9848 40 10 42.9848 10 46.6667C10 50.3485 12.9848 53.3333 16.6667 53.3333C20.3485 53.3333 23.3333 50.3485 23.3333 46.6667C23.3333 42.9848 20.3485 40 16.6667 40ZM16.6667 50C14.8256 50 13.3333 48.5077 13.3333 46.6667C13.3333 44.8256 14.8256 43.3333 16.6667 43.3333C18.5077 43.3333 20 44.8256 20 46.6667C20 48.5077 18.5077 50 16.6667 50Z" fill="#009FE2"></path> <path d="M65 25H41.6667C40.7463 25 40 25.7463 40 26.6667C40 27.5871 40.7463 28.3333 41.6667 28.3333H65C65.9204 28.3333 66.6667 27.5871 66.6667 26.6667C66.6667 25.7463 65.9204 25 65 25Z" fill="#009FE2"></path> <path d="M35 25H28.3333C27.4129 25 26.6667 25.7463 26.6667 26.6667C26.6667 27.5871 27.4129 28.3333 28.3333 28.3333H35C35.9204 28.3333 36.6667 27.5871 36.6667 26.6667C36.6667 25.7463 35.9204 25 35 25Z" fill="#009FE2"></path> <path d="M65 31.6666H51.6667C50.7463 31.6666 50 32.4129 50 33.3333C50 34.2537 50.7463 35 51.6667 35H65C65.9204 35 66.6667 34.2537 66.6667 33.3333C66.6667 32.4129 65.9204 31.6666 65 31.6666Z" fill="#009FE2"></path> <path d="M45 31.6666H28.3333C27.4129 31.6666 26.6667 32.4129 26.6667 33.3333C26.6667 34.2537 27.4129 35 28.3333 35H45C45.9204 35 46.6667 34.2537 46.6667 33.3333C46.6667 32.4129 45.9204 31.6666 45 31.6666Z" fill="#009FE2"></path> <path d="M65 41.6666H58.3333C57.4129 41.6666 56.6667 42.4129 56.6667 43.3333C56.6667 44.2537 57.4129 45 58.3333 45H65C65.9204 45 66.6667 44.2537 66.6667 43.3333C66.6667 42.4129 65.9204 41.6666 65 41.6666Z" fill="#009FE2"></path> <path d="M51.6667 41.6666H28.3333C27.4129 41.6666 26.6667 42.4129 26.6667 43.3333C26.6667 44.2537 27.4129 45 28.3333 45H51.6667C52.5871 45 53.3333 44.2537 53.3333 43.3333C53.3333 42.4129 52.5871 41.6666 51.6667 41.6666Z" fill="#009FE2"></path> <path d="M65 48.3334H46.6667C45.7463 48.3334 45 49.0796 45 50C45 50.9205 45.7463 51.6667 46.6667 51.6667H65C65.9204 51.6667 66.6667 50.9205 66.6667 50C66.6667 49.0796 65.9204 48.3334 65 48.3334Z" fill="#009FE2"></path> <path d="M40 48.3334H28.3333C27.4129 48.3334 26.6667 49.0796 26.6667 50C26.6667 50.9205 27.4129 51.6667 28.3333 51.6667H40C40.9204 51.6667 41.6667 50.9205 41.6667 50C41.6667 49.0796 40.9204 48.3334 40 48.3334Z" fill="#009FE2"></path> <path d="M93.3333 6.83333V6.66667C93.3333 2.98479 90.3485 0 86.6667 0C82.9848 0 80 2.98479 80 6.66667V86.6667C80 86.6883 80.0117 86.7067 80.0117 86.7267C80.0187 86.9021 80.0535 87.0754 80.115 87.24C80.13 87.2767 80.1383 87.315 80.1533 87.35C80.1683 87.385 80.165 87.3917 80.175 87.4117L85 97.06V98.3333C85 99.2537 85.7462 100 86.6667 100C87.5871 100 88.3333 99.2537 88.3333 98.3333V97.06L93.1667 87.4117C93.1767 87.3917 93.1783 87.37 93.1883 87.35C93.1983 87.33 93.2117 87.2767 93.2267 87.24C93.2881 87.0754 93.3229 86.9021 93.33 86.7267C93.33 86.705 93.3417 86.6883 93.3417 86.6667V10.3067C95.329 11.0131 96.6592 12.8908 96.6667 15V30C96.6667 30.9204 97.4129 31.6667 98.3333 31.6667C99.2537 31.6667 100 30.9204 100 30V15C99.995 11.0415 97.2106 7.63062 93.3333 6.83333ZM86.6667 92.94L84.3633 88.3333H88.97L86.6667 92.94ZM90 85H83.3333V38.3333H90V85ZM90 35H83.3333V10H90V35ZM83.3333 6.66667C83.3333 4.82562 84.8256 3.33333 86.6667 3.33333C88.5077 3.33333 90 4.82562 90 6.66667H83.3333Z" fill="#009FE2"></path> <path d="M50 65V61.6667H45C44.5579 61.6667 44.1341 61.8425 43.8216 62.155L42.5416 63.435C36.1585 55.5752 24.6123 54.3783 16.7527 60.7615C8.89309 67.1446 7.69601 78.6908 14.0791 86.5506C20.4623 94.4104 32.0085 95.6073 39.8681 89.2242C40.0254 89.0965 40.1804 88.9663 40.3333 88.8336C41.1243 88.1367 41.8537 87.3727 42.5133 86.5502L43.8116 87.8486C44.127 88.1623 44.555 88.3371 45 88.3336H50V85.0002H45.69L44.4183 83.7285C47.4085 78.2881 47.4166 71.6981 44.44 66.2502L45.69 65.0002H50V65ZM41.955 81.265L39.5116 78.8217L37.155 81.1783L40.1666 84.1883C39.8833 84.5517 39.5883 84.9067 39.2716 85.245L30.69 76.6667H43.24C43.0608 78.2583 42.6268 79.811 41.955 81.265ZM26.6666 73.3333C25.7462 73.3335 25.0002 74.0798 25.0004 75.0004C25.0004 75.4423 25.176 75.8658 25.4883 76.1783L36.725 87.4167C29.8656 92.0619 20.5393 90.2669 15.8941 83.4075C11.2489 76.5481 13.0439 67.2219 19.9033 62.5767C26.452 58.1419 35.3193 59.5537 40.1666 65.8033L37.1483 68.8217L39.505 71.1783L41.9416 68.7433C42.6191 70.1933 43.0577 71.7433 43.24 73.3333H26.6666Z" fill="#009FE2"></path> <path d="M60 56.6666C56.3181 56.6666 53.3333 59.6514 53.3333 63.3333C53.3333 67.0152 56.3181 70 60 70C63.6819 70 66.6667 67.0152 66.6667 63.3333C66.6667 59.6514 63.6819 56.6666 60 56.6666ZM60 66.6666C58.159 66.6666 56.6667 65.1743 56.6667 63.3333C56.6667 61.4923 58.159 60 60 60C61.8411 60 63.3333 61.4923 63.3333 63.3333C63.3333 65.1743 61.8411 66.6666 60 66.6666Z" fill="#009FE2"></path> <path d="M60 80C56.3181 80 53.3333 82.9848 53.3333 86.6667C53.3333 90.3485 56.3181 93.3333 60 93.3333C63.6819 93.3333 66.6667 90.3485 66.6667 86.6667C66.6667 82.9848 63.6819 80 60 80ZM60 90C58.159 90 56.6667 88.5077 56.6667 86.6667C56.6667 84.8256 58.159 83.3333 60 83.3333C61.8411 83.3333 63.3333 84.8256 63.3333 86.6667C63.3333 88.5077 61.8411 90 60 90Z" fill="#009FE2"></path> </svg> 