<?xml version="1.0" encoding="UTF-8"?> <svg xmlns="http://www.w3.org/2000/svg" width="111" height="110" viewBox="0 0 111 110" fill="none"> <path opacity="0.7" d="M61.0953 7.78895C60.5441 7.8232 60.125 8.29783 60.1593 8.84905C60.1935 9.40027 60.6681 9.81935 61.2194 9.7851L61.0953 7.78895ZM23.5705 88.7715C23.2147 89.1938 23.2686 89.8247 23.691 90.1805L30.5741 95.9791C30.9964 96.3349 31.6273 96.281 31.9831 95.8586C32.339 95.4362 32.285 94.8054 31.8626 94.4495L25.7444 89.2952L30.8986 83.177C31.2545 82.7546 31.2005 82.1237 30.7781 81.7679C30.3558 81.4121 29.7249 81.466 29.3691 81.8884L23.5705 88.7715ZM61.2194 9.7851C69.8833 9.24668 78.1502 13.2942 84.1479 19.8924C90.1448 26.4898 93.8063 35.5696 93.2991 44.9553C92.7935 54.3113 88.1408 64.0629 77.3377 72.0403C66.512 80.0344 49.4825 86.2616 24.2501 88.4194L24.4205 90.4121C49.8748 88.2353 67.3035 81.9362 78.5258 73.6492C89.7708 65.3455 94.7559 55.0611 95.2962 45.0632C95.8349 35.095 91.9505 25.5028 85.6279 18.5472C79.3061 11.5924 70.4797 7.20575 61.0953 7.78895L61.2194 9.7851Z" fill="white"></path> </svg> 