<?xml version="1.0" encoding="UTF-8"?> <svg xmlns="http://www.w3.org/2000/svg" width="639" height="351" viewBox="0 0 639 351" fill="none"> <g style="mix-blend-mode:multiply"> <path d="M494.465 283.21C449.818 282.78 310.724 281.061 226.581 275.474C70.3147 265.16 -57.1879 282.78 26.5259 302.549C50.1375 308.136 -17.6921 341.657 147.589 348.963C292.693 355.409 440.802 340.798 512.066 334.781C583.76 328.764 616.816 317.591 631.842 312.863C646.438 308.566 651.16 284.499 494.465 283.21Z" fill="#E4EFFF"></path> </g> <path d="M612.523 0H245.041V154.283H612.523V0Z" fill="#EDF4FC"></path> <path d="M612.093 0H523.657V154.283H612.093V0Z" fill="#AEBDDC"></path> <path d="M322.744 16.7607H263.929V19.3393H322.744V16.7607Z" fill="#D9E1E4"></path> <path d="M283.248 11.1733H263.929V13.7519H283.248V11.1733Z" fill="#D9E1E4"></path> <path d="M446.813 16.7607H387.998V19.3393H446.813V16.7607Z" fill="#D9E1E4"></path> <path d="M391.003 107.01H387.998V109.588H391.003V107.01Z" fill="#FFC40E"></path> <path d="M437.797 113.026H387.998V115.605H437.797V113.026Z" fill="#D9E1E4"></path> <path d="M424.489 119.042H387.998V121.621H424.489V119.042Z" fill="#D9E1E4"></path> <path d="M457.545 107.01H454.54V109.588H457.545V107.01Z" fill="#3BB6D5"></path> <path d="M504.339 113.026H454.54V115.605H504.339V113.026Z" fill="#D9E1E4"></path> <path d="M491.031 119.042H454.54V121.621H491.031V119.042Z" fill="#D9E1E4"></path> <path d="M407.317 11.1733H387.998V13.7519H407.317V11.1733Z" fill="#D9E1E4"></path> <path d="M597.068 16.7607H538.254V19.3393H597.068V16.7607Z" fill="#CFD9E8"></path> <path d="M557.572 11.1733H538.254V13.7519H557.572V11.1733Z" fill="#CFD9E8"></path> <path d="M358.377 134.084H266.077V24.4961H358.377V134.084ZM266.077 133.654H357.947V24.4961H266.077V133.654Z" fill="#BAC2C6"></path> <path d="M261.354 29.6532V29.2234L266.076 24.4961L261.354 29.6532Z" fill="#BAC2C6"></path> <path d="M261.354 45.1244L266.076 39.9673L261.354 45.1244Z" fill="#BAC2C6"></path> <path d="M261.354 60.596L266.076 55.8687L261.354 60.596Z" fill="#BAC2C6"></path> <path d="M261.354 76.4969L266.076 71.3398L261.354 76.4969Z" fill="#BAC2C6"></path> <path d="M261.354 91.9681L266.076 86.811V87.2408L261.354 91.9681Z" fill="#BAC2C6"></path> <path d="M261.354 107.869V107.439L266.076 102.712L261.354 107.869Z" fill="#BAC2C6"></path> <path d="M261.354 123.341L266.076 118.184L261.354 123.341Z" fill="#BAC2C6"></path> <path d="M257.062 123.77L256.632 124.2V123.77H257.062L257.491 126.349H257.062V123.77Z" fill="#BAC2C6"></path> <path d="M260.066 124.63C260.066 125.489 259.637 125.919 259.208 125.919C258.778 125.919 258.349 125.489 258.349 124.63C258.349 123.77 258.778 123.34 259.208 123.34C260.066 123.34 260.066 123.77 260.066 124.63ZM258.778 124.63C258.778 125.489 259.208 125.919 259.208 125.919C259.637 125.919 259.637 125.489 259.637 124.63C259.637 123.77 259.637 123.34 259.208 123.34C259.208 123.77 258.778 124.2 258.778 124.63Z" fill="#BAC2C6"></path> <path d="M256.203 110.877L256.632 110.448C257.491 109.588 257.491 109.588 257.491 109.158C257.491 108.729 257.491 108.729 257.061 108.729C256.632 108.729 256.632 108.729 256.632 109.158V108.729C256.632 108.729 257.061 108.299 257.491 108.299C257.92 108.299 258.349 108.729 258.349 109.158C258.349 109.588 257.92 110.018 257.491 110.877H257.061H257.92V111.307H256.203V110.877Z" fill="#BAC2C6"></path> <path d="M260.066 109.158C260.066 110.018 259.637 110.448 259.208 110.448C258.778 110.448 258.349 110.018 258.349 109.158C258.349 108.299 258.778 107.869 259.208 107.869C260.066 107.869 260.066 108.299 260.066 109.158ZM258.778 109.158C258.778 110.018 259.208 110.448 259.208 110.448C259.637 110.448 259.637 110.018 259.637 109.158C259.637 108.299 259.637 107.869 259.208 107.869C259.208 108.299 258.778 108.299 258.778 109.158Z" fill="#BAC2C6"></path> <path d="M256.632 94.5464H257.061C257.491 94.5464 257.491 94.1166 257.491 94.1166C257.491 93.6869 257.061 93.6869 256.632 93.6869V93.2571C257.061 93.2571 257.061 93.2571 257.061 92.8274C257.061 92.3976 257.061 92.3976 256.632 92.3976C256.203 92.3976 256.203 92.3976 256.203 92.3976V91.9678C256.203 91.9678 256.632 91.5381 257.061 91.5381C257.491 91.5381 257.92 91.9678 257.92 92.3976C257.92 92.8274 257.92 92.8274 257.491 93.2571C257.92 93.2571 257.92 93.6869 257.92 94.1166C257.92 94.5464 257.491 94.9761 257.061 94.9761C256.632 95.4059 256.632 94.9761 256.632 94.5464Z" fill="#BAC2C6"></path> <path d="M260.066 93.6867C260.066 94.5462 259.637 94.976 259.208 94.976C258.778 94.976 258.349 94.5462 258.349 93.6867C258.349 92.8272 258.778 92.3975 259.208 92.3975C260.066 92.3975 260.066 92.8272 260.066 93.6867ZM258.778 93.6867C258.778 94.5462 259.208 94.976 259.208 94.976C259.637 94.976 259.637 94.5462 259.637 93.6867C259.637 92.8272 259.637 92.3975 259.208 92.3975C259.208 92.3975 258.778 92.8272 258.778 93.6867Z" fill="#BAC2C6"></path> <path d="M257.491 79.5049V78.6454H256.203V78.2156L257.491 76.4966H257.92V78.2156H258.349V78.6454H257.92L257.491 79.5049ZM257.491 78.6454V77.7859V77.3561C257.491 77.3561 257.491 77.7859 257.061 77.7859L256.203 78.6454H257.491Z" fill="#BAC2C6"></path> <path d="M260.066 78.2155C260.066 79.0751 259.637 79.5048 259.208 79.5048C258.778 79.5048 258.349 79.0751 258.349 78.2155C258.349 77.356 258.778 76.9263 259.208 76.9263C260.066 76.9263 260.066 77.356 260.066 78.2155ZM258.778 78.2155C258.778 79.0751 259.208 79.5048 259.208 79.5048C259.637 79.5048 259.637 79.0751 259.637 78.2155C259.637 77.356 259.637 76.9263 259.208 76.9263C259.208 76.9263 258.778 77.356 258.778 78.2155Z" fill="#BAC2C6"></path> <path d="M257.92 61.4561H257.061V62.3156C257.061 62.3156 257.061 62.3156 257.491 62.3156H257.92C257.92 62.3156 258.349 62.7453 258.349 63.1751C258.349 63.6048 257.92 64.0346 257.491 64.0346C257.061 64.0346 257.061 64.0346 256.632 64.0346V63.6048H257.061C257.491 63.6048 257.491 63.1751 257.491 63.1751C257.491 62.7453 257.061 62.7453 256.632 62.7453H256.203V61.4561H257.92Z" fill="#BAC2C6"></path> <path d="M260.066 62.7444C260.066 63.6039 259.637 64.0337 259.208 64.0337C258.778 64.0337 258.349 63.6039 258.349 62.7444C258.349 61.8849 258.778 61.4551 259.208 61.4551C260.066 61.0254 260.066 61.8849 260.066 62.7444ZM258.778 62.7444C258.778 63.6039 259.208 64.0337 259.208 64.0337C259.637 64.0337 259.637 63.6039 259.637 62.7444C259.637 61.8849 259.637 61.4551 259.208 61.4551C259.208 61.4551 258.778 61.8849 258.778 62.7444Z" fill="#BAC2C6"></path> <path d="M257.92 45.984C257.062 45.984 256.632 46.4137 256.632 46.8435C256.632 46.8435 257.062 46.4137 257.491 46.4137C257.92 46.4137 258.35 46.8435 258.35 47.2732C258.35 47.703 257.92 48.1327 257.491 48.1327C257.062 48.1327 256.632 47.703 256.632 46.8435C256.632 46.4137 256.632 45.984 257.062 45.5542C257.062 45.984 257.062 45.5542 257.92 45.984C257.92 45.5542 257.92 45.5542 257.92 45.984ZM257.92 47.703C257.92 47.2732 257.491 46.8435 257.491 46.8435C257.062 46.8435 257.062 46.8435 257.062 47.2732C257.062 47.703 257.062 48.1327 257.491 48.1327C257.491 48.1327 257.92 48.1327 257.92 47.703Z" fill="#BAC2C6"></path> <path d="M260.066 47.2732C260.066 48.1327 259.637 48.5625 259.208 48.5625C258.778 48.5625 258.349 48.1327 258.349 47.2732C258.349 46.4137 258.778 45.9839 259.208 45.9839C260.066 45.5542 260.066 46.4137 260.066 47.2732ZM258.778 47.2732C258.778 48.1327 259.208 48.5625 259.208 48.5625C259.637 48.5625 259.637 48.1327 259.637 47.2732C259.637 46.4137 259.637 45.9839 259.208 45.9839C259.208 45.9839 258.778 46.4137 258.778 47.2732Z" fill="#BAC2C6"></path> <path d="M257.92 30.0835L256.632 33.0918H256.203L257.92 30.0835L256.203 30.5133V30.0835H257.92Z" fill="#BAC2C6"></path> <path d="M260.066 31.802C260.066 32.6615 259.637 33.0913 259.208 33.0913C258.778 33.0913 258.349 32.6615 258.349 31.802C258.349 30.9425 258.778 30.5127 259.208 30.5127C260.066 30.083 260.066 30.5127 260.066 31.802ZM258.778 31.802C258.778 32.6615 259.208 33.0913 259.208 33.0913C259.637 33.0913 259.637 32.6615 259.637 31.802C259.637 30.9425 259.637 30.5127 259.208 30.5127C259.208 30.5127 258.778 30.9425 258.778 31.802Z" fill="#BAC2C6"></path> <path d="M275.951 139.671L276.38 139.241C277.239 138.382 277.239 138.382 277.239 137.952C277.239 137.522 277.239 137.522 276.81 137.522C276.38 137.522 276.38 137.522 276.38 137.952V137.522C276.38 137.522 276.81 137.092 277.239 137.092C277.668 137.092 278.097 137.522 278.097 137.952C278.097 138.382 277.668 138.811 277.239 139.671H276.81H278.097V140.101H275.951V139.671Z" fill="#BAC2C6"></path> <path d="M279.815 138.382C279.815 139.241 279.385 139.671 278.956 139.671C278.527 139.671 278.097 139.241 278.097 138.382C278.097 137.522 278.527 137.092 278.956 137.092C279.385 136.663 279.815 137.522 279.815 138.382ZM278.097 138.382C278.097 139.241 278.527 139.671 278.527 139.671C278.956 139.671 278.956 139.241 278.956 138.382C278.956 137.522 278.956 137.092 278.527 137.092C278.527 137.092 278.097 137.522 278.097 138.382Z" fill="#BAC2C6"></path> <path d="M281.103 137.092L280.244 137.522V137.092H281.103L281.532 139.671H281.103V137.092Z" fill="#BAC2C6"></path> <path d="M284.108 136.663L282.82 139.671H282.39L284.108 136.663L282.39 137.092V136.663H284.108Z" fill="#BAC2C6"></path> <path d="M307.289 139.671L307.719 139.241C308.577 138.382 308.577 138.382 308.577 137.952C308.577 137.522 308.577 137.522 308.148 137.522C307.719 137.522 307.719 137.522 307.719 137.952V137.522C307.719 137.522 308.148 137.092 308.577 137.092C309.007 137.092 309.436 137.522 309.436 137.952C309.436 138.382 309.007 138.811 308.577 139.671H308.148H309.436V140.101H307.289V139.671Z" fill="#BAC2C6"></path> <path d="M311.153 138.382C311.153 139.241 310.724 139.671 310.294 139.671C309.865 139.671 309.436 139.241 309.436 138.382C309.436 137.522 309.865 137.092 310.294 137.092C310.724 136.663 311.153 137.522 311.153 138.382ZM309.436 138.382C309.436 139.241 309.865 139.671 309.865 139.671C310.294 139.671 310.294 139.241 310.294 138.382C310.294 137.522 310.294 137.092 309.865 137.092C309.865 137.092 309.436 137.522 309.436 138.382Z" fill="#BAC2C6"></path> <path d="M312.441 137.092L311.582 137.522V137.092H312.441L312.87 139.671H312.441V137.092Z" fill="#BAC2C6"></path> <path d="M313.729 138.811C313.729 138.382 313.729 138.382 314.158 137.952C313.729 137.952 313.729 137.952 313.729 137.522C313.729 137.092 314.158 136.663 314.587 136.663C315.017 136.663 315.446 137.092 315.446 137.522C315.446 137.952 315.446 137.952 315.017 138.382C315.446 138.382 315.446 138.811 315.446 139.241C315.446 139.671 315.017 140.101 314.587 140.101C313.729 139.671 313.729 139.241 313.729 138.811ZM315.017 138.811C315.017 138.382 314.587 138.382 314.587 138.382C314.158 138.382 314.158 138.811 314.158 138.811C314.158 139.241 314.158 139.241 314.587 139.241C315.017 139.671 315.017 139.241 315.017 138.811ZM314.158 137.522C314.158 137.952 314.158 137.952 314.587 137.952C315.017 137.952 315.017 137.522 315.017 137.522C315.017 137.092 315.017 137.092 314.587 137.092C314.158 137.092 314.158 137.092 314.158 137.522Z" fill="#BAC2C6"></path> <path d="M338.628 139.671L339.058 139.241C339.916 138.382 339.916 138.382 339.916 137.952C339.916 137.522 339.916 137.522 339.487 137.522C339.058 137.522 339.058 137.522 339.058 137.952V137.522C339.058 137.522 339.487 137.092 339.916 137.092C340.346 137.092 340.775 137.522 340.775 137.952C340.775 138.382 340.346 138.811 339.916 139.671H339.487H340.775V140.101H338.628V139.671Z" fill="#BAC2C6"></path> <path d="M342.492 138.382C342.492 139.241 342.063 139.671 341.633 139.671C341.204 139.671 340.775 139.241 340.775 138.382C340.775 137.522 341.204 137.092 341.633 137.092C342.063 136.663 342.492 137.522 342.492 138.382ZM340.775 138.382C340.775 139.241 341.204 139.671 341.204 139.671C341.633 139.671 341.633 139.241 341.633 138.382C341.633 137.522 341.633 137.092 341.204 137.092C341.204 137.092 340.775 137.522 340.775 138.382Z" fill="#BAC2C6"></path> <path d="M343.78 137.092L342.921 137.522V137.092H343.78L344.209 139.671H343.78V137.092Z" fill="#BAC2C6"></path> <path d="M345.068 139.241C345.068 139.241 345.497 139.241 345.068 139.241C345.497 139.241 345.926 139.241 345.926 138.811C345.926 138.811 346.356 138.382 346.356 137.952L345.926 138.382C345.497 138.382 345.068 137.952 345.068 137.522C345.068 137.092 345.497 136.663 345.926 136.663C346.356 136.663 346.785 137.092 346.785 137.952C346.785 138.382 346.785 138.811 346.356 139.241C345.926 139.671 345.926 139.671 345.068 139.241C345.068 139.671 345.497 139.671 345.068 139.241ZM345.068 137.952C345.068 138.382 345.068 138.382 345.497 138.382C345.926 138.382 345.926 138.382 345.926 137.952C345.926 137.522 345.926 137.092 345.497 137.092C345.497 137.092 345.068 137.522 345.068 137.952Z" fill="#BAC2C6"></path> <path opacity="0.34" d="M358.377 39.9673H266.077V55.4385H358.377V39.9673Z" fill="white"></path> <path opacity="0.34" d="M358.377 71.3398H266.077V86.8111H358.377V71.3398Z" fill="white"></path> <path opacity="0.34" d="M358.377 102.712H266.077V118.183H358.377V102.712Z" fill="white"></path> <path d="M307.29 39.9673H266.077V42.5458H307.29V39.9673Z" fill="#FFC40E"></path> <path d="M337.341 46.8433H266.077V49.4218H337.341V46.8433Z" fill="#165670"></path> <path d="M291.405 53.2896H266.077V55.8681H291.405V53.2896Z" fill="#3BB6D5"></path> <path d="M340.775 71.3398H266.077V73.9184H340.775V71.3398Z" fill="#FFC40E"></path> <path d="M296.986 77.7861H266.077V80.3647H296.986V77.7861Z" fill="#165670"></path> <path d="M327.467 84.6621H266.077V87.2407H327.467V84.6621Z" fill="#3BB6D5"></path> <path d="M296.986 102.712H266.077V105.29H296.986V102.712Z" fill="#FFC40E"></path> <path d="M327.467 109.588H266.077V112.166H327.467V109.588Z" fill="#165670"></path> <path d="M316.734 116.034H266.077V118.613H316.734V116.034Z" fill="#3BB6D5"></path> <path d="M541.259 28.7935H538.254V32.2315H541.259V28.7935Z" fill="#CFD9E8"></path> <path d="M550.275 28.7935H547.27V32.2315H550.275V28.7935Z" fill="#CFD9E8"></path> <path d="M559.29 28.7935H556.284V32.2315H559.29V28.7935Z" fill="#CFD9E8"></path> <path d="M567.875 28.7935H564.87V32.2315H567.875V28.7935Z" fill="white"></path> <path d="M576.891 28.7935H573.886V32.2315H576.891V28.7935Z" fill="white"></path> <path d="M585.906 28.7935H582.901V32.2315H585.906V28.7935Z" fill="#CFD9E8"></path> <path d="M594.922 28.7935H591.917V32.2315H594.922V28.7935Z" fill="#CFD9E8"></path> <path d="M541.259 37.3887H538.254V40.8267H541.259V37.3887Z" fill="white"></path> <path d="M550.275 37.3887H547.27V40.8267H550.275V37.3887Z" fill="white"></path> <path d="M559.29 37.3887H556.284V40.8267H559.29V37.3887Z" fill="white"></path> <path d="M567.875 37.3887H564.87V40.8267H567.875V37.3887Z" fill="#3BB6D5"></path> <path d="M576.891 37.3887H573.886V40.8267H576.891V37.3887Z" fill="white"></path> <path d="M585.906 37.3887H582.901V40.8267H585.906V37.3887Z" fill="#CFD9E8"></path> <path d="M594.922 37.3887H591.917V40.8267H594.922V37.3887Z" fill="#CFD9E8"></path> <path d="M541.259 45.5542H538.254V48.9923H541.259V45.5542Z" fill="white"></path> <path d="M550.275 45.5542H547.27V48.9923H550.275V45.5542Z" fill="white"></path> <path d="M559.29 45.5542H556.284V48.9923H559.29V45.5542Z" fill="white"></path> <path d="M567.875 45.5542H564.87V48.9923H567.875V45.5542Z" fill="white"></path> <path d="M576.891 45.5542H573.886V48.9923H576.891V45.5542Z" fill="#165670"></path> <path d="M585.906 45.5542H582.901V48.9923H585.906V45.5542Z" fill="#CFD9E8"></path> <path d="M594.922 45.5542H591.917V48.9923H594.922V45.5542Z" fill="#CFD9E8"></path> <path d="M541.259 53.7192H538.254V57.1573H541.259V53.7192Z" fill="white"></path> <path d="M550.275 53.7192H547.27V57.1573H550.275V53.7192Z" fill="#3BB6D5"></path> <path d="M559.29 53.7192H556.284V57.1573H559.29V53.7192Z" fill="#3BB6D5"></path> <path d="M567.875 53.7192H564.87V57.1573H567.875V53.7192Z" fill="#165670"></path> <path d="M576.891 53.7192H573.886V57.1573H576.891V53.7192Z" fill="white"></path> <path d="M585.906 53.7192H582.901V57.1573H585.906V53.7192Z" fill="#CFD9E8"></path> <path d="M594.922 53.7192H591.917V57.1573H594.922V53.7192Z" fill="#CFD9E8"></path> <path d="M541.259 61.8843H538.254V65.3223H541.259V61.8843Z" fill="white"></path> <path d="M550.275 61.8843H547.27V65.3223H550.275V61.8843Z" fill="white"></path> <path d="M559.29 61.8843H556.284V65.3223H559.29V61.8843Z" fill="white"></path> <path d="M567.875 61.8843H564.87V65.3223H567.875V61.8843Z" fill="white"></path> <path d="M576.891 61.8843H573.886V65.3223H576.891V61.8843Z" fill="white"></path> <path d="M585.906 61.8843H582.901V65.3223H585.906V61.8843Z" fill="#CFD9E8"></path> <path d="M594.922 61.8843H591.917V65.3223H594.922V61.8843Z" fill="#CFD9E8"></path> <path d="M541.259 70.0498H538.254V73.4879H541.259V70.0498Z" fill="#FECE40"></path> <path d="M550.275 70.0498H547.27V73.4879H550.275V70.0498Z" fill="white"></path> <path d="M559.29 70.0498H556.284V73.4879H559.29V70.0498Z" fill="white"></path> <path d="M567.875 70.0498H564.87V73.4879H567.875V70.0498Z" fill="white"></path> <path d="M576.891 70.0498H573.886V73.4879H576.891V70.0498Z" fill="white"></path> <path d="M585.906 70.0498H582.901V73.4879H585.906V70.0498Z" fill="#CFD9E8"></path> <path d="M594.922 70.0498H591.917V73.4879H594.922V70.0498Z" fill="#CFD9E8"></path> <path opacity="0.34" d="M482.015 24.0664H435.221V83.8027H482.015V24.0664Z" fill="white"></path> <path d="M505.198 84.2324H388.428V24.0664H505.198V84.2324V84.2324ZM388.857 83.8027H505.198V24.0664H388.857V83.8027Z" fill="#BAC2C6"></path> <path d="M386.71 83.3733C386.71 84.2328 386.281 84.6625 385.852 84.6625C385.422 84.6625 384.993 84.2328 384.993 83.3733C384.993 82.5137 385.422 82.084 385.852 82.084C386.281 82.084 386.71 82.5137 386.71 83.3733ZM385.422 83.3733C385.422 84.2328 385.422 84.2328 385.852 84.2328C386.281 84.2328 386.281 83.803 386.281 82.9435C386.281 82.5137 386.281 82.084 385.852 82.084C385.422 82.5137 385.422 82.9435 385.422 83.3733Z" fill="#BAC2C6"></path> <path d="M383.706 72.6289L383.276 73.0587V72.6289H383.706L384.135 74.7777H383.706V72.6289Z" fill="#BAC2C6"></path> <path d="M386.71 73.4885C386.71 74.348 386.281 74.7778 385.852 74.7778C385.422 74.7778 384.993 74.348 384.993 73.4885C384.993 72.629 385.422 72.1992 385.852 72.1992C386.281 72.1992 386.71 72.629 386.71 73.4885ZM385.422 73.4885C385.422 74.348 385.422 74.348 385.852 74.348C386.281 74.348 386.281 73.9183 386.281 73.0587C386.281 72.629 386.281 72.1992 385.852 72.1992C385.422 72.1992 385.422 72.629 385.422 73.4885Z" fill="#BAC2C6"></path> <path d="M383.276 64.894L383.706 64.4642C384.135 64.0345 384.564 63.6047 384.564 63.1749C384.564 62.7452 384.564 62.7452 384.135 62.7452C383.706 62.7452 383.706 62.7452 383.706 63.1749V62.7452C383.706 62.7452 384.135 62.3154 384.564 62.3154C384.994 62.3154 385.423 62.7452 385.423 63.1749C385.423 63.6047 384.994 64.0345 384.564 64.4642H385.852V64.894H383.276Z" fill="#BAC2C6"></path> <path d="M386.71 63.6043C386.71 64.4638 386.281 64.8935 385.852 64.8935C385.422 64.8935 384.993 64.4638 384.993 63.6043C384.993 62.7448 385.422 62.315 385.852 62.315C386.281 61.8852 386.71 62.7448 386.71 63.6043ZM385.422 63.6043C385.422 64.4638 385.422 64.4638 385.852 64.4638C386.281 64.4638 386.281 64.034 386.281 63.1745C386.281 62.7448 386.281 62.315 385.852 62.315C385.422 62.315 385.422 62.7448 385.422 63.6043Z" fill="#BAC2C6"></path> <path d="M383.276 54.1493H383.706C384.135 54.1493 384.135 53.7196 384.135 53.7196C384.135 53.2898 383.706 53.2898 383.706 53.2898V52.8601C384.135 52.8601 384.135 52.8601 384.135 52.4303C384.135 52.4303 384.135 52.0006 383.706 52.0006H383.276V51.5708C383.276 51.5708 383.706 51.5708 384.135 51.5708C384.564 51.5708 384.994 52.0006 384.994 52.0006C384.994 52.4303 384.994 52.4303 384.564 52.4303C384.994 52.4303 384.994 52.8601 384.994 53.2898C384.994 53.7196 384.564 54.1493 384.135 54.1493C383.276 54.5791 383.276 54.5791 383.276 54.1493Z" fill="#BAC2C6"></path> <path d="M386.71 53.2898C386.71 54.1493 386.281 54.579 385.852 54.579C385.422 54.579 384.993 54.1493 384.993 53.2898C384.993 52.4302 385.422 52.0005 385.852 52.0005C386.281 52.0005 386.71 52.4302 386.71 53.2898ZM385.422 53.2898C385.422 54.1493 385.422 54.1493 385.852 54.1493C386.281 54.1493 386.281 53.7195 386.281 52.86C386.281 52.4302 386.281 52.0005 385.852 52.0005C385.422 52.4302 385.422 52.86 385.422 53.2898Z" fill="#BAC2C6"></path> <path d="M384.135 44.6948V43.8353H382.847V43.4056L384.135 41.6865H384.564V43.4056H384.993V43.8353H384.564L384.135 44.6948ZM384.135 43.8353V42.9758V42.546V42.9758L383.705 43.8353H384.135Z" fill="#BAC2C6"></path> <path d="M386.71 43.4055C386.71 44.265 386.281 44.6948 385.852 44.6948C385.422 44.6948 384.993 44.265 384.993 43.4055C384.993 42.546 385.422 42.1162 385.852 42.1162C386.281 42.1162 386.71 42.546 386.71 43.4055ZM385.422 43.4055C385.422 44.265 385.422 44.265 385.852 44.265C386.281 44.265 386.281 43.8352 386.281 42.9757C386.281 42.546 386.281 42.1162 385.852 42.1162C385.422 42.546 385.422 42.546 385.422 43.4055Z" fill="#BAC2C6"></path> <path d="M384.564 32.2319H383.705V33.0914H384.135C384.135 33.0914 384.564 33.5212 384.564 33.951C384.564 34.3807 384.135 34.8105 383.705 34.8105C383.276 34.8105 383.276 34.8105 383.276 34.8105V34.3807H383.705C384.135 34.3807 384.135 33.951 384.135 33.951C384.135 33.5212 383.705 33.5212 383.276 33.5212H382.847V32.2319H384.564Z" fill="#BAC2C6"></path> <path d="M386.71 33.5212C386.71 34.3807 386.281 34.8105 385.852 34.8105C385.422 34.8105 384.993 34.3807 384.993 33.5212C384.993 32.6617 385.422 32.2319 385.852 32.2319C386.281 32.2319 386.71 32.6617 386.71 33.5212ZM385.422 33.5212C385.422 34.3807 385.422 34.3807 385.852 34.3807C386.281 34.3807 386.281 33.951 386.281 33.0914C386.281 32.6617 386.281 32.2319 385.852 32.2319C385.422 32.2319 385.422 32.6617 385.422 33.5212Z" fill="#BAC2C6"></path> <path d="M400.018 87.2407H399.589H400.018L400.448 89.3895H400.018V87.2407Z" fill="#BAC2C6"></path> <path d="M422.772 89.3897L423.201 88.9599C423.631 88.5301 424.06 88.1004 424.06 87.6706C424.06 87.2409 424.06 87.2409 423.631 87.2409H423.201V86.8111C423.201 86.8111 423.631 86.3813 424.06 86.3813C424.489 86.3813 424.918 86.8111 424.918 87.2409C424.918 87.6706 424.489 88.1004 424.06 88.5301H424.918V88.9599H422.772V89.3897Z" fill="#BAC2C6"></path> <path d="M445.954 88.9599H446.383C446.812 88.9599 446.812 88.5301 446.812 88.5301C446.812 88.1004 446.383 88.1004 446.383 88.1004V87.6706C446.812 87.6706 446.812 87.6706 446.812 87.2409C446.812 87.2409 446.812 86.8111 446.383 86.8111H445.954V86.3813H446.383C446.812 86.3813 447.242 86.8111 447.242 86.8111C447.242 87.2409 447.242 87.2409 446.812 87.2409C447.242 87.2409 447.242 87.6706 447.242 87.6706C447.242 88.1004 446.812 88.5301 446.383 88.5301C446.383 89.3896 445.954 89.3896 445.954 88.9599Z" fill="#BAC2C6"></path> <path d="M469.995 89.3897V88.5301H468.707V88.1004L469.566 86.3813H469.995V88.1004H470.424V88.5301H469.995V89.3897ZM469.995 88.5301V87.6706V87.2409V87.6706L469.566 88.5301H469.995Z" fill="#BAC2C6"></path> <path d="M494.036 87.2409H493.177V87.6706H493.607L494.036 88.1004C494.036 88.5301 493.607 88.9599 493.177 88.9599C492.748 88.9599 492.748 88.9599 492.748 88.9599V88.5301H493.177C493.607 88.5301 493.607 88.5301 493.607 88.1004C493.607 87.6706 493.606 87.6706 492.748 87.6706H492.319V86.3813L494.036 87.2409Z" fill="#BAC2C6"></path> <path d="M388.857 84.6624L388.428 84.2327L411.61 73.9185L435.222 63.6043L458.404 53.7199H482.016L505.198 43.8354V44.2652L482.016 54.1496H458.833L435.222 64.0341L412.039 74.778L388.857 84.6624Z" fill="#FFC40E"></path> <path d="M435.222 74.3481L412.039 64.4637L388.857 74.3481L388.428 73.4886L412.039 63.6042L435.222 73.4886L458.404 64.4637L481.586 34.3807L505.198 23.6367V24.4962L482.016 34.8104L458.833 64.8934L435.222 74.3481Z" fill="#3BB6D5"></path> <path d="M483.303 34.8103C483.303 35.6698 482.874 36.0996 482.015 36.0996C481.157 36.0996 480.728 35.6698 480.728 34.8103C480.728 33.9508 481.157 33.521 482.015 33.521C482.445 33.0913 483.303 33.9508 483.303 34.8103Z" fill="white"></path> <path d="M482.015 36.5294C481.156 36.5294 480.298 35.6699 480.298 34.8103C480.298 33.9508 481.156 33.0913 482.015 33.0913C482.874 33.0913 483.732 33.9508 483.732 34.8103C483.732 35.6699 482.874 36.5294 482.015 36.5294ZM482.015 33.5211C481.586 33.5211 481.156 33.9508 481.156 34.3806C481.156 34.8103 481.586 35.2401 482.015 35.2401C482.444 35.2401 482.874 34.8103 482.874 34.3806C482.874 33.9508 482.444 33.5211 482.015 33.5211Z" fill="#3BB6D5"></path> <path d="M459.692 64.8933C459.692 65.7528 459.262 66.1826 458.404 66.1826C457.545 66.1826 457.116 65.7528 457.116 64.8933C457.116 64.0338 457.545 63.6041 458.404 63.6041C459.262 63.1743 459.692 64.0338 459.692 64.8933Z" fill="white"></path> <path d="M458.403 66.6124C457.545 66.6124 456.686 65.7529 456.686 64.8934C456.686 64.0338 457.545 63.1743 458.403 63.1743C459.262 63.1743 460.121 64.0338 460.121 64.8934C460.121 65.7529 459.691 66.6124 458.403 66.6124ZM458.403 63.6041C457.974 63.6041 457.545 64.0338 457.545 64.4636C457.545 64.8933 457.974 65.3231 458.403 65.3231C458.833 65.3231 459.262 64.8933 459.262 64.4636C459.691 64.0338 459.262 63.6041 458.403 63.6041Z" fill="#3BB6D5"></path> <path d="M436.51 73.9187C436.51 74.7782 436.081 75.2079 435.222 75.2079C434.363 75.2079 433.934 74.7782 433.934 73.9187C433.934 73.0592 434.363 72.6294 435.222 72.6294C436.081 72.6294 436.51 73.0592 436.51 73.9187Z" fill="white"></path> <path d="M435.222 75.6378C434.363 75.6378 433.504 74.7783 433.504 73.9187C433.504 73.0592 434.363 72.1997 435.222 72.1997C436.08 72.1997 436.939 73.0592 436.939 73.9187C436.939 74.7783 436.08 75.6378 435.222 75.6378ZM435.222 73.0592C434.792 73.0592 434.363 73.489 434.363 73.9187C434.363 74.3485 434.792 74.7782 435.222 74.7782C435.651 74.7782 436.08 74.3485 436.08 73.9187C436.08 73.489 435.651 73.0592 435.222 73.0592Z" fill="#3BB6D5"></path> <path d="M413.328 64.0339C413.328 64.8934 412.898 65.3232 412.04 65.3232C411.181 65.3232 410.752 64.8934 410.752 64.0339C410.752 63.1744 411.181 62.7446 412.04 62.7446C412.898 62.7446 413.328 63.1744 413.328 64.0339Z" fill="white"></path> <path d="M412.04 65.753C411.181 65.753 410.323 64.8935 410.323 64.034C410.323 63.1745 411.181 62.3149 412.04 62.3149C412.898 62.3149 413.757 63.1745 413.757 64.034C413.757 64.8935 412.898 65.753 412.04 65.753ZM412.04 63.1745C411.61 63.1745 411.181 63.6042 411.181 64.034C411.181 64.4637 411.61 64.8935 412.04 64.8935C412.469 64.8935 412.898 64.4637 412.898 64.034C412.898 63.6042 412.469 63.1745 412.04 63.1745Z" fill="#3BB6D5"></path> <path d="M459.263 54.1492C459.263 55.0087 458.834 55.4385 457.975 55.4385C457.117 55.4385 456.687 55.0087 456.687 54.1492C456.687 53.2897 457.117 52.8599 457.975 52.8599C458.834 52.4302 459.263 53.2897 459.263 54.1492Z" fill="white"></path> <path d="M457.975 55.8682C457.116 55.8682 456.258 55.0087 456.258 54.1492C456.258 53.2897 457.116 52.4302 457.975 52.4302C458.833 52.4302 459.692 53.2897 459.692 54.1492C459.692 55.0087 458.833 55.8682 457.975 55.8682ZM457.975 52.8599C457.545 52.8599 457.116 53.2897 457.116 53.7194C457.116 54.1492 457.545 54.579 457.975 54.579C458.404 54.579 458.833 54.1492 458.833 53.7194C458.833 53.2897 458.404 52.8599 457.975 52.8599Z" fill="#FFC40E"></path> <path d="M483.303 54.1492C483.303 55.0087 482.874 55.4385 482.015 55.4385C481.157 55.4385 480.728 55.0087 480.728 54.1492C480.728 53.2897 481.157 52.8599 482.015 52.8599C482.445 52.4302 483.303 53.2897 483.303 54.1492Z" fill="white"></path> <path d="M482.015 55.8682C481.156 55.8682 480.298 55.0087 480.298 54.1492C480.298 53.2897 481.156 52.4302 482.015 52.4302C482.874 52.4302 483.732 53.2897 483.732 54.1492C483.732 55.0087 482.874 55.8682 482.015 55.8682ZM482.015 52.8599C481.586 52.8599 481.156 53.2897 481.156 53.7194C481.156 54.1492 481.586 54.579 482.015 54.579C482.444 54.579 482.874 54.1492 482.874 53.7194C482.874 53.2897 482.444 52.8599 482.015 52.8599Z" fill="#FFC40E"></path> <path d="M498.329 80.7947L499.188 68.3317C501.334 65.7531 503.91 64.4639 506.915 64.4639C512.496 64.8936 516.36 71.34 515.93 79.0756C515.501 86.8113 510.349 92.8279 504.769 92.3981C500.905 91.9684 497.9 88.96 496.612 84.2327C497.47 83.3732 498.329 82.0839 498.329 80.7947Z" fill="#163F59"></path> <path d="M520.653 86.3816C521.082 88.5304 518.936 90.2494 516.36 90.6792L510.35 91.9684C507.774 92.3982 505.198 91.1089 504.769 89.3899L501.764 71.3401C501.334 69.1913 503.481 67.4722 506.057 67.0425L512.067 65.7532C514.643 65.3235 517.219 66.6127 517.648 68.3318L520.653 86.3816Z" fill="#163F59"></path> <path d="M505.198 95.4064C501.763 97.1254 500.046 96.6957 502.622 97.9849C503.91 99.704 520.653 96.2659 521.511 93.6874C521.511 93.2576 514.643 92.8279 514.643 92.3981C514.213 89.3898 513.784 86.3815 514.213 82.9434C514.213 82.5137 513.784 82.5137 513.784 82.5137C512.496 82.5137 511.208 82.9434 509.92 82.9434C509.92 82.9434 507.344 83.8029 507.774 85.0922C508.632 88.5303 509.062 93.2576 505.198 95.4064Z" fill="#E9D6B8"></path> <path d="M503.48 85.0921C503.48 85.0921 503.051 84.6624 503.48 85.0921C503.051 84.6624 503.051 84.6624 503.051 84.6624C503.051 84.6624 503.051 84.2326 502.622 84.2326V83.8029C502.622 83.8029 502.622 83.8029 502.622 83.3731C502.622 83.3731 502.622 83.3731 502.622 82.9434V82.5136V82.0838C502.622 82.0838 502.622 82.0838 502.622 81.6541C502.622 81.6541 502.622 81.6541 502.622 81.2243C502.622 81.2243 502.622 81.2243 502.622 80.7946C502.622 80.7946 502.622 80.7946 502.622 80.3648C502.193 79.0755 502.193 73.0589 503.051 70.0506C503.051 69.6209 503.48 69.1911 503.91 69.6209C506.915 69.6209 515.93 68.7614 514.213 77.3565C514.213 77.3565 514.213 78.216 514.213 78.6458C514.213 79.0755 514.213 79.5053 514.213 79.5053C514.213 79.9351 514.213 80.3648 513.784 80.3648C512.925 84.6624 510.779 87.2409 508.203 87.2409C506.915 87.2409 505.627 86.3814 504.339 84.6624C503.48 85.5219 503.48 85.0921 503.48 85.0921Z" fill="#E9D6B8"></path> <path d="M470.424 96.2659C470.424 96.2659 469.995 96.6957 469.566 96.2659C469.137 95.4064 468.707 93.6874 468.707 92.8278C468.707 91.9683 468.707 88.5303 468.707 88.5303C468.707 88.5303 469.566 89.8195 469.566 91.1088C469.566 93.2576 470.424 96.2659 470.424 96.2659Z" fill="#E2C59C"></path> <path d="M470.425 95.8361C469.566 94.5469 469.996 93.2576 470.854 91.1088C471.283 89.3898 470.854 88.5303 470.854 88.5303C470.854 88.5303 470.425 89.3898 469.566 92.3981C469.566 93.2576 469.137 94.1171 469.137 94.9766C469.566 97.1254 472.142 98.8445 470.425 95.8361Z" fill="#E2C59C"></path> <path d="M505.198 298.252C505.198 298.252 506.486 297.822 510.35 296.963C512.496 296.533 514.213 296.533 515.072 295.674C516.36 294.384 515.501 289.657 516.36 290.087C519.365 290.946 520.653 298.682 518.936 299.541C517.218 300.401 506.915 299.971 506.057 299.971C504.769 299.542 504.769 298.252 505.198 298.252Z" fill="#E9D6B8"></path> <path d="M527.522 212.73C527.092 211.011 526.663 208.862 526.234 207.143C524.946 204.565 523.658 202.846 522.37 203.275C518.506 204.135 515.501 219.176 527.092 255.706C527.522 257.425 535.678 289.227 535.678 288.797C536.966 278.913 533.961 240.664 527.522 212.73Z" fill="#E9D6B8"></path> <path d="M523.658 156.862C520.653 156.432 520.653 158.151 518.507 162.449C514.643 171.044 512.496 183.937 514.214 197.689C516.36 213.59 520.224 227.772 525.376 236.367C528.381 228.631 529.669 219.606 530.527 209.722C533.962 179.209 532.674 158.581 523.658 156.862Z" fill="#E9D6B8"></path> <path d="M520.653 192.961C524.516 192.102 528.38 191.672 532.244 191.672C531.815 196.829 531.385 202.846 530.956 208.862C526.663 204.135 518.077 206.713 515.93 209.292C515.072 205.854 514.643 201.986 514.213 198.548C514.213 197.259 513.784 196.399 513.784 195.54C515.93 194.25 518.506 193.391 520.653 192.961Z" fill="#E2C59C"></path> <path d="M540.83 115.175C536.537 119.473 532.673 138.382 532.673 138.382C532.673 138.382 533.102 146.117 542.976 122.051C545.552 115.175 541.688 114.315 540.83 115.175Z" fill="#E9D6B8"></path> <path d="M495.753 109.159C492.748 111.738 490.172 121.192 488.455 126.779C487.167 130.217 488.025 132.366 488.025 132.366C488.025 132.366 489.743 139.672 497.041 118.614C498.329 113.886 497.041 108.3 495.753 109.159Z" fill="#E9D6B8"></path> <path d="M490.602 131.935C490.172 124.2 476.005 105.29 476.005 105.29C476.005 105.29 468.707 99.7036 482.874 128.068C487.167 137.092 490.602 134.084 490.602 131.935Z" fill="#E9D6B8"></path> <path d="M470.424 94.1169L469.995 94.5467L469.566 96.6955C469.566 96.6955 470.854 100.563 471.712 102.282C472.571 103.572 474.288 110.018 474.717 110.448C475.147 111.307 478.581 110.877 478.581 110.877C478.581 110.877 475.147 104.861 474.288 102.712C473 100.134 472.571 96.2657 472.571 95.4062C471.712 93.6872 471.712 92.8276 471.712 92.8276C471.712 92.8276 470.854 93.2574 471.712 95.8359C472.141 96.6954 471.283 96.2657 471.283 96.2657L470.424 94.1169Z" fill="#E9D6B8"></path> <path d="M505.628 169.325C509.491 177.06 512.067 189.093 511.638 201.986C511.209 217.028 509.491 230.35 506.486 238.945C503.911 232.069 502.623 223.474 500.476 214.449C494.037 186.085 503.91 165.457 505.628 169.325Z" fill="#E9D6B8"></path> <path d="M499.616 199.837C498.758 194.68 499.187 186.085 502.192 183.506C503.051 182.647 503.48 183.077 504.768 183.506C507.344 184.366 509.92 186.945 511.637 191.242C511.637 194.25 512.066 197.259 511.637 200.267C511.637 203.705 511.637 204.135 511.208 207.143C509.92 205.854 506.056 200.697 499.616 199.837Z" fill="#E2C59C"></path> <path d="M506.486 215.309C507.774 214.449 510.35 216.598 512.496 220.036C515.931 227.342 517.219 237.656 517.648 250.119C518.507 263.442 518.507 273.326 518.077 281.491C518.077 289.657 521.082 300.83 515.501 299.971C516.36 288.797 514.214 272.466 511.208 263.441C500.476 234.218 502.193 217.457 506.486 215.309Z" fill="#E9D6B8"></path> <path d="M502.622 121.621L525.375 119.902L526.234 92.8276L499.617 97.1252L502.622 121.621Z" fill="#3BB6D5"></path> <path d="M502.622 121.621L525.375 119.902L526.234 92.8276L499.617 97.1252L502.622 121.621Z" fill="#3C936C"></path> <path d="M502.622 121.621L525.375 119.902L526.234 92.8276L499.617 97.1252L502.622 121.621Z" fill="#3BB6D5"></path> <path d="M535.249 201.127C522.37 199.837 509.491 198.978 496.612 197.689C495.324 197.689 503.481 172.333 502.622 121.192C510.35 120.332 517.648 119.902 525.375 119.043C524.087 129.787 544.694 146.547 535.249 201.127Z" fill="#3BB6D5"></path> <path d="M537.825 119.473L525.375 103.142L522.37 95.4062C522.799 94.5467 523.229 94.117 523.658 93.6872L524.087 93.2575C525.805 91.9682 527.951 92.3979 529.239 94.117L543.406 114.745L537.825 119.473Z" fill="#3BB6D5"></path> <path d="M537.825 119.473L525.375 103.142L522.37 95.4062C522.799 94.5467 523.229 94.117 523.658 93.6872L524.087 93.2575C525.805 91.9682 527.951 92.3979 529.239 94.117L543.406 114.745L537.825 119.473Z" fill="#3C936C"></path> <path d="M537.825 119.473L525.375 103.142L522.37 95.4062C522.799 94.5467 523.229 94.117 523.658 93.6872L524.087 93.2575C525.805 91.9682 527.951 92.3979 529.239 94.117L543.406 114.745L537.825 119.473Z" fill="#3BB6D5"></path> <path d="M494.036 128.927L500.905 110.877L503.481 98.4143C503.052 97.9845 502.622 97.5548 501.764 97.125H501.334C499.617 96.6953 497.471 97.5548 497.041 99.7036L489.314 124.2L494.036 128.927Z" fill="#3BB6D5"></path> <path d="M494.036 128.927L500.905 110.877L503.481 98.4143C503.052 97.9845 502.622 97.5548 501.764 97.125H501.334C499.617 96.6953 497.471 97.5548 497.041 99.7036L489.314 124.2L494.036 128.927Z" fill="#3C936C"></path> <path d="M494.036 128.927L500.905 110.877L503.481 98.4143C503.052 97.9845 502.622 97.5548 501.764 97.125H501.334C499.617 96.6953 497.471 97.5548 497.041 99.7036L489.314 124.2L494.036 128.927Z" fill="#3BB6D5"></path> <path d="M532.244 143.539C532.244 143.969 532.673 144.399 533.103 143.969L533.961 143.539C534.39 143.539 534.39 143.11 534.39 142.68L533.103 137.952C533.103 137.523 532.673 137.093 532.244 137.523L531.385 137.952C530.956 137.952 530.956 138.382 530.956 138.812L532.244 143.539Z" fill="#E9D6B8"></path> <path d="M536.107 291.376C538.254 296.533 541.259 299.971 542.547 299.541C543.835 299.111 542.976 294.384 540.83 289.227C538.683 284.07 535.678 280.632 534.39 281.062C533.102 281.491 533.961 286.219 536.107 291.376Z" fill="#3BB6D5"></path> <path d="M535.249 288.367C536.537 292.235 539.113 295.243 540.4 294.814C541.688 294.384 541.259 290.946 539.542 287.078C537.395 282.351 536.107 281.061 536.107 277.623C535.678 274.615 530.956 273.326 535.249 288.367Z" fill="#E9D6B8"></path> <path d="M518.077 293.954C518.077 293.954 517.648 293.954 518.077 293.954C517.648 293.954 517.648 293.954 517.648 293.954C517.219 293.954 517.648 293.525 518.077 293.954C518.077 293.954 517.648 293.525 518.077 293.954Z" fill="#E9D6B8"></path> <path d="M507.344 297.392C506.915 299.971 514.213 299.111 516.359 298.252C518.077 297.822 519.365 297.392 519.365 297.392C519.365 297.392 519.365 297.392 519.794 297.392C519.794 298.681 520.223 300.83 518.077 300.83H504.768C493.177 300.83 507.344 297.392 507.344 297.392Z" fill="#3BB6D5"></path> <path d="M470.424 97.1256C470.424 97.1256 469.566 94.9768 469.995 94.1173C469.995 93.2578 471.712 90.2495 471.712 90.2495C471.712 90.2495 472.142 91.5388 471.712 92.8281C470.424 94.5471 470.424 97.1256 470.424 97.1256Z" fill="#E9D6B8"></path> <path d="M471.283 96.6955C471.283 96.6955 471.713 96.6955 472.142 96.6955V97.1253C472.142 97.555 472.571 99.7038 472.571 99.7038C472.571 99.7038 472.142 97.9848 471.713 97.555C471.713 97.1253 471.283 96.6955 471.283 95.836C471.283 95.836 471.283 95.836 471.283 95.4062V96.6955Z" fill="#E2C59C"></path> <path d="M472.142 96.2656C471.713 94.5466 471.713 93.6871 471.713 93.2573C471.713 93.6871 472.142 94.5466 472.571 95.4061C472.571 95.8359 473.001 96.2656 473.001 97.1251C473.001 97.1251 472.571 97.5549 472.142 98.8442C472.142 99.2739 471.713 97.5549 471.283 96.6954C471.713 96.6954 472.142 96.6954 472.142 96.2656Z" fill="#E2C59C"></path> <path d="M508.633 82.084C509.491 81.2245 510.35 79.9352 510.35 78.6459L511.208 66.183C511.208 66.183 511.208 65.7532 511.638 65.7532C514.213 65.3235 516.789 66.6127 517.219 68.3318L520.224 86.3816C520.653 88.1006 519.365 89.3899 517.648 90.2494C517.219 90.2494 517.219 90.2494 516.789 90.2494C513.355 90.2494 510.35 86.8113 508.633 82.084Z" fill="#163F59"></path> <path d="M101.224 265.59C99.5073 265.59 96.9314 265.16 94.7849 263.011C91.3505 260.003 90.0626 254.846 90.4919 247.11C90.9212 241.953 92.6384 236.796 94.7849 231.209C98.2193 222.184 102.083 211.441 99.9366 197.688L103.8 197.259C105.947 212.3 101.654 223.474 98.2193 232.928C96.0728 238.515 94.3556 242.813 94.3556 247.54C93.9263 253.557 94.7849 257.854 97.3607 260.003C99.5073 262.152 102.083 261.292 102.512 261.292L103.371 265.16C102.942 265.59 102.083 265.59 101.224 265.59Z" fill="#367082"></path> <path d="M130.417 297.392L134.281 303.408L102.942 313.723C102.942 313.723 100.795 311.574 108.522 307.276C117.538 302.549 130.417 297.392 130.417 297.392Z" fill="#88BDDA"></path> <path d="M135.998 297.392L132.134 303.408L163.473 313.723C163.473 313.723 165.62 311.574 157.892 307.276C148.877 302.549 135.998 297.392 135.998 297.392Z" fill="#88BDDA"></path> <path d="M136.427 279.772H129.987V303.838H136.427V279.772Z" fill="#88BDDA"></path> <path d="M129.988 298.681L132.993 304.268L106.376 314.153C106.376 314.153 104.659 312.004 111.098 308.136C118.826 303.409 129.988 298.681 129.988 298.681Z" fill="#91E2F6"></path> <path d="M136.427 298.681L133.422 304.268L160.039 314.153C160.039 314.153 161.756 312.004 155.317 308.136C147.589 303.409 136.427 298.681 136.427 298.681Z" fill="#91E2F6"></path> <path d="M109.81 316.301C109.81 317.591 108.952 318.88 107.664 318.88C106.376 318.88 105.517 318.02 105.517 316.301C105.517 314.582 106.376 313.723 107.664 313.723C108.523 314.153 109.81 315.012 109.81 316.301Z" fill="#001F46"></path> <path d="M161.327 316.301C161.327 317.591 160.468 318.88 159.18 318.88C157.892 318.88 157.034 318.02 157.034 316.301C157.034 314.582 157.892 313.723 159.18 313.723C160.039 314.153 161.327 315.012 161.327 316.301Z" fill="#001F46"></path> <path d="M104.229 316.301C104.229 317.591 103.371 318.88 102.083 318.88C100.795 318.88 99.9364 318.02 99.9364 316.301C99.9364 314.582 100.795 313.723 102.083 313.723C102.942 314.153 104.229 315.012 104.229 316.301Z" fill="#367082"></path> <path d="M166.478 316.301C166.478 317.591 165.619 318.88 164.332 318.88C163.044 318.88 162.185 318.02 162.185 316.301C162.185 314.582 163.044 313.723 164.332 313.723C165.619 314.153 166.478 315.012 166.478 316.301Z" fill="#367082"></path> <path d="M135.568 270.747H130.846V279.342H135.568V270.747Z" fill="#367082"></path> <path d="M139.003 266.45C139.003 269.028 136.856 271.177 134.281 271.177H131.705C129.129 271.177 126.983 269.028 126.983 266.45C126.983 263.871 129.129 261.722 131.705 261.722H134.281C136.856 261.292 139.003 263.441 139.003 266.45Z" fill="#367082"></path> <path d="M168.625 261.722C168.625 261.292 168.625 257.425 168.625 256.995C168.625 253.127 166.049 249.689 163.044 249.689H102.942C99.9369 249.689 97.3611 252.697 97.3611 256.995C97.3611 257.425 97.3611 261.292 97.3611 261.722H168.625Z" fill="#3DC7C9"></path> <path d="M96.9314 263.871C96.9314 265.16 97.79 266.02 98.2193 266.02H167.766C168.625 266.02 169.054 265.16 169.054 263.871C169.054 262.582 168.195 261.722 167.766 261.722H98.6486C97.79 261.722 96.9314 262.582 96.9314 263.871Z" fill="#367082"></path> <path d="M100.366 225.193C101.654 225.193 111.098 225.623 112.815 225.623C123.119 225.623 132.134 223.904 132.563 220.895C134.71 209.722 134.71 198.548 132.993 187.374C132.563 184.796 123.548 182.647 112.815 182.647C111.098 182.647 101.654 182.647 99.9364 183.077C103.371 197.259 103.371 211.441 100.366 225.193Z" fill="#3DC7C9"></path> <path d="M99.0779 183.506C97.79 183.506 96.9314 183.936 97.3607 184.796C100.366 197.688 100.366 211.441 97.79 224.333C97.79 225.193 98.6486 225.623 99.5072 225.623C100.795 225.623 101.654 225.193 101.654 224.333C104.23 211.441 104.23 197.688 101.224 184.796C101.224 183.936 100.366 183.506 99.0779 183.506Z" fill="#367082"></path> <path d="M98.6483 225.193C99.0776 225.193 100.795 225.193 101.224 225.193C103.371 225.193 105.946 223.044 106.376 220.466C108.093 209.722 108.093 198.548 106.376 187.374C105.946 184.796 103.371 182.647 101.224 182.647C100.795 182.647 98.6483 182.647 98.6483 182.647C101.653 197.259 101.653 211.441 98.6483 225.193Z" fill="#33A8B5"></path> <path d="M118.825 126.778H113.674V129.357C114.962 127.638 116.679 126.778 118.825 126.778Z" fill="#DCE5EA"></path> <path d="M132.563 143.109C132.563 143.109 123.548 146.547 132.134 172.762C140.72 199.407 146.301 195.969 146.301 195.969L153.169 195.11L166.478 178.349L159.609 171.903L158.321 172.333C158.321 172.333 156.604 171.473 156.175 169.754C155.745 168.035 153.169 163.308 147.159 148.696C143.725 140.96 134.28 142.25 132.563 143.109Z" fill="#AEBDDC"></path> <path d="M164.332 180.068C164.332 180.068 178.499 196.829 187.944 205.424C192.666 209.722 196.1 208.003 190.519 210.151C188.373 211.011 168.625 203.275 157.893 196.829C150.594 192.531 152.741 187.374 157.034 184.796C161.327 181.787 164.332 180.068 164.332 180.068Z" fill="#E2C59C"></path> <path d="M149.736 174.911L154.029 171.903L155.746 170.613C156.175 171.903 157.463 172.762 157.463 172.762L153.599 174.481L149.736 177.06L145.443 182.217L149.736 174.911Z" fill="#CFD9E8"></path> <path d="M148.877 219.176L115.821 218.316C115.821 218.316 102.942 182.647 102.083 170.184C101.654 162.878 105.947 146.977 112.816 143.539C114.533 142.679 119.255 140.53 121.831 140.53C135.569 139.671 145.013 143.539 145.013 143.539C145.013 143.539 158.322 150.845 148.877 219.176Z" fill="#CFD9E8"></path> <path d="M202.969 321.029C202.969 321.029 199.964 326.186 198.247 323.177C193.525 313.723 188.802 283.64 188.802 271.177C188.373 254.846 187.514 244.532 187.514 244.532L203.399 238.515L202.969 321.029Z" fill="#163F59"></path> <path d="M147.589 218.746L203.398 238.515L188.802 247.11C188.802 247.11 131.275 257.854 130.417 235.507C129.558 216.597 147.589 218.746 147.589 218.746Z" fill="#163F59"></path> <path d="M183.221 321.459C183.221 321.459 180.216 324.037 178.498 321.029C173.776 311.574 165.619 286.218 165.19 273.756C164.761 257.425 167.337 245.821 167.337 245.821L183.65 239.805L183.221 321.459Z" fill="#194866"></path> <path d="M130.417 219.176L183.651 240.234L169.055 248.4C169.055 248.4 114.962 259.144 114.104 236.796C112.816 214.449 130.417 219.176 130.417 219.176Z" fill="#194866"></path> <path d="M113.245 238.085C113.245 239.804 114.104 244.961 115.392 246.68C120.543 253.127 132.134 250.978 142.008 250.978C142.438 250.978 145.013 243.242 145.013 243.242L148.877 217.887L115.392 218.316C115.821 218.316 114.104 225.193 113.245 238.085Z" fill="#194866"></path> <path d="M167.337 203.275L179.357 201.127C179.357 201.127 181.074 201.127 181.504 202.416C181.504 204.135 181.504 210.152 181.504 210.152L179.357 208.862L176.352 211.011L172.059 205.424C172.059 205.424 170.342 205.854 168.625 205.424C168.195 204.995 167.337 203.275 167.337 203.275Z" fill="#E9D6B8"></path> <path d="M137.285 199.407L169.483 203.275C169.483 203.275 152.311 212.73 144.154 212.73C136.427 212.73 128.699 211.011 128.699 211.011L137.285 199.407Z" fill="#E9D6B8"></path> <path d="M121.402 164.597L137.715 196.399L136.857 198.978L139.433 199.407L131.705 211.87L119.685 208.862L105.089 173.192C105.089 173.192 99.9369 158.151 110.24 148.266C113.245 145.688 119.685 162.019 121.402 164.597Z" fill="#AEBDDC"></path> <path d="M125.266 207.143C125.266 207.143 132.993 201.126 136.857 197.688L136.428 198.978L139.003 199.407L136.428 203.705L131.705 209.292L129.129 208.432L129.988 206.283L125.266 207.143Z" fill="#CFD9E8"></path> <path d="M188.373 326.616C188.802 327.045 188.373 328.335 188.373 328.335C188.373 328.335 183.221 329.194 181.933 328.764C181.504 328.764 180.645 328.335 180.216 327.475C180.216 327.475 179.787 327.045 179.787 326.616H179.358C178.928 326.186 178.499 325.756 178.499 325.756C178.07 322.318 178.499 321.029 178.499 321.029C178.499 321.029 182.792 318.88 183.651 320.169C185.368 324.037 187.944 325.326 188.373 326.616Z" fill="#194866"></path> <path d="M197.817 322.318L198.676 327.045H202.11C202.11 327.045 202.11 326.186 202.54 326.186C202.969 326.186 202.969 327.045 203.398 327.045C204.257 327.045 205.116 327.045 205.545 327.045C206.403 327.045 213.272 327.045 213.272 327.045C213.272 327.045 213.272 326.186 213.272 325.756C213.272 325.756 212.414 325.326 211.984 325.326C209.838 324.467 204.257 323.177 202.969 321.029C201.681 319.31 197.817 322.318 197.817 322.318Z" fill="#163F59"></path> <path d="M119.255 141.39L126.982 144.828L129.129 139.241L121.831 135.803L119.255 141.39Z" fill="#AEBDDC"></path> <path d="M134.71 117.324C135.14 119.472 133.422 121.621 131.276 122.051L116.68 124.63C114.533 125.059 112.387 123.34 111.957 121.192C111.528 119.043 113.245 116.894 115.392 116.464L130.417 113.886C132.564 113.456 134.71 114.745 134.71 117.324Z" fill="#163F59"></path> <path d="M133.422 125.059C133.851 129.357 131.275 133.225 127.412 134.084L119.684 135.373C115.82 136.233 111.957 133.225 111.098 128.927C110.669 124.629 113.245 120.762 117.108 119.902L124.836 118.613C128.7 117.753 132.563 120.762 133.422 125.059Z" fill="#163F59"></path> <path d="M140.72 136.233L137.286 112.167C136.856 108.299 134.281 112.597 130.846 113.456L127.412 113.886C123.977 114.316 121.402 118.183 121.831 122.051L124.407 139.242L140.72 136.233Z" fill="#E9D6B8"></path> <path d="M125.266 126.779C125.695 128.498 124.407 130.217 122.69 130.217C120.973 130.646 119.685 129.357 119.255 127.638C118.826 125.919 120.114 124.2 121.831 124.2C123.548 123.77 125.266 125.06 125.266 126.779Z" fill="#E9D6B8"></path> <path d="M137.715 128.927C137.715 129.786 138.574 130.646 139.432 130.216L140.72 129.786C141.579 129.786 142.008 128.927 142.008 127.638C142.008 127.638 137.715 119.042 136.856 119.042C136.856 119.042 136.427 119.902 136.427 120.762L137.715 128.927Z" fill="#E9D6B8"></path> <path d="M131.705 136.233C124.836 137.522 123.978 135.373 123.548 133.225C123.548 133.225 122.69 139.671 123.119 141.39L123.548 143.539C123.978 147.836 128.7 150.415 133.852 149.555L142.867 147.836L141.15 137.522L140.72 134.944L131.705 136.233Z" fill="#163F59"></path> <path d="M139.861 130.216L134.71 131.076C132.134 131.506 130.846 133.654 130.846 136.233C130.846 136.663 130.846 137.092 131.275 137.522L140.72 135.803L139.861 130.216Z" fill="#163F59"></path> <path d="M133.851 136.233L134.28 137.952C134.28 138.382 134.71 138.812 135.139 138.812L139.432 137.952C139.861 137.952 140.29 137.522 139.861 137.093L139.432 135.374L133.851 136.233Z" fill="#E9D6B8"></path> <path d="M134.281 108.299L120.972 110.448C119.684 110.877 118.396 112.167 118.826 113.456L119.684 119.043L135.998 116.464L134.281 108.299Z" fill="#163F59"></path> <path d="M143.296 111.307C143.725 113.456 142.008 115.605 139.861 116.034L130.846 117.753C128.699 118.183 126.553 116.464 126.123 114.315C125.694 112.167 127.411 110.018 129.558 109.588L138.573 107.869C141.149 107.439 142.866 108.729 143.296 111.307Z" fill="#163F59"></path> <path d="M124.406 116.464L120.972 116.894L122.26 127.208L126.123 126.349L124.406 116.464Z" fill="#163F59"></path> <path d="M132.134 110.877L121.401 112.596L123.119 124.2L133.851 122.481L132.134 110.877Z" fill="#163F59"></path> <path d="M125.695 124.2C125.265 121.192 127.412 118.183 130.417 117.754L133.422 117.324C136.427 116.894 138.574 119.043 139.003 122.051C139.432 125.059 137.286 128.068 134.281 128.497L131.705 128.927C128.7 129.357 126.124 127.208 125.695 124.2Z" fill="#E9D6B8"></path> <path d="M167.766 210.151V208.432H233.02V210.151V210.581C232.162 211.87 230.874 212.3 229.157 212.3H172.059C170.342 212.3 168.625 211.87 167.766 210.151Z" fill="#B4C0C7"></path> <path d="M183.222 210.152C183.222 210.152 183.222 210.581 183.222 210.152C182.792 211.011 182.363 211.011 181.934 211.441H172.06C170.343 211.441 169.055 211.441 168.196 210.152V209.722V208.862H183.222V210.152V210.152Z" fill="#D6E3EB"></path> <path d="M224.863 208.862H192.236V210.152H224.863V208.862Z" fill="#8599A4"></path> <path d="M183.65 208.433L192.236 174.911C192.666 174.052 193.524 173.192 194.383 173.192H240.318C241.177 173.192 241.606 174.052 241.606 174.911L233.02 208.433H183.65Z" fill="#D7DFE2"></path> <path d="M209.838 190.813C209.408 192.532 210.267 193.821 211.984 193.821C213.701 193.821 215.419 192.532 215.848 190.813C216.277 189.094 215.419 187.804 213.701 187.804C211.984 187.375 210.267 189.094 209.838 190.813Z" fill="#B4C0C7"></path> <path d="M469.995 267.309C471.712 267.309 473.859 266.879 476.005 265.16C479.011 262.582 480.298 257.424 479.869 250.548C479.44 245.821 477.723 241.094 476.005 236.366C473 228.201 469.566 218.746 471.283 206.283L467.849 205.854C465.702 219.176 469.566 229.49 473 238.085C474.718 242.813 476.435 247.11 476.435 251.408C476.864 256.995 476.005 260.862 473.859 263.011C471.712 264.73 469.566 264.301 469.137 264.301L468.278 267.739C468.707 267.309 469.137 267.309 469.995 267.309Z" fill="#367082"></path> <path d="M443.379 296.102L439.944 301.259L468.278 310.714C468.278 310.714 469.995 308.995 463.127 305.127C455.399 300.83 443.379 296.102 443.379 296.102Z" fill="#88BDDA"></path> <path d="M438.656 296.102L442.09 301.259L413.756 310.714C413.756 310.714 412.039 308.995 418.908 305.127C426.635 300.83 438.656 296.102 438.656 296.102Z" fill="#88BDDA"></path> <path d="M444.237 280.202H438.227V302.119H444.237V280.202Z" fill="#88BDDA"></path> <path d="M443.808 296.962L440.803 302.119L464.844 311.144C464.844 311.144 466.561 309.425 460.551 305.557C454.111 301.689 443.808 296.962 443.808 296.962Z" fill="#91E2F6"></path> <path d="M438.227 296.962L441.232 302.119L416.762 311.144C416.762 311.144 415.045 309.425 421.055 305.557C427.924 301.689 438.227 296.962 438.227 296.962Z" fill="#91E2F6"></path> <path d="M462.268 313.293C462.268 314.582 463.126 315.441 464.414 315.441C465.702 315.441 466.561 314.582 466.561 313.293C466.561 312.003 465.702 311.144 464.414 311.144C463.555 311.144 462.268 312.003 462.268 313.293Z" fill="#001F46"></path> <path d="M415.903 313.293C415.903 314.582 416.761 315.441 418.049 315.441C419.337 315.441 420.196 314.582 420.196 313.293C420.196 312.003 419.337 311.144 418.049 311.144C416.761 311.144 415.903 312.003 415.903 313.293Z" fill="#001F46"></path> <path d="M467.419 313.293C467.419 314.582 468.278 315.441 469.566 315.441C470.854 315.441 471.712 314.582 471.712 313.293C471.712 312.003 470.854 311.144 469.566 311.144C468.278 311.144 467.419 312.003 467.419 313.293Z" fill="#367082"></path> <path d="M410.751 313.293C410.751 314.582 411.61 315.441 412.898 315.441C414.186 315.441 415.044 314.582 415.044 313.293C415.044 312.003 414.186 311.144 412.898 311.144C411.61 311.144 410.751 312.003 410.751 313.293Z" fill="#367082"></path> <path d="M443.379 272.036H439.086V279.772H443.379V272.036Z" fill="#367082"></path> <path d="M435.651 267.738C435.651 270.317 437.368 272.036 439.944 272.036H442.52C444.666 272.036 446.813 269.887 446.813 267.738C446.813 265.16 445.096 263.441 442.52 263.441H439.944C437.798 263.441 435.651 265.59 435.651 267.738Z" fill="#367082"></path> <path d="M409.035 263.871C409.035 263.441 409.035 260.003 409.035 259.573C409.035 256.135 411.181 253.127 413.757 253.127H468.278C470.854 253.127 473.001 256.135 473.001 259.573C473.001 260.003 473.001 263.441 473.001 263.871H409.035Z" fill="#3DC7C9"></path> <path d="M473.859 265.59C473.859 266.879 473.43 267.738 472.571 267.738H409.893C409.034 267.738 408.605 266.879 408.605 265.59C408.605 264.3 409.034 263.441 409.893 263.441H472.571C473 263.441 473.859 264.73 473.859 265.59Z" fill="#367082"></path> <path d="M470.854 230.78C469.566 230.78 460.98 231.209 459.692 231.209C450.248 231.209 442.091 229.49 441.662 226.912C439.944 217.027 439.944 206.713 441.232 196.399C441.662 193.82 449.818 192.101 459.263 192.101C460.98 192.101 469.566 192.101 470.854 192.531C467.849 205.424 467.849 218.317 470.854 230.78Z" fill="#3DC7C9"></path> <path d="M472.142 192.961C473.001 192.961 473.86 193.39 473.86 194.25C471.284 205.853 471.284 218.316 473.43 229.92C473.43 230.35 473.001 231.209 471.713 231.209C470.855 231.209 469.567 230.779 469.567 229.92C466.991 218.316 466.991 205.853 469.996 194.25C469.996 193.39 470.855 192.961 472.142 192.961Z" fill="#367082"></path> <path d="M472.572 230.779C472.142 230.779 470.425 230.779 469.996 230.779C467.849 230.779 465.703 229.06 465.274 226.482C463.556 216.597 463.556 206.283 465.274 196.399C465.703 193.82 467.849 192.101 469.996 192.101C470.425 192.101 472.142 192.101 472.572 192.101C469.996 205.424 469.567 218.317 472.572 230.779Z" fill="#33A8B5"></path> <path d="M415.903 202.416C415.903 202.416 415.903 204.994 404.312 204.994C392.721 204.994 375.978 201.986 375.978 201.986L402.595 199.408C402.165 199.408 412.468 198.548 415.903 202.416Z" fill="#E2C59C"></path> <path d="M384.564 202.845C378.983 202.845 376.836 205.854 374.69 207.143C372.543 208.002 370.397 209.722 370.397 209.722C371.685 207.143 373.402 207.143 374.261 206.283C375.119 205.424 375.119 205.854 372.973 205.854C371.685 205.854 369.968 208.002 368.68 209.292C367.392 210.151 366.533 210.581 366.533 210.581C366.533 210.581 367.821 208.432 369.538 206.713C371.685 204.564 374.261 202.845 375.119 202.416C376.407 201.986 379.842 201.556 382.417 201.986C385.423 201.556 388.428 202.416 384.564 202.845Z" fill="#E2C59C"></path> <path d="M375.548 201.556C375.548 201.556 371.255 202.845 370.826 203.275C370.397 203.705 368.25 206.283 368.25 206.283C368.25 206.283 369.967 205.854 370.826 204.994C371.255 204.135 375.548 201.556 375.548 201.556Z" fill="#E2C59C"></path> <path d="M410.322 197.259C410.322 197.259 421.054 197.689 420.625 204.135C420.196 208.003 418.049 209.292 414.615 209.292C408.605 208.862 401.736 208.432 401.736 208.432L398.301 198.118L410.322 197.259Z" fill="#B0BFDE"></path> <path d="M412.898 198.118L422.342 163.737C422.342 163.737 423.63 158.58 426.206 159.44C430.07 160.729 428.352 164.597 427.923 167.176C427.494 172.333 427.923 174.052 424.918 186.085C423.201 193.391 421.484 201.986 419.766 206.713C418.478 210.151 416.332 205.424 412.898 204.135C406.887 202.416 412.898 198.118 412.898 198.118Z" fill="#B0BFDE"></path> <path d="M430.928 152.564C432.646 159.87 439.944 164.597 447.242 162.878C454.54 161.159 459.262 153.853 457.545 146.117C455.828 138.812 448.53 134.084 441.232 135.803C433.933 137.522 429.211 145.258 430.928 152.564Z" fill="#194866"></path> <path d="M418.478 144.828C419.766 150.415 425.347 154.283 430.499 152.994L431.786 147.407C437.367 146.118 440.802 140.531 439.514 134.514L438.655 130.646C437.367 125.059 431.786 121.192 426.635 122.481L424.059 122.911C418.478 124.2 415.044 129.787 416.332 135.803L418.478 144.828Z" fill="#194866"></path> <path d="M418.907 128.498C419.337 129.357 419.337 130.217 419.766 131.506C422.342 137.952 427.064 142.25 431.357 141.82C432.216 144.828 433.504 147.407 434.362 149.556C435.65 152.134 439.085 154.283 439.085 154.283C440.802 158.581 423.63 174.052 422.771 173.622C421.054 172.763 424.059 162.019 426.635 158.581C427.923 156.862 429.211 155.143 429.211 154.283C429.211 150.415 428.352 149.985 426.635 148.266C424.488 145.258 421.054 146.118 421.054 146.118C420.625 146.118 420.195 146.118 420.195 146.118C419.766 145.688 419.766 144.828 419.337 143.969L417.619 135.374C417.19 132.795 417.619 130.646 418.907 128.498Z" fill="#E9D6B8"></path> <path d="M436.938 224.333C436.938 224.333 432.645 228.631 431.357 229.061C429.64 229.49 424.918 227.342 424.918 227.342C424.918 227.342 426.205 205.854 425.776 197.259C425.347 188.664 423.2 186.085 423.63 183.506C424.059 179.209 420.625 177.06 421.483 174.052C422.342 170.614 424.918 159.01 424.918 160.729C426.205 174.482 431.357 163.738 432.216 162.019C433.074 161.159 436.938 224.333 436.938 224.333Z" fill="#FECE40"></path> <path d="M427.494 156.861C427.494 156.861 421.483 161.159 421.913 163.308C421.913 165.457 418.908 171.473 420.195 180.498C421.483 190.812 422.342 198.118 421.913 204.564C421.483 211.441 418.478 217.027 418.478 225.193C418.478 231.639 419.766 232.069 419.766 232.069C419.766 232.069 422.342 232.928 424.918 230.78C427.064 228.631 426.635 206.713 426.635 201.126C426.206 195.54 424.488 182.647 424.059 178.779C423.63 174.052 424.489 169.324 424.489 168.035C425.347 163.308 426.206 160.299 427.064 158.58C427.064 158.151 428.782 156.861 428.782 156.861C429.211 156.432 427.923 156.432 427.494 156.861Z" fill="#D1DBEA"></path> <path d="M429.211 154.712C429.211 154.712 430.498 154.283 429.211 156.002C428.781 156.861 428.781 157.291 428.781 157.291C428.781 157.291 428.352 156.861 427.493 157.721C426.635 158.58 425.776 159.44 425.776 159.44L426.635 157.291C427.064 156.431 429.211 154.712 429.211 154.712Z" fill="#B0BFDE"></path> <path d="M434.792 171.473C436.509 179.209 443.807 184.366 451.535 182.217C459.262 180.498 463.984 172.763 462.267 165.027C460.55 157.291 453.252 152.134 445.524 154.283C437.797 156.002 433.075 163.738 434.792 171.473Z" fill="#194866"></path> <path d="M405.599 298.681L408.175 319.739L396.584 325.326L390.573 326.615L401.735 317.59L397.872 298.681H405.599Z" fill="#E9D6B8"></path> <path d="M409.034 322.748L406.458 323.607L404.741 321.888L395.725 326.616L387.569 328.764V327.905C388.427 326.616 394.437 323.607 394.437 323.607C394.437 323.607 394.437 325.756 395.296 325.756C396.155 325.756 403.023 321.888 404.741 321.029C407.317 319.31 408.175 318.02 408.175 318.45C408.604 318.02 409.034 322.748 409.034 322.748Z" fill="#161711"></path> <path d="M378.124 269.028L368.679 287.078L356.23 286.218L350.219 284.499L363.957 282.351L371.685 266.879L378.124 269.028Z" fill="#E9D6B8"></path> <path d="M368.25 290.086L365.674 289.656L364.816 287.507H353.654L346.785 285.788C346.785 285.788 347.644 284.929 348.073 284.499C349.361 284.069 354.942 283.64 354.942 283.64C354.942 283.64 354.512 285.359 354.942 285.788C355.8 286.218 363.528 286.648 365.245 286.218C368.679 285.788 369.538 285.359 369.538 285.359C369.967 285.788 368.25 290.086 368.25 290.086Z" fill="#161711"></path> <path d="M444.237 214.878L437.368 217.887L434.363 227.341L391.003 219.606C391.003 219.606 386.71 218.316 383.705 225.622C379.841 235.937 369.538 268.598 369.538 268.598L375.978 275.904L396.155 239.375C396.155 239.375 437.797 260.003 451.535 255.276C456.686 253.557 460.979 243.672 460.121 233.788C459.691 226.052 457.974 219.176 457.974 219.176L444.237 214.878Z" fill="#194866"></path> <path d="M438.226 254.846L404.741 252.268L407.746 305.988L397.872 306.417L391.003 243.243C391.003 243.243 393.15 233.788 399.16 235.078C405.599 236.797 421.054 249.26 438.226 254.846Z" fill="#163F59"></path> <path d="M434.362 228.631C434.362 228.631 433.504 206.713 433.075 196.399C432.645 186.085 432.645 165.887 432.645 163.308C432.645 160.729 433.075 157.291 433.075 157.291C433.075 157.291 436.08 151.705 439.514 152.564C442.519 152.994 446.812 157.291 449.817 159.44C452.822 161.589 452.393 198.118 452.393 199.837C452.822 206.284 456.686 213.16 459.691 219.606C461.409 223.904 461.838 230.35 461.838 230.35C461.838 230.35 444.666 226.053 434.362 228.631Z" fill="#D1DBEA"></path> <path d="M438.226 150.415L435.65 152.994L432.216 156.861L433.933 161.159L439.943 152.564L438.226 150.415Z" fill="#B0BFDE"></path> <path d="M442.52 208.002C442.52 208.002 442.091 210.581 428.353 209.292C414.615 207.573 394.867 201.986 394.867 201.986L426.636 202.845C427.065 202.845 439.086 203.705 442.52 208.002Z" fill="#E9D6B8"></path> <path d="M405.6 204.135C399.16 203.705 396.155 206.284 393.579 207.143C391.003 208.003 388.428 209.292 388.428 209.292C390.145 206.713 392.291 206.713 393.15 206.284C394.438 205.424 394.009 205.854 391.862 205.424C390.574 205.424 387.998 207.143 386.281 208.432C384.564 209.292 383.705 209.292 383.705 209.292C383.705 209.292 385.423 207.143 387.998 205.424C390.574 203.275 394.009 201.986 394.867 201.556C396.155 201.126 400.877 201.556 403.883 201.986C406.888 202.845 410.322 204.564 405.6 204.135Z" fill="#E9D6B8"></path> <path d="M394.867 201.556C394.867 201.556 389.715 202.416 388.857 202.845C388.427 203.275 385.422 205.424 385.422 205.424C385.422 205.424 387.139 205.424 388.427 204.564C389.715 203.705 394.867 201.556 394.867 201.556Z" fill="#E9D6B8"></path> <path d="M436.939 201.556L438.656 167.605C438.656 167.605 440.373 160.3 442.949 159.01C445.954 156.861 450.247 160.729 450.247 160.729C450.247 160.729 452.393 165.886 451.106 190.812C450.247 207.573 448.53 216.168 441.232 214.879C434.363 213.589 426.206 211.87 426.206 211.87L423.201 200.267L436.939 201.556Z" fill="#B0BFDE"></path> <path d="M409.892 210.151V208.432H343.35V210.151V210.581C344.209 211.87 345.926 212.3 347.643 212.3H405.599C407.316 212.3 408.604 211.87 409.892 210.151Z" fill="#D0DEE6"></path> <path d="M393.578 210.581C394.008 211.441 394.437 211.441 394.866 211.87H405.17C406.887 211.87 408.175 211.87 409.033 210.581V210.151V209.292H393.578V210.581V210.581Z" fill="#B6C2C9"></path> <path d="M384.563 208.862H351.507V210.151H384.563V208.862Z" fill="#B6C2C9"></path> <path d="M393.149 208.432L384.563 174.052C384.134 173.192 383.275 172.333 382.417 172.333H336.052C335.193 172.333 334.764 173.192 334.764 174.052L343.35 208.432H393.149Z" fill="#F1F0F6"></path> <path d="M366.962 190.382C367.391 192.101 366.532 193.391 364.815 193.391C363.098 193.391 361.381 192.101 360.951 190.382C360.522 188.663 361.381 187.374 363.098 187.374C364.815 187.374 366.532 188.663 366.962 190.382Z" fill="#B6C2C9"></path> <path d="M149.306 329.624H156.175L145.013 215.739H135.139L149.306 329.624Z" fill="#ACD5F4"></path> <path d="M135.997 220.896L148.876 256.136L145.442 218.317L145.013 215.739H136.427L135.997 220.896Z" fill="#86BBD8"></path> <path d="M78.0423 329.624H71.1735L82.3353 215.739H92.2093L78.0423 329.624Z" fill="#ACD5F4"></path> <path d="M91.7802 220.896L87.4872 255.706L82.3356 218.317V215.739H90.9216L91.7802 220.896Z" fill="#86BBD8"></path> <path d="M367.821 329.624H360.952L372.114 215.739H381.988L367.821 329.624Z" fill="#ACD5F4"></path> <path d="M381.129 220.896L376.836 255.706L371.685 218.317L372.114 215.739H380.7L381.129 220.896Z" fill="#86BBD8"></path> <path d="M439.085 329.624H445.954L434.792 215.739H424.918L439.085 329.624Z" fill="#ACD5F4"></path> <path d="M425.347 220.896L438.656 256.136L434.792 218.317V215.739H426.206L425.347 220.896Z" fill="#86BBD8"></path> <path d="M444.236 211.871H235.167V218.317H444.236V211.871Z" fill="#367082"></path> <path d="M365.674 211.871H74.1783V218.317H365.674V211.871Z" fill="url(#paint0_radial)"></path> <path d="M274.233 309.856L272.946 315.872H266.935C266.935 315.872 266.506 315.013 266.077 315.013C265.647 315.013 265.218 315.872 264.36 315.872C263.072 315.872 261.784 315.872 261.354 315.872C260.067 315.872 249.763 315.872 249.763 315.872C249.763 315.872 249.334 314.583 249.763 314.153C249.763 313.723 251.051 313.723 251.481 313.294C254.486 312.434 263.072 309.856 264.789 306.847C267.365 302.98 274.233 309.856 274.233 309.856Z" fill="#161711"></path> <path d="M272.946 235.078C272.946 235.078 274.663 244.962 275.951 257.425C276.81 266.45 276.81 292.665 275.522 310.715C275.522 312.004 264.36 308.566 264.36 308.566C264.36 308.566 260.067 257.855 259.208 246.251C258.35 235.078 266.077 227.772 272.946 235.078Z" fill="#163F59"></path> <path d="M291.405 299.112C290.976 298.682 291.405 296.963 291.405 296.963C291.405 296.963 299.133 296.103 301.709 296.533C302.138 296.533 303.426 297.393 304.284 297.822C304.284 297.822 304.714 298.682 305.143 298.682C305.572 298.682 305.572 298.682 306.002 298.682C306.86 299.112 307.29 299.541 307.29 299.541C308.148 303.409 306.86 304.699 306.86 304.699C306.86 304.699 300.421 306.847 299.133 305.558C294.84 302.12 292.264 300.401 291.405 299.112Z" fill="#161711"></path> <path d="M291.835 243.673C291.835 243.673 285.825 239.805 287.113 250.119C290.977 274.186 294.411 291.806 296.128 299.971C296.557 302.98 297.845 302.55 297.845 302.55L304.714 303.839L308.149 301.261L301.709 246.681L291.835 243.673Z" fill="#163F59"></path> <path d="M263.93 244.962C264.789 246.251 296.128 263.012 297.845 263.012H323.603C324.891 263.012 335.624 261.293 337.77 253.987C340.346 246.251 337.77 232.929 337.77 232.929C337.77 231.21 336.482 229.921 335.194 229.921H302.997C301.709 229.921 298.704 231.21 298.704 232.929L267.365 232.069C267.365 232.069 257.061 235.937 263.93 244.962Z" fill="#194866"></path> <path d="M323.603 253.128H293.981C293.552 253.128 268.223 245.822 267.794 245.822L270.799 256.136C270.799 257.855 296.128 263.012 297.845 263.012H323.603C324.891 263.012 335.623 261.293 337.77 253.987C338.629 251.839 338.629 248.83 338.629 245.822C335.194 251.839 324.891 253.128 323.603 253.128Z" fill="#163F59"></path> <path d="M312.442 155.573L311.154 149.127C311.154 149.127 306.431 149.556 305.144 146.978C303.426 141.821 304.714 133.655 306.002 131.507C309.437 125.06 310.725 113.887 326.179 122.911C332.19 126.349 323.174 143.11 322.316 146.548C321.457 149.986 323.604 154.284 323.604 154.284L320.169 156.862L312.442 155.573Z" fill="#E9D6B8"></path> <path d="M287.113 201.127L313.729 211.011C313.729 211.011 282.39 213.16 282.39 211.441C281.532 200.697 287.113 201.127 287.113 201.127Z" fill="#E9D6B8"></path> <path d="M340.346 162.02C340.346 162.02 345.498 164.598 349.362 186.086C353.225 207.574 350.65 206.714 350.65 206.714L349.791 211.442L339.917 212.301L334.765 193.822L340.346 162.02Z" fill="#FEC12F"></path> <path d="M340.346 162.019L327.466 156.432L324.032 152.994L310.294 152.564L307.719 156.432L296.986 160.73C296.986 160.73 294.41 164.598 296.557 179.639C299.133 195.97 296.557 238.086 296.557 238.086L340.346 238.946C340.346 239.375 336.911 170.185 340.346 162.019Z" fill="#FECE40"></path> <path d="M300.421 161.16C300.421 161.16 297.845 158.581 292.264 165.457C282.39 177.49 277.238 192.102 276.38 195.11C275.521 198.119 274.233 204.995 278.097 209.722C281.102 213.16 284.107 211.871 284.107 211.871L293.552 204.135L290.547 202.416H288.4C288.4 202.416 293.123 192.102 298.274 183.077C303.855 174.052 300.421 161.16 300.421 161.16Z" fill="#FECE40"></path> <path d="M310.724 133.225C310.724 133.225 312.442 132.366 312.871 133.655C313.3 134.944 312.012 137.953 311.583 137.953C310.724 138.382 310.724 141.821 310.724 141.821L312.871 145.688H323.603C323.603 145.688 327.038 144.399 327.038 141.821C327.467 139.672 330.043 123.341 330.043 123.341L322.315 119.473C322.315 119.473 318.452 117.754 315.447 116.895C311.154 115.605 310.295 117.754 310.295 119.043C310.295 120.333 309.007 120.333 307.29 120.333C305.573 120.333 303.426 121.622 304.285 122.481C304.714 122.911 302.997 123.771 303.426 125.06C304.285 126.779 307.719 127.209 308.149 130.217C308.149 131.077 308.578 135.374 310.724 133.225Z" fill="#194866"></path> <path d="M278.527 273.326C278.527 272.897 278.527 269.459 278.527 269.029C278.527 265.591 280.674 262.583 283.25 262.583H337.771C340.347 262.583 342.493 265.591 342.493 269.029C342.493 269.459 342.493 272.897 342.493 273.326H278.527Z" fill="#36AFB1"></path> <path d="M343.352 275.046C343.352 276.335 342.922 277.194 342.064 277.194H279.386C278.527 277.194 278.098 276.335 278.098 275.046C278.098 273.756 278.527 272.897 279.386 272.897H342.064C342.493 272.897 343.352 273.756 343.352 275.046Z" fill="#2C5B6A"></path> <path d="M317.594 305.558L314.159 310.715L342.493 320.17C342.493 320.17 344.211 318.451 337.342 314.583C329.614 310.285 317.594 305.558 317.594 305.558Z" fill="#88BDDA"></path> <path d="M312.871 305.558L316.306 310.715L287.972 320.17C287.972 320.17 286.255 318.451 293.123 314.583C300.851 310.285 312.871 305.558 312.871 305.558Z" fill="#88BDDA"></path> <path d="M318.452 289.657H312.442V311.575H318.452V289.657Z" fill="#88BDDA"></path> <path d="M318.023 306.418L315.018 311.575L339.059 320.6C339.059 320.6 340.776 318.881 334.766 315.013C328.326 311.145 318.023 306.418 318.023 306.418Z" fill="#91E2F6"></path> <path d="M312.442 306.418L315.447 311.575L291.406 320.6C291.406 320.6 289.689 318.881 295.699 315.013C302.139 311.145 312.442 306.418 312.442 306.418Z" fill="#91E2F6"></path> <path d="M336.483 322.748C336.483 324.038 337.342 324.897 338.629 324.897C339.917 324.897 340.776 324.038 340.776 322.748C340.776 321.459 339.917 320.6 338.629 320.6C337.771 320.6 336.483 321.459 336.483 322.748Z" fill="#001F46"></path> <path d="M290.118 322.748C290.118 324.038 290.977 324.897 292.265 324.897C293.553 324.897 294.411 324.038 294.411 322.748C294.411 321.459 293.553 320.6 292.265 320.6C290.977 320.6 290.118 321.459 290.118 322.748Z" fill="#001F46"></path> <path d="M341.635 322.748C341.635 324.038 342.493 324.897 343.781 324.897C345.069 324.897 345.928 324.038 345.928 322.748C345.928 321.459 345.069 320.6 343.781 320.6C342.493 320.6 341.635 321.459 341.635 322.748Z" fill="#367082"></path> <path d="M284.967 322.748C284.967 324.038 285.825 324.897 287.113 324.897C288.401 324.897 289.26 324.038 289.26 322.748C289.26 321.459 288.401 320.6 287.113 320.6C285.825 320.6 284.967 321.459 284.967 322.748Z" fill="#367082"></path> <path d="M317.593 281.492H313.3V289.228H317.593V281.492Z" fill="#2C5B6A"></path> <path d="M309.866 277.194C309.866 279.773 311.583 281.492 314.159 281.492H316.735C318.881 281.492 321.028 279.343 321.028 277.194C321.028 274.616 319.31 272.897 316.735 272.897H314.159C312.012 272.897 309.866 275.046 309.866 277.194Z" fill="#2C5B6A"></path> <path d="M287.542 273.326C287.542 272.897 287.542 269.459 287.542 269.029C287.542 265.591 289.688 262.583 292.264 262.583H346.786C349.361 262.583 351.508 265.591 351.508 269.029C351.508 269.459 351.508 272.897 351.508 273.326H287.542Z" fill="#3DC7C9"></path> <path d="M351.938 275.046C351.938 276.335 351.508 277.194 350.65 277.194H287.972C287.113 277.194 286.684 276.335 286.684 275.046C286.684 273.756 287.113 272.897 287.972 272.897H350.65C351.508 272.897 351.938 273.756 351.938 275.046Z" fill="#367082"></path> <path d="M345.497 220.896C345.497 222.615 344.209 223.904 342.921 223.904C325.749 223.904 308.577 223.904 291.405 223.904C289.688 223.904 288.4 222.615 287.971 220.896C285.824 209.292 285.824 197.259 287.971 185.656C288.4 183.936 289.688 182.647 291.405 182.647C308.577 182.647 325.749 182.647 342.921 182.647C344.639 182.647 345.497 183.936 345.497 185.656C345.068 197.259 345.068 208.862 345.497 220.896Z" fill="#33A8B5"></path> <path d="M348.502 220.896C348.502 222.615 347.214 223.904 345.926 223.904C328.754 223.904 311.582 223.904 294.41 223.904C292.693 223.904 291.405 222.615 290.975 220.896C289.258 209.292 289.258 197.259 290.975 185.656C291.405 183.936 292.693 182.647 294.41 182.647C311.582 182.647 328.754 182.647 345.926 182.647C347.643 182.647 348.502 183.936 348.502 185.656C348.502 197.259 348.502 208.862 348.502 220.896Z" fill="#3DC7C9"></path> <path d="M301.28 277.194C309.007 247.111 293.982 217.458 300.421 187.374C300.851 185.655 299.992 184.366 298.275 184.366C297.845 184.366 297.845 184.366 297.416 184.366C295.699 184.366 294.411 185.655 293.982 187.374C287.542 217.458 302.568 247.111 294.84 277.194C296.987 277.194 299.133 277.194 301.28 277.194Z" fill="#367082"></path> <path d="M346.357 277.194C354.084 247.111 339.058 217.458 345.498 187.374C345.927 185.655 345.069 184.366 343.351 184.366C342.922 184.366 342.922 184.366 342.493 184.366C340.776 184.366 339.488 185.655 339.058 187.374C332.619 217.458 347.644 247.111 339.917 277.194C342.064 277.194 344.21 277.194 346.357 277.194Z" fill="#367082"></path> <path d="M610.377 287.938H559.719V295.243H610.377V287.938Z" fill="#B0BFDE"></path> <path d="M616.816 227.771H553.709V289.227H616.816V227.771Z" fill="#B0BFDE"></path> <path d="M616.816 233.359H553.709V287.938H616.816V233.359Z" fill="#CFD9E8"></path> <path d="M606.942 235.078H564.012V253.987H606.942V235.078Z" fill="#E4EFFF"></path> <path d="M591.917 238.086H579.038V241.094H591.917V238.086Z" fill="white"></path> <path d="M606.942 259.574H564.012V278.483H606.942V259.574Z" fill="#E4EFFF"></path> <path d="M591.917 262.582H579.038V265.59H591.917V262.582Z" fill="white"></path> <path d="M620.251 220.896H550.274V228.201H620.251V220.896Z" fill="#CFD9E8"></path> <path d="M583.331 203.275C583.331 203.275 586.336 191.671 591.488 187.804C596.21 183.936 600.074 178.349 606.513 175.77C612.953 173.192 614.67 168.464 612.094 166.745C609.518 165.026 601.791 160.299 591.917 171.043C582.043 181.787 579.896 189.952 579.896 200.267C579.467 210.151 582.902 209.291 583.331 203.275Z" fill="#3BB6D5"></path> <path d="M581.184 198.118H579.896C580.325 188.233 588.911 177.919 593.204 174.911C597.497 171.473 607.371 168.464 607.801 168.464L608.23 169.754C608.23 169.754 598.356 172.762 594.063 176.2C590.199 178.779 582.043 188.233 581.184 198.118Z" fill="#3096AF"></path> <path d="M580.755 207.143C580.755 207.143 575.603 192.101 573.457 187.804C571.31 183.076 571.739 171.903 574.744 167.605C578.179 163.308 583.33 156.861 580.755 146.977C578.179 137.522 579.467 131.505 584.189 135.373C588.482 139.241 596.639 147.406 596.639 160.299C596.639 170.184 594.063 176.2 588.482 183.506C584.618 189.523 580.325 200.267 580.755 207.143Z" fill="#F8C44F"></path> <path d="M578.608 203.705C578.608 203.275 576.032 188.663 578.608 182.217C579.037 180.928 579.896 179.209 580.755 177.49C583.76 171.473 587.624 163.737 588.053 158.15C588.482 149.126 583.331 140.53 583.331 140.53L584.189 139.671C584.618 140.101 589.77 148.696 589.341 158.15C588.911 164.167 585.048 171.903 582.043 178.349C581.184 180.068 580.325 181.787 579.896 183.076C577.32 188.663 579.896 203.705 579.896 203.705H578.608Z" fill="#F4DA80"></path> <path d="M561.007 184.795C555.426 183.506 554.997 176.63 559.29 175.341C563.583 174.052 570.881 174.052 574.745 179.209C579.038 184.795 580.326 195.11 579.038 202.415C577.75 209.721 579.038 199.407 576.033 194.68C573.027 189.523 565.729 186.085 561.007 184.795Z" fill="#194866"></path> <path d="M579.038 200.267C578.179 192.961 575.604 187.804 571.311 183.506C566.159 178.349 558.431 179.638 558.002 179.638V178.779C558.431 178.779 566.159 177.06 571.74 182.647C576.033 186.944 578.609 192.531 579.467 199.837L579.038 200.267Z" fill="#161711"></path> <path d="M590.199 221.324H574.315L571.31 194.25H592.775L590.199 221.324Z" fill="#B0BFDE"></path> <path d="M573.028 194.25L574.745 215.738H585.907L587.624 194.25H573.028Z" fill="#CFD9E8"></path> <defs> <radialGradient id="paint0_radial" cx="0" cy="0" r="1" gradientUnits="userSpaceOnUse" gradientTransform="translate(88.1128 119.238) scale(259.933 272.201)"> <stop offset="0.00157402" stop-color="#CDF7F1"></stop> <stop offset="1" stop-color="#5DCFCA"></stop> </radialGradient> </defs> </svg> 