<?xml version="1.0" encoding="UTF-8"?> <svg xmlns="http://www.w3.org/2000/svg" width="194" height="33" viewBox="0 0 194 33" fill="none"> <path d="M34.6973 10.7241L31.7441 14.164C30.7977 13.41 29.7331 13.0784 28.5631 13.2256C28.0407 13.2891 27.537 13.456 27.0827 13.7162C26.6284 13.9764 26.233 14.3245 25.9207 14.7391C25.3307 15.5059 25.0295 16.4486 25.0682 17.4077C25.1069 18.3667 25.4831 19.2833 26.133 20.0022C27.4226 21.3974 29.7711 21.685 31.4446 20.5182C32.8804 19.522 33.7875 17.1663 32.4726 14.9785C32.7862 14.6194 35.5228 12.7055 36.3722 12.2555C37.1327 13.1484 37.6607 14.2083 37.9107 15.3446C38.3452 17.2626 38.1793 19.1491 37.2385 20.9131C36.2752 22.7211 34.7831 23.9828 32.8607 24.752C31.4385 25.3296 29.8945 25.5618 28.3606 25.4289C25.0404 25.1345 22.4233 23.7063 20.8637 20.7273C20.3012 19.6678 20.0846 18.5161 20.0705 17.3094C20.031 15.6623 20.529 14.0458 21.4923 12.6945C22.6286 11.0818 24.1881 10.0609 26.0909 9.45958C27.4564 9.03304 28.8444 8.97937 30.2352 9.0922C31.8468 9.22786 33.3899 9.79218 34.6973 10.7241Z" fill="white"></path> <path d="M62.2448 10.5053V12.4826C61.2604 11.8949 60.1866 11.4643 59.0638 11.2071C57.455 10.8466 55.8392 10.6883 54.2149 11.13C53.7895 11.2507 53.3851 11.4334 53.0154 11.6721C51.9143 12.3601 51.4544 14.4447 53.201 15.3776C53.9492 15.7766 54.7676 15.9486 55.5917 16.0931C56.6239 16.272 57.6589 16.4412 58.6855 16.6435C59.4878 16.7928 60.2612 17.0639 60.9778 17.447C62.3194 18.179 63.0014 19.2798 63.0183 20.7934C63.0464 22.7568 62.1183 24.0957 60.3253 24.8978C59.7304 25.1628 59.1003 25.3439 58.4535 25.4358C56.2025 25.7612 53.9041 25.5299 51.768 24.763C51.55 24.6873 51.3349 24.5993 51.1225 24.5043C50.9102 24.4094 50.7077 24.3034 50.4869 24.1961V22.1872C52.751 23.5384 55.1895 23.9938 57.7672 23.7847C58.6333 23.731 59.467 23.4423 60.1748 22.9509C61.3504 22.1253 61.4967 19.8329 59.8527 19.0115C59.0948 18.6317 58.2833 18.4446 57.4621 18.2932C56.2259 18.0662 54.9701 17.9396 53.7579 17.597C52.9877 17.4041 52.259 17.0779 51.6063 16.6338C50.4208 15.7821 49.9834 14.6043 50.1283 13.2146C50.3434 11.1369 51.7019 10.0402 53.6243 9.49949C55.1712 9.06194 56.7603 9.10322 58.3508 9.31099C59.7076 9.49479 61.0236 9.89842 62.2448 10.5053Z" fill="white"></path> <path d="M100.807 11.3904H97.6384C97.5133 10.8194 97.5963 10.2786 97.5878 9.71311C98.1321 9.57551 98.6608 9.76539 99.1896 9.72686C99.7183 9.68834 100.213 9.71861 100.796 9.71861C100.825 8.97422 100.812 8.24909 100.814 7.52396C100.815 6.79883 100.814 6.06544 100.814 5.29903L102.759 4.98944V9.7076H107.925C108.066 10.2896 107.942 10.8235 108 11.3945H102.867C102.698 11.5693 102.763 11.7371 102.763 11.8885C102.752 13.7914 102.75 15.6944 102.738 17.596C102.738 18.328 102.67 19.06 102.695 19.7892C102.722 20.5405 102.731 21.3028 102.918 22.0348C103.254 23.3626 104.12 24.0382 105.518 24.074C106.355 24.0946 107.132 23.8813 107.925 23.5497V25.2243C107.823 25.3798 107.615 25.4128 107.415 25.4775C106.281 25.8572 105.058 25.9012 103.899 25.604C102.184 25.1816 101.286 24.0437 100.946 22.4022C100.806 21.6124 100.748 20.8107 100.773 20.0094C100.773 17.4409 100.782 14.8725 100.798 12.304C100.807 12.0151 100.807 11.7234 100.807 11.3904Z" fill="white"></path> <path d="M69.3649 11.2567H66.302C66.1248 10.9677 66.2218 10.6884 66.205 10.4311C66.1881 10.1738 66.205 9.88069 66.205 9.58074C67.2709 9.41837 68.3144 9.65366 69.4183 9.5601C69.483 8.07544 69.4183 6.61967 69.4689 5.1474L71.4012 4.84882V9.58074H76.5876V11.2511H71.4012C71.3928 11.4218 71.3829 11.5263 71.3829 11.6405C71.3562 14.4117 71.3238 17.1829 71.3126 19.9541C71.3038 20.6403 71.388 21.3246 71.5629 21.9891C71.8737 23.1243 72.56 23.8425 74.0267 23.9237C74.4472 23.9461 74.8688 23.9118 75.2797 23.8219C75.6919 23.7125 76.0976 23.5807 76.4948 23.427V25.1153C76.1966 25.4029 75.7593 25.429 75.3599 25.5102C74.3192 25.7194 73.2631 25.7304 72.2492 25.4043C70.7684 24.9282 69.9077 23.8769 69.6011 22.395C69.41 21.4057 69.3266 20.3993 69.3522 19.3927C69.3794 16.916 69.4047 14.4434 69.4282 11.9749C69.4296 11.7506 69.4704 11.5208 69.3649 11.2567Z" fill="white"></path> <path d="M42.9072 9.48309H44.8171V25.1085C44.1856 25.2461 43.564 25.1291 42.865 25.1759C42.8706 19.9459 42.8917 14.7558 42.9072 9.48309Z" fill="white"></path> <path d="M44.5671 1.90027C45.2577 2.25389 45.7064 2.8373 46.2366 3.35741L42.2985 6.05841C42.1227 5.76809 41.8611 5.55344 41.6333 5.30301L44.5671 1.90027Z" fill="white"></path> <path d="M9.44181 14.4515C10.1098 14.4515 10.6245 14.2988 11.1293 14.1461C13.6508 13.3893 15.3215 11.8661 15.7701 9.21463C16.2187 6.56316 14.9263 4.08781 12.4259 2.88522C11.1097 2.24265 9.69212 1.97021 8.24084 1.92755C5.64483 1.8505 3.04602 1.84224 0.448605 1.80509C0.385141 1.79224 0.319186 1.79851 0.259437 1.82308C0.199688 1.84764 0.148949 1.88934 0.113909 1.94269C0.15891 9.54348 0.0140629 17.2282 0 24.8992C0.676842 25.0239 1.37178 25.0211 2.04755 24.8909C2.06162 21.4827 2.07568 18.0593 2.09115 14.64H7.22128L14.9559 25.012H17.3873L9.44181 14.4515ZM2.12209 12.9504V3.73969C2.17478 3.68372 2.24112 3.64174 2.3149 3.61767C2.38868 3.59361 2.4675 3.58825 2.54397 3.60209C4.45933 3.63649 6.3761 3.63649 8.29006 3.71355C9.69634 3.76996 11.0647 4.05203 12.2277 4.93264C13.5018 5.89582 14.0165 7.21261 13.8379 8.73304C13.5707 10.9965 12.0898 12.3766 9.68087 12.7852C9.03529 12.8947 8.38133 12.9499 7.72614 12.9504C5.87828 12.9504 4.03042 12.9504 2.12209 12.9504Z" fill="white"></path> <path d="M94.7723 23.9858C93.8737 24.1826 93.2114 23.8014 92.9189 22.9566C92.8326 22.6957 92.7894 22.4231 92.7909 22.1489C92.7834 21.5068 92.7811 20.8647 92.7839 20.2226C92.7839 18.2962 92.8078 16.3699 92.7839 14.4435C92.7951 13.409 92.5023 12.3931 91.9401 11.5169C91.2862 10.5303 90.3116 9.95929 89.1908 9.62493C87.5033 9.11858 85.7876 9.12959 84.0761 9.54375C83.1287 9.75456 82.2251 10.1222 81.4042 10.6308V12.3562C81.625 12.4195 81.7389 12.2709 81.8697 12.1966C83.6725 11.1756 85.5935 10.7794 87.6565 11.1357C89.0797 11.382 90.4297 12.1705 90.7349 13.9771C90.9079 15.0008 90.7926 16.0231 90.8305 17.0235C90.6807 17.0796 90.5149 17.0796 90.3651 17.0235C88.6297 16.6024 86.8803 16.3905 85.0929 16.6327C84.1394 16.762 83.2169 16.9877 82.3774 17.4583C80.7081 18.4049 79.7659 20.0643 80.2468 22.2438C80.597 23.8317 81.6658 24.777 83.1649 25.2957C85.0282 25.941 86.8803 25.8048 88.7056 25.1141C89.5435 24.7786 90.3296 24.3308 91.0415 23.7835C91.9415 25.6342 93.847 25.9713 95.4361 25.337V23.6859C95.1956 23.9487 94.9749 23.9418 94.7723 23.9858ZM90.8066 22.1792C89.4863 23.3034 87.8135 23.9533 86.0646 24.0216C85.2202 24.0727 84.3774 23.8987 83.6261 23.518C82.6544 23.0158 82.1425 22.2287 82.1087 21.1472C82.075 20.0657 82.5728 19.2635 83.515 18.7159C84.0055 18.4496 84.5393 18.268 85.0929 18.1793C86.3487 17.9371 87.6073 18.0128 88.8603 18.2123C89.5186 18.3106 90.1689 18.454 90.8066 18.6416V22.1792Z" fill="white"></path> <path d="M136.892 25.713H121.852L121.884 24.561L129.788 16.913C131.538 15.2276 132.754 13.873 133.436 12.849C134.14 11.7823 134.492 10.577 134.492 9.23295C134.492 7.78228 133.98 6.60895 132.956 5.71295C131.932 4.79562 130.588 4.33695 128.924 4.33695C126.492 4.33695 124.295 5.39295 122.332 7.50495V5.68095C124.167 3.84628 126.407 2.92895 129.052 2.92895C131.058 2.92895 132.722 3.50495 134.044 4.65695C135.346 5.80895 135.996 7.30228 135.996 9.13695C135.996 10.6303 135.623 11.9743 134.876 13.169C134.108 14.4063 132.828 15.889 131.036 17.617L124.124 24.337H136.892V25.713ZM149.99 26.097C147.344 26.097 145.179 24.9983 143.494 22.801C141.83 20.6036 140.998 17.841 140.998 14.513C140.998 11.2276 141.83 8.47562 143.494 6.25695C145.2 4.03828 147.366 2.92895 149.99 2.92895C152.592 2.92895 154.747 4.03828 156.454 6.25695C158.139 8.45428 158.982 11.2063 158.982 14.513C158.982 17.841 158.139 20.6036 156.454 22.801C154.768 24.9983 152.614 26.097 149.99 26.097ZM144.582 21.809C146.032 23.729 147.835 24.689 149.99 24.689C152.166 24.689 153.958 23.729 155.366 21.809C156.795 19.8676 157.51 17.4356 157.51 14.513C157.51 11.569 156.795 9.14762 155.366 7.24895C153.958 5.30762 152.166 4.33695 149.99 4.33695C147.814 4.33695 146.011 5.30762 144.582 7.24895C143.174 9.16895 142.47 11.5903 142.47 14.513C142.47 17.4143 143.174 19.8463 144.582 21.809ZM169.127 25.713H167.655V4.91295L162.471 8.08095V6.57695L167.751 3.31295H169.127V25.713ZM182.608 2.92895C185.147 2.92895 187.174 3.84628 188.688 5.68095C190.182 7.49428 190.928 10.065 190.928 13.393C190.928 17.0836 190.054 20.1236 188.304 22.513C186.555 24.9023 184.24 26.097 181.36 26.097C179.568 26.097 178.022 25.6383 176.72 24.721V23.281C178.107 24.2196 179.622 24.689 181.264 24.689C183.056 24.689 184.582 24.1556 185.84 23.089C188.251 21.0196 189.456 17.777 189.456 13.361C188.88 14.5556 187.952 15.537 186.672 16.305C185.414 17.073 183.995 17.457 182.416 17.457C180.432 17.457 178.715 16.7956 177.264 15.473C175.856 14.129 175.152 12.433 175.152 10.385C175.152 8.23028 175.856 6.44895 177.264 5.04095C178.715 3.63295 180.496 2.92895 182.608 2.92895ZM182.64 4.33695C180.976 4.33695 179.547 4.91295 178.352 6.06495C177.2 7.17428 176.624 8.60362 176.624 10.353C176.624 12.0596 177.211 13.4356 178.384 14.481C179.558 15.5263 181.008 16.049 182.736 16.049C184.23 16.049 185.574 15.5796 186.768 14.641C187.984 13.7023 188.838 12.529 189.328 11.121C189.072 8.96628 188.379 7.30228 187.248 6.12895C186.118 4.93428 184.582 4.33695 182.64 4.33695Z" fill="white"></path> <path d="M136.892 25.713V25.913H137.092V25.713H136.892ZM121.852 25.713L121.652 25.7074L121.647 25.913H121.852V25.713ZM121.884 24.561L121.745 24.4172L121.687 24.4739L121.684 24.5554L121.884 24.561ZM129.788 16.913L129.65 16.7689L129.649 16.7692L129.788 16.913ZM133.436 12.849L133.603 12.9599L133.603 12.9591L133.436 12.849ZM132.956 5.71295L132.823 5.86193L132.825 5.86347L132.956 5.71295ZM122.332 7.50495H122.132V8.01397L122.479 7.6411L122.332 7.50495ZM122.332 5.68095L122.191 5.53953L122.132 5.59811V5.68095H122.332ZM134.044 4.65695L134.177 4.50719L134.176 4.50613L134.044 4.65695ZM134.876 13.169L134.707 13.063L134.706 13.0635L134.876 13.169ZM131.036 17.617L130.898 17.473L130.897 17.4736L131.036 17.617ZM124.124 24.337L123.985 24.1936L123.632 24.537H124.124V24.337ZM136.892 24.337H137.092V24.137H136.892V24.337ZM136.892 25.513H121.852V25.913H136.892V25.513ZM122.052 25.7185L122.084 24.5665L121.684 24.5554L121.652 25.7074L122.052 25.7185ZM122.023 24.7047L129.927 17.0567L129.649 16.7692L121.745 24.4172L122.023 24.7047ZM129.927 17.057C131.679 15.3693 132.908 14.0025 133.603 12.9599L133.27 12.738C132.6 13.7434 131.397 15.0859 129.65 16.7689L129.927 17.057ZM133.603 12.9591C134.33 11.858 134.692 10.614 134.692 9.23295H134.292C134.292 10.5399 133.951 11.7065 133.269 12.7388L133.603 12.9591ZM134.692 9.23295C134.692 7.72893 134.159 6.49917 133.088 5.56244L132.825 5.86347C133.802 6.71873 134.292 7.83564 134.292 9.23295H134.692ZM133.09 5.56398C132.022 4.60719 130.627 4.13695 128.924 4.13695V4.53695C130.55 4.53695 131.843 4.98404 132.823 5.86192L133.09 5.56398ZM128.924 4.13695C126.426 4.13695 124.179 5.2243 122.186 7.3688L122.479 7.6411C124.411 5.5616 126.558 4.53695 128.924 4.53695V4.13695ZM122.532 7.50495V5.68095H122.132V7.50495H122.532ZM122.474 5.82237C124.27 4.02603 126.459 3.12895 129.052 3.12895V2.72895C126.355 2.72895 124.064 3.66654 122.191 5.53953L122.474 5.82237ZM129.052 3.12895C131.017 3.12895 132.632 3.692 133.913 4.80777L134.176 4.50613C132.811 3.3179 131.099 2.72895 129.052 2.72895V3.12895ZM133.912 4.8067C135.168 5.91841 135.796 7.35594 135.796 9.13695H136.196C136.196 7.24863 135.524 5.69949 134.177 4.5072L133.912 4.8067ZM135.796 9.13695C135.796 10.5952 135.432 11.902 134.707 13.063L135.046 13.275C135.814 12.0466 136.196 10.6654 136.196 9.13695H135.796ZM134.706 13.0635C133.951 14.2803 132.685 15.7496 130.898 17.473L131.175 17.7609C132.972 16.0283 134.266 14.5323 135.046 13.2744L134.706 13.0635ZM130.897 17.4736L123.985 24.1936L124.264 24.4804L131.176 17.7603L130.897 17.4736ZM124.124 24.537H136.892V24.137H124.124V24.537ZM136.692 24.337V25.713H137.092V24.337H136.692ZM143.494 22.801L143.334 22.9217L143.335 22.9227L143.494 22.801ZM143.494 6.25695L143.335 6.135L143.334 6.13695L143.494 6.25695ZM156.454 6.25695L156.612 6.13523L156.612 6.13501L156.454 6.25695ZM156.454 22.801L156.295 22.6792L156.295 22.6792L156.454 22.801ZM144.582 21.809L144.419 21.9256L144.422 21.9295L144.582 21.809ZM155.366 21.809L155.205 21.6904L155.204 21.6907L155.366 21.809ZM155.366 7.24895L155.204 7.36639L155.206 7.36924L155.366 7.24895ZM144.582 7.24895L144.421 7.13037L144.42 7.13068L144.582 7.24895ZM149.99 25.897C147.41 25.897 145.302 24.8299 143.652 22.6792L143.335 22.9227C145.056 25.1667 147.279 26.297 149.99 26.297V25.897ZM143.653 22.6802C142.02 20.5244 141.198 17.8067 141.198 14.513H140.798C140.798 17.8753 141.639 20.6829 143.334 22.9217L143.653 22.6802ZM141.198 14.513C141.198 11.2626 142.02 8.55493 143.654 6.37695L143.334 6.13695C141.639 8.3963 140.798 11.1926 140.798 14.513H141.198ZM143.652 6.37889C145.324 4.20564 147.432 3.12895 149.99 3.12895V2.72895C147.299 2.72895 145.077 3.87093 143.335 6.13501L143.652 6.37889ZM149.99 3.12895C152.525 3.12895 154.623 4.20515 156.295 6.37889L156.612 6.13501C154.871 3.87142 152.66 2.72895 149.99 2.72895V3.12895ZM156.295 6.37867C157.949 8.53467 158.782 11.2415 158.782 14.513H159.182C159.182 11.1711 158.329 8.3739 156.612 6.13523L156.295 6.37867ZM158.782 14.513C158.782 17.8061 157.948 20.5234 156.295 22.6792L156.612 22.9227C158.33 20.6838 159.182 17.8758 159.182 14.513H158.782ZM156.295 22.6792C154.645 24.8304 152.548 25.897 149.99 25.897V26.297C152.68 26.297 154.892 25.1662 156.612 22.9227L156.295 22.6792ZM144.422 21.9295C145.905 23.8928 147.764 24.889 149.99 24.889V24.489C147.906 24.489 146.159 23.5651 144.741 21.6884L144.422 21.9295ZM149.99 24.889C152.236 24.889 154.085 23.893 155.527 21.9272L155.204 21.6907C153.83 23.5649 152.095 24.489 149.99 24.489V24.889ZM155.527 21.9275C156.986 19.9451 157.71 17.469 157.71 14.513H157.31C157.31 17.4022 156.604 19.7902 155.205 21.6904L155.527 21.9275ZM157.71 14.513C157.71 11.5361 156.987 9.06958 155.525 7.12866L155.206 7.36924C156.603 9.22566 157.31 11.6018 157.31 14.513H157.71ZM155.528 7.13153C154.086 5.14447 152.237 4.13695 149.99 4.13695V4.53695C152.094 4.53695 153.829 5.47077 155.204 7.36637L155.528 7.13153ZM149.99 4.13695C147.742 4.13695 145.883 5.14423 144.421 7.13037L144.743 7.36753C146.139 5.47101 147.885 4.53695 149.99 4.53695V4.13695ZM144.42 7.13068C142.982 9.09216 142.27 11.5576 142.27 14.513H142.67C142.67 11.623 143.365 9.24574 144.743 7.36722L144.42 7.13068ZM142.27 14.513C142.27 17.4475 142.982 19.9225 144.419 21.9255L144.744 21.6924C143.365 19.7701 142.67 17.3811 142.67 14.513H142.27ZM169.127 25.713V25.913H169.327V25.713H169.127ZM167.655 25.713H167.455V25.913H167.655V25.713ZM167.655 4.91295H167.855V4.55634L167.551 4.74229L167.655 4.91295ZM162.471 8.08095H162.271V8.43756L162.576 8.25161L162.471 8.08095ZM162.471 6.57695L162.366 6.40683L162.271 6.46546V6.57695H162.471ZM167.751 3.31295V3.11295H167.695L167.646 3.14283L167.751 3.31295ZM169.127 3.31295H169.327V3.11295H169.127V3.31295ZM169.127 25.513H167.655V25.913H169.127V25.513ZM167.855 25.713V4.91295H167.455V25.713H167.855ZM167.551 4.74229L162.367 7.9103L162.576 8.25161L167.76 5.08361L167.551 4.74229ZM162.671 8.08095V6.57695H162.271V8.08095H162.671ZM162.577 6.74707L167.857 3.48307L167.646 3.14283L162.366 6.40683L162.577 6.74707ZM167.751 3.51295H169.127V3.11295H167.751V3.51295ZM168.927 3.31295V25.713H169.327V3.31295H168.927ZM188.688 5.68095L188.843 5.55381L188.843 5.55362L188.688 5.68095ZM188.304 22.513L188.466 22.6311L188.466 22.6311L188.304 22.513ZM176.72 24.721H176.52V24.8247L176.605 24.8844L176.72 24.721ZM176.72 23.281L176.832 23.1153L176.52 22.9041V23.281H176.72ZM185.84 23.089L185.97 23.2415L185.971 23.2407L185.84 23.089ZM189.456 13.361H189.656L189.276 13.2741L189.456 13.361ZM186.672 16.305L186.569 16.1334L186.568 16.1342L186.672 16.305ZM177.264 15.473L177.126 15.6177L177.13 15.6207L177.264 15.473ZM177.264 5.04095L177.125 4.89742L177.123 4.89953L177.264 5.04095ZM178.352 6.06495L178.491 6.20902L178.491 6.20892L178.352 6.06495ZM178.384 14.481L178.251 14.6303L178.251 14.6303L178.384 14.481ZM186.768 14.641L186.646 14.4826L186.645 14.4837L186.768 14.641ZM189.328 11.121L189.517 11.1868L189.532 11.1432L189.527 11.0974L189.328 11.121ZM187.248 6.12895L187.103 6.26643L187.104 6.26773L187.248 6.12895ZM182.608 3.12895C185.092 3.12895 187.06 4.02305 188.534 5.80828L188.843 5.55362C187.287 3.66952 185.202 2.72895 182.608 2.72895V3.12895ZM188.534 5.80809C189.988 7.57328 190.728 10.0923 190.728 13.393H191.128C191.128 10.0376 190.376 7.41529 188.843 5.55381L188.534 5.80809ZM190.728 13.393C190.728 17.0517 189.862 20.0474 188.143 22.3948L188.466 22.6311C190.246 20.1998 191.128 17.1155 191.128 13.393H190.728ZM188.143 22.3948C186.43 24.7344 184.174 25.897 181.36 25.897V26.297C184.306 26.297 186.68 25.0702 188.466 22.6311L188.143 22.3948ZM181.36 25.897C179.604 25.897 178.099 25.4481 176.836 24.5575L176.605 24.8844C177.944 25.8285 179.532 26.297 181.36 26.297V25.897ZM176.92 24.721V23.281H176.52V24.721H176.92ZM176.608 23.4466C178.027 24.4072 179.581 24.889 181.264 24.889V24.489C179.662 24.489 178.187 24.0321 176.832 23.1153L176.608 23.4466ZM181.264 24.889C183.099 24.889 184.672 24.3415 185.97 23.2415L185.711 22.9364C184.492 23.9697 183.013 24.489 181.264 24.489V24.889ZM185.971 23.2407C188.441 21.1203 189.656 17.8116 189.656 13.361H189.256C189.256 17.7423 188.061 20.919 185.71 22.9372L185.971 23.2407ZM189.276 13.2741C188.719 14.4293 187.82 15.3829 186.569 16.1335L186.775 16.4765C188.084 15.691 189.041 14.6819 189.637 13.4478L189.276 13.2741ZM186.568 16.1342C185.343 16.8817 183.961 17.257 182.416 17.257V17.657C184.029 17.657 185.484 17.2642 186.777 16.4757L186.568 16.1342ZM182.416 17.257C180.482 17.257 178.812 16.6138 177.399 15.3252L177.13 15.6207C178.618 16.9774 180.383 17.657 182.416 17.657V17.257ZM177.402 15.3283C176.036 14.0242 175.352 12.3815 175.352 10.385H174.952C174.952 12.4844 175.676 14.2337 177.126 15.6176L177.402 15.3283ZM175.352 10.385C175.352 8.27852 176.039 6.5496 177.406 5.18237L177.123 4.89953C175.674 6.3483 174.952 8.18205 174.952 10.385H175.352ZM177.404 5.18447C178.815 3.81445 180.546 3.12895 182.608 3.12895V2.72895C180.447 2.72895 178.615 3.45145 177.125 4.89743L177.404 5.18447ZM182.64 4.13695C180.925 4.13695 179.446 4.73293 178.214 5.92098L178.491 6.20892C179.648 5.09297 181.028 4.53695 182.64 4.53695V4.13695ZM178.214 5.92089C177.019 7.07166 176.424 8.55491 176.424 10.353H176.824C176.824 8.65232 177.382 7.2769 178.491 6.20902L178.214 5.92089ZM176.424 10.353C176.424 12.1112 177.031 13.5435 178.251 14.6303L178.517 14.3316C177.391 13.3278 176.824 12.0081 176.824 10.353H176.424ZM178.251 14.6303C179.465 15.7116 180.965 16.249 182.736 16.249V15.849C181.052 15.849 179.65 15.341 178.517 14.3316L178.251 14.6303ZM182.736 16.249C184.275 16.249 185.663 15.764 186.892 14.7982L186.645 14.4837C185.485 15.3952 184.184 15.849 182.736 15.849V16.249ZM186.891 14.7993C188.136 13.8376 189.013 12.6326 189.517 11.1868L189.139 11.0551C188.662 12.4253 187.832 13.5669 186.646 14.4826L186.891 14.7993ZM189.527 11.0974C189.268 8.91366 188.562 7.20391 187.392 5.99017L187.104 6.26773C188.196 7.40066 188.877 9.01891 189.13 11.1445L189.527 11.0974ZM187.394 5.99147C186.218 4.74971 184.626 4.13695 182.64 4.13695V4.53695C184.537 4.53695 186.017 5.11886 187.103 6.26643L187.394 5.99147Z" fill="white"></path> </svg> 