<?xml version="1.0" encoding="UTF-8"?> <svg xmlns="http://www.w3.org/2000/svg" width="100" height="100" viewBox="0 0 100 100" fill="none"> <g clip-path="url(#clip0)"> <path d="M97.852 1.78345H23.9018C22.7152 1.78345 21.7538 2.7449 21.7538 3.93147V46.6351H2.14802C0.961456 46.6351 0 47.5965 0 48.7831V85.1915C0 92.3734 5.84263 98.2169 13.0248 98.2169C13.2098 98.2169 86.975 98.2169 86.975 98.2169C94.1568 98.2169 100 92.3737 100 85.1915V3.93147C100 2.7449 99.0385 1.78345 97.852 1.78345ZM4.29605 85.1915V50.9311H21.7538V85.1915C21.7538 90.0045 17.8381 93.9208 13.0245 93.9208C8.21176 93.9208 4.29605 90.0045 4.29605 85.1915ZM95.7039 85.1915C95.7039 90.0045 91.7882 93.9208 86.9747 93.9208H22.684C24.7745 91.6096 26.0498 88.5462 26.0498 85.1915V6.0795H95.7039V85.1915Z" fill="#009FE2"></path> <path d="M57.8601 26.594H85.3912C86.5777 26.594 87.5392 25.6326 87.5392 24.446C87.5392 23.2594 86.5777 22.298 85.3912 22.298H57.8601C56.6735 22.298 55.7121 23.2594 55.7121 24.446C55.7121 25.6326 56.6738 26.594 57.8601 26.594Z" fill="#009FE2"></path> <path d="M57.8601 50.1916H85.3912C86.5777 50.1916 87.5392 49.2301 87.5392 48.0435C87.5392 46.857 86.5777 45.8955 85.3912 45.8955H57.8601C56.6735 45.8955 55.7121 46.857 55.7121 48.0435C55.7121 49.2301 56.6738 50.1916 57.8601 50.1916Z" fill="#009FE2"></path> <path d="M57.8601 73.7898H85.3912C86.5777 73.7898 87.5392 72.8284 87.5392 71.6418C87.5392 70.4552 86.5777 69.4938 85.3912 69.4938H57.8601C56.6735 69.4938 55.7121 70.4552 55.7121 71.6418C55.7121 72.8281 56.6738 73.7898 57.8601 73.7898Z" fill="#009FE2"></path> <path d="M38.0384 29.0113C38.4445 29.4409 39.0096 29.6843 39.6001 29.6843C39.6059 29.6843 39.6119 29.6843 39.6182 29.6843C40.2156 29.6792 40.7838 29.426 41.1868 28.9846L52.9858 16.0618C53.7857 15.1857 53.7236 13.827 52.8477 13.0271C51.9716 12.2277 50.6129 12.2893 49.813 13.1651L39.5735 24.3795L36.3861 21.0043C35.571 20.1416 34.2112 20.1033 33.3491 20.9175C32.4864 21.732 32.4481 23.0913 33.2623 23.954L38.0384 29.0113Z" fill="#009FE2"></path> <path d="M49.813 37.7884L39.5735 49.0022L36.3855 45.6275C35.571 44.7643 34.2112 44.7259 33.3491 45.5407C32.4864 46.3553 32.4481 47.7145 33.2623 48.5772L38.0384 53.6339C38.4445 54.0635 39.0096 54.307 39.6001 54.307C39.6059 54.307 39.6119 54.307 39.6182 54.307C40.2156 54.3018 40.7838 54.0486 41.1868 53.6073L52.9858 40.6851C53.7851 39.8089 53.7235 38.4503 52.8477 37.6503C51.9719 36.8504 50.6129 36.912 49.813 37.7884Z" fill="#009FE2"></path> <path d="M49.813 62.4113L39.5735 73.6251L36.3855 70.2505C35.571 69.3872 34.2112 69.3486 33.3491 70.1637C32.4864 70.9782 32.4481 72.3375 33.2623 73.2001L38.0384 78.2569C38.4445 78.6865 39.0096 78.9299 39.6001 78.9299C39.6059 78.9299 39.6119 78.9299 39.6182 78.9299C40.2156 78.9248 40.7838 78.6716 41.1868 78.2302L52.9858 65.308C53.7851 64.4319 53.7235 63.0732 52.8477 62.2733C51.9716 61.4733 50.6129 61.5352 49.813 62.4113Z" fill="#009FE2"></path> </g> <defs> <clipPath id="clip0"> <rect width="100" height="100" fill="white"></rect> </clipPath> </defs> </svg> 