<?xml version="1.0" encoding="UTF-8"?> <svg xmlns="http://www.w3.org/2000/svg" width="935" height="935" viewBox="0 0 935 935" fill="none"> <g clip-path="url(#clip0)"> <path d="M930.434 472.066L821.352 362.98C815.266 356.894 805.399 356.894 799.317 362.98L498.664 663.633L364.867 529.828H397.375C421.027 559.336 456.793 576.535 494.617 576.586C542.504 576.594 586.043 548.808 606.192 505.367C608.488 500.547 608.149 494.883 605.305 490.363C602.473 485.84 597.508 483.098 592.172 483.078H514.246V420.746H592.172C597.508 420.734 602.473 417.984 605.305 413.469C608.149 408.949 608.488 403.285 606.192 398.461C586.043 355.023 542.504 327.234 494.617 327.25C456.793 327.285 421.024 344.484 397.375 374H333.699L525.27 182.434C527.09 180.609 528.442 178.359 529.176 175.894L575.926 20.0546C577.574 14.5585 576.074 8.61318 572.016 4.56631C567.965 0.511622 562.016 -0.992284 556.524 0.66006L400.691 47.4022C398.219 48.1405 395.977 49.4882 394.152 51.3163L68.754 376.707C31.8048 397.863 6.82432 435.023 1.19932 477.234C-4.42958 519.43 9.94151 561.844 40.0587 591.926L343.07 894.926C367.836 919.781 401.254 934.078 436.332 934.82V935H514.246C519.461 935 524.324 932.394 527.211 928.066C531.445 922.238 538.215 918.797 545.414 918.797C552.617 918.797 559.391 922.238 563.621 928.066C566.508 932.394 571.367 935 576.582 935H623.332C631.942 935 638.914 928.023 638.914 919.414V888.246H792.828L853.297 903.355C855.777 903.984 858.383 903.984 860.871 903.355L923.207 887.777C930.137 886.039 935 879.812 935 872.664V810.328C935 803.183 930.137 796.953 923.207 795.215L860.871 779.629C858.383 778.988 855.777 778.988 853.297 779.629L792.828 794.75H629.789L930.434 494.105C936.512 488.012 936.512 478.152 930.434 472.066ZM638.914 825.91H794.75C796.024 825.91 797.301 825.754 798.535 825.441L857.086 810.812L903.832 822.5V860.488L857.086 872.176L798.535 857.543C797.301 857.242 796.024 857.078 794.75 857.078H638.914V825.91ZM405.164 405.164C410.258 405.164 415.024 402.672 417.945 398.496C435.43 373.418 464.043 358.465 494.617 358.418C520.988 358.367 546.098 369.73 563.469 389.586H514.246C497.035 389.586 483.082 403.535 483.082 420.746V483.078C483.082 500.293 497.035 514.25 514.246 514.25H563.469C546.098 534.098 520.988 545.469 494.617 545.414C464.043 545.371 435.43 530.406 417.945 505.332C415.024 501.156 410.258 498.668 405.164 498.668H333.699L302.539 467.5H405.164V436.336H271.367L240.203 405.164H405.164ZM289.633 374H224.625L459.711 138.914L492.219 171.418L289.633 374ZM537.746 38.8124L528.402 69.9843L506.578 48.164L537.746 38.8124ZM472.656 58.3632L518.223 103.93L506.816 141.949L434.637 69.7694L472.656 58.3632ZM405.164 84.3671L437.672 116.875L186.672 367.875C170.793 361.625 153.871 358.418 136.801 358.418C134.793 358.418 132.832 358.641 130.836 358.711L405.164 84.3671ZM439.793 903.836C411.766 903.906 384.867 892.773 365.102 872.902L62.0978 569.898C20.8478 528.644 20.8478 461.762 62.0978 420.516C103.356 379.262 170.231 379.262 211.477 420.516L514.484 723.512C544.688 753.726 553.731 799.156 537.383 838.625C521.035 878.094 482.512 903.836 439.793 903.836ZM607.75 872.664V903.836H584.047C574.024 893.176 560.039 887.141 545.414 887.16C544.703 887.16 544.016 887.344 543.313 887.375C548.953 880.816 553.973 873.742 558.293 866.246L607.75 816.789V872.664ZM576.289 804.101C576.289 802.105 576.582 800.144 576.582 798.125C576.684 761.828 562.254 726.996 536.524 701.402L520.703 685.664L576.582 629.785L612.317 665.516L634.352 643.484L598.617 607.75L623.332 583.035L643.481 603.18L665.52 581.152L645.367 561L670.086 536.289L705.813 572.019L727.852 549.98L692.113 514.25L716.832 489.539L736.981 509.684L759.016 487.644L738.867 467.5L763.582 442.785L799.317 478.516L821.352 456.48L785.617 420.746L810.336 396.035L897.383 483.078L576.289 804.101Z" fill="white"></path> <path d="M98.5938 474.875L71.1211 460.129C65.3516 470.926 62.3398 482.973 62.3359 495.207H93.5C93.4766 488.105 95.2305 481.117 98.5938 474.875Z" fill="white"></path> <path d="M101.727 520.625L76.5742 539.039C78.8711 542.168 81.4023 545.121 84.1445 547.859L160.395 624.121L182.434 602.09L106.199 525.844C104.582 524.227 103.082 522.473 101.727 520.625Z" fill="white"></path> </g> <defs> <clipPath id="clip0"> <rect width="935" height="935" fill="white"></rect> </clipPath> </defs> </svg> 