<?xml version="1.0" encoding="UTF-8"?> <svg xmlns="http://www.w3.org/2000/svg" width="261" height="76" viewBox="0 0 261 76" fill="none"> <g filter="url(#filter0_d)"> <rect x="10" y="5" width="241" height="56" rx="4" fill="url(#paint0_linear)"></rect> <rect x="10" y="5" width="241" height="56" rx="4" fill="url(#paint1_linear)"></rect> </g> <path d="M41.5938 30.25C41.5938 30.9844 41.3333 31.5911 40.8125 32.0703C40.2917 32.5495 39.5859 32.8542 38.6953 32.9844V33.0312C39.7422 33.1354 40.5443 33.4245 41.1016 33.8984C41.6641 34.3724 41.9453 34.9896 41.9453 35.75C41.9453 36.8021 41.5182 37.6328 40.6641 38.2422C39.8151 38.8516 38.638 39.1562 37.1328 39.1562C35.4557 39.1562 34.1094 38.9505 33.0938 38.5391V36.5078C33.5833 36.7422 34.1562 36.9271 34.8125 37.0625C35.474 37.1927 36.0911 37.2578 36.6641 37.2578C38.5859 37.2578 39.5469 36.6979 39.5469 35.5781C39.5469 35.0729 39.237 34.6849 38.6172 34.4141C38.0026 34.1432 37.0911 34.0078 35.8828 34.0078H34.8125V32.1172H35.7734C36.9818 32.1172 37.862 32.0026 38.4141 31.7734C38.9661 31.5443 39.2422 31.1641 39.2422 30.6328C39.2422 30.2422 39.0677 29.9323 38.7188 29.7031C38.375 29.4688 37.8568 29.3516 37.1641 29.3516C36.0911 29.3516 35.0547 29.6615 34.0547 30.2812L33 28.6641C33.651 28.2318 34.3411 27.9167 35.0703 27.7188C35.7995 27.5156 36.6094 27.4141 37.5 27.4141C38.7448 27.4141 39.737 27.6745 40.4766 28.1953C41.2214 28.7161 41.5938 29.401 41.5938 30.25ZM49.4375 39L48.9766 37.8125H48.9141C48.513 38.3177 48.099 38.6693 47.6719 38.8672C47.25 39.0599 46.6979 39.1562 46.0156 39.1562C45.1771 39.1562 44.5156 38.9167 44.0312 38.4375C43.5521 37.9583 43.3125 37.276 43.3125 36.3906C43.3125 35.4635 43.6354 34.7812 44.2812 34.3438C44.9323 33.901 45.9115 33.6562 47.2188 33.6094L48.7344 33.5625V33.1797C48.7344 32.2943 48.2812 31.8516 47.375 31.8516C46.6771 31.8516 45.8568 32.0625 44.9141 32.4844L44.125 30.875C45.1302 30.349 46.2448 30.0859 47.4688 30.0859C48.6406 30.0859 49.5391 30.3411 50.1641 30.8516C50.7891 31.362 51.1016 32.138 51.1016 33.1797V39H49.4375ZM48.7344 34.9531L47.8125 34.9844C47.1198 35.0052 46.6042 35.1302 46.2656 35.3594C45.9271 35.5885 45.7578 35.9375 45.7578 36.4062C45.7578 37.0781 46.1432 37.4141 46.9141 37.4141C47.4661 37.4141 47.9062 37.2552 48.2344 36.9375C48.5677 36.6198 48.7344 36.1979 48.7344 35.6719V34.9531ZM61.5 30.2656V39H59.1094V32.0547H55.9453V39H53.5625V30.2656H61.5ZM66.3047 30.2656V33.7188C66.3047 34.0833 66.2448 34.974 66.125 36.3906L70.1562 30.2656H73.0234V39H70.7188V35.5156C70.7188 34.8958 70.7708 34.0208 70.875 32.8906L66.8594 39H64V30.2656H66.3047ZM79.0781 39.1562C76.3594 39.1562 75 37.6641 75 34.6797C75 33.1953 75.3698 32.0625 76.1094 31.2812C76.849 30.4948 77.9089 30.1016 79.2891 30.1016C80.2995 30.1016 81.2057 30.2995 82.0078 30.6953L81.3047 32.5391C80.9297 32.388 80.5807 32.2656 80.2578 32.1719C79.9349 32.0729 79.612 32.0234 79.2891 32.0234C78.0495 32.0234 77.4297 32.9036 77.4297 34.6641C77.4297 36.3724 78.0495 37.2266 79.2891 37.2266C79.7474 37.2266 80.1719 37.1667 80.5625 37.0469C80.9531 36.9219 81.3438 36.7292 81.7344 36.4688V38.5078C81.349 38.7526 80.9583 38.9219 80.5625 39.0156C80.1719 39.1094 79.6771 39.1562 79.0781 39.1562ZM89.3125 39L88.8516 37.8125H88.7891C88.388 38.3177 87.974 38.6693 87.5469 38.8672C87.125 39.0599 86.5729 39.1562 85.8906 39.1562C85.0521 39.1562 84.3906 38.9167 83.9062 38.4375C83.4271 37.9583 83.1875 37.276 83.1875 36.3906C83.1875 35.4635 83.5104 34.7812 84.1562 34.3438C84.8073 33.901 85.7865 33.6562 87.0938 33.6094L88.6094 33.5625V33.1797C88.6094 32.2943 88.1562 31.8516 87.25 31.8516C86.5521 31.8516 85.7318 32.0625 84.7891 32.4844L84 30.875C85.0052 30.349 86.1198 30.0859 87.3438 30.0859C88.5156 30.0859 89.4141 30.3411 90.0391 30.8516C90.6641 31.362 90.9766 32.138 90.9766 33.1797V39H89.3125ZM88.6094 34.9531L87.6875 34.9844C86.9948 35.0052 86.4792 35.1302 86.1406 35.3594C85.8021 35.5885 85.6328 35.9375 85.6328 36.4062C85.6328 37.0781 86.0182 37.4141 86.7891 37.4141C87.3411 37.4141 87.7812 37.2552 88.1094 36.9375C88.4427 36.6198 88.6094 36.1979 88.6094 35.6719V34.9531ZM100.664 30.2656V32.0547H97.8047V39H95.4219V32.0547H92.5547V30.2656H100.664ZM104.68 33.6406H106.359C107.703 33.6406 108.698 33.8542 109.344 34.2812C109.99 34.7083 110.312 35.3542 110.312 36.2188C110.312 38.0729 109.026 39 106.453 39H102.297V30.2656H104.68V33.6406ZM107.93 36.25C107.93 35.9115 107.794 35.6667 107.523 35.5156C107.253 35.3646 106.849 35.2891 106.312 35.2891H104.68V37.3516H106.344C107.401 37.3516 107.93 36.9844 107.93 36.25ZM115.672 39.1562C112.953 39.1562 111.594 37.6641 111.594 34.6797C111.594 33.1953 111.964 32.0625 112.703 31.2812C113.443 30.4948 114.503 30.1016 115.883 30.1016C116.893 30.1016 117.799 30.2995 118.602 30.6953L117.898 32.5391C117.523 32.388 117.174 32.2656 116.852 32.1719C116.529 32.0729 116.206 32.0234 115.883 32.0234C114.643 32.0234 114.023 32.9036 114.023 34.6641C114.023 36.3724 114.643 37.2266 115.883 37.2266C116.341 37.2266 116.766 37.1667 117.156 37.0469C117.547 36.9219 117.938 36.7292 118.328 36.4688V38.5078C117.943 38.7526 117.552 38.9219 117.156 39.0156C116.766 39.1094 116.271 39.1562 115.672 39.1562ZM121.688 39H119.109L121.461 35.5469C120.898 35.3125 120.471 34.974 120.18 34.5312C119.893 34.0885 119.75 33.5677 119.75 32.9688C119.75 32.125 120.065 31.4635 120.695 30.9844C121.331 30.5052 122.195 30.2656 123.289 30.2656H127.352V39H124.969V35.75H123.656L121.688 39ZM122.086 32.9844C122.086 33.349 122.229 33.6354 122.516 33.8438C122.802 34.0469 123.177 34.1484 123.641 34.1484H124.969V31.9453H123.336C122.945 31.9453 122.638 32.0417 122.414 32.2344C122.195 32.4219 122.086 32.6719 122.086 32.9844ZM136.383 30.2656V33.625H139.711V30.2656H142.094V39H139.711V35.3984H136.383V39H134V30.2656H136.383ZM150.141 39L149.68 37.8125H149.617C149.216 38.3177 148.802 38.6693 148.375 38.8672C147.953 39.0599 147.401 39.1562 146.719 39.1562C145.88 39.1562 145.219 38.9167 144.734 38.4375C144.255 37.9583 144.016 37.276 144.016 36.3906C144.016 35.4635 144.339 34.7812 144.984 34.3438C145.635 33.901 146.615 33.6562 147.922 33.6094L149.438 33.5625V33.1797C149.438 32.2943 148.984 31.8516 148.078 31.8516C147.38 31.8516 146.56 32.0625 145.617 32.4844L144.828 30.875C145.833 30.349 146.948 30.0859 148.172 30.0859C149.344 30.0859 150.242 30.3411 150.867 30.8516C151.492 31.362 151.805 32.138 151.805 33.1797V39H150.141ZM149.438 34.9531L148.516 34.9844C147.823 35.0052 147.307 35.1302 146.969 35.3594C146.63 35.5885 146.461 35.9375 146.461 36.4062C146.461 37.0781 146.846 37.4141 147.617 37.4141C148.169 37.4141 148.609 37.2552 148.938 36.9375C149.271 36.6198 149.438 36.1979 149.438 35.6719V34.9531ZM166.484 32.5547C166.484 33.0234 166.336 33.4245 166.039 33.7578C165.747 34.0859 165.315 34.2969 164.742 34.3906V34.4531C165.362 34.526 165.852 34.7396 166.211 35.0938C166.576 35.4427 166.758 35.875 166.758 36.3906C166.758 37.2396 166.424 37.888 165.758 38.3359C165.091 38.7786 164.138 39 162.898 39H158.422V30.2656H162.898C164.096 30.2656 164.992 30.4609 165.586 30.8516C166.185 31.237 166.484 31.8047 166.484 32.5547ZM164.289 36.2656C164.289 35.9219 164.156 35.6745 163.891 35.5234C163.625 35.3672 163.227 35.2891 162.695 35.2891H160.805V37.3516H162.742C163.247 37.3516 163.63 37.2578 163.891 37.0703C164.156 36.8776 164.289 36.6094 164.289 36.2656ZM164.07 32.7422C164.07 32.2109 163.648 31.9453 162.805 31.9453H160.805V33.6719H162.531C163.036 33.6719 163.419 33.599 163.68 33.4531C163.94 33.3073 164.07 33.0703 164.07 32.7422ZM172.273 31.7969C171.768 31.7969 171.372 31.9583 171.086 32.2812C170.799 32.599 170.635 33.0521 170.594 33.6406H173.938C173.927 33.0521 173.773 32.599 173.477 32.2812C173.18 31.9583 172.779 31.7969 172.273 31.7969ZM172.609 39.1562C171.203 39.1562 170.104 38.7682 169.312 37.9922C168.521 37.2161 168.125 36.1172 168.125 34.6953C168.125 33.2318 168.49 32.1016 169.219 31.3047C169.953 30.5026 170.966 30.1016 172.258 30.1016C173.492 30.1016 174.453 30.4531 175.141 31.1562C175.828 31.8594 176.172 32.8307 176.172 34.0703V35.2266H170.539C170.565 35.9036 170.766 36.4323 171.141 36.8125C171.516 37.1927 172.042 37.3828 172.719 37.3828C173.245 37.3828 173.742 37.3281 174.211 37.2188C174.68 37.1094 175.169 36.9349 175.68 36.6953V38.5391C175.263 38.7474 174.818 38.901 174.344 39C173.87 39.1042 173.292 39.1562 172.609 39.1562ZM177.578 33.7656C177.578 31.7604 177.958 30.2396 178.719 29.2031C179.484 28.1615 180.677 27.5026 182.297 27.2266C183.083 27.0911 184.258 26.9193 185.82 26.7109L186.094 28.7891C185.417 28.8672 184.216 29.0339 182.492 29.2891C181.836 29.3932 181.346 29.5495 181.023 29.7578C180.701 29.9661 180.458 30.263 180.297 30.6484C180.141 31.0339 180.044 31.5469 180.008 32.1875H180.125C180.401 31.7604 180.766 31.4323 181.219 31.2031C181.672 30.974 182.159 30.8594 182.68 30.8594C183.758 30.8594 184.596 31.1901 185.195 31.8516C185.794 32.5078 186.094 33.4505 186.094 34.6797C186.094 36.0964 185.714 37.1979 184.953 37.9844C184.198 38.7656 183.154 39.1562 181.82 39.1562C180.487 39.1562 179.445 38.6797 178.695 37.7266C177.951 36.7682 177.578 35.4479 177.578 33.7656ZM181.961 37.2266C183.091 37.2266 183.656 36.4479 183.656 34.8906C183.656 33.375 183.146 32.6172 182.125 32.6172C181.844 32.6172 181.562 32.6823 181.281 32.8125C181.005 32.9427 180.75 33.1146 180.516 33.3281C180.286 33.5365 180.117 33.7474 180.008 33.9609C180.008 35.0182 180.177 35.8281 180.516 36.3906C180.854 36.9479 181.336 37.2266 181.961 37.2266ZM190.367 30.2656V33.7188C190.367 34.0833 190.307 34.974 190.188 36.3906L194.219 30.2656H197.086V39H194.781V35.5156C194.781 34.8958 194.833 34.0208 194.938 32.8906L190.922 39H188.062V30.2656H190.367ZM201.977 30.2656V33.625H205.305V30.2656H207.688V39H205.305V35.3984H201.977V39H199.594V30.2656H201.977ZM215.734 39L215.273 37.8125H215.211C214.81 38.3177 214.396 38.6693 213.969 38.8672C213.547 39.0599 212.995 39.1562 212.312 39.1562C211.474 39.1562 210.812 38.9167 210.328 38.4375C209.849 37.9583 209.609 37.276 209.609 36.3906C209.609 35.4635 209.932 34.7812 210.578 34.3438C211.229 33.901 212.208 33.6562 213.516 33.6094L215.031 33.5625V33.1797C215.031 32.2943 214.578 31.8516 213.672 31.8516C212.974 31.8516 212.154 32.0625 211.211 32.4844L210.422 30.875C211.427 30.349 212.542 30.0859 213.766 30.0859C214.938 30.0859 215.836 30.3411 216.461 30.8516C217.086 31.362 217.398 32.138 217.398 33.1797V39H215.734ZM215.031 34.9531L214.109 34.9844C213.417 35.0052 212.901 35.1302 212.562 35.3594C212.224 35.5885 212.055 35.9375 212.055 36.4062C212.055 37.0781 212.44 37.4141 213.211 37.4141C213.763 37.4141 214.203 37.2552 214.531 36.9375C214.865 36.6198 215.031 36.1979 215.031 35.6719V34.9531ZM224.656 39.1562C223.63 39.1562 222.826 38.7839 222.242 38.0391H222.117C222.201 38.7682 222.242 39.1901 222.242 39.3047V42.8438H219.859V30.2656H221.797L222.133 31.3984H222.242C222.799 30.5339 223.625 30.1016 224.719 30.1016C225.75 30.1016 226.557 30.5 227.141 31.2969C227.724 32.0938 228.016 33.2005 228.016 34.6172C228.016 35.5495 227.878 36.3594 227.602 37.0469C227.331 37.7344 226.943 38.2578 226.438 38.6172C225.932 38.9766 225.339 39.1562 224.656 39.1562ZM223.953 32.0078C223.365 32.0078 222.935 32.1901 222.664 32.5547C222.393 32.9141 222.253 33.5104 222.242 34.3438V34.6016C222.242 35.5391 222.38 36.2109 222.656 36.6172C222.938 37.0234 223.38 37.2266 223.984 37.2266C225.052 37.2266 225.586 36.3464 225.586 34.5859C225.586 33.7266 225.453 33.0833 225.188 32.6562C224.927 32.224 224.516 32.0078 223.953 32.0078Z" fill="white"></path> <defs> <filter id="filter0_d" x="0" y="0" width="261" height="76" filterUnits="userSpaceOnUse" color-interpolation-filters="sRGB"> <feFlood flood-opacity="0" result="BackgroundImageFix"></feFlood> <feColorMatrix in="SourceAlpha" type="matrix" values="0 0 0 0 0 0 0 0 0 0 0 0 0 0 0 0 0 0 127 0"></feColorMatrix> <feOffset dy="5"></feOffset> <feGaussianBlur stdDeviation="5"></feGaussianBlur> <feColorMatrix type="matrix" values="0 0 0 0 0 0 0 0 0 0 0 0 0 0 0 0 0 0 0.15 0"></feColorMatrix> <feBlend mode="normal" in2="BackgroundImageFix" result="effect1_dropShadow"></feBlend> <feBlend mode="normal" in="SourceGraphic" in2="effect1_dropShadow" result="shape"></feBlend> </filter> <linearGradient id="paint0_linear" x1="130.5" y1="5" x2="130.5" y2="61" gradientUnits="userSpaceOnUse"> <stop offset="0.0364583" stop-color="#FFD911"></stop> <stop offset="1" stop-color="#CB1313"></stop> </linearGradient> <linearGradient id="paint1_linear" x1="130.5" y1="5" x2="130.5" y2="61" gradientUnits="userSpaceOnUse"> <stop stop-color="#51B187"></stop> <stop offset="1" stop-color="#378C65"></stop> </linearGradient> </defs> </svg> 