<?xml version="1.0" encoding="UTF-8"?> <svg xmlns="http://www.w3.org/2000/svg" width="191" height="22" viewBox="0 0 191 22" fill="none"> <path d="M25.4332 6.46401L23.2685 8.95523C22.5748 8.40916 21.7944 8.169 20.9368 8.27563C20.5539 8.3216 20.1846 8.4425 19.8516 8.63096C19.5186 8.81941 19.2288 9.07147 18.9999 9.37177C18.5674 9.92709 18.3467 10.6098 18.3751 11.3044C18.4034 11.9989 18.6791 12.6627 19.1556 13.1833C20.1008 14.1938 21.8223 14.402 23.0489 13.557C24.1014 12.8356 24.7663 11.1296 23.8025 9.54516C24.0323 9.28507 26.0383 7.89895 26.6609 7.5731C27.2184 8.2197 27.6053 8.98735 27.7886 9.81022C28.1071 11.1993 27.9855 12.5655 27.2959 13.843C26.5898 15.1524 25.4961 16.0662 24.087 16.6232C23.0445 17.0415 21.9127 17.2097 20.7884 17.1135C18.3546 16.9002 16.4363 15.8659 15.2931 13.7085C14.8808 12.9412 14.7221 12.1071 14.7117 11.2332C14.6828 10.0404 15.0478 8.86964 15.7539 7.89098C16.5868 6.7231 17.73 5.9837 19.1246 5.54824C20.1256 5.23932 21.143 5.20046 22.1624 5.28217C23.3438 5.38042 24.4748 5.78911 25.4332 6.46401Z" fill="white"></path> <path d="M45.6256 6.30557V7.73753C44.904 7.31191 44.1169 7.00009 43.2939 6.81378C42.1147 6.5527 40.9303 6.43811 39.7397 6.75798C39.4278 6.84537 39.1314 6.97773 38.8604 7.1506C38.0533 7.64884 37.7162 9.15852 38.9965 9.83414C39.5448 10.1231 40.1448 10.2477 40.7488 10.3523C41.5054 10.4819 42.2641 10.6044 43.0166 10.7509C43.6046 10.859 44.1716 11.0554 44.6968 11.3329C45.6802 11.863 46.1802 12.6602 46.1925 13.7563C46.2132 15.1783 45.5328 16.1479 44.2185 16.7289C43.7825 16.9207 43.3206 17.0519 42.8465 17.1185C41.1966 17.3541 39.5118 17.1866 37.9461 16.6312C37.7863 16.5764 37.6286 16.5126 37.4729 16.4439C37.3173 16.3751 37.1688 16.2984 37.007 16.2206V14.7658C38.6666 15.7443 40.454 16.0742 42.3435 15.9227C42.9784 15.8838 43.5895 15.6747 44.1082 15.3188C44.97 14.7209 45.0772 13.0608 43.8722 12.4659C43.3166 12.1908 42.7218 12.0553 42.1198 11.9457C41.2137 11.7813 40.2932 11.6896 39.4047 11.4415C38.8401 11.3018 38.306 11.0655 37.8275 10.7439C36.9585 10.1271 36.638 9.27412 36.7441 8.26766C36.9018 6.76296 37.8976 5.96876 39.3067 5.57714C40.4406 5.26026 41.6054 5.29015 42.7713 5.44062C43.7658 5.57373 44.7304 5.86605 45.6256 6.30557Z" fill="white"></path> <path d="M73.8916 6.94649H71.5692C71.4774 6.53295 71.5382 6.14133 71.5321 5.73177C71.931 5.63212 72.3186 5.76964 72.7062 5.74174C73.0937 5.71383 73.4566 5.73576 73.8833 5.73576C73.905 5.19666 73.8957 4.67151 73.8967 4.14636C73.8978 3.62121 73.8967 3.09008 73.8967 2.53503L75.3224 2.31082V5.72779H79.1096C79.2126 6.1493 79.1219 6.53594 79.1642 6.94948H75.4017C75.278 7.07604 75.3254 7.19761 75.3254 7.30722C75.3172 8.68537 75.3162 10.0635 75.3069 11.4407C75.3069 11.9708 75.2574 12.5009 75.276 13.0291C75.2956 13.5731 75.3017 14.1252 75.4388 14.6553C75.6852 15.617 76.3202 16.1062 77.3448 16.1321C77.9581 16.1471 78.5282 15.9926 79.1096 15.7525V16.9652C79.0343 17.0778 78.8817 17.1017 78.7354 17.1486C77.9044 17.4236 77.008 17.4555 76.1583 17.2402C74.9008 16.9343 74.2431 16.1102 73.9936 14.9214C73.8908 14.3494 73.8483 13.7688 73.8669 13.1885C73.8669 11.3284 73.873 9.46828 73.8854 7.60816C73.8916 7.3989 73.8916 7.18764 73.8916 6.94649Z" fill="white"></path> <path d="M50.8446 6.84961H48.5995C48.4696 6.64034 48.5407 6.43806 48.5283 6.25171C48.516 6.06537 48.5283 5.85312 48.5283 5.63588C49.3097 5.5183 50.0746 5.6887 50.8837 5.62093C50.9312 4.54572 50.8837 3.49144 50.9209 2.42519L52.3372 2.20895V5.63588H56.1388V6.84562H52.3372C52.331 6.96919 52.3238 7.04492 52.3238 7.12763C52.3042 9.13456 52.2805 11.1415 52.2722 13.1484C52.2658 13.6454 52.3275 14.141 52.4557 14.6222C52.6835 15.4443 53.1866 15.9645 54.2617 16.0233C54.5699 16.0395 54.8789 16.0147 55.1802 15.9496C55.4823 15.8703 55.7796 15.7748 56.0708 15.6636V16.8863C55.8522 17.0945 55.5317 17.1135 55.2389 17.1722C54.4761 17.3237 53.702 17.3317 52.9588 17.0955C51.8733 16.7507 51.2425 15.9894 51.0177 14.9162C50.8777 14.1997 50.8165 13.4708 50.8353 12.7419C50.8552 10.9482 50.8738 9.15748 50.891 7.36978C50.892 7.20735 50.9219 7.04093 50.8446 6.84961Z" fill="white"></path> <path d="M31.4511 5.56519H32.8511V16.8813C32.3882 16.981 31.9325 16.8963 31.4202 16.9302C31.4243 13.1425 31.4398 9.38374 31.4511 5.56519Z" fill="white"></path> <path d="M32.6678 0.0736389C33.174 0.329737 33.5028 0.752248 33.8915 1.12892L31.0049 3.08503C30.876 2.87477 30.6843 2.71932 30.5173 2.53796L32.6678 0.0736389Z" fill="white"></path> <path d="M6.92086 9.16345C7.4105 9.16345 7.78777 9.05284 8.15784 8.94223C10.0061 8.39416 11.2307 7.29105 11.5595 5.37081C11.8883 3.45058 10.941 1.65789 9.10824 0.786957C8.1434 0.321597 7.10435 0.124292 6.04055 0.0934004C4.13767 0.0375969 2.23274 0.031618 0.328829 0.00471277C0.282309 -0.0045922 0.233964 -5.07909e-05 0.190168 0.0177383C0.146372 0.0355274 0.10918 0.0657291 0.0834957 0.104362C0.116482 5.60897 0.0103081 11.1744 0 16.7298C0.496126 16.8201 1.00552 16.8181 1.50086 16.7238C1.51117 14.2555 1.52148 11.7762 1.53282 9.29997H5.29321L10.9627 16.8115H12.7449L6.92086 9.16345ZM1.55549 8.07628V1.40578C1.59412 1.36524 1.64274 1.33484 1.69683 1.31741C1.75091 1.29999 1.80868 1.2961 1.86474 1.30613C3.2687 1.33104 4.6737 1.33104 6.07663 1.38684C7.10744 1.4277 8.11042 1.63198 8.9629 2.26973C9.89681 2.96728 10.2741 3.92092 10.1432 5.02204C9.94732 6.66127 8.86188 7.66075 7.0961 7.9567C6.62289 8.03596 6.14354 8.07597 5.66327 8.07628C4.30879 8.07628 2.9543 8.07628 1.55549 8.07628Z" fill="white"></path> <path d="M69.4683 16.0683C68.8097 16.2108 68.3241 15.9348 68.1097 15.3229C68.0465 15.134 68.0148 14.9366 68.0159 14.738C68.0104 14.273 68.0087 13.8079 68.0108 13.3429C68.0108 11.9478 68.0283 10.5527 68.0108 9.15765C68.0191 8.40843 67.8044 7.6727 67.3923 7.03811C66.913 6.32363 66.1986 5.91009 65.3771 5.66794C64.1401 5.30123 62.8825 5.3092 61.628 5.60915C60.9335 5.76182 60.2712 6.02806 59.6695 6.39637V7.64597C59.8313 7.69181 59.9148 7.58419 60.0107 7.53038C61.3322 6.79098 62.7402 6.50399 64.2524 6.76208C65.2956 6.94046 66.2852 7.51144 66.5089 8.81984C66.6357 9.56122 66.5512 10.3016 66.579 11.0261C66.4691 11.0667 66.3476 11.0667 66.2378 11.0261C64.9658 10.7211 63.6834 10.5677 62.3733 10.7431C61.6744 10.8367 60.9982 11.0002 60.3828 11.341C59.1592 12.0265 58.4686 13.2283 58.8211 14.8067C59.0778 15.9567 59.8612 16.6413 60.96 17.017C62.3259 17.4843 63.6834 17.3857 65.0214 16.8854C65.6356 16.6425 66.2118 16.3181 66.7336 15.9218C67.3933 17.2621 68.7901 17.5062 69.9549 17.0469V15.8511C69.7786 16.0414 69.6168 16.0364 69.4683 16.0683ZM66.5615 14.7599C65.5936 15.5741 64.3675 16.0447 63.0856 16.0942C62.4666 16.1313 61.8488 16.0052 61.2981 15.7295C60.5859 15.3658 60.2106 14.7958 60.1859 14.0125C60.1612 13.2293 60.5261 12.6483 61.2167 12.2517C61.5762 12.0589 61.9675 11.9274 62.3733 11.8631C63.2938 11.6877 64.2164 11.7425 65.1348 11.887C65.6173 11.9582 66.094 12.0621 66.5615 12.1979V14.7599Z" fill="white"></path> <path d="M82.7781 16.9058C82.5123 16.6586 82.4341 16.3728 82.5436 16.0484C82.6687 15.7239 82.8798 15.5231 83.1769 15.4458C83.474 15.3531 83.7633 15.4227 84.0447 15.6544C84.3106 15.9016 84.3809 16.1874 84.2558 16.5119C84.1464 16.8363 83.9431 17.0372 83.646 17.1144C83.3489 17.2071 83.0596 17.1376 82.7781 16.9058Z" fill="white"></path> <path d="M87.9309 17.0912H86.7816L94.2406 0.776123H95.2492L102.661 17.0912H101.535L99.354 12.3172H90.1124L87.9309 17.0912ZM94.7332 2.16662L90.4876 11.3902H98.9553L94.7332 2.16662Z" fill="white"></path> <path d="M110.388 17.3693C108.668 17.3693 107.26 16.8054 106.166 15.6776C105.055 14.5343 104.5 13.1592 104.5 11.5524C104.5 9.9611 105.055 8.59379 106.166 7.45049C107.26 6.32265 108.675 5.75872 110.411 5.75872C111.662 5.75872 112.788 6.04455 113.789 6.6162V7.63589C112.741 7.03334 111.654 6.73207 110.528 6.73207C109.121 6.73207 107.94 7.19557 106.987 8.12256C106.048 9.04956 105.579 10.2006 105.579 11.5756C105.579 12.9507 106.048 14.1017 106.987 15.0287C107.956 15.9402 109.137 16.396 110.528 16.396C111.842 16.396 112.999 16.0484 114 15.3531V16.396C113.015 17.0449 111.811 17.3693 110.388 17.3693Z" fill="white"></path> <path d="M121.281 16.396C122.172 16.396 123.009 16.1874 123.791 15.7703C124.573 15.3531 125.206 14.8278 125.691 14.1944V12.3636C124.346 11.4984 122.978 11.0658 121.586 11.0658C120.413 11.0658 119.483 11.313 118.795 11.8074C118.107 12.2863 117.763 12.9275 117.763 13.7309C117.763 14.5961 118.091 15.2604 118.748 15.7239C119.405 16.172 120.249 16.396 121.281 16.396ZM120.976 17.3693C119.819 17.3693 118.803 17.0526 117.927 16.4192C117.082 15.7703 116.66 14.8819 116.66 13.7541C116.66 12.6571 117.098 11.7842 117.974 11.1353C118.849 10.471 119.96 10.1388 121.305 10.1388C122.9 10.1388 124.362 10.5405 125.691 11.3439V9.88385C125.691 7.78267 124.362 6.73207 121.703 6.73207C120.358 6.73207 119.092 7.12604 117.903 7.91399V6.84794C119.045 6.1218 120.374 5.75872 121.891 5.75872C123.392 5.75872 124.573 6.10635 125.433 6.80159C126.308 7.48139 126.746 8.47791 126.746 9.79116V14.7042C126.746 15.1832 126.856 15.5694 127.075 15.863C127.294 16.1411 127.591 16.2801 127.966 16.2801C128.216 16.2801 128.435 16.2338 128.623 16.1411V16.9985C128.404 17.1221 128.099 17.1839 127.708 17.1839C127.176 17.1839 126.731 17.0217 126.371 16.6973C126.027 16.3574 125.832 15.8784 125.785 15.2604C124.565 16.6664 122.962 17.3693 120.976 17.3693Z" fill="white"></path> <path d="M136.313 17.3693C134.609 17.3693 133.233 16.8054 132.185 15.6776C131.137 14.5497 130.613 13.1824 130.613 11.5756C130.613 9.96883 131.137 8.60151 132.185 7.47367C133.248 6.33037 134.624 5.75872 136.313 5.75872C138.299 5.75872 139.84 6.50805 140.934 8.00669V0.868823H141.99V17.0912H140.934V15.1446C139.824 16.6277 138.284 17.3693 136.313 17.3693ZM136.501 16.396C137.47 16.396 138.362 16.1411 139.175 15.6312C139.988 15.1214 140.574 14.4648 140.934 13.6614V9.48988C140.559 8.68649 139.957 8.02986 139.128 7.52002C138.315 6.99472 137.439 6.73207 136.501 6.73207C135.125 6.73207 133.975 7.19557 133.053 8.12256C132.146 9.03411 131.692 10.1851 131.692 11.5756C131.692 12.9661 132.146 14.1171 133.053 15.0287C133.975 15.9402 135.125 16.396 136.501 16.396Z" fill="white"></path> <path d="M151.51 17.3693C149.742 17.3693 148.288 16.8286 147.147 15.7471C145.99 14.6502 145.411 13.2597 145.411 11.5756C145.411 9.90703 145.927 8.52426 146.959 7.42732C147.991 6.31492 149.328 5.75872 150.97 5.75872C151.893 5.75872 152.706 5.94412 153.409 6.31492C154.113 6.67027 154.653 7.15694 155.028 7.77494C155.763 8.93368 156.13 10.1311 156.13 11.367V11.7147H146.466C146.498 13.1206 146.99 14.2485 147.944 15.0982C148.914 15.9634 150.149 16.396 151.65 16.396C152.995 16.396 154.199 16.0484 155.262 15.3531V16.3728C154.387 17.0372 153.136 17.3693 151.51 17.3693ZM146.49 10.8109H155.075C155.075 10.3783 154.997 9.93793 154.84 9.48988C154.684 9.04183 154.449 8.60924 154.137 8.19209C153.839 7.75949 153.409 7.41187 152.847 7.14922C152.284 6.87112 151.65 6.73207 150.947 6.73207C149.633 6.73207 148.578 7.14922 147.78 7.98351C146.982 8.81781 146.552 9.76026 146.49 10.8109Z" fill="white"></path> <path d="M160.596 17.0912H159.54V6.03682H160.596V7.86764C161.018 7.23419 161.605 6.72435 162.355 6.3381C163.106 5.95185 163.935 5.75872 164.842 5.75872C166.749 5.75872 167.961 6.54667 168.477 8.12256C168.931 7.41187 169.548 6.84022 170.33 6.40762C171.128 5.97502 172.011 5.75872 172.981 5.75872C174.247 5.75872 175.225 6.14497 175.913 6.91747C176.601 7.67452 176.945 8.76374 176.945 10.1851V17.0912H175.889V10.3937C175.889 8.83326 175.498 7.81357 174.717 7.33462C174.091 6.93292 173.426 6.73207 172.723 6.73207C171.91 6.73207 171.128 6.98699 170.377 7.49684C169.627 8.02214 169.079 8.64014 168.735 9.35083C168.767 10.0924 168.782 10.4787 168.782 10.5096V17.0912H167.727V10.3705C167.727 7.94489 166.679 6.73207 164.584 6.73207C163.786 6.73207 163.02 6.97154 162.285 7.45049C161.55 7.94489 160.987 8.53971 160.596 9.23496V17.0912Z" fill="white"></path> <path d="M181.216 21.8189C180.528 21.8189 179.996 21.703 179.621 21.4713V20.4748C180.074 20.722 180.567 20.8456 181.099 20.8456C181.865 20.8456 182.483 20.5443 182.952 19.9418C183.436 19.3856 183.999 18.3813 184.64 16.929L179.457 6.03682H180.653L185.18 15.6544L189.566 6.03682H190.716L185.063 18.3427C184.531 19.5323 183.96 20.4053 183.35 20.9615C182.756 21.5331 182.045 21.8189 181.216 21.8189Z" fill="white"></path> <path fill-rule="evenodd" clip-rule="evenodd" d="M94.1223 0.595062H95.3678L102.944 17.2723H101.417L99.2357 12.4983H90.2306L88.0492 17.2723H86.4977L94.1223 0.595062ZM94.3589 0.95717L87.0654 16.9102H87.8126L89.994 12.1362H99.4723L101.654 16.9102H102.378L95.1306 0.95717H94.3589ZM140.751 0.687762H142.173V17.2723H140.751V15.6586C139.635 16.9199 138.15 17.5504 136.313 17.5504C134.563 17.5504 133.136 16.9692 132.05 15.8C130.97 14.637 130.43 13.2253 130.43 11.5756C130.43 9.92596 130.97 8.51426 132.05 7.35123C133.151 6.16762 134.577 5.57766 136.313 5.57766C138.162 5.57766 139.647 6.21278 140.751 7.48393V0.687762ZM141.117 1.04987V8.56697L140.786 8.11263C139.728 6.66447 138.245 5.93977 136.313 5.93977C134.671 5.93977 133.346 6.4932 132.32 7.59617C131.305 8.68882 130.797 10.0117 130.797 11.5756C130.797 13.1395 131.305 14.4625 132.32 15.5551C133.329 16.6417 134.654 17.1883 136.313 17.1883C138.229 17.1883 139.713 16.471 140.787 15.0369L141.117 14.5953V16.9102H141.806V1.04987H141.117ZM94.7336 1.72825L99.2393 11.5713H90.203L94.7336 1.72825ZM90.7723 11.2092H98.6713L94.7327 2.60497L90.7723 11.2092ZM110.411 5.93977C108.72 5.93977 107.354 6.48723 106.298 7.5758C105.221 8.68521 104.683 10.0076 104.683 11.5524C104.683 13.1132 105.221 14.4432 106.298 15.5522C107.355 16.6411 108.713 17.1883 110.388 17.1883C111.742 17.1883 112.882 16.8885 113.817 16.298V15.6898C112.851 16.2821 111.753 16.577 110.528 16.577C109.092 16.577 107.865 16.1048 106.86 15.1598L106.857 15.1567C105.883 14.194 105.396 12.9961 105.396 11.5756C105.396 10.1552 105.883 8.95729 106.857 7.99453L106.858 7.99348C107.848 7.0313 109.076 6.55101 110.528 6.55101C111.59 6.55101 112.617 6.81128 113.606 7.32824V6.72167C112.658 6.20133 111.594 5.93977 110.411 5.93977ZM106.033 7.32514C107.166 6.15804 108.631 5.57766 110.411 5.57766C111.692 5.57766 112.85 5.87057 113.881 6.45944L113.972 6.51173V7.95077L113.697 7.79236C112.675 7.20463 111.619 6.91312 110.528 6.91312C109.167 6.91312 108.033 7.35961 107.116 8.25102C106.214 9.14218 105.762 10.2462 105.762 11.5756C105.762 12.9045 106.214 14.0081 107.115 14.8991C108.048 15.7762 109.182 16.2149 110.528 16.2149C111.807 16.2149 112.927 15.8772 113.895 15.205L114.183 15.0045V16.4929L114.102 16.5466C113.081 17.2191 111.839 17.5504 110.388 17.5504C108.623 17.5504 107.166 16.9697 106.033 15.8029C104.89 14.6254 104.317 13.2052 104.317 11.5524C104.317 9.9146 104.89 8.50231 106.033 7.32514ZM118.087 6.94759V7.58274C119.221 6.89634 120.427 6.55101 121.703 6.55101C123.052 6.55101 124.097 6.81674 124.808 7.37863C125.527 7.9467 125.874 8.79329 125.874 9.88385V11.6669L125.595 11.4983C124.295 10.7127 122.867 10.3198 121.304 10.3198C119.991 10.3198 118.923 10.6438 118.085 11.2789L118.084 11.2801C117.255 11.8943 116.843 12.7131 116.843 13.7541C116.843 14.8294 117.242 15.6628 118.037 16.2747C118.879 16.8828 119.856 17.1883 120.976 17.1883C122.912 17.1883 124.463 16.5058 125.645 15.1426L125.934 14.8098L125.967 15.2469C126.012 15.8326 126.194 16.2652 126.498 16.5664C126.82 16.8556 127.219 17.0029 127.708 17.0029C128.024 17.0029 128.264 16.9605 128.44 16.8864V16.4024C128.292 16.4421 128.134 16.4612 127.966 16.4612C127.538 16.4612 127.186 16.2989 126.93 15.9741L126.927 15.9704C126.679 15.6373 126.563 15.2098 126.563 14.7042V9.79115C126.563 8.52146 126.142 7.58263 125.32 6.94395L125.317 6.94174C124.499 6.28095 123.365 5.93977 121.891 5.93977C120.442 5.93977 119.176 6.27734 118.087 6.94759ZM117.804 6.69571C118.979 5.94859 120.343 5.57766 121.891 5.57766C123.419 5.57766 124.645 5.93138 125.547 6.6603C126.475 7.38119 126.93 8.43503 126.93 9.79115V14.7042C126.93 15.1555 127.032 15.4999 127.221 15.7536C127.403 15.9838 127.645 16.0991 127.966 16.0991C128.193 16.0991 128.383 16.0571 128.541 15.9791L128.806 15.8481V17.1036L128.714 17.1557C128.456 17.3013 128.115 17.365 127.708 17.365C127.135 17.365 126.644 17.1888 126.247 16.831L126.241 16.8254C125.94 16.5274 125.747 16.1389 125.655 15.6708C124.434 16.9244 122.87 17.5504 120.976 17.5504C119.783 17.5504 118.728 17.223 117.819 16.5653L117.814 16.5621C116.922 15.8764 116.477 14.9334 116.477 13.7541C116.477 12.6014 116.941 11.6746 117.863 10.991C118.777 10.2979 119.929 9.95772 121.304 9.95772C122.822 9.95772 124.224 10.3143 125.508 11.0277V9.88385C125.508 8.87321 125.19 8.14392 124.579 7.66139C123.961 7.17269 123.013 6.91312 121.703 6.91312C120.397 6.91312 119.166 7.29505 118.005 8.06432L117.72 8.25352V6.74917L117.804 6.69571ZM150.97 5.93977C149.375 5.93977 148.089 6.4777 147.094 7.54965L147.093 7.55058C146.096 8.61011 145.594 9.94711 145.594 11.5756C145.594 13.2138 146.155 14.5559 147.273 15.6164C148.377 16.6617 149.784 17.1883 151.509 17.1883C153.068 17.1883 154.25 16.8785 155.079 16.2822V15.6801C154.055 16.2786 152.911 16.577 151.65 16.577C150.111 16.577 148.83 16.1323 147.821 15.2327C146.826 14.3457 146.315 13.1685 146.283 11.7186L146.279 11.5336H155.947V11.367C155.947 10.1686 155.591 9.00417 154.873 7.87108L154.871 7.86808C154.515 7.28157 154.002 6.81739 153.326 6.47613L153.323 6.47467C152.65 6.11991 151.867 5.93977 150.97 5.93977ZM146.824 7.3045C147.894 6.15197 149.281 5.57766 150.97 5.57766C151.917 5.57766 152.76 5.76808 153.494 6.15442C154.225 6.52351 154.79 7.03194 155.184 7.68028C155.935 8.86422 156.314 10.094 156.314 11.367V11.8957H146.657C146.724 13.1708 147.196 14.1883 148.067 14.9637C148.998 15.7944 150.187 16.2149 151.65 16.2149C152.961 16.2149 154.13 15.8767 155.161 15.2021L155.446 15.0162V16.4621L155.374 16.5164C154.454 17.2142 153.158 17.5504 151.509 17.5504C149.701 17.5504 148.2 16.9955 147.02 15.8778C145.824 14.7444 145.228 13.3055 145.228 11.5756C145.228 9.86717 145.757 8.43879 146.824 7.3045ZM164.842 5.93977C163.962 5.93977 163.162 6.12683 162.44 6.49867C161.714 6.87216 161.152 7.36209 160.749 7.96721L160.413 8.47176V6.21787H159.724V16.9102H160.413V9.18804L160.436 9.14702C160.842 8.42459 161.426 7.80943 162.182 7.30083L162.184 7.29935C162.946 6.80299 163.746 6.55101 164.583 6.55101C165.668 6.55101 166.512 6.86612 167.08 7.52414C167.644 8.17666 167.91 9.13619 167.91 10.3705V16.9102H168.599V10.5097C168.599 10.5097 168.599 10.5082 168.599 10.5043L168.598 10.4872L168.596 10.4265C168.594 10.3746 168.591 10.3005 168.587 10.2039C168.579 10.011 168.568 9.72913 168.552 9.35836L168.55 9.31335L168.57 9.27271C168.929 8.53016 169.499 7.88945 170.271 7.34909L170.273 7.34764C171.051 6.81963 171.868 6.55101 172.723 6.55101C173.463 6.55101 174.162 6.76284 174.815 7.18165C175.679 7.71235 176.073 8.81692 176.073 10.3937V16.9102H176.762V10.1851C176.762 8.79066 176.424 7.75108 175.776 7.03843L175.775 7.03707C175.129 6.31197 174.207 5.93977 172.981 5.93977C172.04 5.93977 171.188 6.14921 170.419 6.56592C169.663 6.98454 169.068 7.53553 168.632 8.21911L168.423 8.54639L168.303 8.17829C168.056 7.42313 167.646 6.86882 167.081 6.50092C166.513 6.13165 165.771 5.93977 164.842 5.93977ZM162.271 6.17751C163.049 5.77686 163.907 5.57766 164.842 5.57766C165.82 5.57766 166.638 5.77976 167.282 6.19843C167.837 6.55899 168.25 7.07247 168.526 7.72975C168.972 7.12815 169.545 6.63473 170.241 6.24964L170.242 6.24891C171.068 5.80069 171.983 5.57766 172.981 5.57766C174.288 5.57766 175.32 5.97792 176.05 6.79771M162.271 6.17751C161.676 6.48345 161.178 6.86628 160.779 7.32655L162.271 6.17751ZM179.168 5.85576H180.77L185.177 15.2195L189.448 5.85576H191L185.23 18.4158C185.23 18.4163 185.23 18.4168 185.23 18.4172C184.694 19.6159 184.111 20.513 183.477 21.0928C182.848 21.6962 182.092 22 181.216 22C180.511 22 179.94 21.8819 179.524 21.6248L179.438 21.5716V20.1681L179.709 20.3162C180.135 20.5483 180.597 20.6645 181.099 20.6645C181.808 20.6645 182.372 20.3896 182.806 19.8314L182.813 19.8234C183.27 19.2986 183.813 18.3409 184.439 16.9317L179.168 5.85576ZM179.745 6.21787L184.842 16.9262L184.808 17.0014C184.168 18.4525 183.597 19.4771 183.094 20.0561C182.59 20.7004 181.92 21.0266 181.099 21.0266C180.641 21.0266 180.209 20.9397 179.804 20.7656V21.367C180.135 21.5422 180.6 21.6379 181.216 21.6379C181.997 21.6379 182.662 21.3705 183.223 20.8317L183.226 20.8284C183.81 20.296 184.368 19.4483 184.895 18.2695L184.896 18.2679L190.431 6.21787H189.685L185.183 16.0893L180.536 6.21787H179.745ZM132.922 7.99561C133.881 7.03227 135.078 6.55101 136.501 6.55101C137.475 6.55101 138.385 6.82426 139.227 7.36735C140.082 7.89398 140.709 8.57618 141.1 9.414L141.117 9.45011V13.6996L141.102 13.7346C140.726 14.5735 140.114 15.2567 139.273 15.7841C138.43 16.3125 137.505 16.577 136.501 16.577C135.079 16.577 133.882 16.1042 132.923 15.1567L132.922 15.1556C131.978 14.2071 131.509 13.009 131.509 11.5756C131.509 10.1422 131.978 8.94415 132.922 7.99561ZM136.501 6.91312C135.171 6.91312 134.07 7.35885 133.184 8.2495C132.313 9.12403 131.876 10.228 131.876 11.5756C131.876 12.9229 132.313 14.0267 133.183 14.9012C134.069 15.7764 135.171 16.2149 136.501 16.2149C137.436 16.2149 138.293 15.9697 139.077 15.4784C139.85 14.9934 140.406 14.375 140.751 13.6227V9.53008C140.391 8.77779 139.82 8.15898 139.031 7.67371L139.028 7.67158C138.243 7.16482 137.402 6.91312 136.501 6.91312ZM147.647 7.85919C148.484 6.98378 149.59 6.55101 150.947 6.55101C151.675 6.55101 152.336 6.69489 152.927 6.98636C153.512 7.25967 153.968 7.62547 154.286 8.08732C154.608 8.51699 154.851 8.96485 155.013 9.43085C155.176 9.89608 155.258 10.3563 155.258 10.8108V10.9919H146.296L146.307 10.8002C146.372 9.70318 146.823 8.72143 147.647 7.85919ZM150.947 6.91312C149.676 6.91312 148.671 7.31465 147.913 8.10782C147.192 8.86254 146.787 9.70204 146.689 10.6298H154.887C154.868 10.2768 154.795 9.91667 154.667 9.5489C154.517 9.11989 154.292 8.70356 153.989 8.29985L153.985 8.29383C153.709 7.89243 153.307 7.56421 152.768 7.31293L152.765 7.31119C152.23 7.04708 151.625 6.91312 150.947 6.91312ZM118.688 11.6601C119.417 11.1367 120.389 10.8847 121.586 10.8847C123.018 10.8847 124.421 11.3305 125.791 12.2118L125.874 12.2654V14.2551L125.837 14.3036C125.335 14.9598 124.68 15.5014 123.878 15.9296C123.069 16.361 122.203 16.577 121.281 16.577C120.223 16.577 119.339 16.3472 118.644 15.8729L118.641 15.8713C117.932 15.3705 117.579 14.6487 117.579 13.7309C117.579 12.8666 117.954 12.1714 118.688 11.6601ZM121.586 11.2468C120.438 11.2468 119.549 11.489 118.902 11.9538L118.9 11.9554C118.259 12.4018 117.946 12.9888 117.946 13.7309C117.946 14.5429 118.25 15.1495 118.853 15.5757C119.471 15.997 120.276 16.2149 121.281 16.2149C122.142 16.2149 122.949 16.0138 123.704 15.611C124.445 15.2155 125.045 14.7225 125.508 14.133V12.4623C124.215 11.6488 122.909 11.2468 121.586 11.2468ZM83.9231 15.79C83.6814 15.5926 83.457 15.5483 83.232 15.6185L83.2235 15.6211C82.9934 15.6809 82.8238 15.8326 82.7162 16.1092C82.6722 16.2415 82.6689 16.3563 82.697 16.4588C82.7251 16.5618 82.7885 16.6659 82.8997 16.7703C83.1414 16.9676 83.3658 17.012 83.5908 16.9418L83.5993 16.9391C83.8282 16.8796 83.9892 16.7297 84.082 16.4546L84.0844 16.4474C84.1362 16.3131 84.1437 16.1982 84.1188 16.097C84.094 15.9963 84.0335 15.8937 83.9231 15.79ZM83.1259 15.2718C83.4923 15.1591 83.8437 15.2532 84.162 15.5153L84.1663 15.5188L84.1703 15.5226C84.3232 15.6647 84.4296 15.8274 84.4749 16.0114C84.5201 16.1948 84.5006 16.3838 84.4284 16.5727C84.3025 16.9431 84.0587 17.1929 83.6969 17.2884C83.3305 17.4011 82.9791 17.3071 82.6608 17.0449L82.6565 17.0414L82.6525 17.0377C82.5003 16.8961 82.3929 16.735 82.3432 16.5533C82.2933 16.3709 82.3054 16.1817 82.3697 15.9911L82.3721 15.9839C82.5142 15.6153 82.7651 15.3671 83.1259 15.2718Z" fill="white"></path> </svg> 