<?xml version="1.0" encoding="UTF-8"?> <svg xmlns="http://www.w3.org/2000/svg" width="938" height="938" viewBox="0 0 938 938" fill="none"> <g clip-path="url(#clip0)"> <path d="M875 125V156.25C892.262 156.25 906.25 170.238 906.25 187.5V656.25H31.25V187.5C31.25 170.238 45.2383 156.25 62.5 156.25V125C27.9844 125 0 152.984 0 187.5V718.75C0 753.266 27.9844 781.25 62.5 781.25H369.625L332.125 906.25H296.875V937.5H640.625V906.25H605.375L567.875 781.25H875C909.516 781.25 937.5 753.266 937.5 718.75V187.5C937.5 152.984 909.516 125 875 125ZM572.75 906.25H364.75L402.25 781.25H535.25L572.75 906.25ZM906.25 718.75C906.25 736.012 892.262 750 875 750H62.5C45.2383 750 31.25 736.012 31.25 718.75V687.5H906.25V718.75Z" fill="white"></path> <path d="M156.25 625H781.25C815.766 625 843.75 597.016 843.75 562.5V62.5C843.75 27.9844 815.766 0 781.25 0H156.25C121.734 0 93.75 27.9844 93.75 62.5V562.5C93.75 597.016 121.734 625 156.25 625ZM125 62.5C125 45.2383 138.988 31.25 156.25 31.25H781.25C798.512 31.25 812.5 45.2383 812.5 62.5V562.5C812.5 579.762 798.512 593.75 781.25 593.75H156.25C138.988 593.75 125 579.762 125 562.5V62.5Z" fill="white"></path> <path d="M156.25 125H781.25V156.25H156.25V125Z" fill="white"></path> <path d="M156.25 203.125H296.875V234.375H156.25V203.125Z" fill="white"></path> <path d="M156.25 265.625H265.625V296.875H156.25V265.625Z" fill="white"></path> <path d="M156.25 328.125H250V359.375H156.25V328.125Z" fill="white"></path> <path d="M156.25 390.625H250V421.875H156.25V390.625Z" fill="white"></path> <path d="M156.25 453.125H250V484.375H156.25V453.125Z" fill="white"></path> <path d="M156.25 515.625H296.875V546.875H156.25V515.625Z" fill="white"></path> <path d="M640.625 203.125H781.25V234.375H640.625V203.125Z" fill="white"></path> <path d="M671.875 265.625H781.25V296.875H671.875V265.625Z" fill="white"></path> <path d="M687.5 328.125H781.25V359.375H687.5V328.125Z" fill="white"></path> <path d="M687.5 390.625H781.25V421.875H687.5V390.625Z" fill="white"></path> <path d="M687.5 453.125H781.25V484.375H687.5V453.125Z" fill="white"></path> <path d="M640.625 515.625H781.25V546.875H640.625V515.625Z" fill="white"></path> <path d="M156.25 62.5H187.5V93.75H156.25V62.5Z" fill="white"></path> <path d="M218.75 62.5H250V93.75H218.75V62.5Z" fill="white"></path> <path d="M281.25 62.5H312.5V93.75H281.25V62.5Z" fill="white"></path> <path d="M595.566 435.516C597.68 431.062 599.562 426.516 601.219 421.875H640.625C649.258 421.875 656.25 414.883 656.25 406.25V343.75C656.25 335.117 649.258 328.125 640.625 328.125H601.219C599.562 323.484 597.68 318.938 595.566 314.484L623.438 286.609C629.539 280.512 629.539 270.617 623.438 264.523L579.227 220.312C573.133 214.211 563.238 214.211 557.141 220.312L529.266 248.168C524.812 246.062 520.266 244.18 515.625 242.531V203.125C515.625 194.492 508.633 187.5 500 187.5H437.5C428.867 187.5 421.875 194.492 421.875 203.125V242.531C417.234 244.188 412.688 246.07 408.234 248.184L380.359 220.312C374.262 214.211 364.367 214.211 358.273 220.312L314.062 264.523C307.961 270.617 307.961 280.512 314.062 286.609L341.918 314.484C339.805 318.938 337.922 323.484 336.27 328.125H296.875C288.242 328.125 281.25 335.117 281.25 343.75V406.25C281.25 414.883 288.242 421.875 296.875 421.875H336.281C337.938 426.516 339.82 431.062 341.934 435.516L314.062 463.391C307.961 469.488 307.961 479.383 314.062 485.477L358.273 529.688C364.367 535.789 374.262 535.789 380.359 529.688L408.234 501.832C412.688 503.945 417.234 505.828 421.875 507.48V546.875C421.875 555.508 428.867 562.5 437.5 562.5H500C508.633 562.5 515.625 555.508 515.625 546.875V507.469C520.266 505.812 524.812 503.93 529.266 501.816L557.141 529.688C563.238 535.789 573.133 535.789 579.227 529.688L623.438 485.477C629.539 479.383 629.539 469.488 623.438 463.391L595.566 435.516ZM568.184 496.453L543.188 471.445C538.145 466.406 530.328 465.422 524.18 469.047C515.406 474.219 505.934 478.133 496.062 480.688C489.164 482.469 484.344 488.68 484.344 495.812V531.25H453.125V495.902C453.125 488.781 448.301 482.559 441.406 480.781C431.531 478.234 422.066 474.312 413.281 469.141C407.141 465.516 399.32 466.5 394.281 471.555L369.277 496.543L347.191 474.457L372.188 449.457C377.234 444.41 378.223 436.594 374.602 430.449C369.422 421.672 365.504 412.203 362.949 402.336C361.176 395.434 354.953 390.617 347.832 390.617H312.5V359.375H347.848C354.969 359.375 361.191 354.551 362.969 347.656C365.516 337.781 369.438 328.316 374.609 319.531C378.234 313.391 377.25 305.57 372.195 300.531L347.207 275.527L369.293 253.441L394.293 278.438C399.34 283.484 407.156 284.473 413.301 280.852C422.078 275.672 431.547 271.754 441.414 269.199C448.316 267.426 453.133 261.203 453.133 254.082V218.75H484.383V254.098C484.383 261.219 489.211 267.441 496.102 269.219C505.98 271.766 515.449 275.688 524.227 280.859C530.371 284.484 538.195 283.5 543.238 278.445L568.238 253.457L590.328 275.543L565.332 300.543C560.293 305.59 559.297 313.406 562.922 319.551C568.09 328.328 572.016 337.797 574.562 347.664C576.344 354.566 582.57 359.383 589.691 359.383H625V390.633H589.652C582.531 390.633 576.309 395.461 574.531 402.352C571.984 412.23 568.062 421.699 562.891 430.477C559.266 436.621 560.25 444.445 565.305 449.488L590.293 474.488L568.184 496.453Z" fill="white"></path> <path d="M468.75 296.875C425.605 296.875 390.625 331.855 390.625 375C390.625 418.145 425.605 453.125 468.75 453.125C511.895 453.125 546.875 418.145 546.875 375C546.82 331.875 511.875 296.93 468.75 296.875ZM468.75 421.875C442.867 421.875 421.875 400.883 421.875 375C421.875 349.117 442.867 328.125 468.75 328.125C494.633 328.125 515.625 349.117 515.625 375C515.625 400.883 494.633 421.875 468.75 421.875Z" fill="white"></path> </g> <defs> <clipPath id="clip0"> <rect width="937.5" height="937.5" fill="white"></rect> </clipPath> </defs> </svg> 