<?xml version="1.0" encoding="UTF-8"?> <svg xmlns="http://www.w3.org/2000/svg" width="337" height="306" viewBox="0 0 337 306" fill="none"> <g opacity="0.4"> <path d="M234.182 67.5294L186.907 122.976C171.756 110.822 154.715 105.477 135.985 107.85C127.622 108.873 119.558 111.564 112.286 115.758C105.013 119.953 98.6843 125.563 93.6849 132.246C84.2398 144.606 79.419 159.801 80.0384 175.26C80.6579 190.719 86.6795 205.492 97.0842 217.079C117.728 239.568 155.323 244.204 182.112 225.396C205.097 209.339 219.617 171.369 198.568 136.105C203.588 130.317 247.397 99.4665 260.994 92.2141C273.169 106.605 281.62 123.691 285.622 142.005C292.578 172.922 289.922 203.329 274.861 231.762C259.441 260.904 235.556 281.242 204.782 293.64C182.014 302.95 157.298 306.694 132.743 304.552C79.5924 299.805 37.6975 276.784 12.7317 228.767C3.72691 211.69 0.260061 193.127 0.0349407 173.676C-0.597691 147.127 7.37463 121.071 22.7946 99.2891C40.9843 73.2959 65.9501 56.8394 96.4088 47.1474C118.268 40.272 140.487 39.407 162.752 41.2257C188.551 43.4123 213.252 52.5083 234.182 67.5294Z" fill="url(#paint0_linear)"></path> <path d="M309.712 0C320.765 5.69989 329.4 13.5138 336.434 23.4871L273.4 67.0236C270.586 62.3439 266.399 58.884 262.752 54.8475L309.712 0Z" fill="url(#paint1_linear)"></path> </g> <defs> <linearGradient id="paint0_linear" x1="-1.03455e-06" y1="40" x2="289" y2="305" gradientUnits="userSpaceOnUse"> <stop stop-color="#009FE2"></stop> <stop offset="0.779231" stop-color="#009FE2" stop-opacity="0"></stop> </linearGradient> <linearGradient id="paint1_linear" x1="299.593" y1="0" x2="299.593" y2="67.0236" gradientUnits="userSpaceOnUse"> <stop stop-color="#009FE2"></stop> <stop offset="0.770833" stop-color="#009FE2" stop-opacity="0"></stop> </linearGradient> </defs> </svg> 