<?xml version="1.0" encoding="UTF-8"?> <svg xmlns="http://www.w3.org/2000/svg" viewBox="0 0 131.46 96.96"> <defs> <style>.cls-1{opacity:0.43;}.cls-2{fill:#ede6f5;}.cls-3{fill:#552e3b;}.cls-10,.cls-4,.cls-6{fill:#b8abd6;}.cls-5{fill:#ddd2f3;}.cls-6{opacity:0.44;}.cls-7{fill:#6338a1;}.cls-8{fill:#f9c8c7;}.cls-9{fill:#452775;}.cls-10{opacity:0.14;}.cls-11{fill:#fac28c;}.cls-12{fill:#db9d6a;}.cls-13{fill:#b28560;}.cls-14{opacity:0.07;}.cls-15{fill:#f9fafd;}.cls-16{fill:#a869c5;}.cls-17{fill:#c7cddd;}.cls-18{fill:#e08f8d;}.cls-19{opacity:0.26;}.cls-20{fill:#deecfc;}.cls-21{fill:#635252;}.cls-22{fill:#968abc;}.cls-23,.cls-24{fill:#d7d1e8;}.cls-24{opacity:0.19;}.cls-25{fill:#6e3281;}.cls-26{fill:#edc483;}.cls-27{fill:#8aa9fc;}.cls-28{fill:#e3707f;}.cls-29{fill:#e8947e;}</style> </defs> <title>Asset 2</title> <g id="Layer_2" data-name="Layer 2"> <g id="Objects"> <g class="cls-1"> <path class="cls-2" d="M1.71,82.61C-2.83,71.15,2,56.75,12.47,50.3c6.36-3.9,14-4.95,20.86-7.93,10.51-4.59,18.47-13.44,27.88-20a55.48,55.48,0,0,1,23.38-9.73c8.42-1.24,17.34,0,24.67,4.38,7.79,4.59,13.43,12.41,16.12,21a50.53,50.53,0,0,1,.42,26.79,28.33,28.33,0,0,1-3.91,9.54,13.62,13.62,0,0,1-8.27,5.81"></path> </g> <path class="cls-2" d="M120.13,78.87S2.39,81.54,1.7,81.92c0,0,9.84,15.83,39.72,15S121.41,94.67,120.13,78.87Z"></path> <path class="cls-3" d="M56.67,25.69c-3.32,1.21-2.16-2.58-2.27-4.19a14,14,0,0,0-.69-4.76c-.53-1.17-1.54-2.2-1.54-3.49A11.74,11.74,0,0,1,53,10.46c.34-1.31,0-2.7.24-4a5.23,5.23,0,0,1,5.62-4.18c1.28.17,2.52.83,3.79.65S65.12,1.58,66.34.86A6.06,6.06,0,0,1,72.05.59a5.09,5.09,0,0,1,2.74,4.89,4.38,4.38,0,0,1-3.91,3.83,11.2,11.2,0,0,1-3.4-.66,4.16,4.16,0,0,0-3.36.26c-1.2.82-1.72,2.72-3.18,2.86A4.6,4.6,0,0,1,58.78,11c-.71-.31-1.7-.37-2.1.29s0,1.23,0,1.87A2.57,2.57,0,0,1,55.51,16c-.42,3.2.55,6.27,1.5,9.35"></path> <polygon class="cls-4" points="29.34 81.28 20.39 31.18 49.2 31.18 59.86 80.34 29.34 81.28"></polygon> <polygon class="cls-5" points="31.56 81.22 22.12 31.18 50.93 31.18 61.59 80.34 31.56 81.22"></polygon> <path class="cls-6" d="M51.24,31.18s-10,4.39-12.75,9.11c-2.41,4.08-13.94,28.05-9.66,31.41S61.48,74,61.48,74l1.84-7.63L41,62.54l13.66-12Z"></path> <path class="cls-7" d="M76.18,43.34c-.16-.49-1.26-11.09-12.43-10.83-10.48.25-16.31.85-20,9l3.89,15.41.81,23.83,30.21-1Z"></path> <path class="cls-7" d="M48.31,35.62a20.23,20.23,0,0,0-7.07,7C38.83,46.68,27.31,70.65,31.58,74S64.23,76.3,64.23,76.3l1.85-7.63L43.79,64.85l3.89-7.93Z"></path> <path class="cls-7" d="M70.66,34.29s10.67,7.16,21.81,25.78l-4.5,11L76.23,56.19Z"></path> <polygon class="cls-4" points="59.26 82.09 83.71 82.09 84.92 80 59.26 80.73 59.26 82.09"></polygon> <path class="cls-8" d="M65.56,71.4h10s6.13,5.46,5.07,5.73-4.8-3.43-4.8-3.43L78.7,80s-4.38-.6-5.8-1.79-2.75-2.12-2.75-2.12l-5.71.53Z"></path> <path class="cls-9" d="M48.15,35.83l.26,0a1.12,1.12,0,0,1,.33,0,2.32,2.32,0,0,1,.44,0A4.5,4.5,0,0,1,51.69,37a6,6,0,0,1,1.18,1.56,6.19,6.19,0,0,1,.65,2.16,12.65,12.65,0,0,1-.59,5.08,42.4,42.4,0,0,1-3.59,8.57c-.59,1-1.1,1.85-1.47,2.4-.18.28-.33.49-.43.64a1.82,1.82,0,0,1-.17.21,2.44,2.44,0,0,1,.14-.23l.4-.65c.35-.57.85-1.39,1.42-2.43a44.27,44.27,0,0,0,3.53-8.56,12.73,12.73,0,0,0,.6-5,6,6,0,0,0-1.75-3.65,4.67,4.67,0,0,0-2.44-1.27A5.27,5.27,0,0,0,48.15,35.83Z"></path> <path class="cls-9" d="M74.69,42.11a.53.53,0,0,1,0,.21c0,.16.06.36.1.62.09.55.21,1.31.36,2.24.3,1.92.71,4.54,1.17,7.42s.82,5.54,1,7.45c.11,1,.17,1.73.21,2.27,0,.25,0,.46,0,.62s0,.21,0,.21a1.15,1.15,0,0,1,0-.21c0-.16,0-.36-.07-.62-.05-.53-.14-1.3-.26-2.25-.25-1.91-.64-4.54-1.08-7.44s-.86-5.52-1.13-7.43c-.13-1-.23-1.72-.3-2.26,0-.25,0-.45-.06-.61A1.73,1.73,0,0,1,74.69,42.11Z"></path> <path class="cls-10" d="M45.84,87c0,.54-2.5,1-5.58,1s-5.59-.43-5.59-1,2.5-1,5.59-1S45.84,86.47,45.84,87Z"></path> <path class="cls-11" d="M42.27,76.74s-4.82-1.83-9.32,0v1s-1.63-.13-1.63,1.43a4.57,4.57,0,0,0,2.61,4.5l.91,2.87s3.91,1,5.93,0c0,0,.46-1.51.85-3.07C41.9,82.39,42.27,76.74,42.27,76.74ZM32.12,79.79c-.11-1.32,1-.89,1-.89l.57,3.72S32.32,82.23,32.12,79.79Z"></path> <path class="cls-12" d="M41.62,76.85a18.11,18.11,0,0,0-8,0A6.37,6.37,0,0,0,41.62,76.85Z"></path> <path class="cls-13" d="M42.05,81.17a2,2,0,0,1-.31.15,7.86,7.86,0,0,1-.89.31,11.73,11.73,0,0,1-3.06.5,12.22,12.22,0,0,1-3.09-.29,7.11,7.11,0,0,1-.9-.26,1.12,1.12,0,0,1-.32-.13s.47.12,1.25.27a13.88,13.88,0,0,0,3.05.24,14.11,14.11,0,0,0,3-.44C41.58,81.32,42,81.14,42.05,81.17Z"></path> <path class="cls-13" d="M41.84,80.26l-.3.17a7.25,7.25,0,0,1-.86.37,10.36,10.36,0,0,1-3,.58A10.21,10.21,0,0,1,34.6,81a7.79,7.79,0,0,1-.89-.29,2,2,0,0,1-.31-.15s.47.14,1.23.32a11.73,11.73,0,0,0,3,.29,11.5,11.5,0,0,0,3-.53C41.38,80.44,41.82,80.23,41.84,80.26Z"></path> <g class="cls-14"> <path class="cls-15" d="M33.82,76.88a1.12,1.12,0,0,1,.23-1.48,5.6,5.6,0,0,1,1.45-.77,1.77,1.77,0,0,0,1.09-1.16c.19-1-1.18-2-.84-3s1.8-.88,2.37-1.69-.23-2.18.16-3.2a1.7,1.7,0,0,1,1.84-1,2.81,2.81,0,0,1,1.8,1.23,7.67,7.67,0,0,1,.88,2.06,3.67,3.67,0,0,1,.06,2.85c-.24.43-.68.88-.49,1.33.11.28.42.42.63.63a2,2,0,0,1,.23,2.1,5.38,5.38,0,0,1-9.64,1.05"></path> </g> <path class="cls-16" d="M72.46,43.85a4.7,4.7,0,0,1-.66,1.09,4.44,4.44,0,0,1-.8,1,4.76,4.76,0,0,1,.66-1.08A4.36,4.36,0,0,1,72.46,43.85Z"></path> <path class="cls-15" d="M56.7,32.88s6.15,16,10.45,21.36c0,0,1.81-15.75,0-21.43C67.15,32.81,58.9,31.82,56.7,32.88Z"></path> <path class="cls-8" d="M55.67,6.92l-.41,9.47s-2.91,0-2.91,2.64a2.6,2.6,0,0,0,3.16,2.79s-.65,6.41,8.13,6.93c10.28.62,8.09-15.44,7.69-23Z"></path> <path class="cls-8" d="M67.15,21.37l-.51,11.55a4.47,4.47,0,0,1-6.47,3.8l-.11,0a4.5,4.5,0,0,1-2.47-4.15c.12-4.05.17-11.05.17-11.05Z"></path> <path class="cls-9" d="M67.15,54.24l-.21-.18c-.13-.11-.32-.29-.56-.53-.49-.46-1.18-1.15-2-2s-1.84-1.89-3-3a19.94,19.94,0,0,1-1.76-1.79,5.12,5.12,0,0,1-1.21-2.4,3.19,3.19,0,0,1,.3-2.14l.13.1a1.23,1.23,0,0,1-1.18.2,1.78,1.78,0,0,1-.94-.69,4.16,4.16,0,0,1-.52-2.07c-.07-1.34-.13-2.53-.18-3.53s-.09-1.78-.12-2.35c0-.27,0-.48,0-.64V33a.68.68,0,0,1,0,.22c0,.16,0,.37.05.63,0,.57.1,1.37.17,2.35s.14,2.19.23,3.53a3.93,3.93,0,0,0,.5,2,1.58,1.58,0,0,0,.85.62,1.07,1.07,0,0,0,1-.17l.38-.33-.25.44a3,3,0,0,0-.28,2,5.11,5.11,0,0,0,1.17,2.32,21,21,0,0,0,1.74,1.78c1.14,1.11,2.12,2.16,3,3l2,2.05L67,54C67.09,54.17,67.16,54.23,67.15,54.24Z"></path> <path class="cls-9" d="M67.15,32.81l.14.1.35.34a8.3,8.3,0,0,1,1.17,1.4,10,10,0,0,1,.65,1.1,5.52,5.52,0,0,1,.54,1.4,4.43,4.43,0,0,1,0,1.67,3.21,3.21,0,0,1-.81,1.65v-.12a2.66,2.66,0,0,1,.6,1.25,5.25,5.25,0,0,1,0,1.43c-.07.8-.24,1.55-.37,2.29s-.28,1.44-.42,2.11c-.28,1.34-.57,2.55-.82,3.55s-.48,1.82-.65,2.37c-.07.27-.14.48-.19.64s-.07.23-.08.22a1.63,1.63,0,0,1,0-.22c0-.17.09-.39.16-.65.14-.57.35-1.38.59-2.39s.51-2.21.78-3.55c.14-.67.28-1.38.41-2.11s.29-1.5.37-2.28a5.27,5.27,0,0,0,0-1.38,2.47,2.47,0,0,0-.56-1.16l0-.06.06-.06a2.93,2.93,0,0,0,.77-1.55,4.18,4.18,0,0,0,0-1.62,5.18,5.18,0,0,0-.51-1.37,10,10,0,0,0-.62-1.1,9.86,9.86,0,0,0-1.12-1.42l-.34-.35Z"></path> <path class="cls-9" d="M68.18,71.4c-.05,0-.35-3.82-.67-8.54S67,54.3,67,54.3s.35,3.82.67,8.55S68.23,71.4,68.18,71.4Z"></path> <path class="cls-9" d="M69.72,58.87a.37.37,0,0,1,.23,0,.9.9,0,0,1,.74,1.22,1,1,0,0,1-1,.63,1,1,0,0,1-.88-.75A1,1,0,0,1,69,59a.78.78,0,0,1,.57-.3.36.36,0,0,1,.23.05l-.22,0a.72.72,0,0,0-.48.3.93.93,0,0,0-.1.81.89.89,0,0,0,.75.62.79.79,0,0,0,.8-.5.82.82,0,0,0-.12-.8.86.86,0,0,0-.48-.3C69.8,58.88,69.72,58.89,69.72,58.87Z"></path> <path class="cls-9" d="M70.26,65.66s.08,0,.23,0a.86.86,0,0,1,.57.29.93.93,0,0,1,.18.93,1,1,0,0,1-1,.62,1,1,0,0,1-.88-.74,1,1,0,0,1,.15-.93.77.77,0,0,1,.56-.3c.16,0,.24,0,.23,0a1.73,1.73,0,0,0-.22,0,.76.76,0,0,0-.48.3.94.94,0,0,0,.65,1.43.78.78,0,0,0,.8-.5A.82.82,0,0,0,71,66a.92.92,0,0,0-.49-.3C70.34,65.67,70.26,65.68,70.26,65.66Z"></path> <path class="cls-9" d="M69.57,59.42a.13.13,0,0,1,0,.12.12.12,0,0,1-.12.05.09.09,0,0,1,0-.14C69.47,59.38,69.54,59.38,69.57,59.42Z"></path> <path class="cls-9" d="M70.05,59.8a.08.08,0,0,1,0,.12A.09.09,0,0,1,70,60a.1.1,0,0,1,0-.12A.08.08,0,0,1,70.05,59.8Z"></path> <path class="cls-9" d="M70.05,66.17a.11.11,0,0,1,0,.15.12.12,0,0,1-.15,0,.12.12,0,0,1,0-.15S70,66.14,70.05,66.17Z"></path> <path class="cls-9" d="M70.6,66.7s0,.11,0,.16-.13.06-.16,0,0-.11,0-.16S70.57,66.66,70.6,66.7Z"></path> <path class="cls-9" d="M65.88,69s-.3,2-.77,4.42-.9,4.38-1,4.37.3-2,.77-4.41S65.83,69,65.88,69Z"></path> <path class="cls-9" d="M62.17,68.51s-.33,1.95-.84,4.33-1,4.3-1,4.29.33-1.95.84-4.33S62.12,68.5,62.17,68.51Z"></path> <path class="cls-9" d="M66.16,69.1c0,.05-4-.69-9-1.64s-9-1.77-9-1.82,4,.69,9,1.64S66.17,69.05,66.16,69.1Z"></path> <path class="cls-9" d="M64.16,77.69s-3.5-.19-7.82-.54-7.81-.66-7.8-.71,3.5.2,7.82.54S64.17,77.64,64.16,77.69Z"></path> <path class="cls-9" d="M68.73,80.1a6.11,6.11,0,0,1-.35-1.88,6.4,6.4,0,0,1,.05-1.91c.06,0,0,.85.12,1.89S68.78,80.09,68.73,80.1Z"></path> <path class="cls-9" d="M74.91,49.41a16.23,16.23,0,0,1-2.35.28,18.45,18.45,0,0,1-2.38.1,15.17,15.17,0,0,1,2.36-.28A16.42,16.42,0,0,1,74.91,49.41Z"></path> <path class="cls-9" d="M89.77,67.08S86.69,63.44,83,58.87s-6.69-8.29-6.65-8.32,3.08,3.65,6.79,8.21S89.81,67.05,89.77,67.08Z"></path> <path class="cls-9" d="M50.67,66c-.05,0-.29-2.8-.54-6.27s-.42-6.27-.37-6.28.29,2.81.54,6.27S50.71,66,50.67,66Z"></path> <path class="cls-9" d="M52.11,80.65a5.42,5.42,0,0,1-.58-1.91,5.09,5.09,0,0,1,0-2s0,.89.15,2S52.16,80.63,52.11,80.65Z"></path> <path class="cls-16" d="M73.39,48.14s-.3-.22-.58-.55-.49-.64-.45-.67.3.22.58.56S73.43,48.11,73.39,48.14Z"></path> <path class="cls-16" d="M57.31,54a2.6,2.6,0,0,1-.48.85c-.3.45-.57.78-.61.75a2.93,2.93,0,0,1,.47-.85A2.68,2.68,0,0,1,57.31,54Z"></path> <path class="cls-16" d="M53.1,57.39a4.23,4.23,0,0,1-.9-.74,4,4,0,0,1-.78-.86,4.23,4.23,0,0,1,.9.74A4,4,0,0,1,53.1,57.39Z"></path> <path class="cls-16" d="M53.93,53a1.78,1.78,0,0,1-.51-.89,1.72,1.72,0,0,1-.08-1s.08.45.25,1S54,52.94,53.93,53Z"></path> <path class="cls-16" d="M56.17,49.18a1.85,1.85,0,0,1-.87-.44,2,2,0,0,1-.67-.72,6.1,6.1,0,0,1,.77.58A5.32,5.32,0,0,1,56.17,49.18Z"></path> <path class="cls-16" d="M62.62,53.11a2.52,2.52,0,0,1-.37.8,2.58,2.58,0,0,1-.52.71,2.2,2.2,0,0,1,.37-.8C62.34,53.4,62.57,53.08,62.62,53.11Z"></path> <path class="cls-16" d="M60.09,51.81a2.67,2.67,0,0,1-.22-1.11A2.84,2.84,0,0,1,60,49.56a6.17,6.17,0,0,1,.09,1.13A6,6,0,0,1,60.09,51.81Z"></path> <path class="cls-16" d="M60.07,59.39a2.4,2.4,0,0,1-.35-1.13,2.32,2.32,0,0,1,.05-1.18,10.47,10.47,0,0,1,.12,1.16A11.12,11.12,0,0,1,60.07,59.39Z"></path> <path class="cls-16" d="M57.58,61.31s-.42-.28-.78-.79a2.38,2.38,0,0,1-.5-1,8.7,8.7,0,0,1,.64.91A6.94,6.94,0,0,1,57.58,61.31Z"></path> <path class="cls-16" d="M54.06,62.41s-.25.29-.62.56a2.09,2.09,0,0,1-.73.41,2.14,2.14,0,0,1,.63-.56A2.1,2.1,0,0,1,54.06,62.41Z"></path> <path class="cls-16" d="M51.92,60.56s-.28-.11-.47-.4-.25-.57-.21-.59.17.23.35.49S52,60.52,51.92,60.56Z"></path> <path class="cls-16" d="M57.43,65.16a4.39,4.39,0,0,1-.5,1.73A2.33,2.33,0,0,1,57.1,66,2.52,2.52,0,0,1,57.43,65.16Z"></path> <path class="cls-16" d="M60.86,66.12a1.82,1.82,0,0,1-.63-.8,1.85,1.85,0,0,1-.28-1,8.65,8.65,0,0,1,.43.91A8.16,8.16,0,0,1,60.86,66.12Z"></path> <path class="cls-16" d="M65.16,66.19a3,3,0,0,1-.92-.5,3.37,3.37,0,0,1-.82-.65,3.33,3.33,0,0,1,.92.5A3.37,3.37,0,0,1,65.16,66.19Z"></path> <path class="cls-16" d="M65.63,61.21s-.29.35-.71.71a3,3,0,0,1-.83.57,3.31,3.31,0,0,1,.71-.71A3,3,0,0,1,65.63,61.21Z"></path> <path class="cls-16" d="M61.94,61.18s0,.21-.19.4-.29.33-.32.3,0-.21.18-.4S61.9,61.15,61.94,61.18Z"></path> <path class="cls-16" d="M64.71,58.36a7.06,7.06,0,0,1-.84-.73A8,8,0,0,1,63,56.9a2.37,2.37,0,0,1,1,.6A2.4,2.4,0,0,1,64.71,58.36Z"></path> <path class="cls-16" d="M56.27,46.51s.31-.5.61-1.14.45-1.21.5-1.2A2.57,2.57,0,0,1,57,45.44,2.8,2.8,0,0,1,56.27,46.51Z"></path> <path class="cls-16" d="M54.64,44.68a3.07,3.07,0,0,1-.23-1.17,3.13,3.13,0,0,1,.07-1.2,6.52,6.52,0,0,1,.11,1.19A6.19,6.19,0,0,1,54.64,44.68Z"></path> <path class="cls-16" d="M54.7,37.75s-.4,0-.78-.31-.55-.63-.51-.65.27.26.62.51S54.71,37.7,54.7,37.75Z"></path> <path class="cls-16" d="M53.48,34.36s-.24.2-.57.36-.63.26-.65.21.23-.21.57-.37S53.46,34.31,53.48,34.36Z"></path> <path class="cls-16" d="M57.7,39.61a2,2,0,0,1,0-.81,2,2,0,0,1,.18-.79,1.77,1.77,0,0,1,0,.81A1.85,1.85,0,0,1,57.7,39.61Z"></path> <path class="cls-16" d="M60.47,44.56s-.22-.06-.43-.22S59.68,44,59.7,44s.23.06.44.22S60.5,44.52,60.47,44.56Z"></path> <path class="cls-16" d="M69.06,42.76a2.24,2.24,0,0,1-.12.91,2.58,2.58,0,0,1-.29.88,2.53,2.53,0,0,1,.12-.92A2.86,2.86,0,0,1,69.06,42.76Z"></path> <path class="cls-16" d="M69.27,38.4s-.29-.08-.49-.34-.26-.55-.22-.56.16.21.35.45S69.29,38.35,69.27,38.4Z"></path> <path class="cls-16" d="M71.64,39.42a1.82,1.82,0,0,1-.34.72c-.23.37-.45.66-.49.63a1.82,1.82,0,0,1,.34-.72A2,2,0,0,1,71.64,39.42Z"></path> <path class="cls-16" d="M73.48,41.6a3.07,3.07,0,0,1,0-1,3.22,3.22,0,0,1,.14-1,2.93,2.93,0,0,1,0,1A2.7,2.7,0,0,1,73.48,41.6Z"></path> <path class="cls-16" d="M72.08,36.8A3.49,3.49,0,0,1,71.3,36a4,4,0,0,1-.64-.92,3.49,3.49,0,0,1,.78.81A4,4,0,0,1,72.08,36.8Z"></path> <path class="cls-16" d="M48.89,43.85a4.47,4.47,0,0,1,.11-1.2,4.88,4.88,0,0,1,.28-1.18,4,4,0,0,1-.11,1.2A3.87,3.87,0,0,1,48.89,43.85Z"></path> <path class="cls-16" d="M47.06,39.8a4.55,4.55,0,0,1-.9.25,4.07,4.07,0,0,1-.9.21,1.88,1.88,0,0,1,.86-.38A2,2,0,0,1,47.06,39.8Z"></path> <path class="cls-16" d="M49.62,38.2S49.3,38,49,37.69a2.16,2.16,0,0,1-.52-.64s.32.19.64.51S49.66,38.17,49.62,38.2Z"></path> <path class="cls-16" d="M51.74,43a2.84,2.84,0,0,1-.06-2,6.85,6.85,0,0,1,0,1A5.66,5.66,0,0,1,51.74,43Z"></path> <path class="cls-16" d="M49.1,49.5a2.77,2.77,0,0,1,.3-.91,2.68,2.68,0,0,1,.45-.84,2.89,2.89,0,0,1-.29.91A2.59,2.59,0,0,1,49.1,49.5Z"></path> <path class="cls-16" d="M46.74,46.68c-.05,0,0-.39.29-.78s.58-.61.61-.57-.22.3-.46.67A7.49,7.49,0,0,1,46.74,46.68Z"></path> <path class="cls-16" d="M43.6,46A3.8,3.8,0,0,1,44,44.91a3.45,3.45,0,0,1,.53-1A3.8,3.8,0,0,1,44.13,45,3.76,3.76,0,0,1,43.6,46Z"></path> <path class="cls-16" d="M41.58,45.2a3.66,3.66,0,0,1,.05-1,3.51,3.51,0,0,1,.22-1,3,3,0,0,1,0,1A3.2,3.2,0,0,1,41.58,45.2Z"></path> <path class="cls-16" d="M40.18,50.53s-.28-.3-.53-.72a2.52,2.52,0,0,1-.38-.81s.28.3.53.72A2.52,2.52,0,0,1,40.18,50.53Z"></path> <path class="cls-16" d="M42.63,48.86a2.65,2.65,0,0,1-.35-.87,3,3,0,0,1-.18-.93,2.64,2.64,0,0,1,.35.88A2.92,2.92,0,0,1,42.63,48.86Z"></path> <path class="cls-16" d="M45.84,50.79a6.84,6.84,0,0,1-1,.61,6.72,6.72,0,0,1-1,.6,2.69,2.69,0,0,1,.92-.75A2.8,2.8,0,0,1,45.84,50.79Z"></path> <path class="cls-16" d="M46.61,55.73a6.28,6.28,0,0,1,.51-1,8.63,8.63,0,0,1,.51-1,2.26,2.26,0,0,1-.35,1.05A2.36,2.36,0,0,1,46.61,55.73Z"></path> <path class="cls-16" d="M44.29,56.43a3.89,3.89,0,0,1,0-1.19,4.72,4.72,0,0,1,.15-1.18,3.89,3.89,0,0,1,0,1.19A3.76,3.76,0,0,1,44.29,56.43Z"></path> <path class="cls-16" d="M42.05,55.14a2.91,2.91,0,0,1-1.81-1.85s.31.51.82,1S42.08,55.1,42.05,55.14Z"></path> <path class="cls-16" d="M38.15,54.7a2.87,2.87,0,0,1,.11-1,3.18,3.18,0,0,1,.27-1,5.67,5.67,0,0,1-.38,2Z"></path> <path class="cls-16" d="M44.43,59.19c0,.05-.27.27-.61.59s-.57.6-.61.57.15-.37.49-.7S44.4,59.15,44.43,59.19Z"></path> <path class="cls-16" d="M39.87,60.8a3.72,3.72,0,0,1-.1-1.12,3.65,3.65,0,0,1,.07-1.13,3.72,3.72,0,0,1,.1,1.12A3.65,3.65,0,0,1,39.87,60.8Z"></path> <path class="cls-16" d="M37.75,62.09a2.48,2.48,0,0,1-1.06-.27,2.47,2.47,0,0,1-.94-.55,6.33,6.33,0,0,1,1,.39A6.05,6.05,0,0,1,37.75,62.09Z"></path> <path class="cls-16" d="M36.54,58.74a3.35,3.35,0,0,1-.22-1,3.45,3.45,0,0,1,0-1,3.06,3.06,0,0,1,.23,1A2.85,2.85,0,0,1,36.54,58.74Z"></path> <path class="cls-16" d="M40.38,64.25a2.41,2.41,0,0,1-.88.25,2.47,2.47,0,0,1-.92.08,2.42,2.42,0,0,1,.89-.25A2.69,2.69,0,0,1,40.38,64.25Z"></path> <path class="cls-16" d="M34.42,65.74a2.67,2.67,0,0,1-.18-.95,2.58,2.58,0,0,1,0-1,3.06,3.06,0,0,1,.18,1A2.78,2.78,0,0,1,34.42,65.74Z"></path> <path class="cls-16" d="M32.42,69.21a2.91,2.91,0,0,1-.31-1,3.44,3.44,0,0,1-.14-1,2.8,2.8,0,0,1,.31,1A3.49,3.49,0,0,1,32.42,69.21Z"></path> <path class="cls-16" d="M34.09,70.94a2.56,2.56,0,0,1-.76.49,2.27,2.27,0,0,1-.85.34,2.53,2.53,0,0,1,.77-.49A2.26,2.26,0,0,1,34.09,70.94Z"></path> <path class="cls-16" d="M36.19,70.19a2.41,2.41,0,0,1-.7-.92,2.35,2.35,0,0,1-.36-1.09,7.56,7.56,0,0,1,.52,1A7.54,7.54,0,0,1,36.19,70.19Z"></path> <path class="cls-16" d="M39,69a2,2,0,0,1-.38-.7,2,2,0,0,1-.23-.77c.05,0,.22.3.39.7A1.71,1.71,0,0,1,39,69Z"></path> <path class="cls-16" d="M37.62,72a4,4,0,0,1-.81.83,4.21,4.21,0,0,1-.92.71,4,4,0,0,1,.81-.84A4,4,0,0,1,37.62,72Z"></path> <path class="cls-16" d="M41.69,73.29a3.29,3.29,0,0,1-.94-1,3.42,3.42,0,0,1-.64-1.21,11.86,11.86,0,0,1,.78,1.11C41.32,72.8,41.72,73.26,41.69,73.29Z"></path> <path class="cls-16" d="M40.64,74.86a2.82,2.82,0,0,1-.89.15,2.41,2.41,0,0,1-.91,0,2.82,2.82,0,0,1,.89-.15A2.44,2.44,0,0,1,40.64,74.86Z"></path> <path class="cls-16" d="M43.27,68.44a6.52,6.52,0,0,1-.51-1.39,5.75,5.75,0,0,1-.34-1.43A6.66,6.66,0,0,1,42.93,67,6.24,6.24,0,0,1,43.27,68.44Z"></path> <path class="cls-16" d="M47.32,66.92a3.56,3.56,0,0,1-1.11.24,3.58,3.58,0,0,1-1.14.07A4.25,4.25,0,0,1,46.18,67,3.58,3.58,0,0,1,47.32,66.92Z"></path> <path class="cls-16" d="M45.2,71.13a3.71,3.71,0,0,1-.71.32,4.05,4.05,0,0,1-.71.33s.23-.3.64-.49A1.33,1.33,0,0,1,45.2,71.13Z"></path> <path class="cls-16" d="M46.93,74.86a4.3,4.3,0,0,1-.9-.8,3.81,3.81,0,0,1-.78-.93,4.6,4.6,0,0,1,.9.8A4.46,4.46,0,0,1,46.93,74.86Z"></path> <path class="cls-16" d="M48.92,71.78a4.76,4.76,0,0,1,.07-1,5.33,5.33,0,0,1,.12-1,2.31,2.31,0,0,1,.06,1A2.55,2.55,0,0,1,48.92,71.78Z"></path> <path class="cls-16" d="M51.56,74.05a4.38,4.38,0,0,1-1.06.56,3.85,3.85,0,0,1-1.12.39,4.21,4.21,0,0,1,1-.55A3.81,3.81,0,0,1,51.56,74.05Z"></path> <path class="cls-16" d="M53.1,69.39a5,5,0,0,1-.72-1.11,5.14,5.14,0,0,1-.56-1.2,5.63,5.63,0,0,1,.72,1.12A5.18,5.18,0,0,1,53.1,69.39Z"></path> <path class="cls-16" d="M54.18,71.27a8.33,8.33,0,0,1-1.07.09,8.22,8.22,0,0,1-1.07.13,2.05,2.05,0,0,1,1.05-.3A2.16,2.16,0,0,1,54.18,71.27Z"></path> <path class="cls-16" d="M58,70.23a9.12,9.12,0,0,1-.75-1c-.42-.53-.82-.9-.79-.94a2.69,2.69,0,0,1,.93.84A2.89,2.89,0,0,1,58,70.23Z"></path> <path class="cls-16" d="M57.08,73.41a2.36,2.36,0,0,1-.81.39,2.3,2.3,0,0,1-.86.23,2.37,2.37,0,0,1,.8-.39A2.33,2.33,0,0,1,57.08,73.41Z"></path> <path class="cls-16" d="M63.11,75.18a3.31,3.31,0,0,1-.22-1,2.9,2.9,0,0,1,0-1,5.55,5.55,0,0,1,.27,1.93Z"></path> <path class="cls-16" d="M63.94,71.39A4.21,4.21,0,0,1,64,70.25a3.74,3.74,0,0,1,.25-1.11,4.21,4.21,0,0,1-.08,1.14A3.63,3.63,0,0,1,63.94,71.39Z"></path> <path class="cls-16" d="M59.9,72.35a8.67,8.67,0,0,1-.56,1.58,9.57,9.57,0,0,1-.72,1.51,7.16,7.16,0,0,1,.56-1.58A7.87,7.87,0,0,1,59.9,72.35Z"></path> <path class="cls-16" d="M49.1,60.93a4,4,0,0,1-.25-1.15,3.7,3.7,0,0,1-.07-1.16,7.5,7.5,0,0,1,.32,2.31Z"></path> <path class="cls-16" d="M49.43,64.84s-.21-.26-.26-.65a1,1,0,0,1,.07-.7,2.57,2.57,0,0,1,.1.68C49.39,64.53,49.48,64.82,49.43,64.84Z"></path> <path class="cls-16" d="M50.2,79.73a2,2,0,0,1-.27-.78,1.91,1.91,0,0,1-.11-.82,2.24,2.24,0,0,1,.28.78A2,2,0,0,1,50.2,79.73Z"></path> <path class="cls-16" d="M54.76,79a4,4,0,0,1-1.12-.27,3.87,3.87,0,0,1-1.06-.44,4.25,4.25,0,0,1,1.12.27A3.7,3.7,0,0,1,54.76,79Z"></path> <path class="cls-16" d="M58.68,78.26s-.25.31-.62.61-.7.52-.73.48.24-.31.62-.61S58.65,78.22,58.68,78.26Z"></path> <path class="cls-16" d="M62.53,79.15a4.42,4.42,0,0,1-.93-.32,5.3,5.3,0,0,1-.93-.31,1.86,1.86,0,0,1,1,.15A2.14,2.14,0,0,1,62.53,79.15Z"></path> <path class="cls-16" d="M67,77.55s-.16.29-.37.62-.35.62-.4.6a1.19,1.19,0,0,1,.25-.69C66.72,77.73,67,77.52,67,77.55Z"></path> <path class="cls-16" d="M67.13,68.5a3.4,3.4,0,0,1-.24-1,3.78,3.78,0,0,1-.08-1.08,3.45,3.45,0,0,1,.25,1.05A3.15,3.15,0,0,1,67.13,68.5Z"></path> <path class="cls-16" d="M70.87,70.49a2.53,2.53,0,0,1-.82-.48,2.92,2.92,0,0,1-.72-.61,2.5,2.5,0,0,1,.82.47C70.58,70.17,70.9,70.45,70.87,70.49Z"></path> <path class="cls-16" d="M74.86,64.65a5.12,5.12,0,0,1,.35-1.31,5,5,0,0,1,.51-1.25,5.55,5.55,0,0,1-.35,1.31A5.06,5.06,0,0,1,74.86,64.65Z"></path> <path class="cls-16" d="M72.54,64.27a2.6,2.6,0,0,1-.81-.53c-.42-.33-.73-.63-.7-.67a2.73,2.73,0,0,1,.81.53C72.25,63.93,72.57,64.23,72.54,64.27Z"></path> <path class="cls-16" d="M73.71,59.71a2.73,2.73,0,0,1-.31.87,2.32,2.32,0,0,1-.47.8,2.73,2.73,0,0,1,.31-.87A2.32,2.32,0,0,1,73.71,59.71Z"></path> <path class="cls-16" d="M69.27,63.88a2.9,2.9,0,0,1-.71-1.67,3.48,3.48,0,0,1,.38.82A4,4,0,0,1,69.27,63.88Z"></path> <path class="cls-16" d="M72.73,55.34a2.14,2.14,0,0,1-1.28,1.22s.3-.27.65-.6S72.69,55.31,72.73,55.34Z"></path> <path class="cls-16" d="M69,55.92s-.29-.27-.55-.66a2.16,2.16,0,0,1-.41-.75s.29.26.55.65A2.07,2.07,0,0,1,69,55.92Z"></path> <path class="cls-16" d="M72.6,52.52a2.34,2.34,0,0,1-.78-.38c-.41-.24-.72-.48-.69-.52a2.43,2.43,0,0,1,.78.37C72.32,52.24,72.63,52.48,72.6,52.52Z"></path> <path class="cls-16" d="M75.07,55.66a5.31,5.31,0,0,1,0-1.35A4.78,4.78,0,0,1,75.23,53a5.63,5.63,0,0,1,0,1.35A5,5,0,0,1,75.07,55.66Z"></path> <path class="cls-16" d="M73.16,69.65a3.74,3.74,0,0,1,.34-1.16A4.47,4.47,0,0,1,74,67.4a4.1,4.1,0,0,1-.34,1.16A4.71,4.71,0,0,1,73.16,69.65Z"></path> <path class="cls-16" d="M76.58,70a4.24,4.24,0,0,1,.18-1.11,4.16,4.16,0,0,1,.35-1.07A7.25,7.25,0,0,1,76.58,70Z"></path> <path class="cls-16" d="M71.39,79a1.48,1.48,0,0,1-.51-.8,1.54,1.54,0,0,1-.09-.93,7,7,0,0,1,.26.88C71.21,78.65,71.43,79,71.39,79Z"></path> <path class="cls-16" d="M81.58,51.94a2.57,2.57,0,0,1-.14-1.16,2.51,2.51,0,0,1,.22-1.15,7.1,7.1,0,0,1,0,1.16A7.92,7.92,0,0,1,81.58,51.94Z"></path> <path class="cls-16" d="M79.54,49.63a2,2,0,0,1-.86-.14,2.27,2.27,0,0,1-.81-.3,2,2,0,0,1,.85.14A2.38,2.38,0,0,1,79.54,49.63Z"></path> <path class="cls-16" d="M79.91,46.55a4.25,4.25,0,0,1-.07-1.22A4.59,4.59,0,0,1,80,44.11,4.25,4.25,0,0,1,80,45.33,4.2,4.2,0,0,1,79.91,46.55Z"></path> <path class="cls-16" d="M78.18,45a2.69,2.69,0,0,1-1,0,2.73,2.73,0,0,1-1-.17,2.69,2.69,0,0,1,1,0A2.73,2.73,0,0,1,78.18,45Z"></path> <path class="cls-16" d="M76.78,41.73a2.16,2.16,0,0,1-.16-.86,2.2,2.2,0,0,1,0-.87,4.46,4.46,0,0,1,.13,1.73Z"></path> <path class="cls-16" d="M79.36,57.26a2.87,2.87,0,0,1-.68-.75,2.79,2.79,0,0,1-.54-.86,3.07,3.07,0,0,1,.68.75A3.55,3.55,0,0,1,79.36,57.26Z"></path> <path class="cls-16" d="M80.94,59.64a2.79,2.79,0,0,1,0-1,3,3,0,0,1,.17-1,2.79,2.79,0,0,1,0,1A2.7,2.7,0,0,1,80.94,59.64Z"></path> <path class="cls-16" d="M83.65,61.19a1.93,1.93,0,0,1-.8.18,1.78,1.78,0,0,1-.81,0,2.11,2.11,0,0,1,.79-.18A2,2,0,0,1,83.65,61.19Z"></path> <path class="cls-16" d="M84.92,63.11a1.85,1.85,0,0,1-.17.79,1.93,1.93,0,0,1-.34.75,1.88,1.88,0,0,1,.17-.8A1.91,1.91,0,0,1,84.92,63.11Z"></path> <path class="cls-16" d="M87,66s-.13.29-.2.66,0,.67-.07.69a.86.86,0,0,1-.1-.72C86.7,66.21,87,66,87,66Z"></path> <path class="cls-16" d="M87.75,61.25a8.05,8.05,0,0,1-1.06.09,6.79,6.79,0,0,1-1,.1,3.12,3.12,0,0,1,2.11-.19Z"></path> <path class="cls-16" d="M90,60.41a6.89,6.89,0,0,1-.12,1.06,7.29,7.29,0,0,1-.1,1.06,2.09,2.09,0,0,1-.07-1.08A2.14,2.14,0,0,1,90,60.41Z"></path> <path class="cls-16" d="M84.59,56.62a4.94,4.94,0,0,1,0-1.32A4.65,4.65,0,0,1,84.84,54a5,5,0,0,1,0,1.33A5,5,0,0,1,84.59,56.62Z"></path> <path class="cls-16" d="M83.32,54.22a2.26,2.26,0,0,1-.88-.08,2.12,2.12,0,0,1-.85-.26,2.4,2.4,0,0,1,.88.09A2.43,2.43,0,0,1,83.32,54.22Z"></path> <path class="cls-16" d="M84.42,50.65a2.34,2.34,0,0,1-.27-1.11,2.12,2.12,0,0,1,.13-1.13,11.19,11.19,0,0,1,0,1.12A9.91,9.91,0,0,1,84.42,50.65Z"></path> <path class="cls-16" d="M82.87,47.13s-.24.06-.52,0-.51-.1-.5-.15.24,0,.52,0S82.88,47.09,82.87,47.13Z"></path> <path class="cls-16" d="M87.5,53.61a1.31,1.31,0,0,1-.77-.23c-.39-.22-.61-.51-.58-.54s.3.18.67.39S87.51,53.56,87.5,53.61Z"></path> <path class="cls-16" d="M89.18,57.23a2.55,2.55,0,0,1-.79.5,2.35,2.35,0,0,1-.87.35,2.55,2.55,0,0,1,.79-.5A2.35,2.35,0,0,1,89.18,57.23Z"></path> <polygon class="cls-15" points="57.13 32.72 57.38 29.88 63.03 34.29 64.44 36.57 66.97 30.68 67.59 31.5 67.59 35.07 64.86 38.4 59.7 37.95 57.13 32.72"></polygon> <path class="cls-17" d="M62.79,34.64a1.59,1.59,0,0,1,0,.35c0,.25,0,.57-.07,1-.07.85-.16,2-.27,3.31l0,.2-.13-.16-1.25-1.52c-1.16-1.41-2.2-2.69-2.95-3.62l-.87-1.11a2.47,2.47,0,0,1-.31-.42,2.68,2.68,0,0,1,.36.38l.92,1.07c.77.92,1.82,2.18,3,3.59l1.25,1.52-.15.05c.14-1.31.25-2.45.34-3.3.05-.39.08-.7.11-1A1.66,1.66,0,0,1,62.79,34.64Z"></path> <path class="cls-17" d="M67.52,34.92a2.06,2.06,0,0,1,0,.57c0,.35-.09.86-.17,1.45l0,.36L67.16,37c-.1-.31-.2-.65-.29-1a16.3,16.3,0,0,1-.4-2.14,4,4,0,0,1-.06-.9,4.81,4.81,0,0,1,.18.88c.1.54.24,1.3.45,2.12.09.35.19.69.28,1h-.16c.09-.58.17-1.08.23-1.44A2.41,2.41,0,0,1,67.52,34.92Z"></path> <path class="cls-17" d="M67.15,54.24a1.32,1.32,0,0,1,0-.18c0-.14-.06-.31-.09-.52-.08-.47-.18-1.12-.31-1.9-.24-1.64-.57-3.85-.93-6.3s-.7-4.67-.94-6.3c-.12-.79-.22-1.43-.29-1.91,0-.21,0-.38-.07-.52a1.23,1.23,0,0,1,0-.18s0,.06.05.18.06.3.11.51c.08.45.2,1.1.34,1.9.28,1.61.63,3.83,1,6.29s.67,4.69.89,6.31l.24,1.91c0,.21,0,.39.06.52A.69.69,0,0,1,67.15,54.24Z"></path> <path class="cls-17" d="M62,37.31s0,.14-.09.26-.11.22-.16.21-.08-.15,0-.3S62,37.27,62,37.31Z"></path> <path class="cls-17" d="M67.2,35.42s-.08-.13-.08-.29,0-.29.1-.29.08.14.08.3S67.25,35.42,67.2,35.42Z"></path> <path class="cls-17" d="M66.43,33.09a6.23,6.23,0,0,1-.78,1.8,6.07,6.07,0,0,1-1.19,1.57s.5-.73,1-1.66S66.38,33.07,66.43,33.09Z"></path> <path class="cls-17" d="M64.57,36.67a4,4,0,0,1-1-.86,4,4,0,0,1-.81-1,6.49,6.49,0,0,1,.94.9A7,7,0,0,1,64.57,36.67Z"></path> <path class="cls-17" d="M66.05,41.84s-.15-.07-.16-.21,0-.22,0-.25.13.08.15.22S66.08,41.81,66.05,41.84Z"></path> <path class="cls-17" d="M66.56,45.22s-.09-.1-.1-.22,0-.24.06-.25.1.1.11.23S66.61,45.22,66.56,45.22Z"></path> <path class="cls-18" d="M65,20.24s.06.13.26.23a.7.7,0,0,0,.84-.14,1.19,1.19,0,0,0,.31-.55,3,3,0,0,0,0-.75c0-.55-.08-1.15-.12-1.77-.08-1.26-.14-2.4-.18-3.23,0-.41,0-.75,0-1s0-.36,0-.36a1.58,1.58,0,0,1,0,.36c0,.23.06.56.09,1,.07.83.15,2,.23,3.23,0,.62.08,1.22.11,1.77a2.34,2.34,0,0,1-.08.8,1.26,1.26,0,0,1-.36.6.81.81,0,0,1-.54.23.75.75,0,0,1-.42-.12A.45.45,0,0,1,65,20.24Z"></path> <path class="cls-18" d="M65.92,22.47a1.07,1.07,0,0,1-.61.24,2.29,2.29,0,0,1-1.55-.27,2.33,2.33,0,0,1-1-1.22,1.1,1.1,0,0,1-.09-.65s0,.25.2.6a2.33,2.33,0,0,0,2.43,1.42C65.68,22.55,65.91,22.44,65.92,22.47Z"></path> <path class="cls-18" d="M63.06,20.43c0,.05-.3,0-.59.16S62.08,21,62,21s0-.09,0-.21a.78.78,0,0,1,.34-.37.81.81,0,0,1,.48-.09C63,20.36,63.07,20.41,63.06,20.43Z"></path> <path class="cls-18" d="M67.32,28a1.25,1.25,0,0,1-.34.21,7.48,7.48,0,0,1-1,.44,7.87,7.87,0,0,1-7-1A6.48,6.48,0,0,1,58,27c-.19-.18-.28-.29-.27-.3a14.79,14.79,0,0,0,1.2.9,8.31,8.31,0,0,0,3.37,1.26,8.41,8.41,0,0,0,3.57-.28C66.8,28.27,67.31,28,67.32,28Z"></path> <path class="cls-18" d="M54.17,20.34a1.36,1.36,0,0,0,.36-.49,1,1,0,0,0,0-.63.57.57,0,0,0-.57-.38.34.34,0,0,0-.27.48l-.15.06A7.27,7.27,0,0,1,53.35,18a6.87,6.87,0,0,1,.33,1.35l.09.44-.24-.39a.5.5,0,0,1,.39-.73.69.69,0,0,1,.48.13.76.76,0,0,1,.26.36,1,1,0,0,1,0,.73.82.82,0,0,1-.3.38C54.24,20.34,54.17,20.35,54.17,20.34Z"></path> <path class="cls-9" d="M62.13,15.48c-.1,0-.18-.38-.18-.85s.07-.85.17-.85.17.38.18.85S62.23,15.48,62.13,15.48Z"></path> <path class="cls-9" d="M69.4,15.13c-.09,0-.18-.32-.19-.71s.07-.72.16-.72.18.31.19.71S69.5,15.12,69.4,15.13Z"></path> <path class="cls-3" d="M55.41,16.41a2.52,2.52,0,0,0-.15,1.78c.24.56,1.13.83,1.46.32a1.26,1.26,0,0,0,.13-.69c0-1.64,0-3.28,0-4.92a6.45,6.45,0,0,0,5-4.62,4.36,4.36,0,0,0,4.2.14,3,3,0,0,1,1.67-.61c.72.1,1.14.84,1.73,1.26a2.23,2.23,0,0,0,3.19-.87,2.81,2.81,0,0,0-1.3-3.33C70,4,68.2,4.18,66.58,4.38l-9,1.06A3.17,3.17,0,0,0,55.91,6a2.94,2.94,0,0,0-.85,1.54,22,22,0,0,0-.92,7,2.17,2.17,0,0,0,.77,1.92"></path> <path class="cls-3" d="M63.12,12.08c.05.24-.46.54-1.14.67s-1.27,0-1.32-.19.47-.54,1.15-.67S63.08,11.85,63.12,12.08Z"></path> <path class="cls-3" d="M70.28,12c0,.24-.47.4-1,.37s-1-.27-.94-.51.47-.4,1-.37S70.3,11.74,70.28,12Z"></path> <g class="cls-19"> <path class="cls-20" d="M62.62,11.18a3.24,3.24,0,1,1-3.53,2.94A3.24,3.24,0,0,1,62.62,11.18Z"></path> </g> <g class="cls-19"> <path class="cls-20" d="M70.58,10.88a3.25,3.25,0,1,1-3.53,2.94A3.24,3.24,0,0,1,70.58,10.88Z"></path> </g> <path class="cls-21" d="M67,14.73a2,2,0,0,1-.77.08,2,2,0,0,1-.76-.08,1.68,1.68,0,0,1,.76-.09A1.7,1.7,0,0,1,67,14.73Z"></path> <path class="cls-18" d="M78.27,80.07a5.48,5.48,0,0,1-.7-.83c-.4-.54-.94-1.29-1.49-2.15s-1-1.66-1.34-2.25a6.91,6.91,0,0,1-.47-1,7.32,7.32,0,0,1,.58.91c.35.57.83,1.36,1.38,2.22s1.07,1.61,1.44,2.16A9.93,9.93,0,0,1,78.27,80.07Z"></path> <path class="cls-18" d="M77.72,80a.6.6,0,0,1-.25,0,2.77,2.77,0,0,1-.65-.25,5.94,5.94,0,0,1-1.69-1.53c-.56-.68-1.06-1.31-1.42-1.76a4.65,4.65,0,0,1-.54-.77,5.56,5.56,0,0,1,.64.69c.38.43.89,1,1.45,1.73a7,7,0,0,0,1.62,1.53A5.6,5.6,0,0,0,77.72,80Z"></path> <polyline class="cls-4" points="83.71 82.09 92.47 60.07 121.82 60.61 113.57 81.47 83.71 82.09"></polyline> <polygon class="cls-22" points="93.82 60.09 84.85 82.09 113.57 81.47 121.82 60.61 93.82 60.09"></polygon> <path class="cls-23" d="M103.24,69.86a1.66,1.66,0,1,1-.26,2.56A1.84,1.84,0,0,1,103.24,69.86Z"></path> <path class="cls-24" d="M102.66,69.28c1.23-1.23,3-1.42,4-.42a3.21,3.21,0,0,1-4.44,4.44A2.89,2.89,0,0,1,102.66,69.28Z"></path> <g class="cls-1"> <path class="cls-2" d="M30.36,4.27A10.37,10.37,0,0,1,43.19,9.58a10.37,10.37,0,0,1-4.84,13,10.38,10.38,0,0,1-13.18-4.37,10.37,10.37,0,0,1,3.9-13.33"></path> </g> <path class="cls-25" d="M101.6,48a5.83,5.83,0,0,1,.58-2.43c1-1.5,2.32-1.13,3.64-.47a4.45,4.45,0,0,0,4.05.45c2.29-1,3.31-4.38,1.17-6-.69-.53-1.4.34-1.3,1,.15.92.6,1.94-.19,2.74-1.06,1.06-2.31.17-3.36-.31a4.39,4.39,0,0,0-3.53-.15c-2,.81-3.49,3.56-1.88,5.41a.49.49,0,0,0,.82-.22Z"></path> <path class="cls-26" d="M106.37,13.69a5.43,5.43,0,0,0,1.11,2.61c.36.54.79,1.28,1.43,1.5a1.85,1.85,0,0,0,1.74-.47c1-.68,2-1.4,3-2.11a1,1,0,0,0,.34-1.31c-.82-1.28-1.65-2.55-2.47-3.82a1,1,0,0,0-1.32-.34A26.88,26.88,0,0,0,107.1,12c-.77.73.2,1.87,1.09,1.42a27.08,27.08,0,0,0,3-2l-1.32-.34,2.48,3.81.35-1.32c-.56.4-1.13.79-1.69,1.2A10.56,10.56,0,0,1,109.36,16c-.19,0-.89-1.14-1.08-1.36a5.06,5.06,0,0,0-1.35-1.22.37.37,0,0,0-.56.32Z"></path> <path class="cls-27" d="M94.71,25.57c-1.35,1.29-1.9,3.25-.61,4.81a3.75,3.75,0,0,0,5,.62c3.62-2.73-.11-8.14-4-6.92a.76.76,0,0,0,.2,1.49,5.23,5.23,0,0,1,3.09.85,2.17,2.17,0,0,1,.18,3c-2,2.42-5.36-1.21-3.34-3.35a.37.37,0,0,0-.52-.53Z"></path> <path class="cls-28" d="M124.53,37.12c-.48,2.32-.87,4.65-1.24,7a.87.87,0,0,0,1,1c2.2-.32,4.39-.6,6.55-1.11a.79.79,0,0,0,.47-1.15,28.07,28.07,0,0,0-2.27-3.61,8.78,8.78,0,0,0-2.88-2.81c-.73-.33-1.68.38-1.18,1.18a21.93,21.93,0,0,0,2.52,2.68A17.46,17.46,0,0,1,130,43.68l.68-1.18c-2.29.19-4.53.62-6.79,1l1.07.82c.26-2.35.49-4.7.63-7.06a.54.54,0,0,0-1.06-.15Z"></path> <path class="cls-29" d="M119.08,32.11A35.32,35.32,0,0,0,120.15,25c0-.88-1.39-1.1-1.56-.21A33.61,33.61,0,0,0,118,32a.54.54,0,0,0,1,.14Z"></path> <path class="cls-29" d="M127,22.12,126.9,22a1,1,0,0,0-1.36,1.36l.1.12c.85.92,2.3-.53,1.38-1.37Z"></path> </g> </g> </svg> 