<?xml version="1.0" encoding="UTF-8"?> <svg xmlns="http://www.w3.org/2000/svg" xmlns:xlink="http://www.w3.org/1999/xlink" viewBox="0 0 181.01 319.66"> <defs> <style>.cls-1{fill:none;}.cls-2{isolation:isolate;}.cls-3{opacity:0.25;}.cls-11,.cls-3{mix-blend-mode:multiply;}.cls-15,.cls-4{fill:#3d3d3d;}.cls-5{fill:#e3707f;}.cls-6{fill:#e8947e;}.cls-7{fill:#8aa9fc;}.cls-8{fill:#6e3281;}.cls-9{fill:#e2adfc;}.cls-10{fill:#edc483;}.cls-11{opacity:0.1;}.cls-12{fill:#7f7f7f;}.cls-13{fill:#fff;}.cls-14{clip-path:url(#clip-path);}.cls-15,.cls-17,.cls-18,.cls-19,.cls-20,.cls-21{opacity:0.72;}.cls-16{fill:#f3f9ff;}.cls-17{fill:url(#Degradado_sin_nombre_15);}.cls-18{fill:url(#Degradado_sin_nombre_15-2);}.cls-19{fill:url(#Degradado_sin_nombre_15-3);}.cls-20{fill:url(#Degradado_sin_nombre_15-4);}.cls-21{fill:url(#Degradado_sin_nombre_15-5);}.cls-22{fill:#e9998f;}.cls-23{fill:#f9b9b4;}.cls-24{fill:#251a51;}.cls-25{fill:url(#Degradado_sin_nombre_22);}.cls-26{fill:#f4d3b9;}.cls-27{opacity:0.36;}.cls-28{fill:#4a4182;}.cls-29{fill:#171330;}</style> <clipPath id="clip-path" transform="translate(-4.77 -40.55)"> <path class="cls-1" d="M20.34,0H158.82a20.36,20.36,0,0,1,20.33,20.39v228H0V20.39A20.37,20.37,0,0,1,20.34,0Z"></path> </clipPath> <linearGradient id="Degradado_sin_nombre_15" x1="143.28" y1="33.54" x2="56.99" y2="113.15" gradientUnits="userSpaceOnUse"> <stop offset="0.05" stop-color="#9668f7"></stop> <stop offset="1" stop-color="#78d8fb"></stop> </linearGradient> <linearGradient id="Degradado_sin_nombre_15-2" x1="155.22" y1="46.41" x2="68.74" y2="126.19" xlink:href="#Degradado_sin_nombre_15"></linearGradient> <linearGradient id="Degradado_sin_nombre_15-3" x1="162.11" y1="52.61" x2="74.76" y2="133.2" xlink:href="#Degradado_sin_nombre_15"></linearGradient> <linearGradient id="Degradado_sin_nombre_15-4" x1="173.13" y1="65.94" x2="86.84" y2="145.55" xlink:href="#Degradado_sin_nombre_15"></linearGradient> <linearGradient id="Degradado_sin_nombre_15-5" x1="179.04" y1="71.48" x2="91.68" y2="152.08" xlink:href="#Degradado_sin_nombre_15"></linearGradient> <linearGradient id="Degradado_sin_nombre_22" x1="60.33" y1="150.47" x2="81.55" y2="206.64" gradientUnits="userSpaceOnUse"> <stop offset="0" stop-color="#e58f7e"></stop> <stop offset="0.14" stop-color="#e4857e"></stop> <stop offset="0.7" stop-color="#e0637f"></stop> <stop offset="1" stop-color="#de567f"></stop> </linearGradient> </defs> <title>Asset 3</title> <g class="cls-2"> <g id="Layer_2" data-name="Layer 2"> <g id="Objects"> <g class="cls-3"> <path class="cls-4" d="M104.76,79.45c-.61-1.77-.78-3.65,1-4.52,1.3-.65,2.38.13,3.71.36a4.49,4.49,0,0,0,4.15-1.37c2.12-2.27,1.89-7.22-1.26-8.18a1.1,1.1,0,0,0-1.12,1.64c.61,1,1.6,2.05,1.33,3.4-.42,2-2.4,1.92-3.77,1.57-1.55-.39-3-.67-4.42.25-2.47,1.56-3.24,5.59-.88,7.68a.79.79,0,0,0,1.28-.83Z" transform="translate(-4.77 -40.55)"></path> </g> <path class="cls-5" d="M102.76,77.45c-.61-1.77-.78-3.65,1-4.52,1.3-.65,2.38.13,3.71.36a4.49,4.49,0,0,0,4.15-1.37c2.12-2.27,1.89-7.22-1.26-8.18a1.1,1.1,0,0,0-1.12,1.64c.61,1,1.6,2.05,1.33,3.4-.42,2-2.4,1.92-3.77,1.57-1.55-.39-3-.67-4.42.25-2.47,1.56-3.24,5.59-.88,7.68a.79.79,0,0,0,1.28-.83Z" transform="translate(-4.77 -40.55)"></path> <g class="cls-3"> <path class="cls-4" d="M126.77,75.46c1.35-.44,2.39-1.63,3.43-2.56l3.68-3.26c1-.92-.48-2.42-1.5-1.51l-3.46,3.12c-1,.94-2.39,1.85-3,3.14-.24.53.17,1.29.83,1.07Z" transform="translate(-4.77 -40.55)"></path> </g> <path class="cls-6" d="M124.77,73.46c1.35-.44,2.39-1.63,3.43-2.56l3.68-3.26c1-.92-.48-2.42-1.5-1.51l-3.46,3.12c-1,.94-2.39,1.85-3,3.14-.24.53.17,1.29.83,1.07Z" transform="translate(-4.77 -40.55)"></path> <g class="cls-3"> <path class="cls-4" d="M149.22,60.52c-3.08.44-5.2,3.26-4,6.39a5.38,5.38,0,0,0,7.61,2.65A5.47,5.47,0,0,0,154.38,62c-1.66-2.3-5.81-3.13-7.68-.68-.59.77.39,1.92,1.25,1.63,1.51-.51,2.92-1.16,4.32.09a3,3,0,0,1-.33,4.44,3.17,3.17,0,0,1-4.5-1c-.93-1.67.25-4.48,2-5.19a.36.36,0,0,0-.19-.7Z" transform="translate(-4.77 -40.55)"></path> </g> <path class="cls-7" d="M147.22,58.52c-3.08.44-5.2,3.26-4,6.39a5.38,5.38,0,0,0,7.61,2.65A5.47,5.47,0,0,0,152.38,60c-1.66-2.3-5.81-3.13-7.68-.68-.59.77.39,1.92,1.25,1.63,1.51-.51,2.92-1.16,4.32.09a3,3,0,0,1-.33,4.44,3.17,3.17,0,0,1-4.5-1c-.93-1.67.25-4.48,2-5.19a.36.36,0,0,0-.19-.7Z" transform="translate(-4.77 -40.55)"></path> <g class="cls-3"> <path class="cls-4" d="M113.93,51.77a28.08,28.08,0,0,0,2.78-7.7c.18-1.2-1.5-2.22-2.15-.91a28.45,28.45,0,0,0-2.15,8c-.13.85,1.08,1.57,1.52.65Z" transform="translate(-4.77 -40.55)"></path> </g> <path class="cls-8" d="M111.93,49.77a28.08,28.08,0,0,0,2.78-7.7c.18-1.2-1.5-2.22-2.15-.91a28.45,28.45,0,0,0-2.15,8c-.13.85,1.08,1.57,1.52.65Z" transform="translate(-4.77 -40.55)"></path> <g class="cls-3"> <path class="cls-4" d="M139.34,55.65a.69.69,0,0,0,0-1.38.69.69,0,0,0,0,1.38Z" transform="translate(-4.77 -40.55)"></path> </g> <path class="cls-9" d="M137.34,53.65a.69.69,0,0,0,0-1.38.69.69,0,0,0,0,1.38Z" transform="translate(-4.77 -40.55)"></path> <g class="cls-3"> <path class="cls-4" d="M98.52,45c-1.17,2.31-3,5.1-3.29,7.73-.3,3.2,3.08,2.23,5,1.8s6.11-.58,5.59-3.42c-.23-1.27-1.53-2.25-2.37-3.11-1.2-1.26-2.41-2.51-3.61-3.76s-3.18.7-1.93,1.93l2.8,2.73c.52.51,2.74,2.13,2.63,3l.36-.87c-.63.79-2.86.95-3.79,1.18-.62.15-1.29.26-1.89.47-1,.34-.5.15-.29-.68a56,56,0,0,0,1.53-6.64c0-.4-.5-.75-.73-.31Z" transform="translate(-4.77 -40.55)"></path> </g> <path class="cls-10" d="M96.52,43c-1.17,2.31-3,5.1-3.29,7.73-.3,3.2,3.08,2.23,5,1.8s6.11-.58,5.59-3.42c-.23-1.27-1.53-2.25-2.37-3.11-1.2-1.26-2.41-2.51-3.61-3.76s-3.18.7-1.93,1.93l2.8,2.73c.52.51,2.74,2.13,2.63,3l.36-.87c-.63.79-2.86.95-3.79,1.18-.62.15-1.29.26-1.89.47-1,.34-.5.15-.29-.68a56,56,0,0,0,1.53-6.64c0-.4-.5-.75-.73-.31Z" transform="translate(-4.77 -40.55)"></path> <g class="cls-11"> <path class="cls-12" d="M14.76,84.26l2.93,17.16a1.35,1.35,0,0,0,1.43,1.12l25.74-1.28,2.62,4.07.05-4.24,5.12-.33a1.36,1.36,0,0,0,1.41-1.31l.56-15.37a1.34,1.34,0,0,0-1.35-1.4H16.09A1.34,1.34,0,0,0,14.76,84.26Z" transform="translate(-4.77 -40.55)"></path> <rect class="cls-12" x="16.17" y="48.86" width="29.72" height="1.38" rx="0.58"></rect> <rect class="cls-12" x="16.48" y="52.07" width="18.41" height="1.38" rx="0.58"></rect> </g> <path class="cls-10" d="M10.76,80.26l2.93,17.16a1.35,1.35,0,0,0,1.43,1.12l25.74-1.28,2.62,4.07.05-4.24,5.12-.33a1.36,1.36,0,0,0,1.41-1.31l.56-15.37a1.34,1.34,0,0,0-1.35-1.4H12.09A1.34,1.34,0,0,0,10.76,80.26Z" transform="translate(-4.77 -40.55)"></path> <rect class="cls-13" x="12.17" y="44.86" width="29.72" height="1.38" rx="0.58"></rect> <rect class="cls-13" x="12.48" y="48.07" width="18.41" height="1.38" rx="0.58"></rect> <g class="cls-14"> <g class="cls-3"> <rect class="cls-4" x="59.5" y="43.17" width="121.51" height="90.59" rx="3.89"></rect> <rect class="cls-4" x="92.22" y="65.82" width="14.8" height="44.51" rx="1.56"></rect> <rect class="cls-4" x="73.52" y="65.82" width="14.8" height="44.51" rx="1.56"></rect> <rect class="cls-15" x="73.52" y="83.78" width="14.8" height="26.55" rx="1.56"></rect> <rect class="cls-15" x="92.22" y="97.06" width="14.8" height="13.28" rx="1.56"></rect> <rect class="cls-4" x="110.91" y="65.82" width="14.8" height="44.51" rx="1.56"></rect> <rect class="cls-4" x="129.61" y="65.82" width="14.8" height="44.51" rx="1.56"></rect> <rect class="cls-4" x="148.3" y="65.82" width="14.8" height="44.51" rx="1.56"></rect> <rect class="cls-15" x="110.91" y="87.69" width="14.8" height="22.65" rx="1.56"></rect> <rect class="cls-15" x="129.61" y="100.18" width="14.8" height="10.15" rx="1.56"></rect> <rect class="cls-15" x="148.3" y="87.69" width="14.8" height="22.65" rx="1.56"></rect> <rect class="cls-4" x="73.52" y="116.58" width="89.58" height="2.34"></rect> <rect class="cls-4" x="73.52" y="121.27" width="48.29" height="2.34"></rect> <rect class="cls-4" x="73.52" y="54.89" width="18.69" height="2.34"></rect> </g> <rect class="cls-13" x="56.39" y="40.06" width="121.51" height="90.59" rx="3.89"></rect> <rect class="cls-16" x="89.1" y="62.7" width="14.8" height="44.51" rx="1.56"></rect> <rect class="cls-16" x="70.41" y="62.7" width="14.8" height="44.51" rx="1.56"></rect> <rect class="cls-17" x="70.41" y="80.66" width="14.8" height="26.55" rx="1.56"></rect> <rect class="cls-18" x="89.1" y="93.94" width="14.8" height="13.28" rx="1.56"></rect> <rect class="cls-16" x="107.8" y="62.7" width="14.8" height="44.51" rx="1.56"></rect> <rect class="cls-16" x="126.49" y="62.7" width="14.8" height="44.51" rx="1.56"></rect> <rect class="cls-16" x="145.18" y="62.7" width="14.8" height="44.51" rx="1.56"></rect> <rect class="cls-19" x="107.8" y="84.57" width="14.8" height="22.65" rx="1.56"></rect> <rect class="cls-20" x="126.49" y="97.06" width="14.8" height="10.15" rx="1.56"></rect> <rect class="cls-21" x="145.18" y="84.57" width="14.8" height="22.65" rx="1.56"></rect> <rect class="cls-16" x="70.41" y="113.46" width="89.58" height="2.34"></rect> <rect class="cls-16" x="70.41" y="118.15" width="48.29" height="2.34"></rect> <rect class="cls-22" x="70.41" y="51.77" width="18.69" height="2.34"></rect> <g class="cls-3"> <path class="cls-4" d="M115.86,99.81s3.86-9.72,4.44-8.81-.46,2.26-.24,4.63c0,0,7.11-8.58,7.49-7.59s-4,6.78-3.93,6.91,5.28-5.94,5.82-5.26-4.29,6.3-4.29,6.3,4.9-4.88,5.52-4.19-3.88,5.2-3.88,5.2,3.81-3.74,4.36-3.11c.34.38-9.3,12.46-9,12.72s-6.26-6.8-6.26-6.8" transform="translate(-4.77 -40.55)"></path> <path class="cls-4" d="M34.35,217.11c.4,2.51,4.82,86.23,10,140.62H65S54.8,232.21,57.21,232c2.79-.24,26.3,125.73,26.3,125.73H103.2l-30-144.27Z" transform="translate(-4.77 -40.55)"></path> <path class="cls-4" d="M116.76,97.27s-17.37,20.8-26.88,29.57S61.09,147,61.09,147l0,0c-4.51.88-7.52,1.77-9.56,2.32-6.34,1.71-7.75,1.92-12.12,3.63a37.41,37.41,0,0,0-19,16.4C14.44,180.08,6.78,197,8,211.86c1.33,16.07,14.9,11.26,24.77,5.46l.06.66H75.11V169.23s0-.49-.06-1.31l.06.09s15.36-18.63,22.59-25.87c12.32-12.32,26.22-35.76,26.22-35.76ZM26.88,200.91l4.84-19.77c.32,3.4-1.36,14.88-1.06,18.07Z" transform="translate(-4.77 -40.55)"></path> <path class="cls-4" d="M45.73,150.8s-2.76,12.81,1.1,10.95,6.74-3.56,6.74-3.56,3.85,4.74,5.71,1.85-1.77-12.32-1.77-12.32Z" transform="translate(-4.77 -40.55)"></path> <path class="cls-4" d="M42.49,122.25,43.38,134s-4.39.59-3.14,4.61,4.26,2.25,4.26,2.25.75,10.29,11.26,7,7-19.57,6-29.36Z" transform="translate(-4.77 -40.55)"></path> <path class="cls-4" d="M43.38,138.25l2.83,15.15a6.06,6.06,0,0,0,7.36,4.79h0a6.06,6.06,0,0,0,4.56-7l-1.53-8.68Z" transform="translate(-4.77 -40.55)"></path> <path class="cls-4" d="M44.9,206.45a2.51,2.51,0,0,1-.43.6c-.29.37-.74.89-1.31,1.51a49.44,49.44,0,0,1-4.77,4.55A52.16,52.16,0,0,1,33.06,217c-.72.44-1.31.79-1.72,1a2.7,2.7,0,0,1-.67.32,26.81,26.81,0,0,1,2.24-1.56c1.38-1,3.26-2.31,5.23-4s3.65-3.25,4.83-4.45S44.86,206.41,44.9,206.45Z" transform="translate(-4.77 -40.55)"></path> <path class="cls-4" d="M23.73,206a12,12,0,0,1,1.32-2.68,11.64,11.64,0,0,1,1.64-2.49,12.22,12.22,0,0,1-1.31,2.68A11.88,11.88,0,0,1,23.73,206Z" transform="translate(-4.77 -40.55)"></path> <path class="cls-4" d="M26.6,201.16a8.68,8.68,0,0,1,1.09-.56l3-1.44c2.55-1.21,6.05-2.9,9.89-4.84l1.85-.95.24-.12,0,.26c.55,3.78,1,7.13,1.34,9.53.14,1.16.26,2.11.35,2.84a6.49,6.49,0,0,1,.09,1,5,5,0,0,1-.22-1l-.47-2.82c-.39-2.39-.9-5.73-1.46-9.52l.27.14-1.86,1c-3.84,2-7.37,3.6-9.95,4.75-1.28.57-2.33,1-3.06,1.32A6.79,6.79,0,0,1,26.6,201.16Z" transform="translate(-4.77 -40.55)"></path> <path class="cls-4" d="M26.88,200.63a12.48,12.48,0,0,1-2.2,2.14,12.57,12.57,0,0,1-2.46,1.85,12.78,12.78,0,0,1,2.21-2.14A12.36,12.36,0,0,1,26.88,200.63Z" transform="translate(-4.77 -40.55)"></path> <path class="cls-4" d="M55.1,218.16c-.11,0-.57-13-1-28.95s-.77-29-.67-29,.57,13,1,29S55.2,218.16,55.1,218.16Z" transform="translate(-4.77 -40.55)"></path> <path class="cls-4" d="M43.11,196.16s8.49-6.09,8.48-5-1.6,1.65-2.69,3.76c0,0,10.61-3.37,10.39-2.33s-7,3.53-7,3.7S59.9,194.13,60,195s-7,3-7,3,6.75-1.46,6.9-.54-6.07,2.27-6.07,2.27,5.23-1.08,5.35-.25c.08.51-14.54,5.44-14.45,5.81,0,.19-1.61-9.11-1.61-9.11" transform="translate(-4.77 -40.55)"></path> <path class="cls-4" d="M122.14,108.75a46.87,46.87,0,0,1-4.35-4,45.6,45.6,0,0,1-4.08-4.32,46.68,46.68,0,0,1,4.35,4.05A47.41,47.41,0,0,1,122.14,108.75Z" transform="translate(-4.77 -40.55)"></path> <path class="cls-4" d="M55.06,138.43s.11.12.35.17a.92.92,0,0,0,.9-.36,2.33,2.33,0,0,0,.18-1.56c-.06-.66-.13-1.36-.2-2.09-.13-1.48-.22-2.83-.28-3.8a6.69,6.69,0,0,1,0-1.59,7,7,0,0,1,.27,1.56c.12,1,.26,2.31.39,3.8.06.73.12,1.43.17,2.09a2.44,2.44,0,0,1-.32,1.75,1.06,1.06,0,0,1-1.15.35C55.08,138.62,55,138.42,55.06,138.43Z" transform="translate(-4.77 -40.55)"></path> <path class="cls-4" d="M58.86,146.46a3.71,3.71,0,0,1-1.27.95,8.25,8.25,0,0,1-3.7,1,8.05,8.05,0,0,1-3.73-.82,3.69,3.69,0,0,1-1.31-.89s.54.29,1.42.65a9.26,9.26,0,0,0,3.62.68,9.17,9.17,0,0,0,3.58-.83C58.34,146.77,58.82,146.41,58.86,146.46Z" transform="translate(-4.77 -40.55)"></path> <path class="cls-4" d="M56.37,140.55s-.12.34-.58.64a2.43,2.43,0,0,1-3.6-1.16c-.2-.51-.14-.86-.1-.86s.1.32.34.75a2.6,2.6,0,0,0,1.4,1.19,2.57,2.57,0,0,0,1.83-.15C56.1,140.75,56.32,140.51,56.37,140.55Z" transform="translate(-4.77 -40.55)"></path> <path class="cls-4" d="M52.6,139c0,.11-.4.2-.78.5s-.57.66-.67.63,0-.55.44-.93S52.62,138.87,52.6,139Z" transform="translate(-4.77 -40.55)"></path> <path class="cls-4" d="M43.05,139.07s-.26.13-.68,0a1,1,0,0,1-.57-.57.88.88,0,0,1,0-.51.66.66,0,0,1,.4-.43.62.62,0,0,1,.78.23l-.32.16a4,4,0,0,1-.47-1.51,4.19,4.19,0,0,1,.8,1.37l-.32.16a.3.3,0,0,0-.33-.06.36.36,0,0,0-.18.48.71.71,0,0,0,.34.43C42.79,139,43.06,139,43.05,139.07Z" transform="translate(-4.77 -40.55)"></path> <path class="cls-4" d="M60,131.8c-.1,0-.27-.33-.37-.78s-.11-.85,0-.87.27.32.37.78S60.1,131.78,60,131.8Z" transform="translate(-4.77 -40.55)"></path> <path class="cls-4" d="M51.69,132.63c-.1,0-.29-.32-.42-.78s-.14-.85,0-.88.28.32.41.78S51.79,132.61,51.69,132.63Z" transform="translate(-4.77 -40.55)"></path> <path class="cls-4" d="M42.42,134.22a29.77,29.77,0,0,1-2.1-9.44,10.57,10.57,0,0,1,.2-4.08A4.68,4.68,0,0,1,43,117.63c1.8-.75,3.95.05,5.78-.63a6.38,6.38,0,0,0,2.38-1.78,17.07,17.07,0,0,1,2.11-2.14,3.65,3.65,0,0,1,2.8-.81,2.09,2.09,0,0,1,1.74,2.11,5.18,5.18,0,1,1,8.55,5.77c-1.12,1.39-3.19,1.46-4.59,2.58-2.94,2.34-7.55,2.83-12.19,1.76-2-.46-4.43.33-4.84,2.36a35.27,35.27,0,0,0,0,4.48,3.71,3.71,0,0,1-.41,2.21,1.59,1.59,0,0,1-2,.68" transform="translate(-4.77 -40.55)"></path> <path class="cls-4" d="M51.14,128.86c-.1.31-.53.44-1,.57s-.89.2-1.13,0-.11-.32,0-.54a1.39,1.39,0,0,1,.81-.56,1.36,1.36,0,0,1,1,.09C51.09,128.53,51.18,128.71,51.14,128.86Z" transform="translate(-4.77 -40.55)"></path> <path class="cls-4" d="M60.23,127.42c-.13.29-.64.35-1.17.41s-1.05.06-1.23-.2.28-.87,1.13-.94S60.37,127.14,60.23,127.42Z" transform="translate(-4.77 -40.55)"></path> <path class="cls-4" d="M41.41,209.81a70.58,70.58,0,0,1-1.69-7.09,69.4,69.4,0,0,1-1.31-7.16,70.78,70.78,0,0,1,1.69,7.08A72.68,72.68,0,0,1,41.41,209.81Z" transform="translate(-4.77 -40.55)"></path> <path class="cls-4" d="M41,197.05c0,.1-.29.33-.74.51s-.84.26-.88.16.29-.33.74-.51S40.91,197,41,197.05Z" transform="translate(-4.77 -40.55)"></path> <path class="cls-4" d="M68.41,171.63a24.13,24.13,0,0,1-4.06.92,21.77,21.77,0,0,1-4.12.55,22.74,22.74,0,0,1,4.06-.92A21.77,21.77,0,0,1,68.41,171.63Z" transform="translate(-4.77 -40.55)"></path> <path class="cls-4" d="M28.88,159.88a.58.58,0,0,1,.25.05,4.74,4.74,0,0,1,.69.25A7.75,7.75,0,0,1,32,161.69,9.89,9.89,0,0,1,34.27,165a12.39,12.39,0,0,1,.85,4.82,22.39,22.39,0,0,1-2.18,8.54c-.46,1-.86,1.85-1.15,2.42a4.56,4.56,0,0,1-.48.85,5,5,0,0,1,.35-.92l1-2.45a23.88,23.88,0,0,0,2.05-8.45,12.43,12.43,0,0,0-.79-4.68,9.82,9.82,0,0,0-2.1-3.25A10,10,0,0,0,28.88,159.88Z" transform="translate(-4.77 -40.55)"></path> <path class="cls-4" d="M54,352.41s0-.11-.05-.34l-.12-1c-.11-.91-.25-2.22-.44-3.9-.37-3.39-.88-8.3-1.46-14.36-1.17-12.14-2.59-28.91-3.83-47.47s-2-35.38-2.47-47.56c-.22-6.09-.37-11-.45-14.43,0-1.69-.06-3-.08-3.92,0-.44,0-.78,0-1s0-.35,0-.35a3.23,3.23,0,0,1,0,.35c0,.24,0,.58.05,1,0,.91.09,2.23.15,3.92.14,3.42.33,8.34.57,14.42.51,12.17,1.36,29,2.58,47.55s2.62,35.33,3.72,47.46c.56,6.06,1,11,1.34,14.37.15,1.68.28,3,.36,3.91q.06.65.09,1C54,352.29,54,352.41,54,352.41Z" transform="translate(-4.77 -40.55)"></path> <path class="cls-4" d="M64.38,351.63c0,.11-4.55.54-10.19,1s-10.21.68-10.22.58,4.55-.53,10.19-1S64.37,351.53,64.38,351.63Z" transform="translate(-4.77 -40.55)"></path> <path class="cls-4" d="M91.35,353.17s0-.12-.09-.35-.12-.58-.22-1c-.18-.92-.45-2.24-.79-3.94-.69-3.42-1.64-8.39-2.78-14.52-2.29-12.28-5.26-29.27-8.66-48s-6.71-35.67-9.32-47.88c-.63-3-1.26-5.81-1.79-8.23s-1-4.5-1.39-6.2-.68-3-.89-3.92c-.09-.44-.17-.78-.22-1a3.36,3.36,0,0,1-.06-.36s0,.12.1.35l.26,1,1,3.9c.42,1.7.92,3.78,1.46,6.2s1.19,5.16,1.84,8.22c2.69,12.19,6,29.11,9.44,47.86s6.35,35.72,8.55,48c1.12,6.13,2,11.09,2.65,14.54.32,1.71.56,3,.73,4,.08.44.14.78.18,1S91.35,353.17,91.35,353.17Z" transform="translate(-4.77 -40.55)"></path> <path class="cls-4" d="M103,353.37c0,.11-4.46.19-10,.18s-10-.1-10-.2,4.47-.19,10-.18S103,353.27,103,353.37Z" transform="translate(-4.77 -40.55)"></path> <path class="cls-4" d="M40.91,218.44a4.15,4.15,0,0,1,.43,1.81,7.59,7.59,0,0,1-4.24,7.41,4,4,0,0,1-1.77.54c0-.07.68-.23,1.65-.78a8.08,8.08,0,0,0,3.05-3,8.19,8.19,0,0,0,1-4.16C41.05,219.14,40.85,218.46,40.91,218.44Z" transform="translate(-4.77 -40.55)"></path> <path class="cls-4" d="M59.61,230.19s0,.25-.33.55a1.85,1.85,0,0,1-1.71.42,1.58,1.58,0,0,1-1-.77,4,4,0,0,1-.4-1.37c-.15-1-.32-2-.49-3.11-.33-2.21-.62-4.22-.8-5.67a12.83,12.83,0,0,1-.22-2.36,15,15,0,0,1,.48,2.32c.26,1.44.58,3.44.92,5.65l.45,3.12a3.88,3.88,0,0,0,.34,1.26,1.3,1.3,0,0,0,.81.67,1.74,1.74,0,0,0,1.54-.27C59.49,230.39,59.58,230.17,59.61,230.19Z" transform="translate(-4.77 -40.55)"></path> <path class="cls-4" d="M76,226.17s-.16,0-.46,0a5.61,5.61,0,0,1-1.25-.2,7.75,7.75,0,0,1-1.75-.71,9.89,9.89,0,0,1-1.84-1.39,9.54,9.54,0,0,1-1.4-1.84,7.82,7.82,0,0,1-.72-1.75,5.87,5.87,0,0,1-.22-1.25,1.27,1.27,0,0,1,0-.46c.07,0,.12.65.45,1.63a9.51,9.51,0,0,0,.77,1.65A10.08,10.08,0,0,0,71,223.62,9.57,9.57,0,0,0,72.72,225a8.73,8.73,0,0,0,1.65.76C75.35,226.06,76,226.1,76,226.17Z" transform="translate(-4.77 -40.55)"></path> <path class="cls-4" d="M48.1,357.73s19.58,3.34,18.65,2.27a14.18,14.18,0,0,0-3.22-2.27Z" transform="translate(-4.77 -40.55)"></path> <path class="cls-4" d="M86.35,357.73S105.93,361.07,105,360a14.18,14.18,0,0,0-3.22-2.27Z" transform="translate(-4.77 -40.55)"></path> </g> <path class="cls-23" d="M112.74,96.69s3.86-9.72,4.44-8.8-.46,2.26-.24,4.62c0,0,7.12-8.58,7.49-7.58s-4,6.78-3.92,6.91,5.27-5.94,5.81-5.27S122,92.88,122,92.88s4.89-4.88,5.51-4.19-3.88,5.19-3.88,5.19,3.81-3.74,4.37-3.11c.34.39-9.31,12.46-9,12.72s-6.26-6.8-6.26-6.8" transform="translate(-4.77 -40.55)"></path> <path class="cls-24" d="M31.24,214c.4,2.52,4.82,86.23,10,140.63H61.88s-10.2-125.53-7.79-125.74c2.79-.24,26.31,125.74,26.31,125.74h19.69l-30-144.28Z" transform="translate(-4.77 -40.55)"></path> <path class="cls-25" d="M113.65,94.16S96.27,115,86.76,123.73,58,143.89,58,143.89l0,0c-4.51.89-7.51,1.77-9.56,2.32-6.34,1.71-7.74,1.92-12.11,3.64a37.3,37.3,0,0,0-19,16.4c-6,10.7-13.68,27.56-12.45,42.47,1.34,16.07,14.91,11.26,24.77,5.47,0,.42.06.65.06.65H72V166.11s0-.48-.06-1.3l.06.08S87.36,146.26,94.59,139c12.31-12.32,26.22-35.76,26.22-35.76ZM23.77,197.79,28.6,178c.32,3.4-1.36,14.89-1.06,18.08Z" transform="translate(-4.77 -40.55)"></path> <path class="cls-26" d="M42.61,147.68s-2.76,12.82,1.11,10.95,6.74-3.56,6.74-3.56,3.85,4.75,5.71,1.86S54.4,144.6,54.4,144.6Z" transform="translate(-4.77 -40.55)"></path> <path class="cls-23" d="M39.38,119.14l.88,11.7s-4.39.59-3.14,4.61,4.26,2.26,4.26,2.26.75,10.29,11.26,7,7-19.58,6-29.37Z" transform="translate(-4.77 -40.55)"></path> <path class="cls-23" d="M40.26,135.14l2.84,15.14a6,6,0,0,0,7.36,4.79h0a6.07,6.07,0,0,0,4.56-7l-1.54-8.68Z" transform="translate(-4.77 -40.55)"></path> <g class="cls-27"> <path class="cls-24" d="M41.79,203.34a3.1,3.1,0,0,1-.43.59c-.3.37-.74.89-1.31,1.52A51,51,0,0,1,35.27,210a49.65,49.65,0,0,1-5.33,3.89c-.71.45-1.3.8-1.72,1a2.44,2.44,0,0,1-.66.31c0-.05.85-.6,2.23-1.56s3.27-2.31,5.24-4,3.64-3.25,4.82-4.44A27.08,27.08,0,0,1,41.79,203.34Z" transform="translate(-4.77 -40.55)"></path> </g> <g class="cls-27"> <path class="cls-24" d="M20.62,202.84a11.44,11.44,0,0,1,1.31-2.69,11.77,11.77,0,0,1,1.65-2.49,11.58,11.58,0,0,1-1.32,2.68A12.35,12.35,0,0,1,20.62,202.84Z" transform="translate(-4.77 -40.55)"></path> </g> <g class="cls-27"> <path class="cls-24" d="M23.48,198.05a6.63,6.63,0,0,1,1.09-.57l3-1.43c2.54-1.21,6.05-2.9,9.88-4.85l1.86-.95.23-.12,0,.26c.55,3.79,1,7.13,1.34,9.54.15,1.15.27,2.1.36,2.83a4.75,4.75,0,0,1,.08,1,6.77,6.77,0,0,1-.22-1L40.69,200c-.38-2.39-.9-5.73-1.46-9.51l.27.14-1.86.95c-3.84,2-7.37,3.6-9.94,4.75-1.29.58-2.34,1-3.07,1.33A8.14,8.14,0,0,1,23.48,198.05Z" transform="translate(-4.77 -40.55)"></path> </g> <g class="cls-27"> <path class="cls-24" d="M23.77,197.51a13,13,0,0,1-2.21,2.15,12.69,12.69,0,0,1-2.45,1.85,12.48,12.48,0,0,1,2.2-2.14A12.4,12.4,0,0,1,23.77,197.51Z" transform="translate(-4.77 -40.55)"></path> </g> <g class="cls-27"> <path class="cls-24" d="M52,215.05c-.1,0-.57-13-1-29s-.77-29-.66-29,.57,13,1,29S52.09,215,52,215.05Z" transform="translate(-4.77 -40.55)"></path> </g> <path class="cls-23" d="M40,193s8.49-6.09,8.49-5-1.61,1.65-2.7,3.76c0,0,10.62-3.37,10.39-2.33s-7,3.53-7,3.69,7.64-2.15,7.73-1.28-7,3-7,3,6.75-1.45,6.91-.54-6.07,2.27-6.07,2.27,5.22-1.08,5.35-.25c.08.51-14.54,5.45-14.46,5.81,0,.19-1.61-9.11-1.61-9.11" transform="translate(-4.77 -40.55)"></path> <g class="cls-27"> <path class="cls-24" d="M119,105.63a46.68,46.68,0,0,1-4.35-4,45.76,45.76,0,0,1-4.08-4.32,48.41,48.41,0,0,1,4.35,4A45.6,45.6,0,0,1,119,105.63Z" transform="translate(-4.77 -40.55)"></path> </g> <path class="cls-24" d="M51.94,135.31s.12.12.36.18a.91.91,0,0,0,.89-.37,2.33,2.33,0,0,0,.19-1.56c-.06-.66-.13-1.36-.2-2.09-.13-1.48-.23-2.82-.28-3.8a7,7,0,0,1,0-1.58,5.81,5.81,0,0,1,.28,1.56c.12,1,.26,2.31.39,3.79.06.73.11,1.43.17,2.09a2.48,2.48,0,0,1-.32,1.75,1.06,1.06,0,0,1-1.16.35C52,135.51,51.93,135.31,51.94,135.31Z" transform="translate(-4.77 -40.55)"></path> <path class="cls-24" d="M55.74,143.34a3.44,3.44,0,0,1-1.27.95,8,8,0,0,1-3.69,1,8.22,8.22,0,0,1-3.74-.82,4,4,0,0,1-1.31-.89c0-.06.54.28,1.42.64a8.85,8.85,0,0,0,7.2-.15C55.22,143.65,55.71,143.29,55.74,143.34Z" transform="translate(-4.77 -40.55)"></path> <path class="cls-24" d="M53.25,137.43s-.12.34-.58.65a2.45,2.45,0,0,1-3.6-1.16c-.2-.52-.14-.87-.1-.86s.11.31.35.74A2.51,2.51,0,0,0,50.71,138a2.56,2.56,0,0,0,1.83-.15C53,137.63,53.2,137.39,53.25,137.43Z" transform="translate(-4.77 -40.55)"></path> <path class="cls-24" d="M49.49,135.86c0,.1-.4.19-.78.49s-.57.66-.68.63-.05-.55.45-.93S49.5,135.75,49.49,135.86Z" transform="translate(-4.77 -40.55)"></path> <path class="cls-24" d="M39.93,136s-.25.14-.68,0a.91.91,0,0,1-.56-.56.76.76,0,0,1,0-.52.64.64,0,0,1,.4-.43.62.62,0,0,1,.77.23l-.32.17a4.3,4.3,0,0,1-.47-1.51c.08,0,.42.54.8,1.36l-.32.17a.27.27,0,0,0-.33-.06.37.37,0,0,0-.18.48.72.72,0,0,0,.35.43C39.68,135.87,39.94,135.89,39.93,136Z" transform="translate(-4.77 -40.55)"></path> <path class="cls-24" d="M56.88,128.69c-.1,0-.27-.33-.37-.79s-.1-.85,0-.87.27.33.37.79S57,128.66,56.88,128.69Z" transform="translate(-4.77 -40.55)"></path> <path class="cls-24" d="M48.57,129.52c-.1,0-.28-.32-.41-.78s-.15-.85,0-.88.29.32.41.78S48.67,129.49,48.57,129.52Z" transform="translate(-4.77 -40.55)"></path> <path class="cls-24" d="M39.31,131.1a29.78,29.78,0,0,1-2.11-9.44,10.91,10.91,0,0,1,.2-4.07,4.68,4.68,0,0,1,2.51-3.08c1.8-.75,4,.06,5.78-.62a6.4,6.4,0,0,0,2.38-1.79A16.34,16.34,0,0,1,50.18,110a3.65,3.65,0,0,1,2.8-.81,2.11,2.11,0,0,1,1.75,2.11,5.17,5.17,0,0,1,9.24.36,5.32,5.32,0,0,1-.69,5.4c-1.13,1.39-3.2,1.47-4.59,2.58-2.95,2.35-7.56,2.83-12.2,1.77-2-.46-4.43.32-4.83,2.35a35.26,35.26,0,0,0,0,4.48,3.73,3.73,0,0,1-.41,2.22,1.57,1.57,0,0,1-2,.67" transform="translate(-4.77 -40.55)"></path> <path class="cls-24" d="M48,125.75c-.1.3-.54.44-1,.56s-.9.21-1.13,0-.12-.31,0-.54a1.4,1.4,0,0,1,.81-.55,1.37,1.37,0,0,1,1,.08C48,125.42,48.07,125.6,48,125.75Z" transform="translate(-4.77 -40.55)"></path> <path class="cls-24" d="M57.12,124.3c-.13.3-.64.36-1.18.41s-1,.07-1.22-.2.27-.86,1.12-.94S57.26,124,57.12,124.3Z" transform="translate(-4.77 -40.55)"></path> <g class="cls-27"> <path class="cls-24" d="M38.3,206.69a67.62,67.62,0,0,1-1.69-7.08,71.83,71.83,0,0,1-1.32-7.16A69.09,69.09,0,0,1,37,199.53,71.27,71.27,0,0,1,38.3,206.69Z" transform="translate(-4.77 -40.55)"></path> </g> <g class="cls-27"> <path class="cls-24" d="M37.84,193.93c0,.1-.29.33-.74.52s-.85.25-.89.15.29-.32.74-.51S37.8,193.84,37.84,193.93Z" transform="translate(-4.77 -40.55)"></path> </g> <g class="cls-27"> <path class="cls-24" d="M65.29,168.51a23.27,23.27,0,0,1-4.05.93,24,24,0,0,1-4.12.55,22,22,0,0,1,4.05-.93A22.9,22.9,0,0,1,65.29,168.51Z" transform="translate(-4.77 -40.55)"></path> </g> <g class="cls-27"> <path class="cls-24" d="M25.77,156.76l.25.05a5.66,5.66,0,0,1,.68.25,7.78,7.78,0,0,1,2.23,1.51,9.68,9.68,0,0,1,2.22,3.32A12,12,0,0,1,32,166.7a22.51,22.51,0,0,1-2.17,8.55c-.46,1-.87,1.85-1.15,2.41a3.84,3.84,0,0,1-.49.85,6.41,6.41,0,0,1,.35-.91c.28-.65.62-1.48,1-2.46a24.05,24.05,0,0,0,2-8.45,12.41,12.41,0,0,0-.79-4.67,9.28,9.28,0,0,0-5.06-5.26Z" transform="translate(-4.77 -40.55)"></path> </g> <path class="cls-28" d="M50.91,349.3a3.44,3.44,0,0,1-.06-.35c0-.24-.07-.58-.12-1-.1-.91-.25-2.22-.44-3.9-.37-3.39-.87-8.29-1.45-14.36-1.17-12.13-2.6-28.91-3.83-47.46s-2-35.39-2.47-47.57c-.22-6.09-.38-11-.45-14.42,0-1.69-.06-3-.08-3.93,0-.43,0-.77,0-1s0-.35,0-.35a3.23,3.23,0,0,1,0,.35c0,.25,0,.59,0,1,0,.92.09,2.23.16,3.92.13,3.42.33,8.35.57,14.42.51,12.18,1.35,29,2.58,47.55S48,317.52,49.1,329.66c.57,6,1,10.95,1.34,14.37.16,1.68.28,3,.37,3.9,0,.44.06.77.08,1S50.91,349.3,50.91,349.3Z" transform="translate(-4.77 -40.55)"></path> <path class="cls-28" d="M61.27,348.52c0,.1-4.56.53-10.2,1s-10.21.68-10.22.57,4.56-.53,10.2-.95S61.26,348.41,61.27,348.52Z" transform="translate(-4.77 -40.55)"></path> <path class="cls-28" d="M88.23,350.05s0-.11-.08-.34-.13-.59-.22-1c-.19-.91-.45-2.24-.8-3.94-.68-3.42-1.64-8.38-2.77-14.52-2.3-12.27-5.27-29.26-8.66-48S69,246.54,66.37,234.34c-.63-3.06-1.26-5.81-1.78-8.23s-1-4.51-1.4-6.21-.68-3-.89-3.92c-.09-.43-.16-.77-.22-1l-.06-.35s0,.11.1.34l.26,1c.22.91.54,2.23,1,3.91s.91,3.77,1.45,6.19,1.2,5.17,1.85,8.22c2.68,12.19,6,29.12,9.43,47.87s6.36,35.72,8.55,48l2.66,14.55c.31,1.7.55,3,.72,3.95.08.44.14.78.18,1S88.23,350.05,88.23,350.05Z" transform="translate(-4.77 -40.55)"></path> <path class="cls-28" d="M99.84,350.26c0,.1-4.47.18-10,.17s-10-.09-10-.2,4.46-.18,10-.18S99.84,350.15,99.84,350.26Z" transform="translate(-4.77 -40.55)"></path> <path class="cls-28" d="M37.8,215.33a4.37,4.37,0,0,1,.43,1.8A7.61,7.61,0,0,1,34,224.55a4.13,4.13,0,0,1-1.77.53c0-.06.67-.23,1.64-.77a7.92,7.92,0,0,0,4.1-7.17C37.94,216,37.73,215.34,37.8,215.33Z" transform="translate(-4.77 -40.55)"></path> <path class="cls-28" d="M56.5,227.07a1,1,0,0,1-.34.56,1.88,1.88,0,0,1-1.71.41,1.56,1.56,0,0,1-1-.77A4,4,0,0,1,53,225.9c-.15-1-.31-2-.49-3.11-.33-2.21-.61-4.21-.8-5.66a15.67,15.67,0,0,1-.22-2.37,14.21,14.21,0,0,1,.49,2.32c.25,1.45.58,3.44.91,5.65.16,1.1.31,2.15.46,3.12a3.64,3.64,0,0,0,.33,1.27,1.33,1.33,0,0,0,.81.66,1.8,1.8,0,0,0,1.55-.26C56.38,227.28,56.46,227.05,56.5,227.07Z" transform="translate(-4.77 -40.55)"></path> <path class="cls-28" d="M72.89,223.06a1.39,1.39,0,0,1-.47,0,5.74,5.74,0,0,1-1.25-.21,7.69,7.69,0,0,1-1.74-.71,8.87,8.87,0,0,1-1.85-1.39,9,9,0,0,1-1.4-1.84,8.06,8.06,0,0,1-.72-1.74,5.18,5.18,0,0,1-.21-1.25c0-.3,0-.47,0-.47s.12.65.45,1.64a9,9,0,0,0,.76,1.64,9.82,9.82,0,0,0,1.37,1.75,10.5,10.5,0,0,0,1.75,1.36,8.31,8.31,0,0,0,1.65.75C72.24,222.94,72.89,223,72.89,223.06Z" transform="translate(-4.77 -40.55)"></path> <path class="cls-29" d="M45,354.62s19.59,3.34,18.65,2.26a14.37,14.37,0,0,0-3.22-2.26Z" transform="translate(-4.77 -40.55)"></path> <path class="cls-29" d="M83.23,354.62s19.58,3.34,18.65,2.26a14.37,14.37,0,0,0-3.22-2.26Z" transform="translate(-4.77 -40.55)"></path> </g> </g> </g> </g> </svg> 