<?xml version="1.0" encoding="UTF-8"?> <svg xmlns="http://www.w3.org/2000/svg" xmlns:xlink="http://www.w3.org/1999/xlink" viewBox="0 0 131.72 128.29"> <defs> <style>.cls-1{fill:#a6613b;}.cls-2{fill:#f0bfac;}.cls-3{fill:#4d4ae5;}.cls-4{fill:#fff;}.cls-5{fill:#1b1a51;}.cls-6{fill:#423030;}.cls-7{opacity:0.58;fill:url(#Degradado_sin_nombre_6);}.cls-8{fill:#0d0d3a;}.cls-11,.cls-9{fill:#edc483;}.cls-10,.cls-11{opacity:0.48;}.cls-12{fill:#353584;}.cls-13{fill:#db5e77;}.cls-14{opacity:0.46;}.cls-15{fill:#d1d1e8;}</style> <linearGradient id="Degradado_sin_nombre_6" x1="95.83" y1="25.89" x2="105.92" y2="59.36" gradientUnits="userSpaceOnUse"> <stop offset="0.05" stop-color="#6bc1cd"></stop> <stop offset="1" stop-color="#a8eba4"></stop> </linearGradient> </defs> <title>Asset 5</title> <g id="Layer_2" data-name="Layer 2"> <g id="Objects"> <path class="cls-1" d="M53.44,44.32a21.17,21.17,0,0,1-2-17.19,3.78,3.78,0,0,1,1.06-1.85,1.49,1.49,0,0,1,2,0,21.61,21.61,0,0,1,10.49-5.93,6.16,6.16,0,0,1,2.41-.21,2.51,2.51,0,0,1,1.93,1.33,1.59,1.59,0,0,1-.7,2.07,20.51,20.51,0,0,1,4.63-1.43,2.07,2.07,0,0,1,1.69.29,1.58,1.58,0,0,1,0,2.13,4.69,4.69,0,0,1-2,1.2,4.34,4.34,0,0,1,1.47-.22,1.46,1.46,0,0,1,1.22.75c.4.86-.44,1.78-1.25,2.27a16,16,0,0,1-6.93,1.84c-2.41.19-4.83.16-7.21.58a4.29,4.29,0,0,0-2.2.89c-1,.92-1,2.47-.95,3.82a21.68,21.68,0,0,1-.12,5.75,6.3,6.3,0,0,1-3.25,4.51"></path> <path class="cls-2" d="M113.45,67.92S115,60.74,116.14,60s5.76-4.67,5.9-3.83-2.21,3.06-1.87,4S123,61.3,123,61.3s2.78.16,3.53-.29,5.56-5.15,5.19-4-3.2,7.15-4.92,8a42.38,42.38,0,0,1-6.52,2,30.27,30.27,0,0,0-1.74,3.73Z"></path> <path class="cls-3" d="M74.3,79.32s17.86,22.81,27.2,19.24,18.41-29.4,18.41-29.4l-7.42-5L97.1,81.57,77.5,56.14Z"></path> <path class="cls-3" d="M43.84,55.37S7.53,85.92,8.63,92.24,32,123.29,32,123.29l7.42-7.42L23.74,93.06S45.45,76.85,46,74.38,43.84,55.37,43.84,55.37Z"></path> <path class="cls-3" d="M37.48,67.56s7,28.76,6.69,31.38-2.83,20.25-2.83,20.25l41.43-2.48L80.13,62.22a10.44,10.44,0,0,0-8.47-9.36,78.52,78.52,0,0,0-20-.63A14.17,14.17,0,0,0,39.31,62Z"></path> <path class="cls-4" d="M50.19,52.43C49.58,52.73,63,82,63,82l5.88-29.52S54.29,50.45,50.19,52.43Z"></path> <path class="cls-2" d="M53,53.49l.67-11.56s-2.27.27-2.94-1.47,1.33-5.75,4.67-2.94l-.32-9.65H71.22s2.92,22.34-7,22.34v4.68S57.71,60,53,53.49Z"></path> <path class="cls-2" d="M33.63,121.64s.66,4.18,2.87,4.18a58,58,0,0,0,6-.52s3.33,4,3.55,2.73-.82-4.16-.82-4.16,1.7,4,2.35,2.08-2.22-5.07-2.22-5.07,5.08,2.47,5.21,1.43-4.48-3.78-4.52-3.78H40.8l-1.4-2.66Z"></path> <path class="cls-5" d="M63.88,40.58s.07.15.29.27a.84.84,0,0,0,1-.16,1.42,1.42,0,0,0,.35-.64,2.67,2.67,0,0,0,.06-.86c0-.63-.09-1.32-.14-2-.09-1.45-.16-2.77-.2-3.72,0-.47,0-.86,0-1.13a1.21,1.21,0,0,1,0-.41,2.26,2.26,0,0,1,.06.41c0,.26.07.65.11,1.12.08.95.17,2.26.26,3.72,0,.72.09,1.41.12,2a2.78,2.78,0,0,1-.08.92,1.47,1.47,0,0,1-.42.69.92.92,0,0,1-.62.26.81.81,0,0,1-.49-.13A.54.54,0,0,1,63.88,40.58Z"></path> <path class="cls-5" d="M65,43.16a1.44,1.44,0,0,1-.7.27,2.6,2.6,0,0,1-2.94-1.72,1.46,1.46,0,0,1-.11-.74s.06.28.24.69A2.83,2.83,0,0,0,62.57,43a2.79,2.79,0,0,0,1.67.34C64.69,43.24,65,43.12,65,43.16Z"></path> <path class="cls-5" d="M61.67,40.8c0,.06-.35,0-.68.18s-.45.5-.5.49,0-.1,0-.24a.83.83,0,0,1,.38-.42.88.88,0,0,1,.56-.11C61.6,40.72,61.67,40.78,61.67,40.8Z"></path> <path class="cls-5" d="M53.71,40.7a1.39,1.39,0,0,0,.41-.56,1,1,0,0,0,0-.73.61.61,0,0,0-.65-.43.38.38,0,0,0-.31.54l-.18.07A8.62,8.62,0,0,1,52.77,38a9.74,9.74,0,0,1,.38,1.55l.1.52L53,39.62a.57.57,0,0,1,.44-.84.75.75,0,0,1,.55.14,1,1,0,0,1,.31.42,1.17,1.17,0,0,1,0,.85.88.88,0,0,1-.35.43C53.79,40.7,53.71,40.71,53.71,40.7Z"></path> <path class="cls-1" d="M61.74,31.19c0,.27-.54.61-1.32.77s-1.46,0-1.51-.23.54-.61,1.32-.76S61.69,30.92,61.74,31.19Z"></path> <path class="cls-1" d="M70,31.07c0,.28-.54.46-1.16.42s-1.1-.31-1.08-.58.54-.47,1.16-.42S70,30.79,70,31.07Z"></path> <path class="cls-5" d="M65.7,50.12a2.73,2.73,0,0,1-.42.09,7.63,7.63,0,0,1-1.15.09,10.2,10.2,0,0,1-3.76-.67,10.5,10.5,0,0,1-3.26-2,9.17,9.17,0,0,1-.8-.84,2,2,0,0,1-.25-.35s.41.45,1.15,1.08a11.22,11.22,0,0,0,3.23,1.91,11.4,11.4,0,0,0,3.69.72C65.1,50.17,65.69,50.08,65.7,50.12Z"></path> <path class="cls-2" d="M40.8,118.53s.69-6.6,1.29-5.76.73,6.27.73,6.27Z"></path> <path class="cls-5" d="M64.63,116.8c-.06,0-.48-7.8-.93-17.42S62.93,82,63,82s.47,7.8.92,17.42S64.68,116.8,64.63,116.8Z"></path> <path class="cls-5" d="M62.51,82a10.32,10.32,0,0,1-1.17-.67,12.77,12.77,0,0,1-2.73-2.46A14,14,0,0,1,56,74a13.65,13.65,0,0,1-.43-6.69l.08.12-.42-.13a10.69,10.69,0,0,1-5.43-4.14A10.45,10.45,0,0,1,48,57.89a10.57,10.57,0,0,1,.5-3.76A7.4,7.4,0,0,1,49,52.85a1.55,1.55,0,0,1-.12.34,8.72,8.72,0,0,0-.33,1,10.68,10.68,0,0,0-.43,3.72,10.31,10.31,0,0,0,1.76,5.21,10.6,10.6,0,0,0,5.33,4l.42.13.09,0,0,.09A13.38,13.38,0,0,0,56.15,74a14.17,14.17,0,0,0,2.57,4.76,13.09,13.09,0,0,0,2.67,2.49c.34.26.65.41.83.54A2,2,0,0,1,62.51,82Z"></path> <path class="cls-5" d="M63,82l.25-.22c.16-.14.42-.33.72-.62a12.92,12.92,0,0,0,2.27-2.66,13.35,13.35,0,0,0,1.89-4.8,19.68,19.68,0,0,0,.31-3.05v-.81a2.65,2.65,0,0,0-.19-.76,8.29,8.29,0,0,0-.83-1.43,14.61,14.61,0,0,0-1.07-1.34l-.06-.07.06-.07c.73-.74,1.41-1.48,2-2.21A12.82,12.82,0,0,0,70,61.68a10.61,10.61,0,0,0,.63-4.55,11.35,11.35,0,0,0-.68-3c-.14-.34-.25-.6-.33-.77l-.12-.28a6.65,6.65,0,0,1,.52,1,11,11,0,0,1,.75,3,10.49,10.49,0,0,1-.6,4.63A12,12,0,0,1,68.53,64c-.63.74-1.31,1.48-2,2.23v-.15a13.51,13.51,0,0,1,1.09,1.36A7.77,7.77,0,0,1,68.43,69a2.53,2.53,0,0,1,.2.83v.81a18.75,18.75,0,0,1-.33,3.08,13.23,13.23,0,0,1-1.94,4.85A12.72,12.72,0,0,1,64,81.17,9.65,9.65,0,0,1,63,82Z"></path> <path class="cls-5" d="M66.3,95.24c-.06,0-.14-.29-.18-.65s0-.67,0-.68.14.29.18.66S66.35,95.23,66.3,95.24Z"></path> <path class="cls-5" d="M67.5,108.05c-.06,0-.14-.28-.18-.65s0-.67,0-.67.14.28.18.65S67.56,108.05,67.5,108.05Z"></path> <path class="cls-5" d="M81.91,90.84c-.06,0-.49-4.6-1-10.3s-.81-10.31-.76-10.32.49,4.61,1,10.3S82,90.84,81.91,90.84Z"></path> <path class="cls-5" d="M44.17,77.13a1.79,1.79,0,0,1-.35.31l-1,.81c-.85.67-2,1.61-3.31,2.67s-2.42,2-3.24,2.74l-1,.84a1.77,1.77,0,0,1-.38.29,2,2,0,0,1,.33-.35l.93-.89c.8-.74,1.93-1.73,3.21-2.79s2.48-2,3.35-2.63l1.05-.75A2.81,2.81,0,0,1,44.17,77.13Z"></path> <path class="cls-5" d="M37.42,113.23a1.56,1.56,0,0,1-.31.3l-.89.74-3,2.39-3,2.35-.93.69a2.35,2.35,0,0,1-.36.23,1.88,1.88,0,0,1,.3-.29l.9-.75,3-2.39,3-2.35.93-.69A2.35,2.35,0,0,1,37.42,113.23Z"></path> <path class="cls-5" d="M32.07,120.55s-.17-.1-.26-.28-.12-.35-.06-.37.16.1.25.28S32.12,120.52,32.07,120.55Z"></path> <path class="cls-5" d="M119.55,72.19a2.61,2.61,0,0,1-.42-.14L118,71.59c-1-.38-2.25-.91-3.7-1.47s-2.77-1-3.73-1.38l-1.13-.41a1.49,1.49,0,0,1-.41-.18,1.78,1.78,0,0,1,.43.1l1.16.35c1,.31,2.31.77,3.76,1.32s2.75,1.12,3.67,1.54l1.1.51A1.86,1.86,0,0,1,119.55,72.19Z"></path> <path class="cls-5" d="M112.09,66.17s-.13.32-.4.64-.53.53-.57.5.14-.33.41-.64S112.05,66.13,112.09,66.17Z"></path> <path class="cls-5" d="M96.84,85.65a11.06,11.06,0,0,1-.11-2.19,11.21,11.21,0,0,1,.11-2.2,12.84,12.84,0,0,1,.1,2.2A12.67,12.67,0,0,1,96.84,85.65Z"></path> <path class="cls-5" d="M99.43,86.3c-.05,0-.45-1-1.08-2.22S97.11,82,97.16,81.91A8.51,8.51,0,0,1,98.54,84,8,8,0,0,1,99.43,86.3Z"></path> <path class="cls-5" d="M24,93a9.53,9.53,0,0,1-1.88-.14,8.76,8.76,0,0,1-1.86-.35,8.69,8.69,0,0,1,1.88.14A8.94,8.94,0,0,1,24,93Z"></path> <path class="cls-5" d="M22.14,91.67c-1.13-.23-2.07-.12-2.08-.19a4.27,4.27,0,0,1,2.12,0C23.35,91.7,23.26,91.89,22.14,91.67Z"></path> <path class="cls-4" d="M52.76,53.07c-.11-.4,0-3.42,0-3.42s7.62.6,8.44,7.14c0,0,1.39-5.43,3.43-5.75L65,54.62l-1.09,3.83-4.36.89L54.85,57.8Z"></path> <polygon class="cls-5" points="61.13 58.05 60.26 60.72 61.62 62.69 62.18 60.01 61.13 58.05"></polygon> <polygon class="cls-5" points="61.25 62.15 59.75 74.84 63.17 82.36 65.7 70.17 61.81 61.77 61.25 62.15"></polygon> <path class="cls-6" d="M60.47,35.88a2.08,2.08,0,0,1-.1-.91,2.08,2.08,0,0,1,.1-.91,2.08,2.08,0,0,1,.1.91A2.08,2.08,0,0,1,60.47,35.88Z"></path> <path class="cls-6" d="M69,35.49c-.06,0-.12-.37-.13-.84s0-.85.08-.85a1.88,1.88,0,0,1,.13.84C69,35.11,69,35.49,69,35.49Z"></path> <path class="cls-7" d="M87.24,38.36l3.83,13.3,5.35-1-.52-2.68L97.42,47l2.87,2.84,9.07-1.77,1.18-3.47L108,44.05l3.34-1.11-.73-3.72-2.88.25,4-1.08-.9-4.61-9.22,1.8s.6-6.44-2.13-8.54l-2.08.41A11.52,11.52,0,0,1,98,30.72a67.19,67.19,0,0,1-1.88,7L93.24,39l-.67-1.87Z"></path> <path class="cls-8" d="M25.11,11.19,23,18.69l-3-.59.29-1.51-.85-.51-1.62,1.6-5.11-1-.67-2,1.46-.32-1.88-.63L12,11.68l1.62.14-2.23-.61.51-2.6,5.2,1S16.73,6,18.27,4.81L19.44,5a6.29,6.29,0,0,0-.36,1.84,37.75,37.75,0,0,0,1.06,4l1.59.75.38-1.06Z"></path> <polygon class="cls-9" points="13.01 27.16 12.19 42.14 29.87 42.14 30.58 45.79 31.54 42.14 45.13 42.14 46.07 28.19 13.01 27.16"></polygon> <path class="cls-4" d="M22.51,34.17A3.14,3.14,0,1,1,19.37,31,3.14,3.14,0,0,1,22.51,34.17Z"></path> <path class="cls-4" d="M25.1,32c5.42.35,10.85.23,16.27.71.39,0,.39-.6,0-.61-5.41-.22-10.86-.72-16.27-.4a.15.15,0,0,0,0,.3Z"></path> <path class="cls-4" d="M25.1,34.23c5.42.36,10.85.23,16.27.72.39,0,.39-.6,0-.62-5.41-.22-10.86-.71-16.27-.39a.15.15,0,0,0,0,.29Z"></path> <path class="cls-4" d="M25.1,36.8c5.42.35,10.85.23,16.27.71.39,0,.39-.6,0-.61-5.41-.22-10.86-.72-16.27-.4a.15.15,0,0,0,0,.3Z"></path> <g class="cls-10"> <path class="cls-9" d="M21.26,37.15c.64-.29-.26-1.41-.81-1.86a2.24,2.24,0,0,0-3.51.89S18.27,38.52,21.26,37.15Z"></path> </g> <path class="cls-11" d="M20.5,33.23a1.13,1.13,0,1,1-1.13-1.13A1.12,1.12,0,0,1,20.5,33.23Z"></path> <polygon class="cls-4" points="33.29 6.77 34.27 17.06 48.9 15.43 50.32 20.05 51.69 14.73 58.85 14.1 57.02 0.4 33.29 6.77"></polygon> <path class="cls-12" d="M37.82,10.05c5.73-.82,11.43-1.82,17.07-3.13.28-.06.16-.49-.12-.43-5.65,1.22-11.31,2.36-17,3.32-.16,0-.09.26.07.24Z"></path> <path class="cls-12" d="M37.82,12c5.73-.82,11.43-1.83,17.07-3.13.28-.07.16-.49-.12-.43-5.65,1.22-11.31,2.36-17,3.31-.16,0-.09.27.07.25Z"></path> <path class="cls-13" d="M58.48,3.07a1.23,1.23,0,1,1-1.23-1.23A1.23,1.23,0,0,1,58.48,3.07Z"></path> <polygon class="cls-4" points="71.62 3.07 70.79 15.21 81.91 15.21 81.91 21.47 85.65 17 119.55 16.33 119.55 1.84 71.62 3.07"></polygon> <g class="cls-14"> <path class="cls-12" d="M84.24,6.92c10.46,0,21-.42,31.41-.27.75,0,.75-.62,0-.61-10.44.11-21-.06-31.4.59-.37,0-.36.29,0,.29Z"></path> </g> <g class="cls-14"> <path class="cls-12" d="M84.31,9.19c10.46,0,21-.43,31.41-.27.75,0,.75-.62,0-.61-10.44.1-21-.06-31.4.58-.37,0-.36.29,0,.3Z"></path> </g> <g class="cls-14"> <path class="cls-12" d="M84.39,11.75c10.46,0,21-.43,31.41-.27.75,0,.75-.62,0-.61-10.44.11-21-.06-31.4.59-.37,0-.36.29,0,.29Z"></path> </g> <path class="cls-12" d="M80.26,11.47c.36-.18,0-.94-.55-1.39a2.3,2.3,0,0,0-2-.45A2.33,2.33,0,0,0,76.19,11S77.33,13,80.26,11.47Z"></path> <path class="cls-12" d="M79.6,8.12A1.14,1.14,0,1,1,78.47,7,1.14,1.14,0,0,1,79.6,8.12Z"></path> <path class="cls-15" d="M13.59,62.28a1,1,0,0,0,0-1.89.95.95,0,0,0,0,1.89Z"></path> <path class="cls-15" d="M13.46,50.61h-.37a.25.25,0,0,0,0,.49h.37a.25.25,0,0,0,0-.49Z"></path> <path class="cls-15" d="M24.19,63.6a.54.54,0,0,0,0-1.08.54.54,0,0,0,0,1.08Z"></path> <path class="cls-15" d="M8.74,75.71l-.36-.06a.36.36,0,1,0,0,.71l.36-.07a.31.31,0,0,0,0-.58Z"></path> <path class="cls-15" d="M80.13,30.76l0,.4a.5.5,0,0,0,1,0l0-.4c.08-.7-1.16-.7-1.08,0Z"></path> <path class="cls-15" d="M78.67,47.9a.36.36,0,0,0,0-.72.36.36,0,0,0,0,.72Z"></path> <path class="cls-15" d="M97.85,64.28a.37.37,0,0,0,0-.73.37.37,0,0,0,0,.73Z"></path> <path class="cls-15" d="M121.41,44.57a.63.63,0,0,0,0-1.25.63.63,0,0,0,0,1.25Z"></path> <path class="cls-15" d="M125.4,36.47a.51.51,0,0,0,0-1,.51.51,0,0,0,0,1Z"></path> <path class="cls-15" d="M117.56,28.37l0-.2-.28.48a1.19,1.19,0,0,0,.79-1.23,1.09,1.09,0,0,0-1.07-.94,1.11,1.11,0,0,0-1.06.8,1.2,1.2,0,0,0,.77,1.37l-.28-.48,0,.2a.55.55,0,0,0,1.09,0Z"></path> <path class="cls-15" d="M6.38,0s0,0,0,0,0,0,0,0Z"></path> <path class="cls-15" d="M.39,20a.4.4,0,0,0,0-.8.4.4,0,0,0,0,.8Z"></path> </g> </g> </svg> 