<?xml version="1.0" encoding="UTF-8"?> <svg xmlns="http://www.w3.org/2000/svg" width="444" height="277" viewBox="0 0 444 277" fill="none"> <g style="mix-blend-mode:multiply"> <path d="M63.7348 261.464C73.6542 263.459 84.1409 264.85 94.2068 266.351C161.867 276.38 233.097 278.924 301.105 274.348C339.41 271.768 376.8 266.296 402.715 258.81C424.036 252.661 454.948 238.642 439.355 223.58C433.041 217.486 421.694 213.185 409.889 210.275C398.085 207.365 385.512 205.59 373.433 203.046C349.11 197.921 325.739 185.074 301.38 181.889C289.795 180.389 280.534 180.535 269.114 177.259C257.474 173.928 246.951 169.517 235.568 165.93C204.839 156.285 168.639 153.284 134.104 154.181C103.412 154.968 72.7574 158.793 47.6844 167.596C22.6296 176.417 3.65095 190.601 0.429887 206.871C-2.69967 222.702 11.6853 236.409 29.6757 249.001C38.5519 255.205 50.6492 258.847 63.7348 261.464Z" fill="#E2E2E2"></path> </g> <path d="M97.0044 125.898C97.8829 122.238 99.713 118.87 100.775 115.265C101.836 111.641 101.982 107.432 99.6947 104.43C95.4854 98.8851 86.2431 100.788 80.8076 96.451C76.9826 93.4129 75.976 87.9225 76.7081 83.0909C77.4401 78.2593 79.618 73.7937 81.137 69.1634C84.8705 57.7067 84.4496 44.9505 80.0023 33.7683C85.0169 36.3854 90.0865 39.0574 94.3141 42.8459C98.5235 46.6343 101.854 51.7221 102.33 57.3589C102.623 60.763 101.946 64.4599 103.666 67.4248C106.32 72.0368 113.165 72.293 116.66 76.2827C119.79 79.8515 128.355 117.607 127.239 120.774C126.012 124.233 121.913 125.788 120.009 128.918C118.216 131.864 124.255 137.849 125.079 141.198C127.403 150.568 120.046 157.779 109.23 150.66C101.049 145.261 94.5703 136.147 97.0044 125.898Z" fill="#3BB6D5"></path> <path d="M111.773 127.216C110.309 121.927 109.705 116.107 111.938 111.092C114.226 105.913 119.313 102.106 120.54 96.5792C122.937 85.8728 109.742 76.594 111.297 65.7229C112.048 60.4337 116.147 56.2976 118.27 51.3928C120.485 46.2684 120.448 40.4302 119.423 34.9581C118.398 29.4859 116.44 24.2334 114.866 18.871C113.695 14.863 112.743 10.5805 113.933 6.59073C115.122 2.601 119.222 -0.803078 123.267 0.166901C122.095 7.63391 126.762 14.6068 131.026 20.8293C135.291 27.0701 139.537 34.5005 137.432 41.7662C135.895 47.0919 131.063 51.5209 131.392 57.048C131.704 62.0077 136.023 65.6314 139.957 68.6694C143.892 71.7075 148.12 75.5325 148.102 80.4922C148.083 87.1173 140.507 91.7476 140.122 98.3544C139.756 104.449 145.613 109.262 146.564 115.302C147.498 121.286 143.471 126.813 139.537 131.425C135.602 136.019 131.264 141.143 131.411 147.183C131.484 149.983 132.344 153.35 130.221 155.199C124.42 160.232 122.443 149.306 121.345 146.432C118.783 139.734 113.786 134.482 111.773 127.216Z" fill="#F8C44F"></path> <path d="M131.081 126.685C134.302 124.142 136.974 101.008 135.309 95.0421C134.321 91.5466 135.95 87.7947 138.237 84.9763C140.525 82.1579 143.471 79.9251 145.814 77.1433C152.421 69.3285 150.81 53.8821 160.4 45.4634C160.291 52.6376 163.731 63.3989 165.598 66.9676C167.465 70.5364 168.233 75.2216 165.763 78.4061C163.146 81.7736 158.058 82.1396 155.093 85.1959C152.439 87.9229 152.11 92.2054 152.988 95.9023C153.867 99.5992 155.752 102.967 157.069 106.535C161.645 118.962 158.534 133.896 149.346 143.45C147.443 145.444 145.192 147.33 143.746 149.69C141.934 152.674 142.922 154.504 139.903 155.858C136.499 157.377 130.404 157.066 127.384 154.815C118.655 148.354 124.163 132.176 131.081 126.685Z" fill="#194866"></path> <path d="M143.765 208.64H105.405L97.4802 156.627H151.689L143.765 208.64Z" fill="#DADAE0"></path> <path d="M153.904 156.626H95.2657C92.9048 156.626 91.0015 154.723 91.0015 152.362C91.0015 150.001 92.9048 148.098 95.2657 148.098H153.885C156.246 148.098 158.15 150.001 158.15 152.362C158.168 154.705 156.246 156.626 153.904 156.626Z" fill="#C2C2C4"></path> <path d="M348.138 226.483C352.622 216.051 349.767 202.618 339.994 196.176C333.039 191.582 324.09 191.033 315.854 189.111C285.583 182.029 264.482 156.132 236.133 143.888C211.682 133.328 181.631 134.06 158.736 147.384C135.84 160.707 121.492 186.805 124.969 211.988C125.72 217.46 129.838 225.257 133.919 232.504C139.977 243.302 151.854 250.074 164.793 250.074H313.475C324.071 250.074 334.137 245.553 340.726 237.738C343.874 233.968 346.454 230.454 348.138 226.483Z" fill="#3DC7C9"></path> <path d="M163.842 158.273C156.265 163.874 149.64 172.512 151.69 181.388C153.008 187.08 157.729 191.6 162.964 194.693C171.584 199.781 181.851 201.794 191.971 202.655C202.092 203.515 212.304 203.313 222.407 204.448C238.128 206.205 253.227 211.146 268.545 214.917C283.863 218.687 299.95 221.322 315.488 218.394C317.556 218.009 319.789 217.406 321.052 215.795C323.431 212.739 320.814 208.456 317.831 205.949C309.394 198.829 297.974 196.029 287.249 192.589C269.515 186.879 252.659 178.789 237.286 168.687C229.544 163.599 222.187 157.999 215.288 151.941C212.524 149.507 210.017 146.066 206.247 145.243C202.367 144.401 196.968 145.499 193.106 146.121C182.491 147.823 172.316 152.014 163.842 158.273Z" fill="#367082"></path> <path d="M385.455 239.148C385.675 239.971 385.912 240.868 386.59 241.399C387.395 242.057 388.53 242.003 389.554 241.911C391.897 241.71 394.24 241.508 396.601 241.325C397.314 241.271 398.156 241.124 398.504 240.502C398.815 239.935 398.577 239.221 398.339 238.617C397.552 236.677 396.765 234.737 395.978 232.797C395.283 231.095 394.532 229.301 393.105 228.148C391.037 226.465 385.272 225.733 383.643 228.441C382.124 230.93 384.814 236.659 385.455 239.148Z" fill="#F7B690"></path> <path d="M385.455 239.148C385.675 239.971 385.912 240.868 386.59 241.399C387.395 242.057 388.53 242.003 389.554 241.911C391.897 241.71 394.24 241.508 396.601 241.325C397.314 241.271 398.156 241.124 398.504 240.502C398.815 239.935 398.577 239.221 398.339 238.617C397.552 236.677 396.765 234.737 395.978 232.797C395.283 231.095 394.532 229.301 393.105 228.148C391.037 226.465 385.272 225.733 383.643 228.441C382.124 230.93 384.814 236.659 385.455 239.148Z" fill="#E2C59C"></path> <path fill-rule="evenodd" clip-rule="evenodd" d="M423.028 248.207C423.193 246.34 421.417 244.785 419.605 244.364C417.775 243.925 415.872 244.254 414.005 244.236C408.661 244.181 403.463 240.96 401.011 236.22C400.682 235.561 400.352 234.847 399.712 234.481C398.852 234.005 397.753 234.353 396.985 234.975C396.234 235.597 395.685 236.439 395.008 237.135C393.764 238.379 392.007 239.075 390.25 239.038C388.786 239.02 387.139 237.903 385.729 238.636C384.485 239.294 384.155 241.015 383.826 242.241C383.277 244.364 382.783 246.487 382.27 248.61C382.161 249.086 382.051 249.58 382.014 250.056H392.208C392.684 249.379 393.068 247.439 393.27 246.633C393.306 247.457 393.636 249.415 394.148 250.056H422.168C422.625 249.543 422.955 248.903 423.028 248.207Z" fill="#0A3C5F"></path> <path fill-rule="evenodd" clip-rule="evenodd" d="M423.028 248.207C423.193 246.34 421.417 244.785 419.605 244.364C417.775 243.925 415.872 244.254 414.005 244.236C408.661 244.181 403.463 240.96 401.011 236.22C400.682 235.561 400.352 234.847 399.712 234.481C398.852 234.005 397.753 234.353 396.985 234.975C396.234 235.597 395.685 236.439 395.008 237.135C393.764 238.379 392.007 239.075 390.25 239.038C388.786 239.02 387.139 237.903 385.729 238.636C384.485 239.294 384.155 241.015 383.826 242.241C383.277 244.364 382.783 246.487 382.27 248.61C382.161 249.086 382.051 249.58 382.014 250.056H392.208C392.684 249.379 393.068 247.439 393.27 246.633C393.306 247.457 393.636 249.415 394.148 250.056H422.168C422.625 249.543 422.955 248.903 423.028 248.207Z" fill="#661919"></path> <path fill-rule="evenodd" clip-rule="evenodd" d="M423.028 248.207C423.193 246.34 421.417 244.785 419.605 244.364C417.775 243.925 415.872 244.254 414.005 244.236C408.661 244.181 403.463 240.96 401.011 236.22C400.682 235.561 400.352 234.847 399.712 234.481C398.852 234.005 397.753 234.353 396.985 234.975C396.234 235.597 395.685 236.439 395.008 237.135C393.764 238.379 392.007 239.075 390.25 239.038C388.786 239.02 387.139 237.903 385.729 238.636C384.485 239.294 384.155 241.015 383.826 242.241C383.277 244.364 382.783 246.487 382.27 248.61C382.161 249.086 382.051 249.58 382.014 250.056H392.208C392.684 249.379 393.068 247.439 393.27 246.633C393.306 247.457 393.636 249.415 394.148 250.056H422.168C422.625 249.543 422.955 248.903 423.028 248.207Z" fill="#163F59"></path> <path fill-rule="evenodd" clip-rule="evenodd" d="M399.071 221.249C401.011 220.078 402.512 218.321 404.397 217.058C408.057 214.624 412.742 214.313 416.641 212.281C420.832 210.103 423.888 205.839 424.638 201.172C424.803 200.166 424.803 199.013 424.071 198.299C423.376 197.64 422.314 197.64 421.362 197.768C414.097 198.738 412.87 201.959 405.824 203.972C403.939 204.503 395.722 205.107 392.007 207.486C387.98 210.085 388.877 211.842 389.097 213.562C389.316 215.301 390.89 220.846 392.629 221.743C394.606 222.786 397.259 222.347 399.071 221.249Z" fill="#0A3C5F"></path> <path fill-rule="evenodd" clip-rule="evenodd" d="M399.071 221.249C401.011 220.078 402.512 218.321 404.397 217.058C408.057 214.624 412.742 214.313 416.641 212.281C420.832 210.103 423.888 205.839 424.638 201.172C424.803 200.166 424.803 199.013 424.071 198.299C423.376 197.64 422.314 197.64 421.362 197.768C414.097 198.738 412.87 201.959 405.824 203.972C403.939 204.503 395.722 205.107 392.007 207.486C387.98 210.085 388.877 211.842 389.097 213.562C389.316 215.301 390.89 220.846 392.629 221.743C394.606 222.786 397.259 222.347 399.071 221.249Z" fill="#661919"></path> <path fill-rule="evenodd" clip-rule="evenodd" d="M399.071 221.249C401.011 220.078 402.512 218.321 404.397 217.058C408.057 214.624 412.742 214.313 416.641 212.281C420.832 210.103 423.888 205.839 424.638 201.172C424.803 200.166 424.803 199.013 424.071 198.299C423.376 197.64 422.314 197.64 421.362 197.768C414.097 198.738 412.87 201.959 405.824 203.972C403.939 204.503 395.722 205.107 392.007 207.486C387.98 210.085 388.877 211.842 389.097 213.562C389.316 215.301 390.89 220.846 392.629 221.743C394.606 222.786 397.259 222.347 399.071 221.249Z" fill="#163F59"></path> <path d="M387.944 207.083C387.578 206.315 387.212 205.455 387.395 204.631C387.615 203.624 388.53 202.947 389.372 202.362C391.312 201.044 393.27 199.708 395.21 198.39C395.814 197.988 396.546 197.548 397.223 197.823C397.827 198.061 398.083 198.775 398.285 199.397C398.888 201.392 399.511 203.405 400.115 205.4C400.645 207.157 401.194 209.023 400.81 210.817C400.261 213.416 396.271 217.625 393.288 216.564C390.543 215.575 389.024 209.426 387.944 207.083Z" fill="#F4A086"></path> <path d="M387.944 207.083C387.578 206.315 387.212 205.455 387.395 204.631C387.615 203.624 388.53 202.947 389.372 202.362C391.312 201.044 393.27 199.708 395.21 198.39C395.814 197.988 396.546 197.548 397.223 197.823C397.827 198.061 398.083 198.775 398.285 199.397C398.888 201.392 399.511 203.405 400.115 205.4C400.645 207.157 401.194 209.023 400.81 210.817C400.261 213.416 396.271 217.625 393.288 216.564C390.543 215.575 389.024 209.426 387.944 207.083Z" fill="#E2C59C"></path> <path d="M377.11 145.17C375.481 142.004 373.633 138.728 371.07 136.367L357.747 163.416C362.341 163.837 365.873 167.589 369.533 174.525C382.765 199.635 387.505 209.005 389.939 211.202C391.788 212.867 400.902 209.518 401.195 206.864C401.982 199.507 385.199 160.927 377.11 145.17Z" fill="#0A3C5F"></path> <path d="M377.11 145.17C375.481 142.004 373.633 138.728 371.07 136.367L357.747 163.416C362.341 163.837 365.873 167.589 369.533 174.525C382.765 199.635 387.505 209.005 389.939 211.202C391.788 212.867 400.902 209.518 401.195 206.864C401.982 199.507 385.199 160.927 377.11 145.17Z" fill="#661919"></path> <path d="M377.11 145.17C375.481 142.004 373.633 138.728 371.07 136.367L357.747 163.416C362.341 163.837 365.873 167.589 369.533 174.525C382.765 199.635 387.505 209.005 389.939 211.202C391.788 212.867 400.902 209.518 401.195 206.864C401.982 199.507 385.199 160.927 377.11 145.17Z" fill="#163F59"></path> <path d="M272.04 202.618C277.458 204.869 302.11 199.891 307.71 198.134C315.946 195.553 324.181 192.973 332.417 190.392C336.334 189.166 345.448 183.548 349.199 185.213C354.306 187.482 377.475 228.441 382.636 233.163C384.338 234.719 395.136 233.309 395.557 229.722C395.978 226.135 381.977 192.515 376.396 179.155C374.254 174.031 372.076 168.852 368.947 164.258C365.817 159.664 361.608 155.62 356.429 153.625C349.126 150.825 288.42 167.589 285.858 169.84C282.253 172.988 266.33 200.257 272.04 202.618Z" fill="#296089"></path> <path d="M272.04 202.618C277.458 204.869 302.11 199.891 307.71 198.134C315.946 195.553 324.181 192.973 332.417 190.392C336.334 189.166 345.448 183.548 349.199 185.213C354.306 187.482 377.475 228.441 382.636 233.163C384.338 234.719 395.136 233.309 395.557 229.722C395.978 226.135 381.977 192.515 376.396 179.155C374.254 174.031 372.076 168.852 368.947 164.258C365.817 159.664 361.608 155.62 356.429 153.625C349.126 150.825 288.42 167.589 285.858 169.84C282.253 172.988 266.33 200.257 272.04 202.618Z" fill="#812222"></path> <path d="M272.04 202.618C277.458 204.869 302.11 199.891 307.71 198.134C315.946 195.553 324.181 192.973 332.417 190.392C336.334 189.166 345.448 183.548 349.199 185.213C354.306 187.482 377.475 228.441 382.636 233.163C384.338 234.719 395.136 233.309 395.557 229.722C395.978 226.135 381.977 192.515 376.396 179.155C374.254 174.031 372.076 168.852 368.947 164.258C365.817 159.664 361.608 155.62 356.429 153.625C349.126 150.825 288.42 167.589 285.858 169.84C282.253 172.988 266.33 200.257 272.04 202.618Z" fill="#194866"></path> <path d="M253.593 161.604C250.28 163.929 248.047 167.534 246.766 171.359C243.344 181.626 247.077 193.852 255.624 200.477C264.171 207.102 286.81 206.718 299.53 196.469C307.948 189.679 299.859 184.006 297.315 173.5C296.034 168.211 292.758 163.087 287.67 161.147C281.265 158.713 274.841 162.062 268.362 161.293C262.725 160.635 259.376 157.56 253.593 161.604Z" fill="#0A3C5F"></path> <path d="M253.593 161.604C250.28 163.929 248.047 167.534 246.766 171.359C243.344 181.626 247.077 193.852 255.624 200.477C264.171 207.102 286.81 206.718 299.53 196.469C307.948 189.679 299.859 184.006 297.315 173.5C296.034 168.211 292.758 163.087 287.67 161.147C281.265 158.713 274.841 162.062 268.362 161.293C262.725 160.635 259.376 157.56 253.593 161.604Z" fill="#661919"></path> <path d="M253.593 161.604C250.28 163.929 248.047 167.534 246.766 171.359C243.344 181.626 247.077 193.852 255.624 200.477C264.171 207.102 286.81 206.718 299.53 196.469C307.948 189.679 299.859 184.006 297.315 173.5C296.034 168.211 292.758 163.087 287.67 161.147C281.265 158.713 274.841 162.062 268.362 161.293C262.725 160.635 259.376 157.56 253.593 161.604Z" fill="#163F59"></path> <path d="M367.428 133.951C353.263 127.857 287.597 151.337 277.531 171.798C274.237 178.515 277.458 186.092 281.301 191.912C287.341 201.081 297.205 198.244 305.386 193.779C318.417 186.659 330.953 178.625 342.886 169.749C349.126 165.118 361.388 155.419 366.019 160.506L371.07 136.367C369.99 135.378 368.782 134.537 367.428 133.951Z" fill="#0A3C5F"></path> <path d="M367.428 133.951C353.263 127.857 287.597 151.337 277.531 171.798C274.237 178.515 277.458 186.092 281.301 191.912C287.341 201.081 297.205 198.244 305.386 193.779C318.417 186.659 330.953 178.625 342.886 169.749C349.126 165.118 361.388 155.419 366.019 160.506L371.07 136.367C369.99 135.378 368.782 134.537 367.428 133.951Z" fill="#661919"></path> <path d="M367.428 133.951C353.263 127.857 287.597 151.337 277.531 171.798C274.237 178.515 277.458 186.092 281.301 191.912C287.341 201.081 297.205 198.244 305.386 193.779C318.417 186.659 330.953 178.625 342.886 169.749C349.126 165.118 361.388 155.419 366.019 160.506L371.07 136.367C369.99 135.378 368.782 134.537 367.428 133.951Z" fill="#163F59"></path> <path fill-rule="evenodd" clip-rule="evenodd" d="M195.961 142.04C196.657 136.019 198.359 130.089 198.249 124.032C198.176 120.371 197.389 116.619 195.284 113.618C193.71 111.367 189.647 107.926 186.572 108.86C183.388 109.811 181.704 115.796 180.515 118.523C177.001 126.575 174.658 135.122 173.56 143.834C173.414 144.95 173.304 146.067 173.212 147.201L195.687 146.359C195.723 144.895 195.815 143.449 195.961 142.04Z" fill="#B00000"></path> <path fill-rule="evenodd" clip-rule="evenodd" d="M195.961 142.04C196.657 136.019 198.359 130.089 198.249 124.032C198.176 120.371 197.389 116.619 195.284 113.618C193.71 111.367 189.647 107.926 186.572 108.86C183.388 109.811 181.704 115.796 180.515 118.523C177.001 126.575 174.658 135.122 173.56 143.834C173.414 144.95 173.304 146.067 173.212 147.201L195.687 146.359C195.723 144.895 195.815 143.449 195.961 142.04Z" fill="#3BB6D5"></path> <path d="M236.975 170.078C231.192 166.875 224.255 166.875 217.667 166.344C211.078 165.814 203.959 164.368 199.695 159.317C196.712 155.766 195.705 151.063 195.705 146.341L173.231 147.183C172.7 154.064 173.231 161.128 176.434 167.186C181.357 176.52 191.844 181.846 202.294 183.255C212.744 184.664 223.322 182.743 233.681 180.821C236.792 180.254 240.58 178.991 240.983 175.843C241.276 173.372 239.153 171.286 236.975 170.078Z" fill="#F4A086"></path> <path d="M236.975 170.078C231.192 166.875 224.255 166.875 217.667 166.344C211.078 165.814 203.959 164.368 199.695 159.317C196.712 155.766 195.705 151.063 195.705 146.341L173.231 147.183C172.7 154.064 173.231 161.128 176.434 167.186C181.357 176.52 191.844 181.846 202.294 183.255C212.744 184.664 223.322 182.743 233.681 180.821C236.792 180.254 240.58 178.991 240.983 175.843C241.276 173.372 239.153 171.286 236.975 170.078Z" fill="#E2C59C"></path> <path fill-rule="evenodd" clip-rule="evenodd" d="M185.969 109.171C183.736 112.19 182.986 116.07 182.711 119.822C181.54 136.733 189.281 153.314 200.427 166.07C211.573 178.826 225.939 188.324 240.324 197.274C243.124 199.013 246.29 200.806 249.53 200.184C254.178 199.269 256.393 194.053 257.82 189.532C259.834 183.218 261.847 176.904 263.86 170.609C264.921 167.296 265.983 163.764 265.086 160.396C263.695 155.18 258.26 152.344 253.52 149.782C240.397 142.699 228.611 133.164 218.966 121.799C215.654 117.9 212.561 113.764 208.699 110.415C202.623 105.144 191.844 101.246 185.969 109.171Z" fill="#B00000"></path> <path fill-rule="evenodd" clip-rule="evenodd" d="M185.969 109.171C183.736 112.19 182.986 116.07 182.711 119.822C181.54 136.733 189.281 153.314 200.427 166.07C211.573 178.826 225.939 188.324 240.324 197.274C243.124 199.013 246.29 200.806 249.53 200.184C254.178 199.269 256.393 194.053 257.82 189.532C259.834 183.218 261.847 176.904 263.86 170.609C264.921 167.296 265.983 163.764 265.086 160.396C263.695 155.18 258.26 152.344 253.52 149.782C240.397 142.699 228.611 133.164 218.966 121.799C215.654 117.9 212.561 113.764 208.699 110.415C202.623 105.144 191.844 101.246 185.969 109.171Z" fill="#3BB6D5"></path> <path d="M188.293 105.199C187.964 106.242 187.58 107.286 187.598 108.365C187.616 109.445 188.147 110.616 189.154 111.019C189.849 111.312 190.654 111.202 191.405 111.074C195.577 110.415 199.75 109.756 203.923 109.116C202.861 104.248 203.594 99.0133 205.936 94.621C206.558 93.468 207.309 92.2235 207.016 90.9424C206.705 89.6063 205.387 88.7828 204.143 88.1971C201.379 86.8977 198.433 85.9461 195.413 85.397C192.009 84.7748 190.179 83.7499 190.05 87.2821C189.831 93.5595 190.27 99.0865 188.293 105.199Z" fill="#F4A086"></path> <path d="M188.293 105.199C187.964 106.242 187.58 107.286 187.598 108.365C187.616 109.445 188.147 110.616 189.154 111.019C189.849 111.312 190.654 111.202 191.405 111.074C195.577 110.415 199.75 109.756 203.923 109.116C202.861 104.248 203.594 99.0133 205.936 94.621C206.558 93.468 207.309 92.2235 207.016 90.9424C206.705 89.6063 205.387 88.7828 204.143 88.1971C201.379 86.8977 198.433 85.9461 195.413 85.397C192.009 84.7748 190.179 83.7499 190.05 87.2821C189.831 93.5595 190.27 99.0865 188.293 105.199Z" fill="#E2C59C"></path> <path d="M182.876 73.9768C180.68 77.7286 180.423 82.9628 183.443 86.074C185.218 87.8859 187.762 88.6912 190.215 89.4049C194.57 90.7043 198.944 91.9854 203.3 93.2848C205.936 94.0718 212.506 92.9737 214.72 91.3632C216.971 89.716 214.757 88.0506 214.72 85.2505C214.665 80.7483 210.639 74.5075 209.102 70.2798C207.564 66.0522 207.272 64.0756 203.026 62.5566C195.577 59.9029 186.408 67.9556 182.876 73.9768Z" fill="#F7B690"></path> <path d="M182.876 73.9768C180.68 77.7286 180.423 82.9628 183.443 86.074C185.218 87.8859 187.762 88.6912 190.215 89.4049C194.57 90.7043 198.944 91.9854 203.3 93.2848C205.936 94.0718 212.506 92.9737 214.72 91.3632C216.971 89.716 214.757 88.0506 214.72 85.2505C214.665 80.7483 210.639 74.5075 209.102 70.2798C207.564 66.0522 207.272 64.0756 203.026 62.5566C195.577 59.9029 186.408 67.9556 182.876 73.9768Z" fill="#E9D6B8"></path> <path fill-rule="evenodd" clip-rule="evenodd" d="M178.538 89.0389C179.71 91.1802 180.936 93.3764 182.839 94.9137C184.743 96.451 187.488 97.2014 189.666 96.1033C192.448 94.6941 193.161 91.1253 193.546 88.0323C194.003 84.2805 196.986 86.3486 197.462 82.5785C197.664 80.9863 195.358 73.5375 195.961 72.0551C197.444 68.468 201.068 66.1254 202.568 62.5383C204.398 58.1826 202.184 52.564 197.865 50.6241C193.546 48.6841 187.872 50.7705 185.841 55.0347C184.358 58.146 184.926 62.0076 183.15 64.9724C181.668 67.4614 179.417 67.2784 177.312 68.8341C170.687 73.7389 175.555 83.6034 178.538 89.0389Z" fill="#222B56"></path> <path fill-rule="evenodd" clip-rule="evenodd" d="M178.538 89.0389C179.71 91.1802 180.936 93.3764 182.839 94.9137C184.743 96.451 187.488 97.2014 189.666 96.1033C192.448 94.6941 193.161 91.1253 193.546 88.0323C194.003 84.2805 196.986 86.3486 197.462 82.5785C197.664 80.9863 195.358 73.5375 195.961 72.0551C197.444 68.468 201.068 66.1254 202.568 62.5383C204.398 58.1826 202.184 52.564 197.865 50.6241C193.546 48.6841 187.872 50.7705 185.841 55.0347C184.358 58.146 184.926 62.0076 183.15 64.9724C181.668 67.4614 179.417 67.2784 177.312 68.8341C170.687 73.7389 175.555 83.6034 178.538 89.0389Z" fill="#591203"></path> <path fill-rule="evenodd" clip-rule="evenodd" d="M178.538 89.0389C179.71 91.1802 180.936 93.3764 182.839 94.9137C184.743 96.451 187.488 97.2014 189.666 96.1033C192.448 94.6941 193.161 91.1253 193.546 88.0323C194.003 84.2805 196.986 86.3486 197.462 82.5785C197.664 80.9863 195.358 73.5375 195.961 72.0551C197.444 68.468 201.068 66.1254 202.568 62.5383C204.398 58.1826 202.184 52.564 197.865 50.6241C193.546 48.6841 187.872 50.7705 185.841 55.0347C184.358 58.146 184.926 62.0076 183.15 64.9724C181.668 67.4614 179.417 67.2784 177.312 68.8341C170.687 73.7389 175.555 83.6034 178.538 89.0389Z" fill="#163F59"></path> <path d="M187.323 84.3536C186.774 81.8097 188.805 79.0828 191.386 78.7351C193.948 78.3873 197.48 86.8243 196.657 87.8858C192.063 88.8009 188.458 87.2087 187.323 84.3536Z" fill="#F7B690"></path> <path d="M187.323 84.3536C186.774 81.8097 188.805 79.0828 191.386 78.7351C193.948 78.3873 197.48 86.8243 196.657 87.8858C192.063 88.8009 188.458 87.2087 187.323 84.3536Z" fill="#E9D6B8"></path> <path d="M271.821 85.2505C268.893 94.1267 263.402 107.286 256.631 113.746C249.859 120.206 239.976 123.958 230.954 121.506C226.763 120.353 223.066 118.01 219.515 115.466L212.268 138.563C216.349 140.228 220.558 141.601 224.896 142.498C236.737 144.913 249.859 143.468 259.504 136.184C265.763 131.462 270.174 124.617 273.12 117.351C276.067 110.086 278.775 95.8471 280.258 88.1605C280.661 85.9094 272.48 83.2373 271.821 85.2505Z" fill="#F7B690"></path> <path d="M271.821 85.2505C268.893 94.1267 263.402 107.286 256.631 113.746C249.859 120.206 239.976 123.958 230.954 121.506C226.763 120.353 223.066 118.01 219.515 115.466L212.268 138.563C216.349 140.228 220.558 141.601 224.896 142.498C236.737 144.913 249.859 143.468 259.504 136.184C265.763 131.462 270.174 124.617 273.12 117.351C276.067 110.086 278.775 95.8471 280.258 88.1605C280.661 85.9094 272.48 83.2373 271.821 85.2505Z" fill="#E9D6B8"></path> <path fill-rule="evenodd" clip-rule="evenodd" d="M215.306 112.391C210.383 108.841 204.874 105.474 198.816 105.382C184.999 105.162 183.571 120.316 192.228 128.131C195.54 131.132 200.354 132.889 204.307 134.884C206.924 136.202 209.578 137.446 212.268 138.544L223.34 116.564C221.913 115.558 216.697 113.398 215.306 112.391Z" fill="#B00000"></path> <path fill-rule="evenodd" clip-rule="evenodd" d="M215.306 112.391C210.383 108.841 204.874 105.474 198.816 105.382C184.999 105.162 183.571 120.316 192.228 128.131C195.54 131.132 200.354 132.889 204.307 134.884C206.924 136.202 209.578 137.446 212.268 138.544L223.34 116.564C221.913 115.558 216.697 113.398 215.306 112.391Z" fill="#3BB6D5"></path> <path d="M271.326 76.3741H282.655C283.332 76.3741 284.028 75.8251 284.211 75.1662L291.129 51.1181C291.312 50.4409 290.927 49.9102 290.25 49.9102H278.921C278.244 49.9102 277.549 50.4592 277.366 51.1181L270.448 75.1662C270.265 75.8251 270.667 76.3741 271.326 76.3741Z" fill="#DADAE0"></path> <path d="M270.228 76.3741H281.557C282.234 76.3741 282.93 75.8251 283.113 75.1662L290.031 51.1181C290.214 50.4409 289.829 49.9102 289.152 49.9102H277.824C277.146 49.9102 276.451 50.4592 276.268 51.1181L269.35 75.1662C269.167 75.8251 269.551 76.3741 270.228 76.3741Z" fill="#FFFDD0"></path> <path d="M271.471 74.7817H281.683C282.287 74.7817 282.909 74.2875 283.092 73.6836L289.333 52.0146C289.498 51.4106 289.15 50.9165 288.546 50.9165H278.334C277.73 50.9165 277.108 51.4106 276.925 52.0146L270.684 73.6836C270.519 74.2875 270.867 74.7817 271.471 74.7817Z" fill="#4AA87E"></path> <path d="M271.471 74.7817H281.683C282.287 74.7817 282.909 74.2875 283.092 73.6836L289.333 52.0146C289.498 51.4106 289.15 50.9165 288.546 50.9165H278.334C277.73 50.9165 277.108 51.4106 276.925 52.0146L270.684 73.6836C270.519 74.2875 270.867 74.7817 271.471 74.7817Z" fill="#F8C44F"></path> <path d="M273.212 73.3359C273.67 71.9084 276.287 68.0651 277.678 64.4048C280.222 63.5263 278.868 70.8469 278.026 71.7071C281.009 71.1214 286.591 67.7906 287.89 62.4282C288.403 62.8858 290.05 65.2284 290.086 65.9238C290.233 68.5226 288.567 70.9567 288.696 73.5555C288.805 75.5138 289.702 76.5387 289.116 78.4054C288.165 81.3886 285.621 83.5482 283.114 85.4149C281.814 86.3849 280.442 87.3366 278.886 87.8124C270.211 90.3929 271.785 77.7466 273.212 73.3359Z" fill="#F7B690"></path> <path d="M273.212 73.3359C273.67 71.9084 276.287 68.0651 277.678 64.4048C280.222 63.5263 278.868 70.8469 278.026 71.7071C281.009 71.1214 286.591 67.7906 287.89 62.4282C288.403 62.8858 290.05 65.2284 290.086 65.9238C290.233 68.5226 288.567 70.9567 288.696 73.5555C288.805 75.5138 289.702 76.5387 289.116 78.4054C288.165 81.3886 285.621 83.5482 283.114 85.4149C281.814 86.3849 280.442 87.3366 278.886 87.8124C270.211 90.3929 271.785 77.7466 273.212 73.3359Z" fill="#E9D6B8"></path> </svg> 