<?xml version="1.0" encoding="UTF-8"?> <svg xmlns="http://www.w3.org/2000/svg" width="637" height="582" viewBox="0 0 637 582" fill="none"> <path d="M193.25 581.126C269.746 577.209 200.658 456.898 439.177 331.221C578.579 257.743 709.275 199.986 590.049 90.8032C399.323 -83.8418 10.608 9.74972 1.24246 249.349C-5.88859 433.859 86.95 586.69 193.25 581.126Z" fill="url(#paint0_linear)"></path> <path d="M193.25 581.126C269.746 577.209 200.658 456.898 439.177 331.221C578.579 257.743 709.275 199.986 590.049 90.8032C399.323 -83.8418 10.608 9.74972 1.24246 249.349C-5.88859 433.859 86.95 586.69 193.25 581.126Z" fill="url(#paint1_linear)"></path> <defs> <linearGradient id="paint0_linear" x1="55.7597" y1="575.264" x2="592.043" y2="-114.587" gradientUnits="userSpaceOnUse"> <stop stop-color="#D500F9"></stop> <stop offset="0.6676" stop-color="#2196F3"></stop> <stop offset="1" stop-color="#00E5FF"></stop> </linearGradient> <linearGradient id="paint1_linear" x1="34.9349" y1="285.799" x2="574.562" y2="368.923" gradientUnits="userSpaceOnUse"> <stop stop-color="#019DDF"></stop> <stop offset="1" stop-color="#51B185"></stop> </linearGradient> </defs> </svg> 