<?xml version="1.0" encoding="UTF-8"?> <svg xmlns="http://www.w3.org/2000/svg" width="24" height="24" viewBox="0 0 24 24" fill="none"> <path fill-rule="evenodd" clip-rule="evenodd" d="M12 0C7.0305 0 3 4.0305 3 9C3 9.396 3.033 9.7815 3.084 10.164C3.1095 10.368 3.141 10.5705 3.177 10.7715C3.1815 10.8 3.1875 10.827 3.1935 10.8555C4.446 17.688 12 24 12 24C12 24 19.554 17.688 20.8065 10.8555C20.8125 10.827 20.8185 10.8 20.823 10.773C20.859 10.5705 20.892 10.368 20.916 10.1655C20.967 9.7815 21 9.396 21 9C21 4.0305 16.9695 0 12 0ZM12 13.5C9.5145 13.5 7.5 11.4855 7.5 9C7.5 6.5145 9.5145 4.5 12 4.5C14.4855 4.5 16.5 6.5145 16.5 9C16.5 11.4855 14.4855 13.5 12 13.5Z" fill="white"></path> </svg> 