<?xml version="1.0" encoding="UTF-8"?> <svg xmlns="http://www.w3.org/2000/svg" xmlns:xlink="http://www.w3.org/1999/xlink" viewBox="0 0 106.35 157.3"> <defs> <style>.cls-1{opacity:0.54;}.cls-2{fill:url(#Degradado_sin_nombre_22);}.cls-3{fill:#e0928c;}.cls-4{fill:#4549be;}.cls-5{fill:url(#Degradado_sin_nombre_6);}.cls-6{fill:#251a51;}.cls-7,.cls-8{fill:#fff;}.cls-8{opacity:0.6;}.cls-9{fill:#f6aea6;}.cls-10{fill:url(#Degradado_sin_nombre_6-2);}.cls-11{fill:#352a77;}.cls-12{opacity:0.31;}.cls-13{fill:#171330;}.cls-14{fill:#d9d7e2;}.cls-15{opacity:0.36;}.cls-16{fill:#aeabc6;}.cls-17{fill:#edc483;}.cls-18{fill:#4a7c5c;}</style> <linearGradient id="Degradado_sin_nombre_22" x1="43.85" y1="124.2" x2="51.08" y2="124.2" gradientTransform="matrix(-1, 0, 0, 1, 106.35, 0)" gradientUnits="userSpaceOnUse"> <stop offset="0" stop-color="#e58f7e"></stop> <stop offset="0.14" stop-color="#e4857e"></stop> <stop offset="0.7" stop-color="#e0637f"></stop> <stop offset="1" stop-color="#de567f"></stop> </linearGradient> <linearGradient id="Degradado_sin_nombre_6" x1="45.2" y1="37.04" x2="42.42" y2="80.22" gradientTransform="matrix(-1, 0, 0, 1, 106.35, 0)" gradientUnits="userSpaceOnUse"> <stop offset="0.05" stop-color="#6bc1cd"></stop> <stop offset="1" stop-color="#a8eba4"></stop> </linearGradient> <linearGradient id="Degradado_sin_nombre_6-2" x1="35.41" y1="36.47" x2="32.63" y2="79.65" xlink:href="#Degradado_sin_nombre_6"></linearGradient> </defs> <title>Asset 6</title> <g id="Layer_2" data-name="Layer 2"> <g id="Objects"> <g class="cls-1"> <path class="cls-2" d="M60.47,120.85a3.7,3.7,0,1,0,.66,6.38,3.89,3.89,0,0,0-.66-6.38"></path> </g> <path class="cls-3" d="M40.63,59.53s-4.94-4.69-5-4,.89,1.21,1.41,2.67c0,0-6.56-3.14-6.51-2.45s4.23,2.92,4.21,3S30,56.71,29.81,57.25s4.26,2.56,4.26,2.56-4.23-1.54-4.41-1,3.72,2,3.72,2-3.28-1.17-3.44-.64c-.09.32,7.32,5.56,17,4.54s-6.31-5.22-6.31-5.22"></path> <path class="cls-4" d="M52.25,75.69l-3.31-.07c-8.84,4-20.51,13.7-19.38,22,1.71,12.57,22.89,29.47,22.89,29.47l3.83-12.29s-14.47-12.57-13.9-17.43,17-9.36,17-9.36l2.88-11.92Z"></path> <polygon class="cls-4" points="47.29 155.68 59.36 155.68 76.25 75.55 61.37 75.1 47.29 155.68"></polygon> <path class="cls-5" d="M62.19,31.94s14,.29,14.21,13.92.76,31.49.76,31.49L48.94,75.62V45A13,13,0,0,1,61.52,32Z"></path> <polygon class="cls-6" points="62.1 60.7 62.07 59.69 47.1 58.48 42.33 44.94 25.86 45.53 31.19 60.18 62.1 60.7"></polygon> <path class="cls-7" d="M34.81,52.11A1.22,1.22,0,1,0,36,50.84,1.22,1.22,0,0,0,34.81,52.11Z"></path> <path class="cls-8" d="M34.32,52.12A1.71,1.71,0,1,0,36,50.35,1.7,1.7,0,0,0,34.32,52.12Z"></path> <path class="cls-9" d="M73.81,38.57c.34.62,5.67,18.74.7,28.8s-29.37-5-29.37-5l2.65-4.74s18.28,7,19.92,4.36S65.39,45,65.39,45Z"></path> <path class="cls-10" d="M75.9,40.38A67.26,67.26,0,0,1,78.3,58L66.51,57S64,39.38,66.27,37.11c.56-.57.64-2.1,1.59-2.23A7.33,7.33,0,0,1,75.9,40.38Z"></path> <path class="cls-9" d="M67.6,14.15,67,21.78s2.87.39,2.06,3-2.78,1.47-2.78,1.47-.49,6.7-7.36,4.58S54.36,18.08,55,11.7Z"></path> <path class="cls-9" d="M67,24.58l-1.84,9.86a4,4,0,0,1-4.81,3.12h0a4,4,0,0,1-3-4.54l1-5.65Z"></path> <path class="cls-6" d="M59.4,24.69s-.07.08-.23.13a.63.63,0,0,1-.6-.24,1.47,1.47,0,0,1-.13-1l.12-1.36c.09-1,.16-1.84.2-2.48a7.4,7.4,0,0,0,0-1,4.86,4.86,0,0,0-.16,1c-.08.63-.16,1.51-.25,2.47,0,.46-.07.9-.11,1.36a1.56,1.56,0,0,0,.2,1.13.66.66,0,0,0,.73.23C59.38,24.81,59.41,24.69,59.4,24.69Z"></path> <path class="cls-6" d="M56.92,29.92s.06.08.2.19a3.62,3.62,0,0,0,.63.41,5.33,5.33,0,0,0,2.41.63,5.27,5.27,0,0,0,2.43-.53,3.18,3.18,0,0,0,.65-.38c.15-.1.22-.17.21-.18a6.77,6.77,0,0,1-3.29.89A6.54,6.54,0,0,1,56.92,29.92Z"></path> <path class="cls-6" d="M58.54,26.07s.09.21.39.4a1.58,1.58,0,0,0,2.33-.74.82.82,0,0,0,.08-.55s-.06.2-.21.49a1.67,1.67,0,0,1-.92.79A1.61,1.61,0,0,1,59,26.35C58.71,26.21,58.57,26.05,58.54,26.07Z"></path> <path class="cls-6" d="M61,25.05c0,.05.27.1.53.3s.37.45.42.43,0-.35-.3-.59S61,25,61,25.05Z"></path> <path class="cls-6" d="M67.24,25.11s.17.07.44,0a.55.55,0,0,0,.35-.35.45.45,0,0,0-.23-.59.4.4,0,0,0-.48.14l.17.09a3.38,3.38,0,0,0,.33-1,3.28,3.28,0,0,0-.5.9l.16.09a.2.2,0,0,1,.25-.06.28.28,0,0,1,.13.35.5.5,0,0,1-.24.29C67.41,25.07,67.24,25.08,67.24,25.11Z"></path> <path class="cls-6" d="M56.17,20.38c.13,0,.29-.19.36-.49s0-.56-.11-.59-.3.18-.37.48S56,20.35,56.17,20.38Z"></path> <path class="cls-6" d="M61.6,20.92c.13,0,.3-.18.39-.48s0-.57-.09-.6-.3.17-.39.47S61.47,20.88,61.6,20.92Z"></path> <path class="cls-6" d="M67.65,22A19.22,19.22,0,0,0,69,15.8a7.14,7.14,0,0,0-.12-2.65,3.08,3.08,0,0,0-1.64-2c-1.18-.49-2.58,0-3.78-.4a4.22,4.22,0,0,1-1.55-1.17,12.08,12.08,0,0,0-1.38-1.39,2.37,2.37,0,0,0-1.83-.52A1.36,1.36,0,0,0,57.58,9,3.38,3.38,0,1,0,52,12.79c.73.9,2.08,1,3,1.67,1.92,1.53,4.93,1.85,8,1.16,1.31-.3,2.89.21,3.16,1.53a23.73,23.73,0,0,1,0,2.92,2.38,2.38,0,0,0,.27,1.44,1,1,0,0,0,1.28.44"></path> <path class="cls-6" d="M62,18.46a1.22,1.22,0,0,0,.55.72,1.14,1.14,0,0,0,.83-.36.52.52,0,0,0,.13-.56.88.88,0,0,0-1.34-.35A.54.54,0,0,0,62,18.46Z"></path> <path class="cls-6" d="M56,17.52a1.06,1.06,0,0,0,.73.63,1.1,1.1,0,0,0,.84-.49c.23-.33-.05-.92-.71-1S55.84,17.16,56,17.52Z"></path> <path class="cls-6" d="M67.41,57.06a.86.86,0,0,0,0-.26c0-.23,0-.47-.06-.75,0-.75-.12-1.66-.2-2.73-.15-2.3-.31-5.49-.31-9a22.27,22.27,0,0,1,.3-4.93,4.78,4.78,0,0,1,.91-1.91,4.15,4.15,0,0,1,1.46-1.12A4.38,4.38,0,0,1,72.15,36a7.18,7.18,0,0,1,.95.27,3.11,3.11,0,0,0-.94-.35,4.4,4.4,0,0,0-2.71.3,4.17,4.17,0,0,0-1.53,1.14,5,5,0,0,0-1,2,22.67,22.67,0,0,0-.32,5c0,3.53.18,6.73.37,9,.1,1.16.19,2.09.27,2.73,0,.27.06.52.09.74S67.41,57.06,67.41,57.06Z"></path> <path class="cls-6" d="M66.38,57.26s.15.05.45.1l1.23.17c1,.13,2.49.29,4.1.42s3.06.2,4.11.24l1.25,0a1.59,1.59,0,0,0,.45,0,2.23,2.23,0,0,0-.45,0l-1.24-.09-4.11-.3-4.09-.36-1.25-.11Z"></path> <path class="cls-9" d="M49.33,58.12s-4.93-4.7-5-4,.89,1.21,1.4,2.67c0,0-6.56-3.13-6.51-2.44s4.23,2.91,4.21,3-4.74-2.08-4.88-1.53,4.26,2.56,4.26,2.56-4.23-1.55-4.41-1,3.71,2,3.71,2-3.28-1.17-3.43-.65c-.1.32,9.47,5,9.38,5.26s1.3-5.93,1.3-5.93"></path> <path class="cls-11" d="M52.49,153.84s1.66-4.06,3.82-10.83c1.09-3.37,2.25-7.44,3.43-12s2.31-9.58,3.37-14.89c2.11-10.63,3.56-20.33,4.58-27.35.49-3.48.89-6.31,1.18-8.32.12-1,.22-1.7.3-2.26s.09-.8.09-.8-.05.27-.13.79-.2,1.31-.34,2.26c-.3,2-.72,4.84-1.23,8.31-1.06,7-2.53,16.71-4.64,27.33-1.07,5.31-2.21,10.34-3.35,14.88s-2.32,8.61-3.39,12c-.5,1.7-1,3.22-1.48,4.55s-.84,2.49-1.19,3.42l-.77,2.15C52.57,153.58,52.49,153.84,52.49,153.84Z"></path> <path class="cls-11" d="M47.54,153.49s2.75.09,6.14.09,6.14,0,6.14-.09-2.75-.1-6.14-.1S47.54,153.43,47.54,153.49Z"></path> <path class="cls-11" d="M52.16,127.81a4,4,0,0,0,.16-.56c.09-.35.21-.88.34-1.52.27-1.3.57-3.1.85-5.1s.56-3.79.79-5.09c.1-.55.2-1.06.28-1.54a3.57,3.57,0,0,0,.09-.57,4.08,4.08,0,0,0-.16.55c-.09.36-.21.88-.35,1.53-.27,1.3-.56,3.1-.84,5.1s-.56,3.79-.79,5.09c-.1.55-.2,1.06-.29,1.54A2.84,2.84,0,0,0,52.16,127.81Z"></path> <path class="cls-11" d="M57.51,84.67l-.53.06L55.46,85a45.05,45.05,0,0,0-5.52,1.15,19.09,19.09,0,0,0-7.43,3.77,13,13,0,0,0-3.09,3.86,10.45,10.45,0,0,0-1.13,5.16,15.4,15.4,0,0,0,1.14,5.19,22.35,22.35,0,0,0,2.34,4.36,34.14,34.14,0,0,0,5.65,6.16c1.8,1.56,3.36,2.7,4.43,3.49s1.7,1.18,1.7,1.18-.14-.12-.42-.33-.74-.54-1.23-.92c-1.06-.8-2.6-2-4.39-3.53a34.61,34.61,0,0,1-5.59-6.15A22.29,22.29,0,0,1,39.61,104a15.28,15.28,0,0,1-1.13-5.12,10.46,10.46,0,0,1,1.11-5.08,12.72,12.72,0,0,1,3-3.8A19.24,19.24,0,0,1,50,86.24,52,52,0,0,1,55.47,85L57,84.77Z"></path> <path class="cls-11" d="M58.36,75.62a2,2,0,0,0-.07.51c0,.44-.06.9-.1,1.38-.08,1.37-.17,2.89-.27,4.57,0,.87-.08,1.71-.12,2.51A2.33,2.33,0,0,0,58,85.71a1.73,1.73,0,0,0,.68.71,3.78,3.78,0,0,0,1.32.46,2.07,2.07,0,0,0,.5.06,3.8,3.8,0,0,0-.49-.13,4.57,4.57,0,0,1-1.26-.5,1.67,1.67,0,0,1-.6-.68,2.13,2.13,0,0,1-.16-1c.05-.8.09-1.64.14-2.51.08-1.68.14-3.2.21-4.57,0-.49,0-1,0-1.39A4,4,0,0,0,58.36,75.62Z"></path> <g class="cls-12"> <path class="cls-7" d="M59.33,40.55a3.49,3.49,0,0,0,.78.83,3.47,3.47,0,0,0,.9.69,6.09,6.09,0,0,0-1.68-1.52Z"></path> </g> <g class="cls-12"> <path class="cls-7" d="M61.57,48.12s.25-.3.45-.72a1.85,1.85,0,0,0,.27-.8s-.25.3-.45.72A1.85,1.85,0,0,0,61.57,48.12Z"></path> </g> <g class="cls-12"> <path class="cls-7" d="M56.28,46.14s.18.36.49.73.6.65.64.61-.18-.36-.49-.73S56.32,46.1,56.28,46.14Z"></path> </g> <g class="cls-12"> <path class="cls-7" d="M56.46,44.12a4.3,4.3,0,0,0,1.32.06A4.22,4.22,0,0,0,59.1,44,4.86,4.86,0,0,0,57.77,44,4.87,4.87,0,0,0,56.46,44.12Z"></path> </g> <g class="cls-12"> <path class="cls-7" d="M54.94,41.08a3.51,3.51,0,0,0-.4-1,3.56,3.56,0,0,0-.56-1,3.05,3.05,0,0,0,.39,1.05A2.91,2.91,0,0,0,54.94,41.08Z"></path> </g> <g class="cls-12"> <path class="cls-7" d="M65,41a1.22,1.22,0,0,0,.87-.61,1.6,1.6,0,0,0,.28-.73l0-.24-.14.18c-.12.15-.18.25-.16.27s.12-.05.26-.17L66,39.64a2.16,2.16,0,0,1-.3.65C65.42,40.75,65,41,65,41Z"></path> </g> <g class="cls-12"> <path class="cls-7" d="M69.09,34.84c0-.05-.42-.07-.9-.25s-.82-.43-.86-.39a1.37,1.37,0,0,0,.79.57A1.34,1.34,0,0,0,69.09,34.84Z"></path> </g> <g class="cls-12"> <path class="cls-7" d="M64.29,38c0,.05.47-.21.88-.66a1.93,1.93,0,0,0,.56-.94,6.94,6.94,0,0,0-.71.81A8.73,8.73,0,0,0,64.29,38Z"></path> </g> <g class="cls-12"> <path class="cls-7" d="M56.06,35.72a4.17,4.17,0,0,0,.68,1.06,4.62,4.62,0,0,0,.84.94,3.7,3.7,0,0,0-.68-1.06A4.31,4.31,0,0,0,56.06,35.72Z"></path> </g> <g class="cls-12"> <path class="cls-7" d="M65,45.17a3.05,3.05,0,0,0-.44-1,3,3,0,0,0-.6-.91,2.9,2.9,0,0,0,.43,1A3,3,0,0,0,65,45.17Z"></path> </g> <g class="cls-12"> <path class="cls-7" d="M70.22,44c0,.05.45-.09.8-.5a1.24,1.24,0,0,0,.39-.87c-.06,0-.21.37-.54.74S70.19,43.92,70.22,44Z"></path> </g> <g class="cls-12"> <path class="cls-7" d="M71.81,41.33a5.13,5.13,0,0,0-1-.95,4.8,4.8,0,0,0-1.11-.81,5,5,0,0,0,1,1A4.94,4.94,0,0,0,71.81,41.33Z"></path> </g> <g class="cls-12"> <path class="cls-7" d="M72.32,39.84s.35-.1.72-.32.65-.45.63-.5a1.73,1.73,0,0,0-.73.33C72.57,39.57,72.29,39.8,72.32,39.84Z"></path> </g> <g class="cls-12"> <path class="cls-7" d="M74.12,48.12a2.94,2.94,0,0,0,0-1,3,3,0,0,0-.21-1,3,3,0,0,0,0,1.05A2.85,2.85,0,0,0,74.12,48.12Z"></path> </g> <g class="cls-12"> <path class="cls-7" d="M75.08,43.49a2,2,0,0,0-.19-.87,2,2,0,0,0-.37-.81,2.07,2.07,0,0,0,.19.87A2.17,2.17,0,0,0,75.08,43.49Z"></path> </g> <g class="cls-12"> <path class="cls-7" d="M69.45,49a3.93,3.93,0,0,0,.83-.86,3.51,3.51,0,0,0,.68-1,3.74,3.74,0,0,0-.83.85A3.34,3.34,0,0,0,69.45,49Z"></path> </g> <g class="cls-12"> <path class="cls-7" d="M67.65,47.08a9.63,9.63,0,0,0-.17-1.4,10.82,10.82,0,0,0-.15-1.4,3.54,3.54,0,0,0,0,1.43A3.61,3.61,0,0,0,67.65,47.08Z"></path> </g> <g class="cls-12"> <path class="cls-7" d="M73,53.89a4.45,4.45,0,0,0,1.17-.68,5,5,0,0,0,1.07-.84,4.59,4.59,0,0,0-1.18.68A5.12,5.12,0,0,0,73,53.89Z"></path> </g> <g class="cls-12"> <path class="cls-7" d="M71.49,52.2a3.48,3.48,0,0,0,.14-1.2,3.58,3.58,0,0,0-.06-1.2,4,4,0,0,0-.13,1.2A3.75,3.75,0,0,0,71.49,52.2Z"></path> </g> <g class="cls-12"> <path class="cls-7" d="M67.9,53.56a12.52,12.52,0,0,0,1.75,1.27,11.53,11.53,0,0,0,1.86,1.11,13.31,13.31,0,0,0-1.75-1.27A11.53,11.53,0,0,0,67.9,53.56Z"></path> </g> <g class="cls-12"> <path class="cls-7" d="M73.09,55.64a4.73,4.73,0,0,0,1.33,0,5,5,0,0,0,1.31-.21,4.23,4.23,0,0,0-1.32,0A4.37,4.37,0,0,0,73.09,55.64Z"></path> </g> <g class="cls-12"> <path class="cls-7" d="M64.13,55a4.7,4.7,0,0,0,.14-1.4,4.85,4.85,0,0,0-.06-1.4,5.39,5.39,0,0,0-.13,1.4A5.09,5.09,0,0,0,64.13,55Z"></path> </g> <g class="cls-12"> <path class="cls-7" d="M57.89,52.68a2.16,2.16,0,0,0,1.18-.26,2.25,2.25,0,0,0,1-.69,10.08,10.08,0,0,0-1.07.51C58.4,52.51,57.89,52.62,57.89,52.68Z"></path> </g> <g class="cls-12"> <path class="cls-7" d="M62,56.45a4.73,4.73,0,0,0-.55-1.21,4.65,4.65,0,0,0-.72-1.11,4.43,4.43,0,0,0,.55,1.21A4.65,4.65,0,0,0,62,56.45Z"></path> </g> <g class="cls-12"> <path class="cls-7" d="M53.73,51a2.24,2.24,0,0,0,1-.68,2.19,2.19,0,0,0,.68-1.05c-.05,0-.34.44-.81.91S53.7,50.94,53.73,51Z"></path> </g> <g class="cls-12"> <path class="cls-7" d="M52,46.68a5.52,5.52,0,0,0-.65-1.38A6.27,6.27,0,0,0,50.5,44a5.53,5.53,0,0,0,.66,1.38A6.91,6.91,0,0,0,52,46.68Z"></path> </g> <g class="cls-12"> <path class="cls-7" d="M52.81,43.65a2.23,2.23,0,0,0,.36-.85,2.34,2.34,0,0,0,.18-.91,2.23,2.23,0,0,0-.36.85A2.34,2.34,0,0,0,52.81,43.65Z"></path> </g> <g class="cls-12"> <path class="cls-7" d="M50.53,53.88a3.73,3.73,0,0,0,.37-1.46,3.41,3.41,0,0,0-.1-1.5c-.06,0,0,.67-.1,1.48S50.47,53.86,50.53,53.88Z"></path> </g> <g class="cls-12"> <path class="cls-7" d="M53.73,56.35a3,3,0,0,0,1.4-.55,3.12,3.12,0,0,0,1.1-1s-.52.42-1.21.85S53.71,56.3,53.73,56.35Z"></path> </g> <g class="cls-12"> <path class="cls-7" d="M59,58.6a3.67,3.67,0,0,0-.55-1.09,3.61,3.61,0,0,0-.72-1,4.17,4.17,0,0,0,.56,1.09A4.23,4.23,0,0,0,59,58.6Z"></path> </g> <g class="cls-12"> <path class="cls-7" d="M64.74,61.4a2.4,2.4,0,0,0,.07-1,2.85,2.85,0,0,0-.13-1,2.87,2.87,0,0,0-.07,1A2.79,2.79,0,0,0,64.74,61.4Z"></path> </g> <g class="cls-12"> <path class="cls-7" d="M73.49,72.12a4,4,0,0,0,1.52-2,7.78,7.78,0,0,0-.76,1A8.86,8.86,0,0,0,73.49,72.12Z"></path> </g> <g class="cls-12"> <path class="cls-7" d="M73.33,74.52a4.62,4.62,0,0,0,.91.94,4.87,4.87,0,0,0,1,.79,8.61,8.61,0,0,0-2-1.73Z"></path> </g> <g class="cls-12"> <path class="cls-7" d="M75.1,73.64s.37-.24.74-.61a2.72,2.72,0,0,0,.61-.76s-.38.24-.75.62S75.06,73.61,75.1,73.64Z"></path> </g> <g class="cls-12"> <path class="cls-7" d="M75.33,67.56a5.48,5.48,0,0,0,.38-1.08,5.91,5.91,0,0,0,.34-1.08,2.41,2.41,0,0,0-.53,1A2.54,2.54,0,0,0,75.33,67.56Z"></path> </g> <g class="cls-12"> <path class="cls-7" d="M67.4,74.57a4.65,4.65,0,0,0,1.78.44,4.54,4.54,0,0,0,1.83-.1c0-.06-.82,0-1.81-.09S67.42,74.51,67.4,74.57Z"></path> </g> <g class="cls-12"> <path class="cls-7" d="M67.83,73a3.88,3.88,0,0,0,1.38-.46,4,4,0,0,0,1.24-.78,8.42,8.42,0,0,0-1.32.6A10.08,10.08,0,0,0,67.83,73Z"></path> </g> <g class="cls-12"> <path class="cls-7" d="M62.58,70.79A14.14,14.14,0,0,0,65,72.9a6,6,0,0,0-1.16-1.13A6.52,6.52,0,0,0,62.58,70.79Z"></path> </g> <g class="cls-12"> <path class="cls-7" d="M61.34,74.92a6.24,6.24,0,0,0,1.55-.38A7.21,7.21,0,0,0,64.38,74a6.14,6.14,0,0,0-1.55.38A6.93,6.93,0,0,0,61.34,74.92Z"></path> </g> <g class="cls-12"> <path class="cls-7" d="M61.17,72.84a9.24,9.24,0,0,0-.13-1c0-.54,0-1,0-1a1.59,1.59,0,0,0-.17,1A1.67,1.67,0,0,0,61.17,72.84Z"></path> </g> <g class="cls-12"> <path class="cls-7" d="M57.18,73.24a4.28,4.28,0,0,0,.38-1.18,4.13,4.13,0,0,0,.18-1.22,8.28,8.28,0,0,0-.56,2.4Z"></path> </g> <g class="cls-12"> <path class="cls-7" d="M55.9,74.92a4.36,4.36,0,0,0,1.74-.19A4.23,4.23,0,0,0,59.26,74c0-.05-.74.27-1.67.5S55.89,74.86,55.9,74.92Z"></path> </g> <g class="cls-12"> <path class="cls-7" d="M50.87,71.54a5.66,5.66,0,0,0,1.05,1,5.54,5.54,0,0,0,1.18.82,5.16,5.16,0,0,0-1.05-1A5.27,5.27,0,0,0,50.87,71.54Z"></path> </g> <g class="cls-12"> <path class="cls-7" d="M51.88,69.57a4,4,0,0,0,2.35,1.72c0-.06-.58-.32-1.22-.8S51.93,69.53,51.88,69.57Z"></path> </g> <g class="cls-12"> <path class="cls-7" d="M53.5,69.27a5.15,5.15,0,0,0,1.37-.07,5.16,5.16,0,0,0,1.35-.26,4.69,4.69,0,0,0-1.37.07A4.62,4.62,0,0,0,53.5,69.27Z"></path> </g> <g class="cls-12"> <path class="cls-7" d="M51.65,67.64s-.26-.37-.73-.63a1.66,1.66,0,0,0-.94-.28,5.17,5.17,0,0,0,.84.45A5.54,5.54,0,0,0,51.65,67.64Z"></path> </g> <g class="cls-12"> <path class="cls-7" d="M51.27,57.39a4.49,4.49,0,0,0,.48-1.14,3.91,3.91,0,0,0,.3-1.2,4,4,0,0,0-.49,1.14A4,4,0,0,0,51.27,57.39Z"></path> </g> <path class="cls-13" d="M58.26,155.68s-12.79,2.18-12.18,1.48a9.32,9.32,0,0,1,2.1-1.48Z"></path> <path class="cls-14" d="M47.3,20.4c.14.44,0,11.45,0,11.45l-7.32.6.86,4.25-4.31-4.33-7.83.52-.59-13.18Z"></path> <path class="cls-7" d="M34.75,26.58a.84.84,0,1,1-.73-.94A.84.84,0,0,1,34.75,26.58Z"></path> <path class="cls-7" d="M38.7,26.49a.84.84,0,1,1-.73-.94A.85.85,0,0,1,38.7,26.49Z"></path> <path class="cls-7" d="M42.39,26.27a.84.84,0,0,1-1.67-.21.84.84,0,1,1,1.67.21Z"></path> <g class="cls-15"> <path class="cls-6" d="M24.59,53.43a2.37,2.37,0,0,0,.94-.1,2.34,2.34,0,0,0,.9-.28,2.47,2.47,0,0,0-.94.09A2.26,2.26,0,0,0,24.59,53.43Z"></path> <path class="cls-6" d="M20.84,53.68a2.2,2.2,0,0,0,.94.08,2.12,2.12,0,0,0,.94-.12,2.41,2.41,0,0,0-.94-.08A2.64,2.64,0,0,0,20.84,53.68Z"></path> <path class="cls-6" d="M17.12,53.18a2.36,2.36,0,0,0,.9.27,2.14,2.14,0,0,0,.94.08,2.44,2.44,0,0,0-.9-.27A2.15,2.15,0,0,0,17.12,53.18Z"></path> <path class="cls-6" d="M13.63,51.8c0,.05.33.28.8.51a1.83,1.83,0,0,0,.9.29,3,3,0,0,0-.82-.47A2.31,2.31,0,0,0,13.63,51.8Z"></path> <path class="cls-6" d="M10.64,49.53s.25.35.64.69.74.59.77.55-.25-.36-.64-.7S10.68,49.49,10.64,49.53Z"></path> <path class="cls-6" d="M8.43,46.5a2.68,2.68,0,0,0,.41.85,2.58,2.58,0,0,0,.58.75A2.41,2.41,0,0,0,9,47.24C8.74,46.81,8.48,46.47,8.43,46.5Z"></path> <path class="cls-6" d="M7.34,42.92a1.66,1.66,0,0,0,.07.94,2.2,2.2,0,0,0,.32.9,2.5,2.5,0,0,0-.13-.94A3.3,3.3,0,0,0,7.34,42.92Z"></path> <path class="cls-6" d="M7.65,39.19a2,2,0,0,0-.3.9,1.78,1.78,0,0,0,0,.95,3.16,3.16,0,0,0,.22-.92A2.69,2.69,0,0,0,7.65,39.19Z"></path> <path class="cls-6" d="M9.32,35.85s-.34.27-.62.72a1.82,1.82,0,0,0-.37.87,3.2,3.2,0,0,0,.54-.77C9.14,36.23,9.37,35.88,9.32,35.85Z"></path> <path class="cls-6" d="M12.2,33.47a1.86,1.86,0,0,0-.87.38c-.45.29-.74.61-.71.65a3.27,3.27,0,0,0,.81-.48A3.4,3.4,0,0,0,12.2,33.47Z"></path> <path class="cls-6" d="M15.86,33a1.66,1.66,0,0,0-.94-.21,1.72,1.72,0,0,0-.94.16,4.45,4.45,0,0,0,.94,0A5,5,0,0,0,15.86,33Z"></path> <path class="cls-6" d="M18.3,35.5a1.36,1.36,0,0,0-.18-.94,1.42,1.42,0,0,0-.63-.72s.23.36.45.81A7.49,7.49,0,0,0,18.3,35.5Z"></path> <path class="cls-6" d="M17.07,39s.35-.26.63-.71a1.63,1.63,0,0,0,.33-.89,4.06,4.06,0,0,0-.5.79C17.27,38.57,17,38.91,17.07,39Z"></path> <path class="cls-6" d="M14,41a2.38,2.38,0,0,0,.91-.25,2,2,0,0,0,.79-.52,2.78,2.78,0,0,0-.86.34A2.43,2.43,0,0,0,14,41Z"></path> <path class="cls-6" d="M10.24,41.29a1.7,1.7,0,0,0,.93.16,2,2,0,0,0,.94-.12,2.77,2.77,0,0,0-.93-.07A3.25,3.25,0,0,0,10.24,41.29Z"></path> <path class="cls-6" d="M6.65,40.22a2.25,2.25,0,0,0,.84.44c.49.19.89.31.91.25a2.56,2.56,0,0,0-.84-.43A2.67,2.67,0,0,0,6.65,40.22Z"></path> <path class="cls-6" d="M3.58,38.07s.26.34.67.67a2.34,2.34,0,0,0,.78.53c0-.05-.26-.35-.66-.68S3.62,38,3.58,38.07Z"></path> <path class="cls-6" d="M1.34,35.06a2,2,0,0,0,.38.87c.28.45.57.76.61.73s-.17-.39-.44-.83A2.87,2.87,0,0,0,1.34,35.06Z"></path> <path class="cls-6" d="M.22,31.49a2.4,2.4,0,0,0,.12.94c.12.51.25.91.31.89a2.61,2.61,0,0,0-.12-.94A2.47,2.47,0,0,0,.22,31.49Z"></path> <path class="cls-6" d="M.15,27.74a2.5,2.5,0,0,0-.14.93,2.28,2.28,0,0,0,0,.94,2.28,2.28,0,0,0,.15-.93A2.24,2.24,0,0,0,.15,27.74Z"></path> <path class="cls-6" d="M1,24.08A2.33,2.33,0,0,0,.64,25a2.56,2.56,0,0,0-.17.93A2.24,2.24,0,0,0,.83,25,2.51,2.51,0,0,0,1,24.08Z"></path> <path class="cls-6" d="M2.61,20.69a2.44,2.44,0,0,0-.53.78,2.27,2.27,0,0,0-.36.87,2.37,2.37,0,0,0,.53-.78A2.16,2.16,0,0,0,2.61,20.69Z"></path> <path class="cls-6" d="M4.89,17.7s-.35.25-.7.64-.56.76-.51.79.34-.27.66-.66S4.93,17.74,4.89,17.7Z"></path> <path class="cls-6" d="M7.68,15.18s-.39.19-.79.52-.7.64-.66.68.39-.19.79-.52S7.71,15.22,7.68,15.18Z"></path> <path class="cls-6" d="M10.81,13.11a2.17,2.17,0,0,0-.85.41c-.44.27-.78.52-.75.57a2.49,2.49,0,0,0,.85-.41C10.5,13.41,10.84,13.16,10.81,13.11Z"></path> <path class="cls-6" d="M14.18,11.45a2.21,2.21,0,0,0-.89.3,2.4,2.4,0,0,0-.82.48,2.19,2.19,0,0,0,.9-.3A2.41,2.41,0,0,0,14.18,11.45Z"></path> <path class="cls-6" d="M17.71,10.13a2.41,2.41,0,0,0-.92.22,2.38,2.38,0,0,0-.86.4,2.41,2.41,0,0,0,.92-.22A2.38,2.38,0,0,0,17.71,10.13Z"></path> <path class="cls-6" d="M21.35,9.23a2.07,2.07,0,0,0-.94.09,2.34,2.34,0,0,0-.9.28,2.47,2.47,0,0,0,.94-.09A2.34,2.34,0,0,0,21.35,9.23Z"></path> <path class="cls-6" d="M25.09,8.88a2.3,2.3,0,0,0-.95,0,2.19,2.19,0,0,0-.93.16,2.41,2.41,0,0,0,.95,0A2.49,2.49,0,0,0,25.09,8.88Z"></path> <path class="cls-6" d="M28.85,8.9a2.4,2.4,0,0,0-.94-.12,2.3,2.3,0,0,0-.94.07A2.37,2.37,0,0,0,27.9,9,2.4,2.4,0,0,0,28.85,8.9Z"></path> <path class="cls-6" d="M32.59,9.2A2.36,2.36,0,0,0,31.67,9a2.42,2.42,0,0,0-1,0,2.44,2.44,0,0,0,.93.19A2.36,2.36,0,0,0,32.59,9.2Z"></path> <path class="cls-6" d="M36.31,9.73c0-.06-.39-.16-.91-.24a2.21,2.21,0,0,0-.94-.05,2.41,2.41,0,0,0,.91.24A2.42,2.42,0,0,0,36.31,9.73Z"></path> <path class="cls-6" d="M40,10.46a2.37,2.37,0,0,0-.9-.29,2.36,2.36,0,0,0-.94-.1,2.55,2.55,0,0,0,.9.29A2.37,2.37,0,0,0,40,10.46Z"></path> <path class="cls-6" d="M43.65,11.4a2.51,2.51,0,0,0-.88-.34,2.13,2.13,0,0,0-.94-.15,2.51,2.51,0,0,0,.88.34A2.54,2.54,0,0,0,43.65,11.4Z"></path> <path class="cls-6" d="M47.23,12.57a2.38,2.38,0,0,0-.86-.4,2.41,2.41,0,0,0-.92-.22c0,.06.37.23.86.4A2.41,2.41,0,0,0,47.23,12.57Z"></path> <path class="cls-6" d="M50.71,14a2.4,2.4,0,0,0-.83-.47,2.31,2.31,0,0,0-.9-.29,2.4,2.4,0,0,0,.83.47A2.26,2.26,0,0,0,50.71,14Z"></path> </g> <g class="cls-15"> <path class="cls-6" d="M70.19,24.27s-.2-.39-.53-.78S69,22.8,69,22.83s.2.39.54.78S70.15,24.3,70.19,24.27Z"></path> <path class="cls-6" d="M72.79,27s-.23-.37-.6-.73-.69-.64-.73-.6.23.37.6.74S72.75,27,72.79,27Z"></path> <path class="cls-6" d="M75.61,29.47s-.26-.35-.65-.68a2.47,2.47,0,0,0-.78-.54s.25.35.65.69A2.54,2.54,0,0,0,75.61,29.47Z"></path> <path class="cls-6" d="M78.63,31.71s-.29-.32-.71-.62a2.5,2.5,0,0,0-.82-.47s.28.32.71.63S78.6,31.76,78.63,31.71Z"></path> <path class="cls-6" d="M81.82,33.7c0-.05-.31-.3-.76-.57a2.3,2.3,0,0,0-.85-.39,2.35,2.35,0,0,0,.75.56A2.52,2.52,0,0,0,81.82,33.7Z"></path> <path class="cls-6" d="M85.17,35.41a2.48,2.48,0,0,0-.8-.5,2.26,2.26,0,0,0-.89-.32s.33.27.8.5A2.47,2.47,0,0,0,85.17,35.41Z"></path> <path class="cls-6" d="M88.67,36.8a2.42,2.42,0,0,0-.85-.41,2.33,2.33,0,0,0-.92-.23,2.39,2.39,0,0,0,.85.41A2.33,2.33,0,0,0,88.67,36.8Z"></path> <path class="cls-6" d="M92.34,37.56a2.21,2.21,0,0,0-.91-.24,2.26,2.26,0,0,0-1,0,4.67,4.67,0,0,0,1.86.27Z"></path> <path class="cls-6" d="M96.07,37.18a3,3,0,0,0-.93.13,3,3,0,0,0-.92.23,3.19,3.19,0,0,0,1.85-.36Z"></path> <path class="cls-6" d="M99.31,35.35s-.36.22-.77.52a3.91,3.91,0,0,0-.74.59,1.68,1.68,0,0,0,.85-.43C99.08,35.72,99.35,35.38,99.31,35.35Z"></path> <path class="cls-6" d="M101.23,32.16a3.25,3.25,0,0,0-.42.84,3.37,3.37,0,0,0-.34.87s.31-.31.52-.79A1.94,1.94,0,0,0,101.23,32.16Z"></path> <path class="cls-6" d="M101.71,28.44a2.18,2.18,0,0,0-.14.93,2.41,2.41,0,0,0,.05.95,2.12,2.12,0,0,0,.14-.94A2.31,2.31,0,0,0,101.71,28.44Z"></path> <path class="cls-6" d="M101.13,24.73a2.44,2.44,0,0,0,.11.93,3.13,3.13,0,0,0,.29.9,2,2,0,0,0-.1-.94A2.19,2.19,0,0,0,101.13,24.73Z"></path> <path class="cls-6" d="M99.77,21.23a2.29,2.29,0,0,0,.29.89,2.34,2.34,0,0,0,.48.82,2.28,2.28,0,0,0-.3-.9C100,21.57,99.82,21.2,99.77,21.23Z"></path> <path class="cls-6" d="M97.74,18.06a2.49,2.49,0,0,0,.47.83,2.68,2.68,0,0,0,.62.71s-.16-.4-.46-.83S97.79,18,97.74,18.06Z"></path> <path class="cls-6" d="M95.15,15.34s.24.37.61.72.71.62.75.58-.23-.36-.61-.72A2.46,2.46,0,0,0,95.15,15.34Z"></path> <path class="cls-6" d="M92.08,13.18c0,.05.3.31.74.59a2.54,2.54,0,0,0,.85.42s-.31-.31-.75-.59A2.5,2.5,0,0,0,92.08,13.18Z"></path> <path class="cls-6" d="M89.83,12.12c0,.05.09.15.24.21s.3.07.32,0-.09-.14-.24-.2S89.85,12.07,89.83,12.12Z"></path> </g> <polygon class="cls-14" points="81.99 15.23 83.91 12.1 89.29 10.48 84.95 7.57 87.23 1.17 70.64 0 81.99 15.23"></polygon> <polygon class="cls-16" points="89.29 10.48 83.91 12.1 70.64 0 84.95 7.57 89.29 10.48"></polygon> <rect class="cls-17" x="84.09" y="44.34" width="21.15" height="13.05" transform="translate(176.94 120) rotate(-168.21)"></rect> <path class="cls-6" d="M86.38,42.27a1,1,0,0,0,.14.21l.42.55,1.58,2,2.37,3a9.22,9.22,0,0,0,1.54,1.67,3,3,0,0,0,2.35.6,18.69,18.69,0,0,0,2.37-.52l2.17-.6c1.39-.4,2.62-.8,3.65-1.14s1.85-.65,2.42-.87l.65-.25.23-.1a.67.67,0,0,0-.24.06l-.66.22-2.44.81c-1,.33-2.27.7-3.66,1.09l-2.17.59a18,18,0,0,1-2.34.52,3,3,0,0,1-2.22-.56A8.91,8.91,0,0,1,91,47.94l-2.4-3L87,43l-.45-.54A1.64,1.64,0,0,0,86.38,42.27Z"></path> <path class="cls-6" d="M103.62,58.36s-.83-2.08-2-4.58-2.09-4.52-2.14-4.5.83,2.07,2,4.58S103.57,58.38,103.62,58.36Z"></path> <path class="cls-6" d="M84.27,50.61a5.77,5.77,0,0,0,.94-.4c.57-.26,1.34-.64,2.2-1.07S89,48.31,89.59,48a5.28,5.28,0,0,0,.88-.52,5.77,5.77,0,0,0-.94.4c-.57.26-1.35.64-2.21,1.07s-1.63.83-2.18,1.13A4.44,4.44,0,0,0,84.27,50.61Z"></path> <path class="cls-18" d="M29.38,20a1,1,0,1,0-1.23.71A1,1,0,0,0,29.38,20Z"></path> </g> </g> </svg> 