<?xml version="1.0" encoding="UTF-8"?> <svg xmlns="http://www.w3.org/2000/svg" width="132" height="126" viewBox="0 0 132 126" fill="none"> <path opacity="0.2" d="M23.5297 125.852C13.3427 122.365 5.5233 114.493 0.310343 107.169C0.101593 106.876 -0.00519587 106.548 0.0001894 106.214C0.00557467 105.881 0.122959 105.555 0.341099 105.266C0.55924 104.977 0.870772 104.737 1.24577 104.567C1.62078 104.397 2.04663 104.304 2.48241 104.296C5.06717 104.113 7.65194 103.914 10.2367 103.731C10.5635 103.589 10.9256 103.501 11.2997 103.472C11.6738 103.444 12.0516 103.475 12.4088 103.565C21.097 102.934 29.7853 102.303 38.3433 101.904C40.2547 101.821 40.7325 104.229 38.7994 104.462C32.0008 105.309 25.1588 105.99 18.3168 106.621C42.3181 118.246 74.7905 115.356 90.538 95.5937C91.8475 93.9678 92.9808 92.2626 93.9264 90.4953C89.408 92.0139 84.5424 92.8365 79.6079 92.9163C74.6733 92.9961 69.7666 92.3314 65.1683 90.9602C39.1035 83.2877 38.8645 52.4148 69.078 49.4421C94.8822 46.9344 104.179 66.0494 101.529 82.6566C109.554 78.1301 116.047 72.2028 120.469 65.3685C127.517 54.678 129.202 42.3842 125.204 30.8089C121.316 19.7485 106.611 -1.85761 87.4971 3.25742C85.6726 3.73903 84.9775 1.59679 86.7152 1.06536C101.007 -3.30235 113.518 6.6287 120.773 15.0984C130.013 25.8806 133.74 38.8859 131.243 51.6343C128.549 65.1526 116.559 80.4811 100.204 88.1702C99.3484 90.8001 98.1021 93.3465 96.4895 95.7597C79.7428 120.123 37.8437 124.208 10.8449 107.501C9.45476 107.617 8.04291 107.75 6.63107 107.883C11.9744 114.094 18.7512 118.395 25.9842 123.577C27.787 124.706 25.5063 126.533 23.5297 125.852ZM85.5423 88.2201C89.263 87.5786 92.8513 86.5504 96.2071 85.1643C98.3581 78.8546 97.9491 72.1939 95.0342 66.066C87.041 50.1895 55.6981 48.4956 50.963 67.2285C47.1836 82.2913 68.535 91.0931 85.5423 88.2201Z" fill="#B3BFC5"></path> </svg> 