<?xml version="1.0" encoding="UTF-8"?> <svg xmlns="http://www.w3.org/2000/svg" width="844" height="1067" viewBox="0 0 844 1067" fill="none"> <path d="M789.714 404.862C789.714 404.862 822.143 581.765 668.815 574.262C538.456 568.093 681.35 979.351 470.694 852.441C269.219 731.086 159.837 1043.5 92.5198 971.739C-12.2548 860.267 391.203 583.473 168.658 316.189C-53.8866 48.9045 434.894 -46.5306 608.076 118.87C781.259 284.271 789.768 404.483 789.768 404.483L789.714 404.862Z" fill="url(#paint0_linear)"></path> <path d="M789.714 404.862C789.714 404.862 822.143 581.765 668.815 574.262C538.456 568.093 681.35 979.351 470.694 852.441C269.219 731.086 159.837 1043.5 92.5198 971.739C-12.2548 860.267 391.203 583.473 168.658 316.189C-53.8866 48.9045 434.894 -46.5306 608.076 118.87C781.259 284.271 789.768 404.483 789.768 404.483L789.714 404.862Z" fill="url(#paint1_linear)"></path> <path d="M789.714 404.862C789.714 404.862 822.143 581.765 668.815 574.262C538.456 568.093 681.35 979.351 470.694 852.441C269.219 731.086 159.837 1043.5 92.5198 971.739C-12.2548 860.267 391.203 583.473 168.658 316.189C-53.8866 48.9045 434.894 -46.5306 608.076 118.87C781.259 284.271 789.768 404.483 789.768 404.483L789.714 404.862Z" fill="url(#paint2_linear)"></path> <defs> <linearGradient id="paint0_linear" x1="-25.3423" y1="764.856" x2="928.421" y2="763.747" gradientUnits="userSpaceOnUse"> <stop offset="0.192708" stop-color="#F9D100" stop-opacity="0.42"></stop> <stop offset="1" stop-color="#FF0000" stop-opacity="0.83"></stop> </linearGradient> <linearGradient id="paint1_linear" x1="-25.3423" y1="764.856" x2="928.421" y2="763.747" gradientUnits="userSpaceOnUse"> <stop offset="0.192708" stop-color="#81F5F5"></stop> <stop offset="1" stop-color="#3A9169"></stop> </linearGradient> <linearGradient id="paint2_linear" x1="-25.3423" y1="764.856" x2="928.421" y2="763.747" gradientUnits="userSpaceOnUse"> <stop offset="0.255208" stop-color="#009FE2"></stop> <stop offset="1" stop-color="#183274"></stop> </linearGradient> </defs> </svg> 