<?xml version="1.0" encoding="UTF-8"?> <svg xmlns="http://www.w3.org/2000/svg" width="873" height="997" viewBox="0 0 873 997" fill="none"> <path d="M0.555261 251.525C-5.29881 369.541 190.22 282.171 346.247 667.759C437.477 893.119 505.912 1102.68 692.117 936.628C989.966 670.997 906.528 59.8623 539.958 8.3086C257.658 -31.2672 8.50397 87.509 0.555261 251.525Z" fill="url(#paint0_linear)"></path> <path d="M0.555261 251.525C-5.29881 369.541 190.22 282.171 346.247 667.759C437.477 893.119 505.912 1102.68 692.117 936.628C989.966 670.997 906.528 59.8623 539.958 8.3086C257.658 -31.2672 8.50397 87.509 0.555261 251.525Z" fill="url(#paint1_linear)"></path> <path d="M0.555261 251.525C-5.29881 369.541 190.22 282.171 346.247 667.759C437.477 893.119 505.912 1102.68 692.117 936.628C989.966 670.997 906.528 59.8623 539.958 8.3086C257.658 -31.2672 8.50397 87.509 0.555261 251.525Z" fill="url(#paint2_linear)"></path> <defs> <linearGradient id="paint0_linear" x1="30.8937" y1="41.4101" x2="1006.59" y2="972.29" gradientUnits="userSpaceOnUse"> <stop offset="0.192708" stop-color="#F9D100" stop-opacity="0.42"></stop> <stop offset="1" stop-color="#FF0000" stop-opacity="0.83"></stop> </linearGradient> <linearGradient id="paint1_linear" x1="30.8937" y1="41.4101" x2="1006.59" y2="972.29" gradientUnits="userSpaceOnUse"> <stop offset="0.192708" stop-color="#81F5F5"></stop> <stop offset="1" stop-color="#3A9169"></stop> </linearGradient> <linearGradient id="paint2_linear" x1="30.8937" y1="41.4101" x2="1006.59" y2="972.29" gradientUnits="userSpaceOnUse"> <stop offset="0.255208" stop-color="#009FE2"></stop> <stop offset="1" stop-color="#183274"></stop> </linearGradient> </defs> </svg> 