<svg width="278" height="32" viewBox="0 0 278 32" fill="none" xmlns="http://www.w3.org/2000/svg">
<path d="M36.9927 9.40223L33.8441 13.0258C32.835 12.2315 31.7 11.8822 30.4525 12.0373C29.8955 12.1042 29.3584 12.28 28.8741 12.5542C28.3897 12.8283 27.9682 13.1949 27.6352 13.6317C27.0061 14.4394 26.685 15.4325 26.7263 16.4428C26.7676 17.453 27.1686 18.4185 27.8616 19.1758C29.2365 20.6455 31.7404 20.9485 33.5247 19.7194C35.0555 18.67 36.0226 16.1885 34.6207 13.8839C34.9551 13.5056 37.8728 11.4894 38.7785 11.0155C39.5893 11.956 40.1522 13.0725 40.4188 14.2695C40.8821 16.29 40.7051 18.2772 39.7021 20.1353C38.675 22.0399 37.0842 23.369 35.0345 24.1793C33.5182 24.7877 31.872 25.0324 30.2366 24.8924C26.6966 24.5822 23.9063 23.0777 22.2435 19.9397C21.6437 18.8236 21.4128 17.6104 21.3978 16.3393C21.3557 14.6042 21.8867 12.9013 22.9137 11.4778C24.1252 9.77908 25.788 8.7036 27.8166 8.07019C29.2725 7.62086 30.7524 7.56434 32.2352 7.68319C33.9535 7.82609 35.5987 8.42055 36.9927 9.40223Z" fill="#009FE2"/>
<path d="M66.365 9.17174V11.2546C65.3154 10.6355 64.1705 10.182 62.9734 9.91095C61.2581 9.5312 59.5354 9.36451 57.8036 9.82978C57.35 9.95689 56.9188 10.1494 56.5246 10.4009C55.3506 11.1256 54.8604 13.3215 56.7226 14.3042C57.5202 14.7245 58.3929 14.9057 59.2715 15.0579C60.372 15.2463 61.4755 15.4246 62.5701 15.6377C63.4254 15.795 64.25 16.0806 65.014 16.4842C66.4444 17.2553 67.1716 18.4148 67.1896 20.0092C67.2196 22.0776 66.23 23.4879 64.3183 24.3329C63.6841 24.612 63.0122 24.8028 62.3227 24.8996C59.9227 25.2424 57.4722 24.9987 55.1947 24.1908C54.9623 24.1111 54.7329 24.0184 54.5065 23.9184C54.2801 23.8183 54.0642 23.7067 53.8288 23.5937V21.4775C56.2428 22.9008 58.8427 23.3806 61.591 23.1603C62.5144 23.1038 63.4033 22.7996 64.1579 22.2819C65.4114 21.4123 65.5673 18.9975 63.8145 18.1322C63.0064 17.7321 62.1413 17.535 61.2656 17.3756C59.9477 17.1364 58.6088 17.0031 57.3163 16.6422C56.4952 16.4389 55.7182 16.0953 55.0223 15.6275C53.7583 14.7303 53.292 13.4896 53.4465 12.0257C53.6759 9.83703 55.1242 8.68183 57.1739 8.1122C58.8232 7.65127 60.5174 7.69476 62.2132 7.91362C63.6598 8.10724 65.0629 8.53243 66.365 9.17174Z" fill="black"/>
<path d="M107.479 10.104H104.101C103.967 9.50249 104.056 8.93286 104.047 8.33714C104.627 8.1922 105.191 8.39222 105.755 8.35163C106.318 8.31105 106.846 8.34294 107.467 8.34294C107.498 7.55879 107.485 6.79493 107.486 6.03108C107.488 5.26722 107.486 4.49467 107.486 3.68733L109.56 3.36121V8.33134H115.069C115.219 8.94446 115.087 9.50684 115.148 10.1084H109.675C109.496 10.2924 109.565 10.4693 109.565 10.6287C109.553 12.6333 109.551 14.6379 109.538 16.641C109.538 17.4121 109.466 18.1832 109.493 18.9514C109.521 19.7428 109.53 20.5458 109.729 21.3169C110.088 22.7156 111.011 23.4273 112.502 23.465C113.394 23.4867 114.223 23.262 115.069 22.9127V24.6767C114.959 24.8405 114.737 24.8753 114.524 24.9434C113.316 25.3434 112.012 25.3898 110.776 25.0767C108.947 24.6318 107.99 23.4331 107.627 21.7039C107.478 20.8719 107.416 20.0274 107.443 19.1833C107.443 16.4777 107.452 13.7721 107.47 11.0664C107.479 10.7621 107.479 10.4548 107.479 10.104Z" fill="black"/>
<path d="M73.9557 9.96306H70.69C70.5011 9.65868 70.6046 9.36444 70.5866 9.0934C70.5686 8.82235 70.5866 8.51362 70.5866 8.19764C71.7231 8.02661 72.8356 8.27446 74.0126 8.1759C74.0816 6.61195 74.0126 5.07844 74.0666 3.52754L76.1267 3.21301V8.19764H81.6564V9.95727H76.1267C76.1177 10.137 76.1072 10.2472 76.1072 10.3675C76.0788 13.2866 76.0443 16.2058 76.0323 19.125C76.0229 19.8478 76.1126 20.5687 76.2992 21.2687C76.6305 22.4645 77.3622 23.2211 78.926 23.3066C79.3743 23.3302 79.8238 23.2941 80.262 23.1994C80.7015 23.0841 81.134 22.9452 81.5574 22.7834V24.5618C81.2396 24.8648 80.7733 24.8923 80.3474 24.9778C79.2379 25.1981 78.1119 25.2097 77.0309 24.8662C75.452 24.3647 74.5344 23.2573 74.2075 21.6963C74.0038 20.6541 73.9148 19.5939 73.9422 18.5336C73.9712 15.9246 73.9981 13.32 74.0231 10.7197C74.0246 10.4834 74.0681 10.2414 73.9557 9.96306Z" fill="black"/>
<path d="M45.7471 8.09482H47.7835V24.5547C47.1102 24.6996 46.4474 24.5764 45.7021 24.6257C45.7081 19.1164 45.7306 13.6491 45.7471 8.09482Z" fill="black"/>
<path d="M47.5177 0.107086C48.2539 0.479593 48.7323 1.09416 49.2976 1.64204L45.0989 4.4873C44.9115 4.18147 44.6326 3.95535 44.3896 3.69156L47.5177 0.107086Z" fill="#009FE2"/>
<path d="M10.0667 13.3287C10.7789 13.3287 11.3277 13.1678 11.866 13.0069C14.5543 12.2097 16.3356 10.6052 16.8139 7.8121C17.2922 5.01903 15.9142 2.41148 13.2484 1.14467C11.845 0.467778 10.3336 0.180788 8.78627 0.135855C6.01844 0.0546865 3.24762 0.0459899 0.478297 0.00685496C0.410632 -0.00667958 0.340312 -7.38778e-05 0.276608 0.0258012C0.212904 0.0516764 0.158807 0.0956061 0.121448 0.151799C0.169428 8.15852 0.0149936 16.2537 0 24.3343C0.721639 24.4656 1.46258 24.4627 2.18307 24.3256C2.19807 20.7353 2.21306 17.1291 2.22955 13.5273H7.69923L15.9457 24.4531H18.5381L10.0667 13.3287ZM2.26254 11.7473V2.04477C2.31872 1.98581 2.38945 1.94159 2.46811 1.91624C2.54678 1.89089 2.63081 1.88524 2.71235 1.89983C4.75448 1.93606 6.79811 1.93606 8.83875 2.01723C10.3381 2.07666 11.797 2.37379 13.037 3.30144C14.3954 4.31605 14.9442 5.70316 14.7537 7.3048C14.4689 9.68913 12.89 11.1429 10.3216 11.5734C9.63331 11.6887 8.93606 11.7469 8.2375 11.7473C6.26734 11.7473 4.29717 11.7473 2.26254 11.7473Z" fill="black"/>
<path d="M101.046 23.3721C100.087 23.5794 99.3812 23.1779 99.0694 22.2879C98.9774 22.0131 98.9313 21.7259 98.9329 21.4371C98.9249 20.7607 98.9224 20.0843 98.9254 19.4079C98.9254 17.3787 98.9509 15.3495 98.9254 13.3202C98.9374 12.2305 98.6252 11.1603 98.0258 10.2373C97.3286 9.19802 96.2895 8.5965 95.0945 8.24429C93.2953 7.71089 91.4661 7.72249 89.6414 8.15877C88.6312 8.38084 87.6678 8.7681 86.7926 9.30383V11.1214C87.028 11.1881 87.1494 11.0316 87.2889 10.9533C89.211 9.87781 91.2592 9.46037 93.4587 9.83577C94.9761 10.0952 96.4155 10.9258 96.7408 12.8289C96.9253 13.9073 96.8023 14.9842 96.8428 16.0379C96.683 16.0971 96.5063 16.0971 96.3465 16.0379C94.4963 15.5944 92.6311 15.3712 90.7254 15.6263C89.7088 15.7625 88.7253 16.0003 87.8301 16.496C86.0504 17.4932 85.0458 19.2412 85.5586 21.5371C85.9319 23.2098 87.0715 24.2055 88.6698 24.752C90.6564 25.4318 92.6311 25.2883 94.5773 24.5607C95.4706 24.2072 96.3087 23.7355 97.0677 23.159C98.0273 25.1085 100.059 25.4637 101.753 24.7955V23.0561C101.497 23.333 101.261 23.3257 101.046 23.3721ZM96.8173 21.469C95.4096 22.6532 93.6261 23.3378 91.7615 23.4098C90.8611 23.4637 89.9626 23.2803 89.1616 22.8793C88.1255 22.3503 87.5797 21.5212 87.5438 20.3819C87.5078 19.2427 88.0385 18.3976 89.0431 17.8208C89.5661 17.5402 90.1352 17.349 90.7254 17.2555C92.0643 17.0004 93.4063 17.0801 94.7422 17.2903C95.444 17.3938 96.1374 17.5449 96.8173 17.7425V21.469Z" fill="black"/>
<path d="M120.406 24.5904C120.019 24.2308 119.906 23.815 120.065 23.3431C120.247 22.8712 120.554 22.5791 120.986 22.4667C121.418 22.3319 121.839 22.433 122.248 22.7701C122.635 23.1296 122.737 23.5454 122.555 24.0173C122.396 24.4892 122.1 24.7814 121.668 24.8937C121.236 25.0286 120.815 24.9274 120.406 24.5904Z" fill="black"/>
<path d="M127.901 24.86H126.229L137.079 1.12891H138.546L149.327 24.86H147.689L144.516 17.916H131.074L127.901 24.86ZM137.795 3.15144L131.62 16.5676H143.936L137.795 3.15144Z" fill="black"/>
<path d="M160.565 25.2645C158.063 25.2645 156.016 24.4443 154.424 22.8038C152.809 21.1408 152.002 19.1407 152.002 16.8036C152.002 14.4889 152.809 12.5001 154.424 10.8371C156.016 9.19659 158.075 8.37634 160.6 8.37634C162.419 8.37634 164.057 8.79208 165.513 9.62357V11.1068C163.989 10.2303 162.408 9.79211 160.77 9.79211C158.723 9.79211 157.006 10.4663 155.618 11.8147C154.254 13.163 153.571 14.8372 153.571 16.8373C153.571 18.8374 154.254 20.5116 155.618 21.8599C157.029 23.1858 158.746 23.8488 160.77 23.8488C162.681 23.8488 164.364 23.3431 165.82 22.3319V23.8488C164.387 24.7926 162.635 25.2645 160.565 25.2645Z" fill="black"/>
<path d="M176.41 23.8488C177.707 23.8488 178.924 23.5454 180.061 22.9386C181.198 22.3319 182.119 21.5678 182.825 20.6464V17.9834C180.868 16.7249 178.878 16.0957 176.854 16.0957C175.148 16.0957 173.795 16.4553 172.794 17.1744C171.793 17.871 171.293 18.8036 171.293 19.9722C171.293 21.2307 171.77 22.197 172.726 22.8712C173.681 23.5229 174.909 23.8488 176.41 23.8488ZM175.967 25.2645C174.284 25.2645 172.805 24.8038 171.531 23.8825C170.303 22.9386 169.689 21.6464 169.689 20.0059C169.689 18.4104 170.326 17.1407 171.6 16.1968C172.873 15.2305 174.488 14.7473 176.444 14.7473C178.764 14.7473 180.891 15.3316 182.825 16.5002V14.3765C182.825 11.3203 180.891 9.79211 177.024 9.79211C175.068 9.79211 173.226 10.3652 171.497 11.5113V9.96066C173.158 8.90444 175.091 8.37634 177.297 8.37634C179.481 8.37634 181.198 8.88197 182.449 9.89324C183.723 10.882 184.36 12.3315 184.36 14.2417V21.388C184.36 22.0847 184.519 22.6465 184.837 23.0735C185.156 23.478 185.588 23.6802 186.134 23.6802C186.498 23.6802 186.816 23.6128 187.089 23.478V24.7252C186.771 24.905 186.327 24.9949 185.759 24.9949C184.985 24.9949 184.337 24.7589 183.814 24.287C183.314 23.7926 183.029 23.0959 182.961 22.197C181.187 24.242 178.855 25.2645 175.967 25.2645Z" fill="black"/>
<path d="M198.275 25.2645C195.796 25.2645 193.795 24.4443 192.271 22.8038C190.747 21.1633 189.985 19.1744 189.985 16.8373C189.985 14.5001 190.747 12.5113 192.271 10.8708C193.817 9.20783 195.819 8.37634 198.275 8.37634C201.164 8.37634 203.404 9.46626 204.997 11.6461V1.26374H206.532V24.86H204.997V22.0285C203.382 24.1858 201.141 25.2645 198.275 25.2645ZM198.548 23.8488C199.959 23.8488 201.255 23.478 202.438 22.7364C203.621 21.9948 204.474 21.0397 204.997 19.8711V13.8035C204.451 12.6349 203.575 11.6798 202.37 10.9382C201.187 10.1741 199.913 9.79211 198.548 9.79211C196.547 9.79211 194.875 10.4663 193.533 11.8147C192.214 13.1405 191.554 14.8148 191.554 16.8373C191.554 18.8598 192.214 20.534 193.533 21.8599C194.875 23.1858 196.547 23.8488 198.548 23.8488Z" fill="black"/>
<path d="M220.379 25.2645C217.809 25.2645 215.694 24.478 214.033 22.9049C212.35 21.3093 211.508 19.2868 211.508 16.8373C211.508 14.4102 212.259 12.3989 213.76 10.8034C215.261 9.18535 217.206 8.37634 219.594 8.37634C220.936 8.37634 222.119 8.64601 223.143 9.18535C224.166 9.70222 224.951 10.4101 225.497 11.309C226.566 12.9945 227.1 14.7361 227.1 16.5339V17.0395H213.044C213.089 19.0846 213.806 20.7251 215.193 21.9611C216.603 23.2195 218.4 23.8488 220.584 23.8488C222.54 23.8488 224.291 23.3431 225.838 22.3319V23.815C224.564 24.7814 222.745 25.2645 220.379 25.2645ZM213.078 15.7249H225.565C225.565 15.0957 225.451 14.4552 225.224 13.8035C224.996 13.1518 224.655 12.5225 224.2 11.9158C223.768 11.2865 223.143 10.7809 222.324 10.3989C221.505 9.99437 220.584 9.79211 219.56 9.79211C217.65 9.79211 216.114 10.3989 214.954 11.6124C213.794 12.8259 213.169 14.1968 213.078 15.7249Z" fill="black"/>
<path d="M233.596 24.86H232.06V8.78084H233.596V11.4439C234.21 10.5225 235.063 9.78088 236.155 9.21906C237.246 8.65725 238.452 8.37634 239.771 8.37634C242.546 8.37634 244.309 9.52244 245.059 11.8147C245.719 10.7809 246.617 9.94942 247.755 9.32019C248.915 8.69095 250.2 8.37634 251.61 8.37634C253.452 8.37634 254.874 8.93815 255.875 10.0618C256.876 11.1629 257.376 12.7473 257.376 14.8148V24.86H255.841V15.1181C255.841 12.8484 255.272 11.3652 254.135 10.6685C253.225 10.0843 252.258 9.79211 251.235 9.79211C250.052 9.79211 248.915 10.1629 247.823 10.9045C246.731 11.6686 245.935 12.5675 245.435 13.6012C245.48 14.6799 245.503 15.2417 245.503 15.2867V24.86H243.968V15.0844C243.968 11.5562 242.444 9.79211 239.396 9.79211C238.236 9.79211 237.121 10.1404 236.052 10.8371C234.983 11.5562 234.164 12.4214 233.596 13.4327V24.86Z" fill="black"/>
<path d="M263.588 31.7367C262.588 31.7367 261.814 31.5681 261.268 31.231V29.7815C261.928 30.1411 262.644 30.3209 263.418 30.3209C264.532 30.3209 265.431 29.8827 266.113 29.0062C266.818 28.1972 267.637 26.7365 268.57 24.6241L261.03 8.78084H262.77L269.354 22.7701L275.734 8.78084H277.406L269.184 26.6803C268.41 28.4107 267.58 29.6804 266.693 30.4894C265.829 31.3209 264.794 31.7367 263.588 31.7367Z" fill="black"/>
<path fill-rule="evenodd" clip-rule="evenodd" d="M136.907 0.86557H138.718L149.739 25.1234H147.517L144.344 18.1793H131.246L128.073 25.1234H125.816L136.907 0.86557ZM137.251 1.39227L126.642 24.5967H127.729L130.902 17.6526H144.688L147.861 24.5967H148.915L138.373 1.39227H137.251ZM204.73 1.00041H206.798V25.1234H204.73V22.7762C203.107 24.6108 200.947 25.5279 198.275 25.5279C195.73 25.5279 193.654 24.6825 192.074 22.9819C190.503 21.2902 189.718 19.2368 189.718 16.8373C189.718 14.4378 190.503 12.3844 192.074 10.6927C193.675 8.97111 195.751 8.113 198.275 8.113C200.964 8.113 203.124 9.03681 204.73 10.8858V1.00041ZM205.263 1.52711V12.4611L204.78 11.8002C203.242 9.69381 201.085 8.6397 198.275 8.6397C195.887 8.6397 193.959 9.44468 192.467 11.049C190.991 12.6383 190.251 14.5626 190.251 16.8373C190.251 19.1121 190.991 21.0364 192.467 22.6257C193.935 24.2061 195.862 25.0012 198.275 25.0012C201.062 25.0012 203.221 23.9579 204.782 21.8719L205.263 21.2295V24.5967H206.265V1.52711H205.263ZM137.796 2.51385L144.349 16.831H131.206L137.796 2.51385ZM132.034 16.3043H143.523L137.794 3.78907L132.034 16.3043ZM160.6 8.6397C158.14 8.6397 156.153 9.43601 154.617 11.0194C153.05 12.6331 152.268 14.5565 152.268 16.8036C152.268 19.0739 153.05 21.0083 154.617 22.6215C156.154 24.2053 158.129 25.0012 160.565 25.0012C162.536 25.0012 164.194 24.5652 165.553 23.7062V22.8216C164.148 23.6831 162.551 24.1121 160.77 24.1121C158.68 24.1121 156.896 23.4252 155.435 22.0507L155.43 22.0462C154.012 20.6458 153.305 18.9034 153.305 16.8373C153.305 14.7712 154.012 13.0288 155.43 11.6285L155.431 11.6269C156.872 10.2274 158.657 9.52878 160.77 9.52878C162.315 9.52878 163.807 9.90736 165.246 10.6593V9.77701C163.867 9.02015 162.321 8.6397 160.6 8.6397ZM154.232 10.6548C155.879 8.95718 158.01 8.113 160.6 8.113C162.462 8.113 164.146 8.53905 165.646 9.39559L165.779 9.47164V11.5648L165.378 11.3344C163.892 10.4795 162.357 10.0555 160.77 10.0555C158.789 10.0555 157.141 10.7049 155.806 12.0015C154.494 13.2978 153.838 14.9036 153.838 16.8373C153.838 18.7702 154.494 20.3755 155.804 21.6714C157.163 22.9472 158.812 23.5854 160.77 23.5854C162.63 23.5854 164.259 23.0942 165.666 22.1164L166.086 21.8248V23.9897L165.967 24.0679C164.483 25.046 162.677 25.5279 160.565 25.5279C157.998 25.5279 155.879 24.6832 154.232 22.9861C152.569 21.2733 151.735 19.2076 151.735 16.8036C151.735 14.4213 152.569 12.367 154.232 10.6548ZM171.764 10.1056V11.0295C173.414 10.0311 175.168 9.52878 177.024 9.52878C178.986 9.52878 180.507 9.91529 181.541 10.7326C182.586 11.5589 183.091 12.7903 183.091 14.3766V16.97L182.685 16.7249C180.795 15.5822 178.717 15.0107 176.444 15.0107C174.534 15.0107 172.98 15.4819 171.762 16.4057L171.76 16.4075C170.554 17.3008 169.956 18.4919 169.956 20.006C169.956 21.5701 170.536 22.7823 171.692 23.6723C172.916 24.5568 174.338 25.0012 175.967 25.0012C178.783 25.0012 181.038 24.0084 182.759 22.0256L183.178 21.5416L183.227 22.1773C183.291 23.0292 183.557 23.6585 183.998 24.0966C184.467 24.5173 185.047 24.7315 185.759 24.7315C186.218 24.7315 186.567 24.6698 186.823 24.5622V23.8581C186.608 23.9158 186.378 23.9436 186.134 23.9436C185.511 23.9436 184.999 23.7076 184.627 23.2351L184.623 23.2297C184.261 22.7452 184.093 22.1233 184.093 21.388V14.2417C184.093 12.3949 183.481 11.0293 182.284 10.1003L182.28 10.0971C181.091 9.13597 179.441 8.6397 177.297 8.6397C175.19 8.6397 173.349 9.13071 171.764 10.1056ZM171.353 9.73925C173.061 8.65253 175.046 8.113 177.297 8.113C179.52 8.113 181.303 8.6275 182.616 9.68775C183.965 10.7363 184.626 12.2692 184.626 14.2417V21.388C184.626 22.0444 184.776 22.5453 185.05 22.9145C185.315 23.2492 185.666 23.4169 186.134 23.4169C186.464 23.4169 186.741 23.3558 186.97 23.2424L187.356 23.0519V24.878L187.221 24.9539C186.846 25.1656 186.35 25.2582 185.759 25.2582C184.925 25.2582 184.211 25.0019 183.634 24.4815L183.625 24.4734C183.187 24.04 182.907 23.4749 182.772 22.794C180.997 24.6173 178.721 25.5279 175.967 25.5279C174.231 25.5279 172.696 25.0516 171.374 24.095L171.368 24.0904C170.07 23.093 169.422 21.7214 169.422 20.006C169.422 18.3294 170.097 16.9813 171.439 15.987C172.768 14.9788 174.443 14.484 176.444 14.484C178.651 14.484 180.691 15.0027 182.558 16.0403V14.3766C182.558 12.9065 182.096 11.8457 181.208 11.1439C180.309 10.433 178.929 10.0555 177.024 10.0555C175.125 10.0555 173.334 10.611 171.646 11.73L171.231 12.0052V9.81702L171.353 9.73925ZM219.594 8.6397C217.274 8.6397 215.403 9.42215 213.957 10.9814L213.955 10.9827C212.505 12.5238 211.775 14.4686 211.775 16.8373C211.775 19.2201 212.59 21.1723 214.218 22.7148C215.822 24.2352 217.869 25.0012 220.379 25.0012C222.646 25.0012 224.366 24.5506 225.571 23.6832V22.8074C224.082 23.678 222.417 24.1121 220.584 24.1121C218.345 24.1121 216.481 23.4652 215.015 22.1567C213.566 20.8665 212.824 19.1542 212.777 17.0453L212.771 16.7762H226.834V16.5339C226.834 14.7907 226.316 13.097 225.271 11.4489L225.268 11.4445C224.75 10.5914 224.004 9.91625 223.021 9.41986L223.017 9.41774C222.038 8.90172 220.899 8.6397 219.594 8.6397ZM213.564 10.6248C215.12 8.94836 217.138 8.113 219.594 8.113C220.972 8.113 222.199 8.38997 223.266 8.95191C224.328 9.48878 225.151 10.2283 225.724 11.1714C226.816 12.8934 227.367 14.6823 227.367 16.5339V17.3029H213.32C213.419 19.1576 214.105 20.6376 215.372 21.7655C216.725 22.9737 218.456 23.5854 220.584 23.5854C222.491 23.5854 224.19 23.0934 225.691 22.1123L226.104 21.8418V23.9449L226 24.0239C224.662 25.0388 222.777 25.5279 220.379 25.5279C217.749 25.5279 215.565 24.7208 213.849 23.095C212.109 21.4464 211.242 19.3535 211.242 16.8373C211.242 14.3523 212.012 12.2746 213.564 10.6248ZM239.771 8.6397C238.492 8.6397 237.329 8.91179 236.278 9.45265C235.222 9.99591 234.405 10.7085 233.818 11.5887L233.329 12.3226V9.04421H232.327V24.5967H233.329V13.3645L233.363 13.3048C233.954 12.254 234.802 11.3592 235.902 10.6194L235.905 10.6173C237.013 9.8953 238.178 9.52878 239.396 9.52878C240.973 9.52878 242.201 9.98713 243.027 10.9442C243.847 11.8934 244.234 13.289 244.234 15.0844V24.5967H245.236V15.2869C245.236 15.2869 245.236 15.2847 245.236 15.279L245.235 15.2541L245.232 15.1658C245.229 15.0904 245.225 14.9825 245.219 14.8421C245.208 14.5615 245.191 14.1515 245.168 13.6122L245.166 13.5467L245.194 13.4876C245.717 12.4076 246.546 11.4756 247.669 10.6896L247.672 10.6875C248.803 9.9195 249.992 9.52878 251.235 9.52878C252.312 9.52878 253.328 9.83689 254.277 10.4461C255.535 11.218 256.107 12.8246 256.107 15.1181V24.5967H257.109V14.8148C257.109 12.7865 256.619 11.2743 255.676 10.2378L255.675 10.2358C254.735 9.18108 253.394 8.6397 251.61 8.6397C250.242 8.6397 249.002 8.94434 247.884 9.55047C246.784 10.1594 245.919 10.9608 245.285 11.9551L244.981 12.4312L244.806 11.8957C244.446 10.7973 243.851 9.99105 243.028 9.45592C242.202 8.9188 241.123 8.6397 239.771 8.6397ZM236.031 8.98551C237.164 8.40274 238.412 8.113 239.771 8.113C241.194 8.113 242.384 8.40695 243.321 9.01594C244.127 9.54038 244.729 10.2873 245.131 11.2433C245.78 10.3683 246.612 9.65055 247.624 9.09043L247.626 9.08936C248.828 8.4374 250.158 8.113 251.61 8.113C253.511 8.113 255.012 8.69519 256.075 9.88761M236.031 8.98551C235.167 9.43052 234.442 9.98736 233.862 10.6568L236.031 8.98551ZM260.61 8.51751H262.939L269.35 22.1375L275.562 8.51751H277.82L269.428 26.7867C269.427 26.7874 269.427 26.7881 269.427 26.7887C268.647 28.5323 267.8 29.8371 266.877 30.6805C265.963 31.5582 264.862 32 263.588 32C262.563 32 261.733 31.8283 261.127 31.4544L261.002 31.377V29.3355L261.397 29.551C262.016 29.8885 262.688 30.0575 263.418 30.0575C264.449 30.0575 265.27 29.6576 265.902 28.8457L265.911 28.8341C266.576 28.0707 267.366 26.6778 268.277 24.628L260.61 8.51751ZM261.449 9.04421L268.862 24.62L268.814 24.7294C267.882 26.8401 267.052 28.3305 266.32 29.1726C265.588 30.1097 264.613 30.5842 263.418 30.5842C262.752 30.5842 262.124 30.4578 261.535 30.2046V31.0794C262.016 31.3341 262.693 31.4733 263.588 31.4733C264.724 31.4733 265.693 31.0844 266.507 30.3008L266.512 30.2959C267.361 29.5215 268.174 28.2885 268.94 26.5739L268.941 26.5715L276.992 9.04421H275.907L269.358 23.4027L262.6 9.04421H261.449ZM193.343 11.63C194.737 10.2288 196.479 9.52878 198.548 9.52878C199.966 9.52878 201.289 9.92624 202.513 10.7162C203.757 11.4822 204.669 12.4745 205.239 13.6931L205.263 13.7457V19.9268L205.24 19.9776C204.694 21.1978 203.804 22.1917 202.581 22.9587C201.355 23.7273 200.009 24.1121 198.548 24.1121C196.48 24.1121 194.739 23.4244 193.344 22.0462L193.343 22.0446C191.97 20.6649 191.288 18.9222 191.288 16.8373C191.288 14.7524 191.97 13.0097 193.343 11.63ZM198.548 10.0555C196.615 10.0555 195.012 10.7038 193.723 11.9993C192.457 13.2714 191.821 14.8772 191.821 16.8373C191.821 18.797 192.457 20.4026 193.722 21.6745C195.011 22.9476 196.614 23.5854 198.548 23.5854C199.908 23.5854 201.155 23.2287 202.295 22.514C203.42 21.8087 204.228 20.9091 204.73 19.8148V13.862C204.206 12.7677 203.376 11.8676 202.229 11.1618L202.224 11.1587C201.083 10.4216 199.859 10.0555 198.548 10.0555ZM214.76 11.4316C215.978 10.1583 217.587 9.52878 219.56 9.52878C220.619 9.52878 221.581 9.73805 222.44 10.162C223.291 10.5596 223.955 11.0916 224.418 11.7634C224.886 12.3884 225.239 13.0398 225.476 13.7176C225.712 14.3943 225.831 15.0638 225.831 15.7249V15.9883H212.795L212.812 15.7094C212.907 14.1138 213.562 12.6858 214.76 11.4316ZM219.56 10.0555C217.712 10.0555 216.251 10.6395 215.148 11.7932C214.099 12.891 213.509 14.1121 213.367 15.4616H225.291C225.264 14.9481 225.158 14.4243 224.972 13.8893C224.754 13.2653 224.426 12.6598 223.986 12.0725L223.979 12.0638C223.578 11.4799 222.993 11.0025 222.21 10.637L222.204 10.6345C221.427 10.2503 220.547 10.0555 219.56 10.0555ZM172.639 16.9601C173.699 16.1988 175.113 15.8324 176.854 15.8324C178.937 15.8324 180.977 16.4808 182.97 17.7627L183.091 17.8406V20.7348L183.037 20.8053C182.307 21.7598 181.355 22.5476 180.188 23.1704C179.011 23.7979 177.751 24.1121 176.41 24.1121C174.871 24.1121 173.585 23.7778 172.574 23.0879L172.571 23.0855C171.539 22.3572 171.026 21.3073 171.026 19.9722C171.026 18.7151 171.571 17.704 172.639 16.9601ZM176.854 16.3591C175.183 16.3591 173.891 16.7113 172.951 17.3874L172.947 17.3897C172.014 18.0391 171.559 18.8928 171.559 19.9722C171.559 21.1533 172.001 22.0357 172.879 22.6556C173.778 23.2684 174.948 23.5854 176.41 23.5854C177.663 23.5854 178.836 23.2928 179.934 22.7069C181.012 22.1317 181.885 21.4146 182.558 20.5572V18.127C180.678 16.9437 178.778 16.3591 176.854 16.3591ZM122.071 22.9673C121.72 22.6802 121.393 22.6157 121.066 22.7178L121.054 22.7217C120.719 22.8087 120.472 23.0293 120.316 23.4316C120.252 23.6241 120.247 23.791 120.288 23.9402C120.329 24.0899 120.421 24.2413 120.583 24.3932C120.934 24.6803 121.261 24.7447 121.588 24.6426L121.6 24.6388C121.933 24.5522 122.167 24.3342 122.302 23.934L122.306 23.9235C122.381 23.7281 122.392 23.5611 122.356 23.4138C122.32 23.2674 122.232 23.1182 122.071 22.9673ZM120.912 22.2137C121.445 22.0497 121.956 22.1865 122.419 22.5678L122.425 22.5729L122.431 22.5783C122.653 22.7851 122.808 23.0217 122.874 23.2893C122.94 23.5561 122.911 23.831 122.806 24.1058C122.623 24.6445 122.269 25.0079 121.742 25.1468C121.209 25.3108 120.698 25.174 120.235 24.7927L120.229 24.7876L120.223 24.7821C120.002 24.5763 119.846 24.3419 119.773 24.0776C119.701 23.8123 119.718 23.5371 119.812 23.2599L119.815 23.2493C120.022 22.7132 120.387 22.3522 120.912 22.2137Z" fill="black"/>
</svg>
