<svg width="96" height="96" viewBox="0 0 96 96" fill="none" xmlns="http://www.w3.org/2000/svg">
<g filter="url(#filter0_d)">
<rect width="80" height="80" rx="20" transform="matrix(1 0 0 -1 8 88)" fill="#5DBFF5"/>
</g>
<g filter="url(#filter1_i)">
<path d="M27.687 58C27.487 58 27.307 57.93 27.147 57.79C27.007 57.65 26.937 57.47 26.937 57.25V42.34L22.617 45.7C22.437 45.82 22.247 45.87 22.047 45.85C21.867 45.81 21.707 45.7 21.567 45.52L20.067 43.54C19.947 43.36 19.897 43.17 19.917 42.97C19.957 42.77 20.067 42.61 20.247 42.49L27.087 37.21C27.207 37.13 27.317 37.08 27.417 37.06C27.537 37.02 27.667 37 27.807 37H30.987C31.207 37 31.387 37.07 31.527 37.21C31.667 37.35 31.737 37.53 31.737 37.75V57.25C31.737 57.47 31.667 57.65 31.527 57.79C31.387 57.93 31.207 58 30.987 58H27.687ZM43.181 58.33C41.381 58.33 39.871 58.04 38.651 57.46C37.431 56.88 36.501 56.12 35.861 55.18C35.241 54.24 34.911 53.24 34.871 52.18C34.871 52 34.931 51.85 35.051 51.73C35.171 51.61 35.321 51.55 35.501 51.55H38.891C39.151 51.55 39.351 51.6 39.491 51.7C39.651 51.8 39.761 51.95 39.821 52.15C40.021 52.67 40.281 53.11 40.601 53.47C40.941 53.81 41.331 54.06 41.771 54.22C42.211 54.36 42.691 54.43 43.211 54.43C43.851 54.43 44.431 54.3 44.951 54.04C45.491 53.78 45.921 53.39 46.241 52.87C46.561 52.35 46.721 51.71 46.721 50.95C46.721 50.29 46.571 49.71 46.271 49.21C45.971 48.71 45.551 48.32 45.011 48.04C44.491 47.76 43.891 47.62 43.211 47.62C42.671 47.62 42.231 47.69 41.891 47.83C41.571 47.95 41.301 48.09 41.081 48.25C40.861 48.41 40.661 48.56 40.481 48.7C40.301 48.82 40.111 48.88 39.911 48.88H36.551C36.371 48.88 36.211 48.82 36.071 48.7C35.951 48.56 35.891 48.4 35.891 48.22L36.941 37.87C36.981 37.59 37.081 37.38 37.241 37.24C37.421 37.08 37.631 37 37.871 37H49.511C49.731 37 49.911 37.07 50.051 37.21C50.191 37.35 50.261 37.53 50.261 37.75V40.15C50.261 40.37 50.191 40.55 50.051 40.69C49.911 40.83 49.731 40.9 49.511 40.9H40.841L40.421 45.28C40.801 45 41.291 44.76 41.891 44.56C42.491 44.36 43.311 44.26 44.351 44.26C45.311 44.26 46.221 44.42 47.081 44.74C47.961 45.04 48.741 45.49 49.421 46.09C50.121 46.69 50.661 47.41 51.041 48.25C51.441 49.07 51.641 50.01 51.641 51.07C51.641 52.51 51.291 53.78 50.591 54.88C49.911 55.96 48.941 56.81 47.681 57.43C46.421 58.03 44.921 58.33 43.181 58.33ZM56.1054 58C55.6654 58 55.4454 57.8 55.4454 57.4C55.4454 57.28 55.4854 57.17 55.5654 57.07L70.3854 37.57C70.5254 37.39 70.6654 37.25 70.8054 37.15C70.9454 37.05 71.1454 37 71.4054 37H73.2654C73.7054 37 73.9254 37.2 73.9254 37.6C73.9254 37.72 73.8854 37.83 73.8054 37.93L59.0154 57.43C58.8754 57.61 58.7354 57.75 58.5954 57.85C58.4554 57.95 58.2454 58 57.9654 58H56.1054ZM70.8654 58.15C69.5254 58.15 68.4554 57.79 67.6554 57.07C66.8554 56.35 66.4154 55.39 66.3354 54.19C66.2954 53.67 66.2754 53.21 66.2754 52.81C66.2954 52.41 66.3154 51.93 66.3354 51.37C66.3954 50.17 66.8054 49.2 67.5654 48.46C68.3454 47.72 69.4454 47.35 70.8654 47.35C72.3054 47.35 73.4054 47.72 74.1654 48.46C74.9254 49.2 75.3454 50.17 75.4254 51.37C75.4654 51.93 75.4854 52.41 75.4854 52.81C75.4854 53.21 75.4654 53.67 75.4254 54.19C75.3454 55.39 74.9054 56.35 74.1054 57.07C73.3054 57.79 72.2254 58.15 70.8654 58.15ZM70.8654 55.69C71.2454 55.69 71.5454 55.61 71.7654 55.45C71.9854 55.27 72.1454 55.06 72.2454 54.82C72.3654 54.56 72.4354 54.29 72.4554 54.01C72.4954 53.55 72.5154 53.14 72.5154 52.78C72.5154 52.4 72.4954 51.98 72.4554 51.52C72.4354 51.1 72.3054 50.72 72.0654 50.38C71.8254 50.04 71.4254 49.87 70.8654 49.87C70.3054 49.87 69.9054 50.04 69.6654 50.38C69.4454 50.72 69.3254 51.1 69.3054 51.52C69.2854 51.98 69.2754 52.4 69.2754 52.78C69.2754 53.14 69.2854 53.55 69.3054 54.01C69.3254 54.29 69.3854 54.56 69.4854 54.82C69.5854 55.06 69.7454 55.27 69.9654 55.45C70.2054 55.61 70.5054 55.69 70.8654 55.69ZM58.5354 47.59C57.1754 47.59 56.0954 47.24 55.2954 46.54C54.5154 45.82 54.0854 44.86 54.0054 43.66C53.9654 43.14 53.9454 42.69 53.9454 42.31C53.9654 41.91 53.9854 41.43 54.0054 40.87C54.0654 39.65 54.4754 38.68 55.2354 37.96C56.0154 37.22 57.1154 36.85 58.5354 36.85C59.9754 36.85 61.0754 37.22 61.8354 37.96C62.5954 38.68 63.0054 39.65 63.0654 40.87C63.1054 41.43 63.1254 41.91 63.1254 42.31C63.1254 42.69 63.1054 43.14 63.0654 43.66C63.0054 44.86 62.5754 45.82 61.7754 46.54C60.9754 47.24 59.8954 47.59 58.5354 47.59ZM58.5354 45.16C58.9154 45.16 59.2154 45.08 59.4354 44.92C59.6554 44.76 59.8154 44.55 59.9154 44.29C60.0354 44.03 60.1054 43.77 60.1254 43.51C60.1654 43.03 60.1854 42.61 60.1854 42.25C60.1854 41.87 60.1654 41.46 60.1254 41.02C60.1054 40.6 59.9754 40.22 59.7354 39.88C59.4954 39.52 59.0954 39.34 58.5354 39.34C57.9754 39.34 57.5754 39.52 57.3354 39.88C57.1154 40.22 56.9854 40.6 56.9454 41.02C56.9254 41.46 56.9154 41.87 56.9154 42.25C56.9154 42.61 56.9254 43.03 56.9454 43.51C56.9854 43.77 57.0554 44.03 57.1554 44.29C57.2554 44.55 57.4154 44.76 57.6354 44.92C57.8554 45.08 58.1554 45.16 58.5354 45.16Z" fill="white"/>
</g>
<defs>
<filter id="filter0_d" x="0" y="0" width="96" height="96" filterUnits="userSpaceOnUse" color-interpolation-filters="sRGB">
<feFlood flood-opacity="0" result="BackgroundImageFix"/>
<feColorMatrix in="SourceAlpha" type="matrix" values="0 0 0 0 0 0 0 0 0 0 0 0 0 0 0 0 0 0 127 0"/>
<feOffset/>
<feGaussianBlur stdDeviation="4"/>
<feColorMatrix type="matrix" values="0 0 0 0 0.364706 0 0 0 0 0.74902 0 0 0 0 0.960784 0 0 0 0.5 0"/>
<feBlend mode="normal" in2="BackgroundImageFix" result="effect1_dropShadow"/>
<feBlend mode="normal" in="SourceGraphic" in2="effect1_dropShadow" result="shape"/>
</filter>
<filter id="filter1_i" x="19.9127" y="36.85" width="55.5727" height="21.48" filterUnits="userSpaceOnUse" color-interpolation-filters="sRGB">
<feFlood flood-opacity="0" result="BackgroundImageFix"/>
<feBlend mode="normal" in="SourceGraphic" in2="BackgroundImageFix" result="shape"/>
<feColorMatrix in="SourceAlpha" type="matrix" values="0 0 0 0 0 0 0 0 0 0 0 0 0 0 0 0 0 0 127 0" result="hardAlpha"/>
<feOffset/>
<feGaussianBlur stdDeviation="1"/>
<feComposite in2="hardAlpha" operator="arithmetic" k2="-1" k3="1"/>
<feColorMatrix type="matrix" values="0 0 0 0 0 0 0 0 0 0 0 0 0 0 0 0 0 0 0.25 0"/>
<feBlend mode="normal" in2="shape" result="effect1_innerShadow"/>
</filter>
</defs>
</svg>
