<svg width="96" height="96" viewBox="0 0 96 96" fill="none" xmlns="http://www.w3.org/2000/svg">
<g filter="url(#filter0_d)">
<rect width="80" height="80" rx="20" transform="matrix(1 0 0 -1 8 88)" fill="#5DBFF5"/>
</g>
<g filter="url(#filter1_i)">
<path d="M19.0752 58C18.8552 58 18.6752 57.93 18.5352 57.79C18.3952 57.65 18.3252 57.47 18.3252 57.25V55.45C18.3252 55.29 18.3652 55.07 18.4452 54.79C18.5452 54.51 18.7552 54.24 19.0752 53.98L23.0052 50.11C24.4652 48.99 25.6552 48.04 26.5752 47.26C27.4952 46.46 28.1752 45.74 28.6152 45.1C29.0552 44.46 29.2752 43.84 29.2752 43.24C29.2752 42.46 29.0552 41.82 28.6152 41.32C28.1952 40.82 27.5152 40.57 26.5752 40.57C25.9352 40.57 25.3952 40.71 24.9552 40.99C24.5152 41.25 24.1752 41.6 23.9352 42.04C23.7152 42.48 23.5552 42.95 23.4552 43.45C23.3952 43.71 23.2752 43.89 23.0952 43.99C22.9152 44.09 22.7152 44.14 22.4952 44.14H19.3152C19.1152 44.14 18.9552 44.08 18.8352 43.96C18.7152 43.84 18.6552 43.69 18.6552 43.51C18.6752 42.59 18.8652 41.72 19.2252 40.9C19.6052 40.08 20.1352 39.35 20.8152 38.71C21.4952 38.07 22.3152 37.57 23.2752 37.21C24.2352 36.83 25.3252 36.64 26.5452 36.64C28.2252 36.64 29.6352 36.92 30.7752 37.48C31.9152 38.02 32.7752 38.77 33.3552 39.73C33.9352 40.69 34.2252 41.8 34.2252 43.06C34.2252 44.02 34.0252 44.91 33.6252 45.73C33.2452 46.55 32.6852 47.34 31.9452 48.1C31.2252 48.84 30.3452 49.61 29.3052 50.41L25.7952 53.95H33.9252C34.1452 53.95 34.3252 54.02 34.4652 54.16C34.6052 54.3 34.6752 54.48 34.6752 54.7V57.25C34.6752 57.47 34.6052 57.65 34.4652 57.79C34.3252 57.93 34.1452 58 33.9252 58H19.0752ZM46.0688 58.3C44.6288 58.3 43.3888 58.1 42.3488 57.7C41.3288 57.28 40.4788 56.71 39.7988 55.99C39.1388 55.25 38.6388 54.4 38.2988 53.44C37.9788 52.46 37.7888 51.42 37.7288 50.32C37.7088 49.78 37.6888 49.18 37.6688 48.52C37.6688 47.84 37.6688 47.16 37.6688 46.48C37.6888 45.8 37.7088 45.18 37.7288 44.62C37.7688 43.52 37.9588 42.49 38.2988 41.53C38.6588 40.57 39.1788 39.73 39.8588 39.01C40.5388 38.29 41.3888 37.73 42.4088 37.33C43.4488 36.91 44.6688 36.7 46.0688 36.7C47.4688 36.7 48.6788 36.91 49.6988 37.33C50.7188 37.73 51.5688 38.29 52.2488 39.01C52.9288 39.73 53.4388 40.57 53.7788 41.53C54.1388 42.49 54.3488 43.52 54.4088 44.62C54.4288 45.18 54.4388 45.8 54.4388 46.48C54.4588 47.16 54.4588 47.84 54.4388 48.52C54.4388 49.18 54.4288 49.78 54.4088 50.32C54.3488 51.42 54.1488 52.46 53.8088 53.44C53.4688 54.4 52.9588 55.25 52.2788 55.99C51.6188 56.71 50.7688 57.28 49.7288 57.7C48.7088 58.1 47.4888 58.3 46.0688 58.3ZM46.0688 54.4C47.2288 54.4 48.0788 54.02 48.6188 53.26C49.1588 52.5 49.4388 51.47 49.4588 50.17C49.4988 49.59 49.5188 48.99 49.5188 48.37C49.5188 47.75 49.5188 47.13 49.5188 46.51C49.5188 45.89 49.4988 45.31 49.4588 44.77C49.4388 43.53 49.1588 42.52 48.6188 41.74C48.0788 40.96 47.2288 40.57 46.0688 40.57C44.9088 40.57 44.0588 40.96 43.5188 41.74C42.9788 42.52 42.6888 43.53 42.6488 44.77C42.6488 45.31 42.6388 45.89 42.6188 46.51C42.6188 47.13 42.6188 47.75 42.6188 48.37C42.6388 48.99 42.6488 49.59 42.6488 50.17C42.6888 51.47 42.9788 52.5 43.5188 53.26C44.0788 54.02 44.9288 54.4 46.0688 54.4ZM59.4472 58C59.0072 58 58.7872 57.8 58.7872 57.4C58.7872 57.28 58.8272 57.17 58.9072 57.07L73.7272 37.57C73.8672 37.39 74.0072 37.25 74.1472 37.15C74.2872 37.05 74.4872 37 74.7472 37H76.6072C77.0472 37 77.2672 37.2 77.2672 37.6C77.2672 37.72 77.2272 37.83 77.1472 37.93L62.3572 57.43C62.2172 57.61 62.0772 57.75 61.9372 57.85C61.7972 57.95 61.5872 58 61.3072 58H59.4472ZM74.2072 58.15C72.8672 58.15 71.7972 57.79 70.9972 57.07C70.1972 56.35 69.7572 55.39 69.6772 54.19C69.6372 53.67 69.6172 53.21 69.6172 52.81C69.6372 52.41 69.6572 51.93 69.6772 51.37C69.7372 50.17 70.1472 49.2 70.9072 48.46C71.6872 47.72 72.7872 47.35 74.2072 47.35C75.6472 47.35 76.7472 47.72 77.5072 48.46C78.2672 49.2 78.6872 50.17 78.7672 51.37C78.8072 51.93 78.8272 52.41 78.8272 52.81C78.8272 53.21 78.8072 53.67 78.7672 54.19C78.6872 55.39 78.2472 56.35 77.4472 57.07C76.6472 57.79 75.5672 58.15 74.2072 58.15ZM74.2072 55.69C74.5872 55.69 74.8872 55.61 75.1072 55.45C75.3272 55.27 75.4872 55.06 75.5872 54.82C75.7072 54.56 75.7772 54.29 75.7972 54.01C75.8372 53.55 75.8572 53.14 75.8572 52.78C75.8572 52.4 75.8372 51.98 75.7972 51.52C75.7772 51.1 75.6472 50.72 75.4072 50.38C75.1672 50.04 74.7672 49.87 74.2072 49.87C73.6472 49.87 73.2472 50.04 73.0072 50.38C72.7872 50.72 72.6672 51.1 72.6472 51.52C72.6272 51.98 72.6172 52.4 72.6172 52.78C72.6172 53.14 72.6272 53.55 72.6472 54.01C72.6672 54.29 72.7272 54.56 72.8272 54.82C72.9272 55.06 73.0872 55.27 73.3072 55.45C73.5472 55.61 73.8472 55.69 74.2072 55.69ZM61.8772 47.59C60.5172 47.59 59.4372 47.24 58.6372 46.54C57.8572 45.82 57.4272 44.86 57.3472 43.66C57.3072 43.14 57.2872 42.69 57.2872 42.31C57.3072 41.91 57.3272 41.43 57.3472 40.87C57.4072 39.65 57.8172 38.68 58.5772 37.96C59.3572 37.22 60.4572 36.85 61.8772 36.85C63.3172 36.85 64.4172 37.22 65.1772 37.96C65.9372 38.68 66.3472 39.65 66.4072 40.87C66.4472 41.43 66.4672 41.91 66.4672 42.31C66.4672 42.69 66.4472 43.14 66.4072 43.66C66.3472 44.86 65.9172 45.82 65.1172 46.54C64.3172 47.24 63.2372 47.59 61.8772 47.59ZM61.8772 45.16C62.2572 45.16 62.5572 45.08 62.7772 44.92C62.9972 44.76 63.1572 44.55 63.2572 44.29C63.3772 44.03 63.4472 43.77 63.4672 43.51C63.5072 43.03 63.5272 42.61 63.5272 42.25C63.5272 41.87 63.5072 41.46 63.4672 41.02C63.4472 40.6 63.3172 40.22 63.0772 39.88C62.8372 39.52 62.4372 39.34 61.8772 39.34C61.3172 39.34 60.9172 39.52 60.6772 39.88C60.4572 40.22 60.3272 40.6 60.2872 41.02C60.2672 41.46 60.2572 41.87 60.2572 42.25C60.2572 42.61 60.2672 43.03 60.2872 43.51C60.3272 43.77 60.3972 44.03 60.4972 44.29C60.5972 44.55 60.7572 44.76 60.9772 44.92C61.1972 45.08 61.4972 45.16 61.8772 45.16Z" fill="white"/>
</g>
<defs>
<filter id="filter0_d" x="0" y="0" width="96" height="96" filterUnits="userSpaceOnUse" color-interpolation-filters="sRGB">
<feFlood flood-opacity="0" result="BackgroundImageFix"/>
<feColorMatrix in="SourceAlpha" type="matrix" values="0 0 0 0 0 0 0 0 0 0 0 0 0 0 0 0 0 0 127 0"/>
<feOffset/>
<feGaussianBlur stdDeviation="4"/>
<feColorMatrix type="matrix" values="0 0 0 0 0.364706 0 0 0 0 0.74902 0 0 0 0 0.960784 0 0 0 0.5 0"/>
<feBlend mode="normal" in2="BackgroundImageFix" result="effect1_dropShadow"/>
<feBlend mode="normal" in="SourceGraphic" in2="effect1_dropShadow" result="shape"/>
</filter>
<filter id="filter1_i" x="18.3251" y="36.64" width="60.502" height="21.66" filterUnits="userSpaceOnUse" color-interpolation-filters="sRGB">
<feFlood flood-opacity="0" result="BackgroundImageFix"/>
<feBlend mode="normal" in="SourceGraphic" in2="BackgroundImageFix" result="shape"/>
<feColorMatrix in="SourceAlpha" type="matrix" values="0 0 0 0 0 0 0 0 0 0 0 0 0 0 0 0 0 0 127 0" result="hardAlpha"/>
<feOffset/>
<feGaussianBlur stdDeviation="1"/>
<feComposite in2="hardAlpha" operator="arithmetic" k2="-1" k3="1"/>
<feColorMatrix type="matrix" values="0 0 0 0 0 0 0 0 0 0 0 0 0 0 0 0 0 0 0.25 0"/>
<feBlend mode="normal" in2="shape" result="effect1_innerShadow"/>
</filter>
</defs>
</svg>
