<svg width="65" height="65" viewBox="0 0 65 65" fill="none" xmlns="http://www.w3.org/2000/svg">
<path d="M53.8083 18.7774H48.3773L34.2093 32.9453C34.0678 33.0868 33.8999 33.1991 33.715 33.2756C33.5302 33.3522 33.3321 33.3916 33.132 33.3916C32.9319 33.3916 32.7338 33.3522 32.5489 33.2756C32.3641 33.1991 32.1961 33.0868 32.0547 32.9453C31.9132 32.8039 31.8009 32.6359 31.7244 32.4511C31.6478 32.2662 31.6084 32.0681 31.6084 31.868C31.6084 31.6679 31.6478 31.4698 31.7244 31.285C31.8009 31.1001 31.9132 30.9321 32.0547 30.7907L46.2226 16.6227V11.1917L50.7305 6.6833C44.2597 2.11275 36.3093 0.13703 28.4518 1.14691C20.5943 2.15679 13.4018 6.07873 8.29715 12.137C3.19245 18.1953 0.547215 25.9487 0.884658 33.8636C1.2221 41.7786 4.51764 49.2787 10.1195 54.8805C15.7213 60.4824 23.2214 63.7779 31.1364 64.1153C39.0513 64.4528 46.8047 61.8076 52.863 56.7029C58.9213 51.5982 62.8432 44.4057 63.8531 36.5482C64.863 28.6907 62.8872 20.7403 58.3167 14.2695L53.8083 18.7774Z" fill="#0094FF"/>
<path d="M61.5022 1.34031L32.0497 30.7928C31.4548 31.3877 31.4547 32.352 32.0495 32.9468C32.6442 33.5415 33.6086 33.5414 34.2034 32.9466L63.6559 3.4941C64.2508 2.89925 64.2509 1.93489 63.6561 1.34014C63.0614 0.745388 62.097 0.745466 61.5022 1.34031Z" fill="white"/>
<path d="M40.0329 27.1218C41.3903 29.0199 41.9842 31.3591 41.6969 33.6749C41.4095 35.9907 40.2618 38.1137 38.4817 39.6225C36.7016 41.1314 34.4192 41.9156 32.0876 41.8196C29.756 41.7236 27.5458 40.7544 25.8957 39.1043C24.2457 37.4542 23.2764 35.244 23.1804 32.9125C23.0844 30.5809 23.8687 28.2985 25.3775 26.5183C26.8863 24.7382 29.0094 23.5905 31.3252 23.3032C33.6409 23.0158 35.9801 23.6098 37.8783 24.9671L40.7804 22.0655C38.1099 19.945 34.7294 18.9263 31.3319 19.2183C27.9343 19.5102 24.7772 21.0907 22.5076 23.6358C20.238 26.1808 19.0279 29.4976 19.1253 32.9063C19.2228 36.3149 20.6203 39.5572 23.0316 41.9684C25.4429 44.3797 28.6851 45.7773 32.0938 45.8747C35.5024 45.9721 38.8192 44.762 41.3643 42.4924C43.9093 40.2228 45.4898 37.0657 45.7818 33.6682C46.0737 30.2707 45.0551 26.8902 42.9345 24.2196L40.0329 27.1218Z" fill="#FBFCFF"/>
<path d="M48.3772 18.7774L47.26 19.8946C50.5263 23.7177 52.1857 28.6569 51.8903 33.6766C51.5948 38.6963 49.3675 43.4068 45.6753 46.8204C41.9831 50.2339 37.1127 52.0856 32.0853 51.987C27.0578 51.8885 22.2637 49.8475 18.7081 46.2918C15.1525 42.7362 13.1115 37.9421 13.0129 32.9147C12.9144 27.8872 14.766 23.0169 18.1796 19.3246C21.5932 15.6324 26.3036 13.4051 31.3234 13.1097C36.3431 12.8143 41.2823 14.4736 45.1054 17.7399L46.2226 16.6227V13.4611C41.4262 10.0009 35.5026 8.4738 29.6312 9.18377C23.7597 9.89374 18.3708 12.7887 14.5374 17.2924C10.704 21.7961 8.7071 27.5782 8.94426 33.4877C9.18143 39.3972 11.6353 45.0007 15.8173 49.1827C19.9993 53.3647 25.6028 55.8185 31.5123 56.0557C37.4218 56.2929 43.2039 54.296 47.7076 50.4626C52.2113 46.6291 55.1062 41.2403 55.8162 35.3688C56.5262 29.4973 54.9991 23.5738 51.5389 18.7774H48.3772Z" fill="#FBFCFF"/>
<path d="M58.0257 4.82016L56.5256 0.888672L46.2226 11.1917V16.6227L58.0257 4.82016Z" fill="#26A4F0"/>
<path d="M48.3773 18.7775H53.8083L64.1113 8.47444L60.1799 6.97437L48.3773 18.7775Z" fill="#26A4F0"/>
</svg>
