<svg width="65" height="65" viewBox="0 0 65 65" fill="none" xmlns="http://www.w3.org/2000/svg">
<path d="M0 16.7328H65V57.0208H0V16.7328Z" fill="#26A4F0"/>
<path d="M65 16.7328H0V10.0328C0 9.47895 0.220022 8.94777 0.611665 8.55612C1.00331 8.16448 1.53449 7.94446 2.08835 7.94446H62.9116C63.4655 7.94446 63.9967 8.16448 64.3883 8.55612C64.78 8.94777 65 9.47895 65 10.0328V16.7328Z" fill="#0094FF"/>
<path d="M7.83157 13.2525H5.65602C5.41371 13.2525 5.18132 13.1562 5.00997 12.9849C4.83863 12.8135 4.74237 12.5811 4.74237 12.3388C4.74237 12.0965 4.83863 11.8641 5.00997 11.6928C5.18132 11.5214 5.41371 11.4252 5.65602 11.4252H7.83157C8.07388 11.4252 8.30627 11.5214 8.47762 11.6928C8.64896 11.8641 8.74522 12.0965 8.74522 12.3388C8.74522 12.5811 8.64896 12.8135 8.47762 12.9849C8.30627 13.1562 8.07388 13.2525 7.83157 13.2525Z" fill="white"/>
<path d="M14.053 13.2525H11.8774C11.6351 13.2525 11.4027 13.1562 11.2314 12.9849C11.0601 12.8135 10.9638 12.5811 10.9638 12.3388C10.9638 12.0965 11.0601 11.8641 11.2314 11.6928C11.4027 11.5214 11.6351 11.4252 11.8774 11.4252H14.053C14.2953 11.4252 14.5277 11.5214 14.699 11.6928C14.8704 11.8641 14.9666 12.0965 14.9666 12.3388C14.9666 12.5811 14.8704 12.8135 14.699 12.9849C14.5277 13.1562 14.2953 13.2525 14.053 13.2525Z" fill="white"/>
<path d="M20.2742 13.2525H18.0992C17.8569 13.2525 17.6245 13.1562 17.4532 12.9849C17.2818 12.8135 17.1856 12.5811 17.1856 12.3388C17.1856 12.0965 17.2818 11.8641 17.4532 11.6928C17.6245 11.5214 17.8569 11.4252 18.0992 11.4252H20.2742C20.5166 11.4252 20.7489 11.5214 20.9203 11.6928C21.0916 11.8641 21.1879 12.0965 21.1879 12.3388C21.1879 12.5811 21.0916 12.8135 20.9203 12.9849C20.7489 13.1562 20.5166 13.2525 20.2742 13.2525Z" fill="white"/>
<path d="M5.22076 21.9536H59.779V34.2639H5.22076V21.9536Z" fill="#0094FF"/>
<path d="M5.22076 39.4895H32.4999V51.7998H5.22076V39.4895Z" fill="white"/>
<path d="M56.9077 40.4034H40.5966C40.3543 40.4034 40.1219 40.3071 39.9506 40.1358C39.7792 39.9644 39.683 39.732 39.683 39.4897C39.683 39.2474 39.7792 39.015 39.9506 38.8437C40.1219 38.6723 40.3543 38.576 40.5966 38.576H56.9077C57.15 38.576 57.3824 38.6723 57.5537 38.8437C57.7251 39.015 57.8213 39.2474 57.8213 39.4897C57.8213 39.732 57.7251 39.9644 57.5537 40.1358C57.3824 40.3071 57.15 40.4034 56.9077 40.4034Z" fill="white"/>
<path d="M59.7791 44.5065H37.725C37.4827 44.5065 37.2503 44.4102 37.079 44.2389C36.9076 44.0676 36.8114 43.8352 36.8114 43.5929C36.8114 43.3505 36.9076 43.1181 37.079 42.9468C37.2503 42.7755 37.4827 42.6792 37.725 42.6792H59.7791C60.0214 42.6792 60.2538 42.7755 60.4251 42.9468C60.5965 43.1181 60.6927 43.3505 60.6927 43.5929C60.6927 43.8352 60.5965 44.0676 60.4251 44.2389C60.2538 44.4102 60.0214 44.5065 59.7791 44.5065Z" fill="white"/>
<path d="M56.9077 48.61H40.5966C40.3543 48.61 40.1219 48.5138 39.9506 48.3424C39.7792 48.1711 39.683 47.9387 39.683 47.6964C39.683 47.4541 39.7792 47.2217 39.9506 47.0503C40.1219 46.879 40.3543 46.7827 40.5966 46.7827H56.9077C57.15 46.7827 57.3824 46.879 57.5537 47.0503C57.7251 47.2217 57.8213 47.4541 57.8213 47.6964C57.8213 47.9387 57.7251 48.1711 57.5537 48.3424C57.3824 48.5138 57.15 48.61 56.9077 48.61Z" fill="white"/>
</svg>
