<svg width="65" height="65" viewBox="0 0 65 65" fill="none" xmlns="http://www.w3.org/2000/svg">
<g clip-path="url(#clip0)">
<g clip-path="url(#clip1)">
<path d="M28.0687 40.7084L15.2589 46.6044C14.051 47.1604 12.6716 47.2138 11.4243 46.7528C10.177 46.2918 9.16393 45.3542 8.60794 44.1462L4.01934 34.1769C3.46335 32.969 3.40999 31.5896 3.871 30.3423C4.33201 29.095 5.26962 28.0819 6.47758 27.5259L19.2874 21.6299L28.0687 40.7084Z" fill="#0094FF"/>
<path d="M55.9863 32.4618C48.1293 33.0342 40.4392 35.0146 33.283 38.3083L28.0687 40.7083L19.2874 21.6298L24.5016 19.2299C31.6578 15.936 38.1635 11.3824 43.7083 5.78627L55.9863 32.4618Z" fill="#26A4F0"/>
<path d="M46.9337 2.99862C46.4609 1.97128 45.2447 1.52178 44.2174 1.99464C43.19 2.4675 42.7405 3.68366 43.2134 4.71101L56.4813 33.5371C56.9541 34.5645 58.1703 35.014 59.1976 34.5411C60.225 34.0682 60.6745 32.8521 60.2016 31.8247L46.9337 2.99862Z" fill="#0094FF"/>
<path d="M26.1738 63.6549C25.685 63.8811 25.1519 63.9955 24.6133 63.9898C24.0747 63.984 23.5441 63.8582 23.0603 63.6216C22.5764 63.3849 22.1514 63.0434 21.8162 62.6218C21.4809 62.2002 21.2439 61.7091 21.1224 61.1844L17.5332 45.5576L24.2732 42.4553L28.198 59.5495C28.3835 60.3622 28.2836 61.214 27.9149 61.9616C27.5463 62.7093 26.9315 63.3072 26.1738 63.6549Z" fill="#26A4F0"/>
<path d="M33.283 38.3084L31.6964 39.0386L31.7581 43.9483C31.7668 44.6751 31.5648 45.3888 31.1766 46.0033C30.7884 46.6178 30.2306 47.1067 29.5705 47.4109L25.8077 49.1429L26.5722 52.4707L30.9681 50.4473C32.2149 49.8727 33.2687 48.9493 34.0021 47.7887C34.7355 46.6282 35.1172 45.2801 35.1011 43.9073L35.0211 37.5438C34.4386 37.7902 33.8584 38.0435 33.283 38.3084Z" fill="#0094FF"/>
<path d="M16.1017 27.6957L8.60411 31.1467C7.97525 31.4361 7.7001 32.1806 7.98955 32.8094C8.27899 33.4383 9.02343 33.7134 9.65229 33.424L17.1499 29.973C17.7788 29.6836 18.0539 28.9391 17.7645 28.3103C17.475 27.6814 16.7306 27.4063 16.1017 27.6957Z" fill="white"/>
<path d="M18.2214 32.3009L10.7237 35.7519C10.0949 36.0414 9.81973 36.7858 10.1092 37.4147C10.3986 38.0435 11.1431 38.3187 11.7719 38.0292L19.2696 34.5782C19.8984 34.2888 20.1736 33.5444 19.8841 32.9155C19.5947 32.2866 18.8502 32.0115 18.2214 32.3009Z" fill="white"/>
<path d="M20.3409 36.9059L12.8433 40.3569C12.2144 40.6463 11.9393 41.3908 12.2287 42.0196C12.5182 42.6485 13.2626 42.9236 13.8915 42.6342L21.3891 39.1832C22.018 38.8938 22.2931 38.1493 22.0037 37.5205C21.7142 36.8916 20.9698 36.6165 20.3409 36.9059Z" fill="white"/>
</g>
</g>
<defs>
<clipPath id="clip0">
<rect width="65" height="65" fill="white"/>
</clipPath>
<clipPath id="clip1">
<rect width="53.4816" height="53.4816" fill="white" transform="translate(-2.88892 20.9167) rotate(-24.7154)"/>
</clipPath>
</defs>
</svg>
