<svg width="65" height="65" viewBox="0 0 65 65" fill="none" xmlns="http://www.w3.org/2000/svg">
<path d="M61.4554 50.7065L44.1344 35.8276C42.1193 39.2593 39.2604 42.1187 35.8291 44.1344L50.708 61.4554C51.3917 62.2523 52.2327 62.8993 53.1782 63.3559C54.1237 63.8125 55.1533 64.0688 56.2025 64.1088C57.2517 64.1488 58.2978 63.9716 59.2753 63.5883C60.2528 63.205 61.1406 62.6239 61.883 61.8814C62.6254 61.1389 63.2064 60.2511 63.5895 59.2735C63.9727 58.296 64.1497 57.2498 64.1096 56.2006C64.0694 55.1514 63.8129 54.1218 63.3562 53.1764C62.8995 52.231 62.2523 51.3901 61.4554 50.7065ZM58.5014 57.6483L57.6488 58.5015C57.1719 58.9742 56.5272 59.2387 55.8558 59.2373C55.1843 59.2358 54.5407 58.9684 54.0659 58.4936C53.5911 58.0188 53.3237 57.3753 53.3223 56.7038C53.3208 56.0323 53.5854 55.3876 54.0581 54.9107L54.9107 54.0581C55.3888 53.5919 56.0314 53.3328 56.6992 53.337C57.367 53.3411 58.0063 53.6083 58.4786 54.0805C58.9508 54.5526 59.218 55.1919 59.2223 55.8597C59.2266 56.5275 58.9676 57.1701 58.5014 57.6483Z" fill="#0094FF"/>
<path d="M24.0998 47.3109C36.9189 47.3109 47.3109 36.9189 47.3109 24.0998C47.3109 11.2806 36.9189 0.888672 24.0998 0.888672C11.2806 0.888672 0.888672 11.2806 0.888672 24.0998C0.888672 36.9189 11.2806 47.3109 24.0998 47.3109Z" fill="#0094FF"/>
<path d="M24.1003 42.2333C19.905 42.2334 15.8394 40.7789 12.5963 38.1175C9.35325 35.4561 7.1333 31.7526 6.31473 27.6379C5.49617 23.5232 6.12964 19.252 8.10721 15.5521C10.0848 11.8521 13.2841 8.9523 17.16 7.34676C21.0359 5.74122 25.3487 5.52929 29.3633 6.74706C33.378 7.96484 36.8462 10.537 39.177 14.0252C41.5078 17.5135 42.557 21.702 42.1459 25.8771C41.7347 30.0522 39.8885 33.9555 36.922 36.9221C35.2421 38.6111 33.244 39.9502 31.0431 40.8618C28.8423 41.7735 26.4825 42.2396 24.1003 42.2333Z" fill="#FBFCFF"/>
<path d="M40.6225 49.7148L45.9316 55.8959L55.8959 45.9316L49.7149 40.6219L40.6225 49.7148Z" fill="#009FE2"/>
</svg>
