<svg width="65" height="65" viewBox="0 0 65 65" fill="none" xmlns="http://www.w3.org/2000/svg">
<path d="M10.1562 29.508L27.1466 42.3962L31.8906 38.7969C32.0672 38.6631 32.2826 38.5907 32.5041 38.5907C32.7256 38.5907 32.941 38.6631 33.1175 38.7969L37.8574 42.3922L54.8438 29.508V10.1562H10.1562V29.508ZM32.5 15.2344C34.9234 15.2371 37.2468 16.201 38.9604 17.9146C40.674 19.6282 41.6379 21.9516 41.6406 24.375V26.4062C41.6417 27.0671 41.4275 27.7104 41.0303 28.2386C40.6332 28.7668 40.0747 29.1513 39.4395 29.3338C38.8044 29.5163 38.127 29.4869 37.51 29.25C36.893 29.0132 36.37 28.5818 36.0202 28.0211C35.1773 28.8304 34.0806 29.3235 32.9159 29.4171C31.7512 29.5106 30.5899 29.1988 29.6286 28.5344C28.6674 27.8701 27.9653 26.8939 27.6411 25.7713C27.317 24.6487 27.3907 23.4485 27.8498 22.374C28.309 21.2995 29.1253 20.4167 30.1606 19.8749C31.196 19.3332 32.3867 19.1659 33.5312 19.4013C34.6757 19.6367 35.7038 20.2604 36.4412 21.1668C37.1787 22.0731 37.5803 23.2065 37.5781 24.375V26.4062C37.5781 26.6756 37.6851 26.9339 37.8756 27.1244C38.0661 27.3149 38.3244 27.4219 38.5938 27.4219C38.8631 27.4219 39.1214 27.3149 39.3119 27.1244C39.5024 26.9339 39.6094 26.6756 39.6094 26.4062V24.375C39.6094 22.9689 39.1924 21.5944 38.4112 20.4252C37.63 19.2561 36.5197 18.3449 35.2206 17.8068C33.9216 17.2687 32.4921 17.1279 31.113 17.4022C29.7339 17.6765 28.4672 18.3536 27.4729 19.3479C26.4786 20.3422 25.8015 21.6089 25.5272 22.988C25.2529 24.3671 25.3937 25.7966 25.9318 27.0956C26.4699 28.3947 27.3811 29.505 28.5502 30.2862C29.7194 31.0674 31.0939 31.4844 32.5 31.4844H35.5469C35.8162 31.4844 36.0746 31.5914 36.265 31.7818C36.4555 31.9723 36.5625 32.2306 36.5625 32.5C36.5625 32.7694 36.4555 33.0277 36.265 33.2182C36.0746 33.4086 35.8162 33.5156 35.5469 33.5156H32.5C30.0758 33.5156 27.7508 32.5526 26.0366 30.8384C24.3224 29.1242 23.3594 26.7992 23.3594 24.375C23.3594 21.9508 24.3224 19.6258 26.0366 17.9116C27.7508 16.1974 30.0758 15.2344 32.5 15.2344Z" fill="#26A4F0"/>
<path d="M32.5 27.4219C34.1827 27.4219 35.5469 26.0577 35.5469 24.375C35.5469 22.6923 34.1827 21.3281 32.5 21.3281C30.8173 21.3281 29.4531 22.6923 29.4531 24.375C29.4531 26.0577 30.8173 27.4219 32.5 27.4219Z" fill="#26A4F0"/>
<path d="M4.72772 25.3905L8.12499 27.9671V22.8138L4.72772 25.3905Z" fill="#0094FF"/>
<path d="M4.0625 59.9076L25.4658 43.6708L4.0625 27.436V59.9076Z" fill="#0094FF"/>
<path d="M56.875 27.9672L60.2723 25.3906L56.875 22.8149V27.9672Z" fill="#0094FF"/>
<path d="M60.9375 27.436L39.5342 43.6708L60.9375 59.9076V27.436Z" fill="#0094FF"/>
<path d="M32.5 40.8839L6.06638 60.9374H58.9337L32.5 40.8839Z" fill="#0094FF"/>
<path d="M27.4859 8.12493H37.5142L32.5 4.32141L27.4859 8.12493Z" fill="#0094FF"/>
</svg>
