<svg width="14" height="14" viewBox="0 0 14 14" fill="none" xmlns="http://www.w3.org/2000/svg">
<path d="M11.7555 3.07906C12.674 4.33825 13.0855 5.8968 12.9082 7.4453C12.7308 8.9938 11.9777 10.419 10.7983 11.4379C9.61886 12.4569 8.0994 12.995 6.54156 12.9456C4.98373 12.8962 3.50146 12.2627 2.38902 11.171C1.27659 10.0793 0.615347 8.60925 0.536581 7.05263C0.457816 5.496 0.967285 3.96667 1.96384 2.76827C2.96039 1.56987 4.37116 0.79004 5.91604 0.583595C7.46093 0.377151 9.02695 0.759195 10.3032 1.65388L8.73628 3.88909C8.02104 3.38768 7.14339 3.17358 6.2776 3.28927C5.41181 3.40497 4.62119 3.84201 4.06269 4.51362C3.5042 5.18523 3.21868 6.04231 3.26282 6.91468C3.30697 7.78705 3.67754 8.61092 4.30098 9.22273C4.92441 9.83453 5.75512 10.1895 6.62816 10.2172C7.50121 10.245 8.35275 9.94335 9.01373 9.37231C9.67471 8.80127 10.0968 8.00256 10.1962 7.13474C10.2955 6.26693 10.0649 5.39347 9.55017 4.68779L11.7555 3.07906Z" fill="#009FE2"/>
</svg>
