<svg fill="none" height="32" viewBox="0 0 144 32" width="144" xmlns="http://www.w3.org/2000/svg" xmlns:xlink="http://www.w3.org/1999/xlink"><mask id="a" height="32" maskUnits="userSpaceOnUse" width="144" x="0" y="0"><path clip-rule="evenodd" d="m0 0h144v32h-144z" fill="#fff" fill-rule="evenodd"/></mask><g clip-rule="evenodd" fill-rule="evenodd" mask="url(#a)"><g fill="#1b2a30"><path d="m9.70054 15.3817c3.41536 0 5.60156-.5743 7.19596-1.8563 1.4115-1.1493 2.0944-2.6959 2.0944-4.59646 0-2.34283-1.0468-3.93374-2.6861-4.99458-1.7768-1.1493-3.9623-1.45823-7.65109-1.45823h-5.87432l-.0007 12.90557zm-9.69983884-15.3817 8.83460884.00068046c3.82549 0 6.78579.44229954 9.10879 1.90120954 2.2311 1.41399 3.8248 3.71191 3.8248 6.89442.0007 2.91709-1.3658 5.30349-3.4609 6.76169-1.5026 1.0616-3.2786 1.5916-5.3281 1.9012l11.0201 14.5401-3.3698.0007-10.74805-14.3203h-7.10345l-.0007 14.3196h-2.778z"/><path d="m56.0005 10h1.9995l-.0005 22h-1.9995z"/><path d="m66.5493 27.4629c2.428 1.4551 5.5421 2.2261 8.5188 2.2261 3.8016 0 6.2296-1.2416 6.2303-3.7668-.0007-3.167-3.7565-3.5097-7.2825-4.0237-3.7558-.5562-8.0159-1.5835-8.0159-5.8636.0007-3.9809 3.6183-6.0349 8.7486-6.0349 2.9308 0 5.9088.6847 8.1076 1.7977l-.0007 2.6537c-2.3815-1.4122-5.4046-2.1397-8.1979-2.1397-3.5273 0-5.9546 1.1552-5.9553 3.5526.0007 2.9528 3.6649 3.2527 7.0533 3.7667 4.0767.599 8.2444 1.6257 8.2444 6.0771 0 4.1522-3.6183 6.2919-9.0688 6.2919-2.9773 0-6.0921-.6425-8.3819-1.8405z"/><path d="m92.3415 24.3005.0007-11.6985h-4.3422l.0007-2.2369h4.3415v-5.93533l2.6138-.42977v6.3658h7.044v2.2362h-7.044v11.2688c0 3.1825.4863 5.8062 3.9425 5.8068 1.1515-.0006 2.2595-.3013 3.1015-.7747l-.001 2.4091c-.841.3867-2.1258.688-3.4552.688-1.5947 0-3.4111-.4304-4.6519-1.8072-1.1077-1.2469-1.5504-3.1395-1.5504-5.8923z"/><path d="m119.936 27.258v-4.7413c-1.635-.4696-3.527-.7689-5.248-.7689-3.01 0-6.107.9392-6.107 4.058 0 2.7341 2.365 3.9297 4.945 3.9304 2.409 0 4.732-1.0253 6.41-2.4782zm-11.743 3.2891c-1.376-1.0246-2.193-2.5623-2.193-4.5275 0-2.2218 1.032-3.8022 2.667-4.8703 1.592-1.0247 3.742-1.4088 5.806-1.4094 1.936 0 3.699.2992 5.463.7695v-2.4348c0-2.0507-.388-3.3747-1.548-4.4-.99-.8544-2.452-1.3246-4.345-1.3246-2.494 0-4.774.8116-6.494 2.0507v-2.5203c1.72-1.0688 4.086-1.8797 6.753-1.8804 2.537.0007 4.601.6413 6.021 1.8376 1.418 1.1964 2.15 3.0754 2.15 5.6391v9.0986c0 1.7942.429 3.1188 2.15 3.1182.516 0 .99-.1276 1.377-.3414l-.001 2.179c-.472.2131-1.117.3413-1.849.3413-1.807 0-3.226-.8543-3.828-2.4782h-.086c-1.591 1.3674-4.171 2.6058-7.053 2.6058-1.807 0-3.613-.4268-4.99-1.4529z"/><path d="m134.342 24.3012v-11.6992h-4.342l.001-2.2362h4.341v-5.93537l2.614-.43043v6.3658h7.044v2.2362h-7.044v11.2688c0 3.1832.486 5.8068 3.943 5.8068 1.151 0 2.259-.3013 3.101-.7741l-.001 2.4085c-.841.3874-2.126.688-3.455.688-1.595 0-3.411-.4298-4.652-1.8065-1.108-1.2469-1.55-3.1395-1.55-5.8923z"/></g><path d="m42.3718 17.8715c.6129.8811.9716 1.9578.9716 3.1288 0 2.9964-2.3209 5.3931-5.3431 5.3931-3.0215 0-5.343-2.3974-5.343-5.3931s2.3215-5.3931 5.3437-5.3931c1.3479 0 2.5542.4798 3.4793 1.2745l3.9278-4.6478c-2.0087-1.4075-4.5562-2.2332-7.4071-2.2339-6.8764 0-12.0003 4.7941-12.001 11.0003 0 6.2063 5.1246 10.9997 12.0003 10.9997 6.8758.0007 11.9997-4.7928 11.9997-10.999 0-2.5786-.886-4.9107-2.4126-6.7592z" fill="#26a4f0"/><path d="m56.8759 6 5.1241-3.863c-.6135-.80515-1.3324-1.523324-2.1413-2.137l-3.8587 4.94588c.3319.30859.6248.66347.8759 1.05412z" fill="#26a4f0"/></g></svg>