<svg fill="none" height="60" viewBox="0 0 60 60" width="60" xmlns="http://www.w3.org/2000/svg"><path d="m37.5541 18.3334-7.5542 7.5541-7.5541-7.5541-4.1125 4.1125 7.5541 7.5541-7.5541 7.5542 4.1125 4.1125 7.5541-7.5542 7.5542 7.5542 4.1125-4.1125-7.5542-7.5542 7.5542-7.5541zm-7.5542-17.500026c-16.1291 0-29.166648 13.037526-29.166648 29.166626 0 16.1292 13.037548 29.1667 29.166648 29.1667 16.1292 0 29.1667-13.0375 29.1667-29.1667 0-16.1291-13.0375-29.166626-29.1667-29.166626zm0 52.500026c-12.8625 0-23.33331-10.4709-23.33331-23.3334s10.47081-23.33329 23.33331-23.33329 23.3334 10.47079 23.3334 23.33329-10.4709 23.3334-23.3334 23.3334z" fill="#ff6363"/></svg>