<svg width="16" height="16" viewBox="0 0 16 16" fill="none" xmlns="http://www.w3.org/2000/svg">
<path d="M8 0C3.588 0 0 3.588 0 8C0 12.412 3.588 16 8 16C12.412 16 16 12.412 16 8C16 3.588 12.412 0 8 0ZM8 14.952C4.168 14.952 1.048 11.832 1.048 8C1.048 4.168 4.168 1.048 8 1.048C11.832 1.048 14.952 4.168 14.952 8C14.952 11.832 11.832 14.952 8 14.952Z" fill="url(#paint0_linear)"/>
<path d="M8 3.65601C6.592 3.65601 5.448 4.80001 5.448 6.20801C5.448 6.49601 5.684 6.73201 5.972 6.73201C6.26 6.73201 6.496 6.49601 6.496 6.20801C6.496 5.38001 7.168 4.70401 8 4.70401C8.828 4.70401 9.504 5.38001 9.504 6.20801C9.504 7.03601 8.832 7.71201 8 7.71201C7.712 7.71201 7.476 7.94801 7.476 8.23601V10.064C7.476 10.352 7.712 10.588 8 10.588C8.288 10.588 8.524 10.352 8.524 10.064V8.70801C9.68 8.46401 10.552 7.44001 10.552 6.21201C10.552 4.80001 9.408 3.65601 8 3.65601Z" fill="url(#paint1_linear)"/>
<path d="M8.00009 10.948C7.63609 10.948 7.34009 11.244 7.34009 11.608C7.34009 11.972 7.63609 12.268 8.00009 12.268C8.36409 12.268 8.66009 11.972 8.66009 11.608C8.66009 11.244 8.36409 10.948 8.00009 10.948Z" fill="url(#paint2_linear)"/>
<defs>
<linearGradient id="paint0_linear" x1="12.2539" y1="16.9331" x2="7.57369" y2="-1.88251" gradientUnits="userSpaceOnUse">
<stop stop-color="#01275D"/>
<stop offset="0.1899" stop-color="#015082"/>
<stop offset="0.4602" stop-color="#0085B2"/>
<stop offset="0.6951" stop-color="#00ABD5"/>
<stop offset="0.8829" stop-color="#00C2EA"/>
<stop offset="1" stop-color="#00CBF2"/>
</linearGradient>
<linearGradient id="paint1_linear" x1="9.357" y1="10.9923" x2="6.73223" y2="3.22276" gradientUnits="userSpaceOnUse">
<stop stop-color="#01275D"/>
<stop offset="0.1899" stop-color="#015082"/>
<stop offset="0.4602" stop-color="#0085B2"/>
<stop offset="0.6951" stop-color="#00ABD5"/>
<stop offset="0.8829" stop-color="#00C2EA"/>
<stop offset="1" stop-color="#00CBF2"/>
</linearGradient>
<linearGradient id="paint2_linear" x1="8.35104" y1="12.345" x2="7.96492" y2="10.7927" gradientUnits="userSpaceOnUse">
<stop stop-color="#01275D"/>
<stop offset="0.1899" stop-color="#015082"/>
<stop offset="0.4602" stop-color="#0085B2"/>
<stop offset="0.6951" stop-color="#00ABD5"/>
<stop offset="0.8829" stop-color="#00C2EA"/>
<stop offset="1" stop-color="#00CBF2"/>
</linearGradient>
</defs>
</svg>
