<svg width="60" height="60" viewBox="0 0 60 60" fill="none" xmlns="http://www.w3.org/2000/svg">
<path d="M43.3875 17.1084L24.1667 36.3292L13.6959 25.8875L9.58337 30L24.1667 44.5834L47.5 21.25L43.3875 17.1084ZM30 0.833374C13.9 0.833374 0.833374 13.9 0.833374 30C0.833374 46.1 13.9 59.1667 30 59.1667C46.1 59.1667 59.1667 46.1 59.1667 30C59.1667 13.9 46.1 0.833374 30 0.833374ZM30 53.3334C17.1084 53.3334 6.66671 42.8917 6.66671 30C6.66671 17.1084 17.1084 6.66671 30 6.66671C42.8917 6.66671 53.3334 17.1084 53.3334 30C53.3334 42.8917 42.8917 53.3334 30 53.3334Z" fill="#4A9852"/>
</svg>
